<?xml version="1.0" encoding="UTF-8" standalone="no"?>
<!-- Generator: Adobe Illustrator 18.1.0, SVG Export Plug-In . SVG Version: 6.00 Build 0)  -->

<svg
   version="1.1"
   id="Layer_1"
   x="0px"
   y="0px"
   viewBox="-362.4 459.1 512 512"
   enable-background="new -362.4 459.1 500 500"
   xml:space="preserve"
   width="128"
   height="128"
   xmlns="http://www.w3.org/2000/svg"
   xmlns:svg="http://www.w3.org/2000/svg"><defs
   id="defs3" />
<radialGradient
   id="SVGID_1_"
   cx="-1002.9117"
   cy="1088.6686"
   r="0.63709998"
   gradientTransform="matrix(545.6736,0,0,-528.3113,547078.62,575746.96)"
   gradientUnits="userSpaceOnUse">
	<stop
   offset="0"
   style="stop-color:#34364E;stop-opacity:0.98"
   id="stop1" />
	<stop
   offset="1"
   style="stop-color:#0C0824"
   id="stop2" />
</radialGradient>
<path
   fill="url(#SVGID_1_)"
   d="m -334.61356,491.20675 h 457.5 v 445 h -457.5 z"
   id="path2"
   style="fill:url(#SVGID_1_)" />
<path
   fill="#31c5f0"
   d="m -334.61356,491.20675 h 457.5 v 445 h -457.5 z m -20.8,465.8 h 499 v -486.6 h -499 z m 336.500003,-286.9 c -16.4,0 -22,8.3 -22,15.2 0,7.5 3.7,12.7 25.8,24.1 32.6,15.8 42.8,31 42.8,53.2 0,33.3 -25.3999998,51.2 -59.7,51.2 -18.1,0 -33.7,-3.7 -42.6,-8.9 -1.5,-0.6 -1.7,-1.7 -1.7,-3.3 v -30.7 c 0,-2.1 1,-2.7 2.5,-1.7 13.1,8.5 28.1,12.3 41.8,12.3 16.4,0 23.3,-6.9 23.3,-16.2 0,-7.5 -4.8,-14.1 -25.8,-25 -29.5,-14.1 -41.8,-28.4 -41.8,-52.4 0,-26.8 21,-49.1 57.4,-49.1 17.9000002,0 30.4,2.7 37.2,5.8 1.7,1 2.1,2.7 2.1,4.2 v 28.5 c 0,1.7 -1,2.7 -3.1,2.1 -9.1999998,-5.8 -22.6999998,-9.3 -36.2,-9.3 z m -178.800003,24.7 c 4.8,0.4 8.5,0.4 16.8,0.4 24.3,0 47.2,-8.5 47.2,-41.6 0,-26.4 -16.4,-39.7 -44.1,-39.7 -8.3,0 -16.2,0.4 -20,0.6 z m -37.1,-110.4 c 0,-1.5 2.9,-2.5 4.6,-2.5 13.3,-0.6 33.1,-1 53.6,-1 57.6,0 80.100003,31.6 80.100003,71.9 0,52.8 -38.300003,75.5 -85.300003,75.5 -7.9,0 -10.6,-0.4 -16.2,-0.4 v 79.8 c 0,1.7 -0.6,2.5 -2.5,2.5 h -31.8 c -1.7,0 -2.5,-0.6 -2.5,-2.5 z"
   id="path3" />
</svg>
