<?xml version="1.0" encoding="UTF-8" standalone="no"?>
<!-- Created with Inkscape (http://www.inkscape.org/) -->

<svg
   version="1.1"
   id="svg1"
   width="128"
   height="128"
   viewBox="0 0 1066.5956 1066.5956"
   sodipodi:docname="ajax-icon.svg"
   inkscape:version="1.4.2 (f4327f4, 2025-05-13)"
   xmlns:inkscape="http://www.inkscape.org/namespaces/inkscape"
   xmlns:sodipodi="http://sodipodi.sourceforge.net/DTD/sodipodi-0.dtd"
   xmlns="http://www.w3.org/2000/svg"
   xmlns:svg="http://www.w3.org/2000/svg">
  <defs
     id="defs1" />
  <sodipodi:namedview
     id="namedview1"
     pagecolor="#ffffff"
     bordercolor="#000000"
     borderopacity="0.25"
     inkscape:showpageshadow="2"
     inkscape:pageopacity="0.0"
     inkscape:pagecheckerboard="0"
     inkscape:deskcolor="#d1d1d1"
     inkscape:zoom="3.6870568"
     inkscape:cx="113.912"
     inkscape:cy="59.26136"
     inkscape:window-width="1920"
     inkscape:window-height="1017"
     inkscape:window-x="-8"
     inkscape:window-y="-8"
     inkscape:window-maximized="1"
     inkscape:current-layer="g1" />
  <g
     inkscape:groupmode="layer"
     inkscape:label="Image"
     id="g1">
    <path
       id="path1"
       style="display:inline;fill:#2887c7;fill-opacity:1"
       d="m 536.89384,12.706579 c -79.93236,-0.25504 -113.12597,-0.03 -119.99798,0.81249 -27.75692,3.40284 -55.04588,14.5709 -78.27994,32.03462 -36.8316,27.68423 -59.88597,68.965611 -64.66297,115.783211 -0.7049,6.90848 -1.05858,78.23228 -1.05858,214.25031 0,162.6838 -0.25046,203.89501 -1.24998,203.89501 -0.68899,0 -19.42022,-15.57727 -41.6243,-34.61661 l -40.37432,-34.62051 -6.23427,6.36708 c -3.43051,3.50184 -18.05887,18.66274 -32.50727,33.69084 l -26.26909,27.32376 3.81635,3.914 3.82024,3.91009 -2.39839,2.55464 -2.3984,2.55074 102.93968,102.94358 102.93967,102.94359 15.01928,-14.78101 c 8.26155,-8.13002 55.18419,-54.28955 104.27169,-102.5764 49.0875,-48.28686 89.2485,-88.06061 89.2485,-88.38523 0,-0.32463 -0.98388,-1.64067 -2.18747,-2.92183 l -2.18746,-2.32808 3.87493,-3.96478 c 2.08043,-2.13055 3.60169,-4.0364 3.44917,-4.30461 -7.2e-4,-9.7e-4 -0.006,-0.005 -0.008,-0.008 v -0.004 l -0.004,-0.004 c -0.23926,-0.19347 -17.0178,-15.34153 -37.28453,-33.6635 l -36.84704,-33.31194 -34.65957,34.64395 c -24.95326,24.94563 -35.28551,34.64786 -36.90173,34.64786 h -2.24215 V 379.14574 c 0,-200.19952 -0.001,-200.33961 2.07809,-206.75043 2.92301,-9.01258 10.02135,-22.03765 16.18723,-29.71044 11.04953,-13.74998 30.3117,-25.90144 48.23357,-30.42917 8.74778,-2.21003 10.35823,-2.2734 57.49903,-2.2734 47.2037,0 48.74354,0.06 57.50294,2.28121 24.8613,6.30439 46.02553,22.87102 57.90913,45.32736 8.2856,15.65734 8.5897,17.31065 8.5897,46.8 0,16.23633 0.3749,26.20304 1,26.58939 0.55,0.33992 1,2.84096 1,5.5585 v 4.94133 h 69.4988 69.4989 v -4.99992 c 0,-2.75 0.4499,-4.99991 0.9999,-4.99991 1.7388,0 1.2839,-65.30776 -0.5429,-77.86979 C 776.3805,85.049819 728.0568,32.828589 658.8957,15.878409 l -11.4998,-2.81636 z M 717.9689,270.05773 693.1842,294.53388 c -13.6331,13.46201 -61.3671,60.43904 -106.07245,104.38887 l -81.27989,79.90882 3.71869,3.80853 3.72259,3.81243 -2.19137,2.32809 c -1.20359,1.28116 -2.18746,2.58295 -2.18746,2.89448 0,0.31153 16.02721,15.08019 35.61268,32.81976 l 35.60878,32.25337 34.14393,-34.13224 c 30.9396,-30.92987 34.4535,-34.13615 37.4174,-34.13615 h 3.2694 l -0.3046,196.7506 -0.3008,196.7506 -2.2578,8.49986 c -8.6024,32.40237 -33.4369,57.05717 -65.68639,65.20987 -8.7317,2.2078 -10.40396,2.2734 -56.00296,2.2734 -39.97836,0 -48.04644,-0.2489 -54.01472,-1.6406 -33.15458,-7.7308 -58.08292,-30.9138 -67.57699,-62.84272 -2.03874,-6.85636 -2.26677,-10.09538 -2.6562,-37.74937 l -0.42578,-30.24949 H 334.3074 262.89454 v 32.2768 c 0,51.57038 4.32769,76.84608 18.09345,105.69358 24.06926,50.43953 73.41043,85.13973 129.90797,91.35773 1.925,0.212 52.7731,0.3307 112.9981,0.2657 l 109.50204,-0.1172 10.8709,-2.2969 c 34.8558,-7.3677 62.4691,-22.6292 86.7447,-47.9327 23.7142,-24.71843 36.6315,-51.56223 43.6594,-90.74853 l 2.6874,-14.99972 0.293,-205.25045 c 0.2744,-193.68478 0.3853,-205.25046 2.0156,-205.25046 0.9502,0 19.706,15.37171 41.679,34.15958 l 39.9524,34.15959 11.0467,-11.48419 c 6.0766,-6.316 20.1498,-20.94274 31.2729,-32.50726 l 20.2263,-21.02699 -2.4375,-2.28903 -2.4335,-2.28511 3.4608,-4.0429 c 1.9033,-2.22355 3.4609,-4.29872 3.4609,-4.61321 0,-0.31449 -46.7837,-47.35599 -103.9631,-104.5334 z" />
  </g>
</svg>
