<?xml version="1.0" encoding="UTF-8" standalone="no"?>
<svg
   width="128"
   height="128"
   viewBox="0 0 82.051282 82.051282"
   version="1.1"
   id="svg2"
   xmlns:xlink="http://www.w3.org/1999/xlink"
   xmlns="http://www.w3.org/2000/svg"
   xmlns:svg="http://www.w3.org/2000/svg"
   xmlns:rdf="http://www.w3.org/1999/02/22-rdf-syntax-ns#"
   xmlns:cc="http://creativecommons.org/ns#"
   xmlns:dc="http://purl.org/dc/elements/1.1/">
  <!-- Generator: Sketch 64 (93537) - https://sketch.com -->
  <title
     id="title1">Icon-Architecture/64/Arch_Amazon-RDS_64</title>
  <desc
     id="desc1">Created with Sketch.</desc>
  <defs
     id="defs2">
    <linearGradient
       x1="0"
       y1="1"
       x2="1"
       y2="0"
       id="linearGradient-1">
      <stop
         stop-color="#2E27AD"
         offset="0%"
         id="stop1" />
      <stop
         stop-color="#527FFF"
         offset="100%"
         id="stop2" />
    </linearGradient>
    <linearGradient
       xlink:href="#linearGradient-1"
       id="linearGradient2"
       x1="0"
       y1="80"
       x2="80"
       y2="0"
       gradientUnits="userSpaceOnUse" />
    <linearGradient
       xlink:href="#linearGradient-1"
       id="linearGradient3"
       x1="0"
       y1="80"
       x2="80"
       y2="0"
       gradientUnits="userSpaceOnUse" />
  </defs>
  <g
     id="Icon-Architecture/64/Arch_Amazon-RDS_64"
     stroke="none"
     stroke-width="1"
     fill="none"
     fill-rule="evenodd"
     transform="translate(1.0837924,1.2644244)">
    <g
       id="Icon-Architecture-BG/64/Database"
       fill="url(#linearGradient-1)"
       style="fill:url(#linearGradient3)">
      <rect
         id="Rectangle"
         x="0"
         y="0"
         width="80"
         height="80"
         style="fill:url(#linearGradient2)" />
    </g>
    <path
       d="m 15.414,14 9.293,9.293 -1.414,1.414 L 14,15.414 V 23 H 12 V 13 c 0,-0.552 0.447,-1 1,-1 h 10 v 2 z M 68,13 V 23 H 66 V 15.414 L 56.707,24.707 55.293,23.293 64.586,14 H 57 v -2 h 10 c 0.553,0 1,0.448 1,1 z m -2,44 h 2 v 10 c 0,0.552 -0.447,1 -1,1 H 57 v -2 h 7.586 L 55.293,56.707 56.707,55.293 66,64.586 Z M 65.5,39.213 c 0,-3.319 -3.832,-6.598 -10.25,-8.771 l 0.641,-1.894 c 7.377,2.497 11.609,6.384 11.609,10.665 0,4.282 -4.232,8.17 -11.61,10.666 L 55.249,47.984 C 61.668,45.812 65.5,42.534 65.5,39.213 Z m -50.944,0 c 0,3.18 3.587,6.372 9.596,8.54 l -0.679,1.881 C 16.535,47.131 12.556,43.333 12.556,39.213 c 0,-4.119 3.979,-7.917 10.917,-10.421 l 0.679,1.881 c -6.009,2.169 -9.596,5.361 -9.596,8.54 z M 24.707,56.707 15.414,66 H 23 v 2 H 13 c -0.553,0 -1,-0.448 -1,-1 V 57 h 2 v 7.586 l 9.293,-9.293 z M 40,31.286 c -7.146,0 -11,-1.846 -11,-2.6 0,-0.755 3.854,-2.6 11,-2.6 7.145,0 11,1.845 11,2.6 0,0.754 -3.855,2.6 -11,2.6 z m 0.029,7.745 C 33.187,39.031 29,37.162 29,36.145 v -4.861 c 2.463,1.359 6.832,2.002 11,2.002 4.168,0 8.537,-0.643 11,-2.002 v 4.861 c 0,1.018 -4.165,2.886 -10.971,2.886 z m 0,7.636 C 33.187,46.667 29,44.798 29,43.781 v -4.919 c 2.431,1.429 6.742,2.169 11.029,2.169 4.263,0 8.549,-0.739 10.971,-2.164 v 4.914 c 0,1.018 -4.165,2.886 -10.971,2.886 z M 40,53.518 c -7.117,0 -11,-1.913 -11,-2.896 v -4.124 c 2.431,1.429 6.742,2.169 11.029,2.169 4.263,0 8.549,-0.738 10.971,-2.164 v 4.119 c 0,0.983 -3.883,2.896 -11,2.896 z m 0,-29.432 c -6.261,0 -13,1.439 -13,4.6 v 21.936 c 0,3.214 6.54,4.896 13,4.896 6.46,0 13,-1.682 13,-4.896 V 28.686 c 0,-3.161 -6.739,-4.6 -13,-4.6 z"
       id="Amazon-RDS_Icon_64_Squid"
       fill="#ffffff" />
  </g>
  <metadata
     id="metadata2">
    <rdf:RDF>
      <cc:Work
         rdf:about="">
        <dc:title>Icon-Architecture/64/Arch_Amazon-RDS_64</dc:title>
      </cc:Work>
    </rdf:RDF>
  </metadata>
</svg>
