<?xml version="1.0" encoding="UTF-8" standalone="no"?>
<svg
   width="128"
   height="128"
   viewBox="0 0 33.684211 33.684211"
   version="1.1"
   id="svg1"
   sodipodi:docname="bash-icon.svg"
   inkscape:version="1.4.2 (f4327f4, 2025-05-13)"
   xmlns:inkscape="http://www.inkscape.org/namespaces/inkscape"
   xmlns:sodipodi="http://sodipodi.sourceforge.net/DTD/sodipodi-0.dtd"
   xmlns="http://www.w3.org/2000/svg"
   xmlns:svg="http://www.w3.org/2000/svg">
  <defs
     id="defs1" />
  <sodipodi:namedview
     id="namedview1"
     pagecolor="#ffffff"
     bordercolor="#000000"
     borderopacity="0.25"
     inkscape:showpageshadow="2"
     inkscape:pageopacity="0.0"
     inkscape:pagecheckerboard="0"
     inkscape:deskcolor="#d1d1d1"
     inkscape:zoom="4.4359902"
     inkscape:cx="64.923498"
     inkscape:cy="49.707053"
     inkscape:window-width="1920"
     inkscape:window-height="1017"
     inkscape:window-x="-8"
     inkscape:window-y="-8"
     inkscape:window-maximized="1"
     inkscape:current-layer="svg1" />
  <path
     d="m 29.12482,7.4198505 -10.105,-5.9979999 a 3.7999999,3.7999999 0 0 0 -3.88,0 L 5.0328206,7.4198505 A 4.0299999,4.0299999 0 0 0 3.0678207,10.89185 v 11.996 a 4.0299999,4.0299999 0 0 0 1.9479999,3.472 l 10.1049994,5.998 a 3.7999999,3.7999999 0 0 0 3.88,0 l 10.107,-5.998 a 4.0299999,4.0299999 0 0 0 1.948,-3.472 v -11.996 a 4.0299999,4.0299999 0 0 0 -1.93,-3.4719995 z m -7.827,18.7319995 v 0.86 c -0.001,0.108 -0.057,0.207 -0.148,0.265 l -0.512,0.293 c -0.08,0.042 -0.148,0 -0.148,-0.113 v -0.847 a 1.66,1.66 0 0 1 -1.164,0.113 c -0.062,-0.042 -0.086,-0.122 -0.056,-0.2 l 0.183,-0.78 c 0.016,-0.066 0.05,-0.125 0.102,-0.17 a 0.18,0.18 0 0 1 0.05,-0.035 0.11,0.11 0 0 1 0.08,0 1.41,1.41 0 0 0 1.059,-0.134 1.41,1.41 0 0 0 0.79,-1.21 c 0,-0.438 -0.24,-0.62 -0.82,-0.625 -0.734,0 -1.4,-0.14 -1.43,-1.224 0.017,-0.937 0.452,-1.817 1.186,-2.4 v -0.872 c -10e-4,-0.1 0.056,-0.2 0.148,-0.268 l 0.494,-0.314 c 0.08,-0.042 0.148,0 0.148,0.116 v 0.872 a 1.61,1.61 0 0 1 0.967,-0.116 c 0.07,0.04 0.098,0.128 0.064,0.2 l -0.173,0.773 c -0.015,0.06 -0.045,0.113 -0.088,0.155 -0.014,0.015 -0.03,0.028 -0.05,0.04 -0.02,0.012 -0.05,0.008 -0.074,0 a 1.28,1.28 0 0 0 -0.931,0.152 1.17,1.17 0 0 0 -0.706,1.037 c 0,0.395 0.208,0.515 0.907,0.53 0.935,0 1.337,0.423 1.348,1.362 -0.018,0.983 -0.467,1.908 -1.228,2.53 z m 5.293,-1.45 c 0.012,0.074 -0.018,0.15 -0.078,0.194 l -2.545,1.552 c -0.024,0.02 -0.06,0.023 -0.087,0.007 -0.027,-0.016 -0.04,-0.05 -0.033,-0.08 v -0.66 c 0.003,-0.072 0.05,-0.136 0.116,-0.162 l 2.516,-1.507 c 0.024,-0.02 0.06,-0.023 0.087,-0.007 0.027,0.016 0.04,0.05 0.033,0.08 v 0.582 z m 1.765,-14.7519996 -9.562,5.9059996 c -1.193,0.706 -2.07,1.478 -2.07,2.914 v 11.778 c 0,0.86 0.353,1.4 0.882,1.58 a 3.14,3.14 0 0 1 -0.53,0.053 3.13,3.13 0 0 1 -1.595,-0.441 l -10.1049994,-5.997 c -1.008,-0.603 -1.606,-1.688 -1.602,-2.853 v -11.998 c -0.006,-1.1679996 0.594,-2.2519995 1.602,-2.8579995 L 15.48082,2.0358506 c 0.98,-0.58 2.196,-0.58 3.176,0 l 10.105,5.9979999 c 0.833,0.504 1.4,1.35 1.552,2.2999995 -0.328,-0.7129996 -1.083,-0.8999995 -1.962,-0.3949996 h 0.003 z"
     fill="#1b1b1f"
     fill-rule="evenodd"
     id="path1" />
</svg>
