<?xml version="1.0" encoding="UTF-8" standalone="no"?>
<!-- Created with Inkscape (http://www.inkscape.org/) -->

<svg
   version="1.1"
   id="svg1"
   width="128"
   height="128"
   viewBox="0 0 412.90323 412.90323"
   sodipodi:docname="bellevue-icon.svg"
   inkscape:version="1.4.2 (f4327f4, 2025-05-13)"
   xmlns:inkscape="http://www.inkscape.org/namespaces/inkscape"
   xmlns:sodipodi="http://sodipodi.sourceforge.net/DTD/sodipodi-0.dtd"
   xmlns="http://www.w3.org/2000/svg"
   xmlns:svg="http://www.w3.org/2000/svg">
  <sodipodi:namedview
     id="namedview1"
     pagecolor="#ffffff"
     bordercolor="#000000"
     borderopacity="0.25"
     inkscape:showpageshadow="2"
     inkscape:pageopacity="0.0"
     inkscape:pagecheckerboard="0"
     inkscape:deskcolor="#d1d1d1"
     inkscape:zoom="3.7853783"
     inkscape:cx="55.212447"
     inkscape:cy="44.777559"
     inkscape:window-width="1920"
     inkscape:window-height="1017"
     inkscape:window-x="-8"
     inkscape:window-y="-8"
     inkscape:window-maximized="1"
     inkscape:current-layer="svg1" />
  <defs
     id="defs1" />
  <g
     id="g1"
     style="display:inline;fill:#4f3775;fill-opacity:1"
     transform="translate(-0.85217545,17.895684)">
    <path
       id="path1"
       style="display:inline;fill:#d0a427;fill-opacity:1"
       d="m 70.886719,66.839844 -1.19336,2.25 -1.193359,2.25 0.273438,27.451176 0.27539,27.45117 5.5,3.16992 c 6.371963,3.67181 25.833772,14.48462 48.000002,26.66797 8.525,4.68565 16.41631,9.35988 17.53515,10.38867 l 2.03321,1.87109 1.75,13.5 c 3.27527,25.25752 4.81205,37.47623 7.22656,57.5 1.3264,11 3.55842,29 4.96094,40 1.40251,11 3.44478,27.2 4.53711,36 4.22057,34.00151 5.70325,44.57825 6.33984,45.21485 0.36315,0.36314 6.16291,1.42573 12.88867,2.35937 l 12.22852,1.69727 -68.47071,0.0879 h 72.47071 l 0.25781,-110.77149 0.25977,-110.91211 -0.89063,-2.34179 -0.89062,-2.3418 -50.36719,-30.23047 C 116.71539,91.47457 89.99883,75.400225 85.04883,72.380869 l -9.000002,-5.490234 -2.580078,-0.02539 z m 268.880861,0 -18.85938,11.378906 c -10.37258,6.25797 -26.05937,15.76568 -34.85937,21.12891 -8.8,5.36323 -20.95,12.67686 -27,16.2539 -6.05,3.57703 -12.35,7.36359 -14,8.41406 -1.65,1.05047 -7.95,4.94301 -14,8.6504 l -11,6.74218 -0.25391,112.71485 -0.2539,112.57617 h 181.08593 v -0.0781 l -178.57812,-0.0273 6.5,-0.85352 c 3.575,-0.46924 9.65573,-1.36 13.51367,-1.97851 l 7.01562,-1.125 1.83399,-14.64844 c 1.0086,-8.05686 2.64524,-21.17344 3.63672,-29.14844 4.24171,-34.11821 5.14378,-41.27653 7,-55.5 1.07665,-8.25 3.32354,-26.25 4.99219,-40 1.66866,-13.75 3.91613,-31.48933 4.99414,-39.42187 l 1.95898,-14.42383 0.77734,-0.76953 c 0.42747,-0.4233 7.75235,-4.58437 16.27735,-9.24609 8.525,-4.66173 24.27345,-13.37234 34.99609,-19.35743 l 19.49414,-10.88086 1.25586,-2.45117 1.25391,-2.44922 -0.0606,-25.81054 -0.0605,-25.81055 -1.93945,-1.939453 -1.93945,-1.939453 h -1.89063 z m -318.718752,64.757816 -2.75,1.03515 -2.679687,1.00586 v 55.01563 l 1.230468,1.01953 c 0.715006,0.59341 14.777506,8.55856 31.25,17.70117 16.472493,9.1426 30.785516,17.43499 31.806641,18.42773 l 1.855469,1.80665 21.144531,63.28906 21.14258,63.28906 6,1.28906 c 3.3,0.70849 7.9125,1.59037 10.25,1.96094 l 4.25,0.67383 v -2.10352 c 0,-1.15678 -1.12858,-9.20427 -2.50781,-17.88476 -3.52924,-22.21189 -6.95971,-44.44487 -10.53516,-68.28321 -1.6911,-11.275 -3.89927,-25.675 -4.9082,-32 -1.00893,-6.325 -3.06106,-19.825 -4.5586,-30 -1.49755,-10.175 -3.15216,-19.68268 -3.67773,-21.1289 l -0.95508,-2.63086 -10.17969,-5.54102 c -5.59823,-3.04793 -27.277732,-14.85733 -48.177732,-26.24218 z m 374.910152,0.24218 c -1.73018,0 -8.22199,3.18336 -21.41015,10.5 -10.62603,5.89519 -49.19234,26.90287 -61.5,33.5 -4.4,2.35848 -9.78542,5.4685 -11.9668,6.91016 l -3.96484,2.62109 -0.69727,3.48438 c -0.68622,3.43165 -1.85772,10.92209 -7.89258,50.48437 -1.67795,11 -3.94318,25.625 -5.03515,32.5 -1.09198,6.875 -2.61457,16.775 -3.38281,22 -1.53065,10.41004 -5.54515,36.78011 -7.99219,52.5 -0.85616,5.5 -1.5595,10.3375 -1.5625,10.75 l -0.006,0.75 h 2.10742 c 2.49207,0 15.81707,-2.88986 17.70508,-3.83984 l 1.31055,-0.66016 20.95507,-63 20.95313,-63 2.44336,-2 c 1.34435,-1.1 4.59983,-3.17062 7.23437,-4.60156 2.63455,-1.43094 15.81602,-8.74317 29.29102,-16.25 l 24.5,-13.64844 1.75,-2.11132 1.75,-2.10938 v -25.16797 -25.16601 l -1.55664,-2.22266 -1.55664,-2.22266 z M 13.548828,364.6582 v 0.041 h 2 v -0.041 z" />
    <path
       id="path4"
       style="display:inline;fill:#4f3775;fill-opacity:1"
       d="m 122.73828,14.839844 v 0.0039 H 291.75 v -0.0039 z m 84.86044,-0.362973 -7.0577,3.69891 c -2.47062,1.285025 -10.11719,5.279795 -16.99219,8.876953 -6.875,3.597158 -19.7,10.26881 -28.5,14.826172 -8.8,4.557363 -19.14775,9.972895 -22.99414,12.035156 l -6.99219,3.75 -4.07345,2.515969 -0.93566,0.659813 0.96116,0.711437 4.22959,2.788563 8.40234,5.085937 c 4.62142,2.796822 16.27735,9.727827 25.90235,15.402344 9.625,5.674515 18.625,11.069335 20,11.990235 1.375,0.9209 5.65,3.40731 9.5,5.52539 3.85,2.11809 8.8,5.05009 11,6.51563 2.2,1.46549 6.21656,3.72922 7.5221,4.05721 l 0.25368,0.24215 6.41172,-3.62944 c 18.68201,-10.95027 58.86107,-35.149676 61.3125,-36.605472 7.02445,-4.1715 12.28043,-6.761823 20.35316,-12.413565 l -2.08754,-1.297372 -3.20703,-1.873047 -15.7793,-8.128906 C 266.14927,44.73959 250.07651,36.468254 239.11133,30.832031 228.14615,25.195805 217.16712,19.517821 214.71289,18.212891 l -4.45508,-2.369141 z" />
  </g>
</svg>
