<?xml version="1.0" encoding="UTF-8" standalone="no"?>
<!-- Created with Inkscape (http://www.inkscape.org/) -->

<svg
   version="1.1"
   id="svg1"
   width="128"
   height="128"
   viewBox="0 0 492.30769 492.30769"
   xmlns="http://www.w3.org/2000/svg"
   xmlns:svg="http://www.w3.org/2000/svg">
  <defs
     id="defs1" />
  <g
     id="g1">
    <path
       id="path8"
       style="display:inline;fill:#4ac3ed;fill-opacity:1"
       d="M 383.34616,395.47266 214.09615,395.73633 44.846154,396 l -6.720703,3.37305 c -10.721937,5.3809 -19.12455,15.61199 -21.833985,26.57226 0.04919,1.03552 0.004,14.56706 0.05859,14.92383 2.622888,17.132 15.724051,30.77574 32.181641,33.51367 2.923449,0.48635 79.451953,0.9357 170.064453,1 L 383.34616,475.5 Z" />
    <path
       id="path14"
       style="display:inline;fill:#454a6d;fill-opacity:1"
       d="m 383.34616,27.5 -162.75001,0.0332 c -89.5125,0.018 -165.836638,0.429864 -169.609371,0.916019 C 32.617088,30.81634 18.657753,44.839438 16.273888,63.320312 15.800033,66.993865 15.412667,150.325 15.414513,248.5 c 0.0033,175.26493 0.03734,178.40556 1.865235,173.32812 3.736839,-10.37999 10.657835,-17.97158 21.066406,-23.11132 l 5.5,-2.7168 169.749996,-0.26172 169.75001,-0.26172 v -28.79687 h 0.004 V 99.748051 h -0.004 V 67.253906 Z" />
    <path
       id="path1"
       style="display:inline;fill:#33385c;fill-opacity:1"
       d="m 127.34615,251.5 v 8 8 h 60 60.00001 v -8 -8 h -60.00001 z m 0,40 v 8 8 h 52 52 v -8 -8 h -52 z m 0,40 v 8 8 h 40 40 v -8 -8 h -40 z" />
    <path
       id="path5"
       style="display:inline;fill:#4ac3ed;fill-opacity:1"
       d="m 479.34616,12.007812 -48,47.992188 -48,47.99219 v 0.0137 l -56,55.99411 -56,55.99414 v 30 30 l 69.25586,-69.25 69.25781,-69.25195 5.74805,5.74609 5.74609,5.74805 -69.25195,69.25781 -69.25,69.25586 h 29.98828 29.98828 l 20.25781,-20.24023 20.25977,-20.24219 v 0.0976 l 25.31055,-25.55664 C 422.57706,211.5019 436.01396,197.3 438.51804,194 c 22.88164,-30.15461 36.36775,-64.70775 39.81054,-101.999999 0.55854,-6.05 1.01712,-26.523243 1.01758,-45.496095 z M 43.721154,28.533203 38.144982,31.173828 C 29.754715,35.148634 23.266491,41.567449 19.213342,49.896484 23.189794,42.33576 30.667469,34.959907 38.234826,31.234375 Z m -27.875,393.636717 V 446 l 2.679688,5.71875 c 2.914237,6.2177 10.150905,14.58623 15.4375,17.85352 1.831503,1.13194 5.70341,2.91274 8.605468,3.95703 0.06755,0.0243 2.222883,0.002 2.291016,0.0254 -14.703043,-4.0182 -26.08557,-16.85136 -28.509766,-32.68556 -0.206425,-1.34831 -0.374437,-7.51933 -0.503906,-18.69922 z m 180.966796,53.08399 c 14.11917,0.007 1.1755,0.20715 18.7832,0.21093 L 383.34616,475.5 218.59615,475.38281 c -11.60637,-0.008 -10.76403,-0.10873 -21.7832,-0.1289 z" />
    <path
       id="path9"
       style="display:inline;fill:#4ac3ed;fill-opacity:1"
       d="m 199.30513,98.974611 a 24.684454,24.684454 0 0 0 -10.1914,2.246089 c -0.12699,0.0629 -0.26244,0.12187 -0.39063,0.19141 a 24.684454,24.684454 0 0 0 -14.10351,22.24609 24.684454,24.684454 0 0 0 17.46875,23.60742 48.187069,48.187069 0 0 0 -40.56055,41.5254 48.187069,48.187069 0 0 0 -0.006,0.0351 l -0.75195,3.68555 a 71.968155,71.968155 0 0 0 1.07617,0.94336 c 0.44557,0.34453 0.71371,0.56492 1.47266,1.16601 16.2593,12.8776 41.25171,19.24084 63,14.28125 7.89943,-1.80143 18.21073,-6.87708 25.7168,-11.48046 a 71.968155,71.968155 0 0 0 0.004,-0.002 l 1.76172,-1.20312 a 71.968155,71.968155 0 0 0 0.006,-0.004 71.968155,71.968155 0 0 0 4.15039,-3.52148 l -0.91992,-4.51563 -0.36914,-1.8164 c -0.0253,-0.12404 -0.0695,-0.24151 -0.0957,-0.36524 a 48.187069,48.187069 0 0 0 -39.42774,-38.63672 c -0.0905,-0.0805 -0.15408,-0.15599 -0.19141,-0.22851 a 24.684454,24.684454 0 0 0 17.03506,-23.47053 24.684454,24.684454 0 0 0 -14.17188,-22.33398 c -0.45944,-0.24127 -0.90949,-0.43764 -1.38476,-0.59961 a 24.684454,24.684454 0 0 0 -9.12696,-1.749999 z" />
    <path
       id="path13"
       style="display:inline;fill:#33385c;fill-opacity:1"
       d="m 202.41842,67.882812 c -7.1271,-0.329176 -14.25961,0.351552 -20.99805,2.097657 -22.79834,5.907644 -42.06496,23.541352 -49.69531,45.482421 -8.71024,25.0463 -3.27938,52.47338 14.2539,71.97461 l 4.75,5.28125 0.79297,-3.89258 a 48.187069,48.187069 0 0 1 0.006,-0.0351 48.187069,48.187069 0 0 1 40.56055,-41.5254 24.684454,24.684454 0 0 1 -17.46875,-23.60742 24.684454,24.684454 0 0 1 14.10351,-22.24609 c 0.12819,-0.0695 0.26364,-0.12854 0.39063,-0.19141 a 24.684454,24.684454 0 0 1 10.1914,-2.246089 24.684454,24.684454 0 0 1 9.12696,1.749999 c 0.47527,0.16197 0.92532,0.35834 1.38476,0.59961 a 24.684454,24.684454 0 0 1 14.17188,22.33398 24.684454,24.684454 0 0 1 -17.03516,23.47071 c 0.0373,0.0725 0.10095,0.14804 0.19141,0.22851 a 48.187069,48.187069 0 0 1 39.42774,38.63672 c 0.0262,0.12373 0.0704,0.24121 0.0957,0.36524 l 0.36914,1.8164 0.92578,4.54297 4.75,-5.28125 c 20.91734,-23.26511 24.29969,-57.23481 8.4082,-84.4375 -4.83446,-8.275509 -17.00035,-20.606202 -24.98242,-25.320312 -9.98055,-5.894385 -21.84221,-9.248245 -33.72071,-9.796876 z" />
    <path
       style="display:inline;fill:#e89d43;fill-opacity:1;stroke:none;stroke-width:1.48;stroke-linecap:round;stroke-linejoin:bevel;stroke-miterlimit:4.1;paint-order:markers fill stroke"
       d="m 229.29876,346.52995 -46.47014,15.9354 226.56051,-221.19972 11.95898,11.7246 z"
       id="path15" />
  </g>
</svg>
