<?xml version="1.0" encoding="UTF-8" standalone="no"?>
<svg
   height="128"
   width="128"
   id="svg4594"
   version="1.1"
   y="0px"
   x="0px"
   viewBox="0 0 128 128"
   data-name="Layer 1"
   xmlns="http://www.w3.org/2000/svg"
   xmlns:svg="http://www.w3.org/2000/svg"
   xmlns:rdf="http://www.w3.org/1999/02/22-rdf-syntax-ns#"
   xmlns:cc="http://creativecommons.org/ns#"
   xmlns:dc="http://purl.org/dc/elements/1.1/">
  <metadata
     id="metadata4600">
    <rdf:RDF>
      <cc:Work
         rdf:about="">
        <dc:format>image/svg+xml</dc:format>
        <dc:type
           rdf:resource="http://purl.org/dc/dcmitype/StillImage" />
        <dc:title>Miscellaneous 38 final</dc:title>
      </cc:Work>
    </rdf:RDF>
  </metadata>
  <defs
     id="defs4598" />
  <title
     id="title4580">Miscellaneous 38 final</title>
  <path
     id="path4582"
     d="m 118.93376,33.29379 a 7.7910224,7.7910224 0 0 0 -7.47938,5.677707 h -9.07655 a 1.9477556,1.9477556 0 0 0 -1.37316,0.574588 L 87.935229,52.605786 H 71.213748 a 1.9477556,1.9477556 0 0 0 -1.947756,1.947756 V 73.05722 H 50.762314 v -26.2947 h 31.16409 a 1.9477556,1.9477556 0 0 0 1.421861,-0.613544 L 96.982554,31.647936 A 1.9477556,1.9477556 0 0 0 95.560692,28.365968 H 53.216486 a 1.9477556,1.9477556 0 0 0 -1.392645,0.584326 L 38.257723,42.867008 H 17.455694 A 7.7910224,7.7910224 0 0 0 9.8594463,36.731578 7.8591938,7.8591938 0 1 0 17.338828,46.76252 H 39.07578 a 1.9477556,1.9477556 0 0 0 1.392645,-0.584327 L 54.034543,32.261479 h 37.007356 l -9.95303,10.605529 H 48.814558 a 1.9477556,1.9477556 0 0 0 -1.947755,1.947756 V 60.396808 H 29.083794 a 7.8591938,7.8591938 0 1 0 0,3.895512 h 17.783009 v 10.712656 a 1.9477556,1.9477556 0 0 0 1.947755,1.947755 h 20.451434 v 10.712656 a 1.9477556,1.9477556 0 0 0 1.947756,1.947756 h 18.610804 l 5.25894,5.843266 H 55.427189 L 42.34801,83.312153 A 1.9477556,1.9477556 0 0 0 41.023536,82.795998 H 17.338828 a 7.8591938,7.8591938 0 1 0 0.116866,3.895511 h 22.798478 l 13.079179,12.144256 a 1.9477556,1.9477556 0 0 0 1.324474,0.516156 h 44.798379 a 1.9477556,1.9477556 0 0 0 1.451076,-3.252752 L 92.142381,86.36039 A 1.9477556,1.9477556 0 0 0 90.691304,85.717631 H 73.161503 V 56.501298 H 88.743548 A 1.9477556,1.9477556 0 0 0 90.116716,55.92671 L 103.18616,42.867008 h 8.15135 a 7.7910224,7.7910224 0 1 0 7.59625,-9.573218 z M 9.8594463,48.544716 A 3.9636826,3.9636826 0 1 1 13.754958,44.581034 3.8955112,3.8955112 0 0 1 9.8594463,48.544716 Z M 21.54598,66.308247 a 3.9636826,3.9636826 0 1 1 3.895511,-3.963682 3.8955112,3.8955112 0 0 1 -3.895511,3.963682 z M 9.8594463,88.931428 A 3.9636826,3.9636826 0 1 1 13.754958,84.967746 3.8955112,3.8955112 0 0 1 9.8594463,88.931428 Z M 118.93376,45.106927 a 3.9636826,3.9636826 0 1 1 3.89551,-3.963682 3.8955112,3.8955112 0 0 1 -3.89551,3.963682 z"
     style="fill:#d45500;stroke-width:0.973878" />
  <path
     id="path4584"
     d="m 89.717426,66.240076 a 1.9477557,1.9477557 0 0 0 0,-3.895511 h -9.738778 a 1.9477556,1.9477556 0 0 0 -1.947756,1.947755 v 13.634289 a 1.9477556,1.9477556 0 0 0 1.947756,1.947756 h 14.695816 l 6.232816,7.128786 a 1.9477556,1.9477556 0 0 0 1.47055,0.662236 h 7.12879 a 7.8591938,7.8591938 0 1 0 -0.10712,-3.895511 h -6.1257 L 97.040987,76.64109 A 1.9477556,1.9477556 0 0 0 95.560692,75.978853 H 81.926404 v -9.738777 z m 27.268584,15.299619 a 3.9636826,3.9636826 0 1 1 -3.89552,3.963684 3.8955112,3.8955112 0 0 1 3.89552,-3.963684 z"
     style="fill:#d45500;stroke-width:0.973878" />
  <path
     id="path4586"
     d="M 124.77702,18.520063 H 50.762314 a 1.9477556,1.9477556 0 0 0 -1.334213,0.525894 L 34.410905,33.12823 H 26.240071 L 19.987775,26.963584 A 1.9477556,1.9477556 0 0 0 18.624346,26.398735 H 4.0161796 a 1.9477557,1.9477557 0 0 0 0,3.895511 H 17.825767 l 6.252295,6.164647 a 1.9477556,1.9477556 0 0 0 1.363429,0.564849 h 9.738778 a 1.9477556,1.9477556 0 0 0 1.334212,-0.525894 L 51.531677,22.415575 h 73.245343 a 1.947756,1.947756 0 0 0 0,-3.895512 z"
     style="fill:#d45500;stroke-width:0.973878" />
  <path
     id="path4588"
     d="M 124.77702,106.16906 H 51.531677 L 36.514481,92.086793 a 1.9477556,1.9477556 0 0 0 -1.334212,-0.525895 h -9.738778 a 1.9477556,1.9477556 0 0 0 -1.373168,0.56485 l -6.252295,6.164646 H 4.0161796 a 1.9477556,1.9477556 0 0 0 0,3.895506 H 18.624346 a 1.9477556,1.9477556 0 0 0 1.373168,-0.56485 l 6.242557,-6.164641 h 8.170834 l 15.017196,14.082271 a 1.9477556,1.9477556 0 0 0 1.334213,0.5259 h 74.014706 a 1.94776,1.94776 0 0 0 0,-3.89552 z"
     style="fill:#d45500;stroke-width:0.973878" />
</svg>
