<?xml version="1.0" encoding="UTF-8" standalone="no"?>
<svg
   id="Layer_1"
   data-name="Layer 1"
   viewBox="144.9 152.34 170.66667 170.66667"
   version="1.1"
   sodipodi:docname="coursera-icon.svg"
   width="128"
   height="128"
   inkscape:version="1.4.2 (f4327f4, 2025-05-13)"
   xmlns:inkscape="http://www.inkscape.org/namespaces/inkscape"
   xmlns:sodipodi="http://sodipodi.sourceforge.net/DTD/sodipodi-0.dtd"
   xmlns="http://www.w3.org/2000/svg"
   xmlns:svg="http://www.w3.org/2000/svg">
  <sodipodi:namedview
     id="namedview9"
     pagecolor="#ffffff"
     bordercolor="#000000"
     borderopacity="0.25"
     inkscape:showpageshadow="2"
     inkscape:pageopacity="0.0"
     inkscape:pagecheckerboard="0"
     inkscape:deskcolor="#d1d1d1"
     inkscape:zoom="1.5347992"
     inkscape:cx="299.06192"
     inkscape:cy="194.48798"
     inkscape:window-width="1920"
     inkscape:window-height="1017"
     inkscape:window-x="-8"
     inkscape:window-y="-8"
     inkscape:window-maximized="1"
     inkscape:current-layer="g9" />
  <defs
     id="defs1">
    <style
       id="style1">
      .cls-1 {
        fill: #2668b8;
      }

      .cls-2 {
        fill: #0056d2;
      }
    </style>
  </defs>
  <g
     id="g9">
    <path
       id="path9"
       style="display:inline"
       class="cls-2"
       d="m 236.00157,155.99249 c -45.8,0 -82.42969,35.99078 -82.42969,80.80078 0,44.12 36.63016,80.79976 82.41016,80.75976 a 82.939998,82.939998 0 0 0 70.33008,-38.27929 l -34,-20.28125 a 42.459999,42.459999 0 0 1 -36.31055,20 c -23.55,0 -42.84961,-19.62922 -42.84961,-42.19922 0,-22.57 19.29961,-42.20118 42.84961,-42.20118 a 42.939999,42.939999 0 0 1 35.33008,18.32032 l 34.33984,-19.91992 a 82.999998,82.999998 0 0 0 -69.66992,-37 z" />
  </g>
</svg>
