<?xml version="1.0" encoding="UTF-8" standalone="no"?>
<!-- Created with Inkscape (http://www.inkscape.org/) -->

<svg
   width="128"
   height="128"
   viewBox="0 0 65.979381 65.979381"
   id="svg3476"
   version="1.1"
   xmlns="http://www.w3.org/2000/svg"
   xmlns:svg="http://www.w3.org/2000/svg"
   xmlns:rdf="http://www.w3.org/1999/02/22-rdf-syntax-ns#"
   xmlns:cc="http://creativecommons.org/ns#"
   xmlns:dc="http://purl.org/dc/elements/1.1/">
  <defs
     id="defs3478" />
  <metadata
     id="metadata3481">
    <rdf:RDF>
      <cc:Work
         rdf:about="">
        <dc:format>image/svg+xml</dc:format>
        <dc:type
           rdf:resource="http://purl.org/dc/dcmitype/StillImage" />
      </cc:Work>
    </rdf:RDF>
  </metadata>
  <g
     id="layer1"
     transform="translate(-193.633,-739.48031)">
    <path
       id="polygon2989"
       style="display:inline;fill:#264de4"
       d="M 74.630929 100.61986 L 107.641 470.87527 L 255.77539 512.00038 L 404.32394 470.81703 L 437.36636 100.61986 L 74.630929 100.61986 z M 142.13299 176.30818 L 255.8401 176.30818 L 256.00188 176.30818 L 369.59897 176.30818 L 361.39984 268.22005 L 360.29325 280.41198 L 349.62209 399.96277 L 348.93613 407.63126 L 256.00188 433.38703 L 256.00188 433.39998 L 255.78833 433.45822 L 162.76995 407.63126 L 156.40867 336.33048 L 177.42096 336.33048 L 201.99246 336.33048 L 205.22811 372.55035 L 255.80127 386.20479 L 255.8401 386.19185 L 306.49092 372.51799 L 311.75855 313.62916 L 256.00188 313.62916 L 255.8401 313.62916 L 154.38315 313.62916 L 150.31271 268.22005 L 255.8401 268.22005 L 256.00188 268.22005 L 315.69957 268.22005 L 319.82825 221.71729 L 256.00188 221.71729 L 255.8401 221.71729 L 146.26168 221.71729 L 142.13299 176.30818 z "
       transform="matrix(0.15557406,0,0,0.15557392,187.28674,725.08192)" />
    <polygon
       style="display:inline;fill:#ebebeb;fill-opacity:0.15141957"
       points="256,176.305 255.843,176.305 142.132,176.305 146.26,221.716 256,221.716 "
       id="polygon2995"
       transform="matrix(0.15557406,0,0,0.15557392,187.28674,725.08192)" />
    <polygon
       style="display:inline;fill:#ebebeb;fill-opacity:0.15141957"
       points="256,268.217 150.31,268.217 154.38,313.627 256,313.627 "
       id="polygon2993"
       transform="matrix(0.15557406,0,0,0.15557392,187.28674,725.08192)" />
    <polygon
       style="display:inline;fill:#ebebeb;fill-opacity:0.15141957"
       points="177.419,336.333 156.409,336.333 162.771,407.634 255.791,433.457 256,433.399 256,386.153 255.801,386.206 205.227,372.55 201.994,336.333 "
       id="polygon2997"
       transform="matrix(0.15557406,0,0,0.15557392,187.28674,725.08192)" />
  </g>
</svg>
