<?xml version="1.0" encoding="UTF-8" standalone="no"?>
<!-- Uploaded to: SVG Repo, www.svgrepo.com, Generator: SVG Repo Mixer Tools -->

<svg
   fill="#000000"
   version="1.1"
   id="Capa_1"
   width="128"
   height="128"
   viewBox="0 0 581.81818 581.81818"
   xml:space="preserve"
   xmlns="http://www.w3.org/2000/svg"
   xmlns:svg="http://www.w3.org/2000/svg"><defs
   id="defs1" />
<g
   id="g1">
	<path
   d="m 509.17169,211.92274 h -13.164 v -63.531 c 0,-0.399 -0.064,-0.795 -0.116,-1.2 -0.021,-2.52 -0.824,-5 -2.551,-6.96 L 387.62769,19.478736 c -0.031,-0.034 -0.064,-0.044 -0.085,-0.075 -0.629,-0.707 -1.364,-1.292 -2.141,-1.796 -0.231,-0.157 -0.462,-0.286 -0.704,-0.419 -0.672,-0.365 -1.386,-0.672 -2.121,-0.893 -0.199,-0.052 -0.377,-0.134 -0.576,-0.188 -0.8,-0.188 -1.629,-0.306 -2.467,-0.306 h -259.805 c -11.864,0 -21.501004,9.648999 -21.501004,21.501999 V 211.91674 h -13.163 c -16.972,0 -30.733,13.756 -30.733,30.73 v 159.81 c 0,16.966 13.761,30.736 30.733,30.736 h 13.163 v 109.399 c 0,11.854 9.637004,21.501 21.501004,21.501 h 354.777 c 11.853,0 21.502,-9.647 21.502,-21.501 v -109.398 h 13.164 c 16.966,0 30.729,-13.764 30.729,-30.731 v -159.81 c 10e-4,-16.979 -13.763,-30.73 -30.729,-30.73 z M 119.72869,37.303735 h 249.053 V 147.30974 c 0,5.94 4.818,10.751 10.751,10.751 h 94.973 v 53.861 h -354.777 z m 161.861,291.678005 c -26.68,-9.291 -44.063,-24.053 -44.063,-47.389 0,-27.404 22.861,-48.368 60.733,-48.368 18.107,0 31.447,3.811 40.968,8.107 l -8.09,29.3 c -6.43,-3.107 -17.862,-7.632 -33.59,-7.632 -15.717,0 -23.339,7.149 -23.339,15.485 0,10.247 9.047,14.769 29.78,22.632 28.341,10.479 41.681,25.239 41.681,47.874 0,26.909 -20.721,49.786 -64.792,49.786 -18.338,0 -36.449,-4.776 -45.497,-9.77 l 7.38,-30.016 c 9.772,5.014 24.775,10.006 40.264,10.006 16.671,0 25.488,-6.908 25.488,-17.396 -0.005,-10.01 -7.632,-15.721 -26.923,-22.619 z m -189.144004,-10.488 c 0,-54.781 39.074004,-85.269 87.654004,-85.269 18.822,0 33.113,3.811 39.549,7.149 l -7.392,28.816 c -7.38,-3.084 -17.632,-5.939 -30.491,-5.939 -28.822,0 -51.206,17.375 -51.206,53.099 0,32.158 19.051,52.4 51.456,52.4 10.947,0 23.097,-2.378 30.241,-5.238 l 5.483,28.346 c -6.672,3.34 -21.674,6.919 -41.208,6.919 -55.5,10e-4 -84.086004,-34.551 -84.086004,-80.283 z m 382.060004,218.27 h -354.777 v -103.57 h 354.777 z m -24.016,-140.379 h -42.399 l -51.45,-160.536 h 39.787 l 19.526,67.894 c 5.479,19.046 10.479,37.386 14.299,57.397 h 0.709 c 4.048,-19.298 9.045,-38.352 14.526,-56.693 l 20.487,-68.598 h 38.599 z"
   id="path1"
   style="stroke:#000000;stroke-opacity:1;stroke-width:7.81818182;stroke-dasharray:none;fill:#ffffff;fill-opacity:1" />
</g>
</svg>
