<?xml version="1.0" encoding="UTF-8" standalone="no"?>
<svg
   id="Layer_1"
   data-name="Layer 1"
   viewBox="0 0 711.11111 711.11111"
   version="1.1"
   width="128"
   height="128"
   xmlns="http://www.w3.org/2000/svg"
   xmlns:svg="http://www.w3.org/2000/svg">
  <defs
     id="defs1">
    <style
       id="style1">
      .cls-1 {
        fill: #1d63ed;
        stroke-width: 0px;
      }
    </style>
  </defs>
  <path
     class="cls-1"
     d="m 684.63184,308.93494 c -16.49,-11.1 -59.81,-15.84 -91.3,-7.35 -1.69,-31.37 -17.88,-57.81 -47.47,-80.88 l -10.95,-7.35 -7.3,11.03 c -14.35,21.78 -20.4,50.81 -18.26,77.2 1.69,16.26 7.34,34.53 18.26,47.79 -40.99,23.78 -78.78,18.38 -246.12,18.38 H 23.131843 c -0.75,37.79 5.32,110.47 51.54,169.64 5.11,6.54 10.7,12.86 16.78,18.95 37.579997,37.63 94.359997,65.23 179.259997,65.3 129.53,0.12 240.5,-69.9 308.01,-239.18 22.21,0.36 80.85,3.98 109.55,-51.47 0.7,-0.93 7.3,-14.7 7.3,-14.7 l -10.94,-7.35 z m -492.89,-34.55 h -72.65 v 72.65 h 72.65 z m 93.85,0 h -72.65 v 72.65 h 72.65 z m 93.86,0 h -72.65 v 72.65 h 72.65 z m 93.86,0 h -72.65 v 72.65 h 72.65 z m -375.429997,0 h -72.65 v 72.65 h 72.65 z m 93.859997,-91.76 h -72.65 v 72.65 h 72.65 z m 93.85,0 h -72.65 v 72.65 h 72.65 z m 93.86,0 h -72.65 v 72.65 h 72.65 z m 0,-91.770003 h -72.65 v 72.650003 h 72.65 z"
     id="path1"
     style="display:inline" />
  <g
     id="g8" />
</svg>
