<?xml version="1.0" encoding="UTF-8" standalone="no"?>
<svg
   height="128"
   preserveAspectRatio="xMidYMid"
   width="128"
   viewBox="-10.630856 -31.882727 266.59724 266.59724"
   version="1.1"
   id="svg89"
   xmlns="http://www.w3.org/2000/svg"
   xmlns:svg="http://www.w3.org/2000/svg">
  <defs
     id="defs89" />
  <linearGradient
     id="a"
     x1="148.63454"
     x2="148.63454"
     y1="1.1252341"
     y2="91.960876"
     gradientTransform="scale(0.74882749,1.3354211)"
     gradientUnits="userSpaceOnUse">
    <stop
       offset="0"
       stop-color="#0994dc"
       id="stop1" />
    <stop
       offset=".35"
       stop-color="#66cef5"
       id="stop2" />
    <stop
       offset=".846"
       stop-color="#127bca"
       id="stop3" />
    <stop
       offset="1"
       stop-color="#127bca"
       id="stop4" />
  </linearGradient>
  <linearGradient
     id="b"
     x1="153.02367"
     x2="153.02367"
     y1="-1.1876589"
     y2="93.049583"
     gradientTransform="scale(0.75757551,1.3200004)"
     gradientUnits="userSpaceOnUse">
    <stop
       offset="0"
       stop-color="#0e76bc"
       id="stop5" />
    <stop
       offset=".36"
       stop-color="#36aee8"
       id="stop6" />
    <stop
       offset=".846"
       stop-color="#00adef"
       id="stop7" />
    <stop
       offset="1"
       stop-color="#00adef"
       id="stop8" />
  </linearGradient>
  <linearGradient
     id="c"
     x1="192.15182"
     x2="192.15182"
     y1="70.346809"
     y2="-2.2470753"
     gradientTransform="scale(0.73342029,1.3634747)"
     gradientUnits="userSpaceOnUse">
    <stop
       offset="0"
       stop-color="#1c63b7"
       id="stop9" />
    <stop
       offset=".5"
       stop-color="#33bdf2"
       id="stop10" />
    <stop
       offset="1"
       stop-color="#33bdf2"
       stop-opacity=".42"
       id="stop11" />
  </linearGradient>
  <linearGradient
     id="d"
     x1="186.45242"
     x2="186.45242"
     y1="-10.217741"
     y2="82.895882"
     gradientTransform="scale(0.72095042,1.3870579)"
     gradientUnits="userSpaceOnUse">
    <stop
       offset="0"
       stop-color="#166ab8"
       id="stop12" />
    <stop
       offset=".4"
       stop-color="#36aee8"
       id="stop13" />
    <stop
       offset=".846"
       stop-color="#0798dd"
       id="stop14" />
    <stop
       offset="1"
       stop-color="#0798dd"
       id="stop15" />
  </linearGradient>
  <linearGradient
     id="e"
     x1="156.0743"
     x2="156.0743"
     y1="-10.742071"
     y2="98.585312"
     gradientTransform="scale(0.79604346,1.2562128)"
     gradientUnits="userSpaceOnUse">
    <stop
       offset="0"
       stop-color="#124379"
       id="stop16" />
    <stop
       offset=".39"
       stop-color="#1487cb"
       id="stop17" />
    <stop
       offset=".78"
       stop-color="#165197"
       id="stop18" />
    <stop
       offset="1"
       stop-color="#165197"
       id="stop19" />
  </linearGradient>
  <linearGradient
     id="f"
     x1="87.170982"
     y1="22.716995"
     y2="22.716995"
     gradientTransform="scale(0.792477,1.2618663)"
     x2="111.67517"
     gradientUnits="userSpaceOnUse">
    <stop
       offset="0"
       stop-color="#33bdf2"
       stop-opacity=".698"
       id="stop20" />
    <stop
       offset="1"
       stop-color="#1dacd8"
       id="stop21" />
  </linearGradient>
  <linearGradient
     id="g"
     x1="239.97717"
     x2="239.97717"
     y1="83.676727"
     y2="-2.6732793"
     gradientTransform="scale(0.89555774,1.1166226)"
     gradientUnits="userSpaceOnUse">
    <stop
       offset="0"
       stop-color="#136ab4"
       id="stop22" />
    <stop
       offset=".6"
       stop-color="#59caf5"
       stop-opacity=".549"
       id="stop23" />
    <stop
       offset="1"
       stop-color="#59caf5"
       stop-opacity=".235"
       id="stop24" />
  </linearGradient>
  <linearGradient
     id="h"
     x1="0.20684278"
     x2="84.715858"
     y1="44.065517"
     y2="44.065517"
     gradientTransform="scale(0.85224044,1.1733778)"
     gradientUnits="userSpaceOnUse">
    <stop
       offset="0"
       stop-color="#05a1e6"
       stop-opacity=".247"
       id="stop25" />
    <stop
       offset="1"
       stop-color="#05a1e6"
       id="stop26" />
  </linearGradient>
  <linearGradient
     id="i"
     x1="49.150944"
     x2="49.150944"
     y1="78.142105"
     y2="-2.3336134"
     gradientTransform="scale(0.81513227,1.2267948)"
     gradientUnits="userSpaceOnUse">
    <stop
       offset="0"
       stop-color="#318ed5"
       id="stop27" />
    <stop
       offset="1"
       stop-color="#38a7e4"
       id="stop28" />
  </linearGradient>
  <linearGradient
     id="j"
     x1="51.797897"
     x2="51.797897"
     y1="85.960808"
     y2="0.21823999"
     gradientTransform="scale(0.89346379,1.1192395)"
     gradientUnits="userSpaceOnUse">
    <stop
       offset="0"
       stop-color="#05a1e6"
       id="stop29" />
    <stop
       offset="1"
       stop-color="#05a1e6"
       stop-opacity=".549"
       id="stop30" />
  </linearGradient>
  <linearGradient
     id="k"
     x1="63.918198"
     x2="63.918198"
     y1="81.367264"
     y2="16.10581"
     gradientTransform="scale(0.80476299,1.2426019)"
     gradientUnits="userSpaceOnUse">
    <stop
       offset="0"
       stop-color="#1959a6"
       id="stop31" />
    <stop
       offset=".5"
       stop-color="#05a1e6"
       id="stop32" />
    <stop
       offset=".918"
       stop-color="#7ec5ea"
       id="stop33" />
    <stop
       offset="1"
       stop-color="#7ec5ea"
       id="stop34" />
  </linearGradient>
  <linearGradient
     id="l"
     x1="63.664738"
     x2="45.56889"
     y1="82.189354"
     y2="6.8531685"
     gradientTransform="scale(0.85678121,1.1671591)"
     gradientUnits="userSpaceOnUse">
    <stop
       offset="0"
       stop-color="#165096"
       id="stop35" />
    <stop
       offset="1"
       stop-color="#0d82ca"
       id="stop36" />
  </linearGradient>
  <linearGradient
     id="m"
     x1="262.19614"
     x2="262.19614"
     y1="34.960033"
     y2="0.1892605"
     gradientTransform="scale(0.75669636,1.321534)"
     gradientUnits="userSpaceOnUse">
    <stop
       offset="0"
       stop-color="#05a1e6"
       id="stop37" />
    <stop
       offset=".874"
       stop-color="#0495d6"
       id="stop38" />
    <stop
       offset="1"
       stop-color="#0495d6"
       id="stop39" />
  </linearGradient>
  <linearGradient
     id="n"
     x1="278.12439"
     x2="254.50453"
     y1="-3.1616933"
     y2="80.654518"
     gradientTransform="scale(0.7910166,1.264196)"
     gradientUnits="userSpaceOnUse">
    <stop
       offset="0"
       stop-color="#38a7e4"
       stop-opacity=".329"
       id="stop40" />
    <stop
       offset=".962"
       stop-color="#0e88d3"
       id="stop41" />
    <stop
       offset="1"
       stop-color="#0e88d3"
       id="stop42" />
  </linearGradient>
  <linearGradient
     id="o"
     x1="240.17336"
     x2="240.17336"
     y1="-0.23648293"
     y2="84.610275"
     gradientTransform="scale(0.84636972,1.1815168)"
     gradientUnits="userSpaceOnUse">
    <stop
       offset="0"
       stop-color="#168cd4"
       id="stop43" />
    <stop
       offset=".5"
       stop-color="#1c87cc"
       id="stop44" />
    <stop
       offset="1"
       stop-color="#154b8d"
       id="stop45" />
  </linearGradient>
  <linearGradient
     id="p"
     x1="27.286358"
     x2="35.641937"
     y1="30.072468"
     y2="3.5981624"
     gradientTransform="scale(2.7636293,0.36184303)"
     gradientUnits="userSpaceOnUse">
    <stop
       offset="0"
       stop-color="#97d6ee"
       id="stop46" />
    <stop
       offset=".703"
       stop-color="#55c1ea"
       id="stop47" />
    <stop
       offset="1"
       stop-color="#55c1ea"
       id="stop48" />
  </linearGradient>
  <linearGradient
     id="q"
     x1="47.194927"
     x2="56.89188"
     y1="4.9227962"
     y2="20.472015"
     gradientTransform="scale(1.8807302,0.53170839)"
     gradientUnits="userSpaceOnUse">
    <stop
       offset="0"
       stop-color="#7accec"
       id="stop49" />
    <stop
       offset="1"
       stop-color="#3fb7ed"
       id="stop50" />
  </linearGradient>
  <linearGradient
     id="r"
     x1="236.12863"
     x2="236.12863"
     y1="4.2297044"
     y2="83.002769"
     gradientTransform="scale(0.80339239,1.2447218)"
     gradientUnits="userSpaceOnUse">
    <stop
       offset="0"
       stop-color="#1da7e7"
       id="stop51" />
    <stop
       offset="1"
       stop-color="#37abe7"
       stop-opacity="0"
       id="stop52" />
  </linearGradient>
  <g
     id="g89"
     transform="translate(-4.9430362,47.378804)">
    <path
       d="m 88.5,20.689 c 9.164,28.026 12.636,78.022 39.436,78.022 2.04,0 4.102,-0.2 6.171,-0.594 -24.362,-5.68 -27.25,-55.132 -42.115,-80.741 a 123.34,123.34 0 0 0 -3.493,3.313"
       fill="url(#a)"
       transform="translate(0.81)"
       id="path54"
       style="fill:url(#a)" />
    <path
       d="m 91.992,17.376 c 14.866,25.609 17.753,75.061 42.115,80.741 1.914,-0.351 3.832,-0.883 5.754,-1.554 C 117.994,85.85 111.95,37.828 95.067,14.71 a 105.202,105.202 0 0 0 -3.075,2.667"
       fill="url(#b)"
       transform="translate(0.81)"
       id="path55"
       style="fill:url(#b)" />
    <path
       d="m 114.221,2.145 c -2.036,0 -4.102,0.2 -6.175,0.594 -5.423,1.022 -10.931,3.357 -16.485,6.89 1.517,1.497 2.96,3.21 4.318,5.08 5.648,-4.687 11.26,-8.15 16.85,-10.232 a 37.568,37.568 0 0 1 6.285,-1.747 19.364,19.364 0 0 0 -4.793,-0.585"
       fill="#14559a"
       id="path56" />
    <path
       d="m 156.931,86.687 a 98.185,98.185 0 0 0 6.724,-5.893 C 154.343,52.898 151.01,2.187 124.022,2.187 c -1.93,0 -3.877,0.18 -5.82,0.54 24.583,6.114 27.732,59.598 38.73,83.96"
       fill="url(#c)"
       transform="translate(0.81)"
       id="path57"
       style="fill:url(#c)" />
    <path
       d="M 119.013,2.728 A 19.382,19.382 0 0 0 114.22,2.144 l 10.613,0.039 c -1.93,0 -3.877,0.18 -5.82,0.544"
       fill="#3092c4"
       id="path58" />
    <path
       d="m 157.27,92.613 c -1.055,-1.006 -2.057,-2.11 -3.043,-3.288 -4.54,3.214 -9.062,5.652 -13.556,7.238 a 20.881,20.881 0 0 0 5.054,1.722 21.42,21.42 0 0 0 4.307,0.426 c 5.042,0 9.03,-0.597 12.424,-2.225 -1.869,-1.01 -3.583,-2.32 -5.186,-3.873"
       fill="#1969bc"
       id="path59" />
    <path
       d="m 111.917,4.481 c 22.018,11.516 23.932,63.668 41.501,84.844 a 74.585,74.585 0 0 0 3.51,-2.638 C 145.93,62.325 142.785,8.837 118.207,2.727 a 38.06,38.06 0 0 0 -6.29,1.754"
       fill="url(#d)"
       transform="translate(0.81)"
       id="path60"
       style="fill:url(#d)" />
    <path
       d="m 95.067,14.71 c 16.882,23.118 22.927,71.139 44.794,81.853 4.495,-1.586 9.018,-4.024 13.557,-7.238 -17.569,-21.176 -19.483,-73.328 -41.501,-84.844 -5.59,2.078 -11.202,5.541 -16.85,10.228"
       fill="url(#e)"
       id="path61"
       style="fill:url(#e)"
       transform="translate(0.81)" />
    <path
       d="m 88.789,11.479 a 90.096,90.096 0 0 0 -2.344,1.726 c 1.027,2.241 1.976,4.756 2.863,7.484 A 135.88,135.88 0 0 1 92.8,17.376 c -1.247,-2.143 -2.572,-4.122 -4.011,-5.897"
       fill="#2b74b1"
       id="path63" />
    <path
       d="M 77.698,20.014 C 75.052,25.997 72.349,33.861 69.081,44.126 75.58,34.97 82.058,27.08 88.5,20.69 87.613,17.962 86.66,15.447 85.633,13.205 a 96.763,96.763 0 0 0 -7.934,6.81"
       fill="url(#f)"
       transform="translate(0.81)"
       id="path62"
       style="fill:url(#f)" />
    <path
       d="m 91.56,9.63 a 76.239,76.239 0 0 0 -2.772,1.848 c 1.44,1.775 2.765,3.754 4.016,5.901 a 93.62,93.62 0 0 1 3.076,-2.67 C 94.522,12.84 93.078,11.126 91.56,9.629"
       fill="#125a9e"
       id="path64" />
    <path
       d="m 240.937,0.011 c -12.453,48.025 -38.463,86.598 -60.27,96.323 h -0.04 c -0.397,0.18 -0.79,0.344 -1.178,0.503 -0.054,0.033 -0.103,0.037 -0.144,0.056 -0.114,0.046 -0.22,0.082 -0.335,0.128 -0.054,0.032 -0.102,0.043 -0.151,0.062 -0.184,0.066 -0.364,0.121 -0.544,0.193 -0.078,0.033 -0.151,0.053 -0.225,0.079 a 2.734,2.734 0 0 1 -0.27,0.088 c -0.082,0.032 -0.168,0.056 -0.262,0.092 -0.078,0.032 -0.16,0.046 -0.233,0.078 -0.16,0.046 -0.306,0.085 -0.466,0.14 -0.066,0 -0.127,0.036 -0.196,0.054 -0.099,0.032 -0.21,0.055 -0.316,0.085 -0.073,0.032 -0.134,0.043 -0.212,0.059 -0.11,0.032 -0.233,0.062 -0.344,0.088 l -0.417,0.092 a 8.879,8.879 0 0 0 3.12,0.548 c 20.678,0 41.526,-37.056 76.023,-98.679 h -13.545 z"
       fill="url(#g)"
       transform="translate(0.81)"
       id="path65"
       style="fill:url(#g)" />
    <path
       d="m 64.591,4.094 c 0.013,0 0.03,-0.032 0.037,-0.032 0.017,0 0.042,0 0.05,-0.032 h 0.026 c 0.114,-0.04 0.22,-0.085 0.335,-0.128 0.03,0 0.045,0 0.066,-0.032 0.029,0 0.057,-0.033 0.086,-0.037 0.122,-0.039 0.245,-0.085 0.36,-0.127 h 0.019 c 0.274,-0.082 0.528,-0.184 0.793,-0.279 0.038,0 0.074,-0.032 0.119,-0.032 0.11,-0.036 0.225,-0.075 0.34,-0.101 0.053,-0.033 0.106,-0.033 0.155,-0.05 0.118,-0.035 0.233,-0.075 0.343,-0.101 0.05,0 0.094,-0.033 0.131,-0.036 0.38,-0.105 0.757,-0.203 1.137,-0.294 0.053,0 0.098,-0.033 0.155,-0.036 0.11,-0.032 0.213,-0.05 0.332,-0.066 0.049,-0.032 0.106,-0.032 0.163,-0.049 0.11,-0.032 0.217,-0.036 0.336,-0.062 h 0.077 c 0.23,-0.047 0.463,-0.085 0.692,-0.128 h 0.139 c 0.11,-0.032 0.208,-0.036 0.319,-0.056 0.06,0 0.122,-0.032 0.18,-0.032 0.102,0 0.204,-0.033 0.306,-0.046 0.054,0 0.106,0 0.168,-0.033 0.241,-0.032 0.49,-0.045 0.744,-0.065 a 22.972,22.972 0 0 0 -2.2,-0.115 c -23.286,0 -55.37,43.207 -69.822,99.161 H 2.962 C 7.587,93.038 11.742,85.235 15.542,77.91 25.663,38.277 46.279,11.249 64.592,4.088"
       fill="url(#h)"
       transform="translate(0.81)"
       id="path66"
       style="fill:url(#h)" />
    <path
       d="m 78.509,20.014 a 96.72,96.72 0 0 1 7.934,-6.81 37.464,37.464 0 0 0 -1.89,-3.652 c -2.13,2.585 -4.077,5.996 -6.044,10.462"
       fill="#0d82ca"
       id="path67" />
    <path
       d="m 80.422,4.422 c 1.521,1.276 2.883,3.03 4.13,5.133 0.393,-0.483 0.79,-0.929 1.203,-1.346 -1.73,-1.615 -3.6,-2.94 -5.628,-3.938 0.082,0.045 0.164,0.082 0.249,0.118 0,0 0.032,0.032 0.046,0.032"
       fill="#0d82ca"
       id="path68" />
    <path
       d="M 15.54,77.915 C 36.774,36.998 46.834,11.102 64.591,4.092 46.282,11.258 25.662,38.286 15.541,77.915"
       fill="url(#i)"
       transform="translate(0.81)"
       id="path69"
       style="fill:url(#i)" />
    <path
       d="M 85.753,8.208 C 85.34,8.629 84.948,9.071 84.551,9.554 a 37.992,37.992 0 0 1 1.894,3.651 90.096,90.096 0 0 1 2.343,-1.725 31.882,31.882 0 0 0 -3.035,-3.272"
       fill="#127bca"
       id="path70" />
    <path
       d="m 25.18,101.107 c -0.131,0.033 -0.262,0.033 -0.385,0.046 h -0.073 c -0.111,0 -0.226,0.033 -0.328,0.033 h -0.053 c -0.266,0.032 -0.528,0.032 -0.781,0.052 H 23.478 C 44.969,100.637 54.792,89.877 59.668,74.271 63.373,62.44 66.415,52.473 69.082,44.11 60.08,56.78 51.038,71.883 41.947,88.802 c -4.384,8.154 -11.05,11.56 -16.768,12.29"
       fill="url(#j)"
       transform="translate(0.81)"
       id="path71"
       style="fill:url(#j)" />
    <path
       d="m 25.18,101.099 c 5.717,-0.728 12.383,-4.13 16.767,-12.29 9.091,-16.914 18.138,-32.021 27.13,-44.691 3.272,-10.27 5.972,-18.13 8.622,-24.113 -17.925,17.062 -35.92,45.432 -52.52,81.086"
       fill="url(#k)"
       transform="translate(0.81)"
       id="path72"
       style="fill:url(#k)" />
    <path
       d="M 16.35,77.916 C 12.55,85.24 8.395,93.043 3.77,101.292 h 8.101 A 198.004,198.004 0 0 1 16.35,77.92"
       fill="#05a1e6"
       id="path73" />
    <path
       d="m 71.454,2.326 c -0.066,0 -0.115,0.032 -0.172,0.032 -0.098,0.033 -0.2,0.033 -0.303,0.043 -0.06,0 -0.118,0 -0.18,0.033 -0.11,0.032 -0.212,0.035 -0.319,0.056 -0.049,0 -0.098,0 -0.139,0.032 -0.233,0.039 -0.462,0.082 -0.69,0.121 H 69.573 C 69.454,2.676 69.347,2.693 69.237,2.709 69.18,2.741 69.123,2.741 69.069,2.754 68.959,2.787 68.849,2.8 68.742,2.82 68.685,2.852 68.64,2.852 68.587,2.855 68.207,2.947 67.83,3.045 67.45,3.15 67.41,3.15 67.368,3.182 67.319,3.189 67.205,3.221 67.094,3.254 66.975,3.29 66.926,3.323 66.869,3.323 66.82,3.336 a 9.466,9.466 0 0 0 -0.34,0.101 c -0.044,0 -0.081,0.032 -0.122,0.032 -0.262,0.098 -0.52,0.197 -0.79,0.278 -0.114,0.036 -0.237,0.082 -0.36,0.125 -0.049,0.032 -0.093,0.04 -0.15,0.062 -0.115,0.036 -0.23,0.082 -0.336,0.124 -0.04,0.033 -0.082,0.036 -0.11,0.053 -17.757,7.01 -27.818,32.905 -49.051,73.822 a 197.146,197.146 0 0 0 -4.478,23.373 h 1.137 c 3.202,0 4.106,-0.033 7.79,-0.033 h 3.571 c 0.253,-0.032 0.515,-0.032 0.78,-0.053 h 0.05 c 0.11,0 0.22,-0.032 0.327,-0.032 h 0.078 c 0.118,0 0.253,-0.032 0.384,-0.046 C 41.8,65.488 59.794,37.118 77.72,20.056 79.69,15.591 81.633,12.18 83.76,9.599 82.516,7.497 81.154,5.739 79.633,4.463 78.112,3.187 79.592,4.463 79.589,4.43 79.502,4.395 79.421,4.352 79.335,4.31 79.249,4.263 79.175,4.227 79.085,4.182 A 2.707,2.707 0 0 1 78.84,4.064 C 78.734,4.031 78.648,3.985 78.554,3.943 78.476,3.91 78.407,3.877 78.329,3.845 a 9.571,9.571 0 0 1 -0.47,-0.197 c -0.07,-0.032 -0.135,-0.05 -0.2,-0.075 A 6.68,6.68 0 0 1 77.306,3.433 C 77.249,3.4 77.184,3.393 77.118,3.37 76.951,3.314 76.787,3.255 76.632,3.203 H 76.591 C 76.403,3.141 76.219,3.095 76.027,3.043 75.982,3.01 75.945,3.01 75.9,3.003 75.732,2.958 75.585,2.913 75.426,2.87 c -0.04,0 -0.078,-0.033 -0.11,-0.033 A 16.794,16.794 0 0 0 74.133,2.579 c -0.04,0 -0.081,-0.033 -0.122,-0.033 A 6.982,6.982 0 0 0 73.5,2.464 C 73.458,2.432 73.434,2.432 73.398,2.432 A 13.62,13.62 0 0 0 72.792,2.353 H 72.686 C 72.522,2.321 72.371,2.318 72.22,2.301 71.962,2.333 71.717,2.347 71.475,2.37"
       fill="url(#l)"
       transform="translate(0.81)"
       id="path74"
       style="fill:url(#l)" />
    <path
       d="m 192.294,26.598 c -4.085,13.087 -7.394,23.883 -10.273,32.766 11.21,-15.426 22.252,-34.832 32.767,-57.226 -12.265,3.852 -18.809,12.67 -22.494,24.46"
       fill="url(#m)"
       transform="translate(0.81)"
       id="path75"
       style="fill:url(#m)" />
    <path
       d="m 182.377,95.516 c -0.572,0.292 -1.145,0.569 -1.71,0.818 21.807,-9.725 47.817,-48.298 60.27,-96.323 h -2.524 c -28.61,51.108 -37.812,85.322 -56.036,95.505"
       fill="url(#n)"
       transform="translate(0.81)"
       id="path76"
       style="fill:url(#n)" />
    <path
       d="m 168.948,91.223 c 4.744,-5.791 8.609,-15.635 13.885,-31.859 -6.086,8.36 -12.212,15.545 -18.343,21.406 0,0.032 0,0.032 -0.032,0.052 1.338,4.008 2.806,7.545 4.478,10.4"
       fill="#079ae1"
       id="path77" />
    <path
       d="m 168.948,91.223 c -1.615,1.97 -3.325,3.472 -5.226,4.584 -0.418,0.242 -0.839,0.47 -1.268,0.68 a 18.375,18.375 0 0 0 6.653,2.097 c 0.36,0.036 0.716,0.069 1.088,0.095 h 0.066 c 0.167,0 0.344,0 0.524,0.032 h 1.774 c 0.065,0 0.133,0 0.199,-0.032 0.127,0 0.262,0 0.392,-0.033 h 0.194 c 0.134,0 0.281,-0.032 0.425,-0.046 h 0.033 c 0.042,0 0.088,-0.032 0.13,-0.032 0.15,-0.033 0.308,-0.046 0.455,-0.069 h 0.134 c 0.166,-0.032 0.339,-0.053 0.51,-0.085 h 0.083 c 0.343,-0.066 0.678,-0.13 1.018,-0.216 -2.814,-1.03 -5.17,-3.46 -7.198,-6.92"
       fill="#1969bc"
       id="path78" />
    <path
       d="m 128.746,98.711 c 2.041,0 4.102,-0.2 6.172,-0.597 1.914,-0.347 3.832,-0.88 5.754,-1.55 a 20.92,20.92 0 0 0 5.05,1.722 21.46,21.46 0 0 0 4.311,0.425 z"
       fill="#1e5cb3"
       id="path79" />
    <path
       d="m 150.033,98.711 c 5.039,0 9.03,-0.597 12.42,-2.225 a 18.38,18.38 0 0 0 6.654,2.099 c 0.36,0.035 0.716,0.068 1.088,0.094 h 0.066 c 0.167,0 0.344,0 0.524,0.033 h 0.611 -21.377 z"
       fill="#1e5cb3"
       id="path80" />
    <path
       d="m 171.408,98.711 h 1.166 c 0.07,0 0.134,0 0.2,-0.032 0.127,0 0.262,0 0.397,-0.033 h 0.193 c 0.134,0 0.281,-0.032 0.421,-0.045 h 0.036 c 0.043,0 0.085,-0.032 0.128,-0.032 0.15,-0.033 0.307,-0.046 0.454,-0.07 0.049,0 0.088,0 0.14,-0.032 0.167,-0.032 0.34,-0.049 0.512,-0.081 h 0.082 c 0.343,-0.066 0.678,-0.131 1.018,-0.216 a 8.883,8.883 0 0 0 3.12,0.548 l -7.86,0.032 z"
       fill="#1d60b5"
       id="path81" />
    <path
       d="M 164.471,80.823 V 80.79 a 98.108,98.108 0 0 1 -6.723,5.893 77.224,77.224 0 0 1 -3.513,2.638 c 0.985,1.178 1.988,2.282 3.043,3.289 1.603,1.553 3.316,2.862 5.185,3.872 0.426,-0.21 0.851,-0.438 1.264,-0.679 1.906,-1.112 3.615,-2.613 5.23,-4.584 -1.672,-2.855 -3.14,-6.392 -4.478,-10.4"
       fill="#175fab"
       id="path82" />
    <path
       d="m 230.422,0.011 h -12.701 c -0.686,0.033 -1.353,0.056 -2.011,0.098 -0.311,0.667 -0.63,1.334 -0.937,2.005 -10.514,22.394 -21.556,41.8 -32.766,57.226 -5.272,16.223 -9.14,26.067 -13.884,31.858 2.028,3.46 4.388,5.893 7.193,6.924 0.082,-0.033 0.148,-0.033 0.221,-0.05 h 0.046 c 0.049,0 0.102,-0.032 0.155,-0.032 0.114,-0.033 0.237,-0.053 0.352,-0.088 0.073,-0.033 0.134,-0.036 0.208,-0.06 0.107,-0.032 0.217,-0.055 0.315,-0.081 0.066,-0.033 0.131,-0.043 0.196,-0.056 0.164,-0.053 0.311,-0.092 0.467,-0.141 0.073,-0.032 0.151,-0.06 0.233,-0.079 0.09,-0.032 0.18,-0.055 0.262,-0.094 0.094,-0.033 0.188,-0.05 0.27,-0.085 0.073,-0.033 0.15,-0.053 0.22,-0.082 0.184,-0.066 0.364,-0.121 0.548,-0.193 0.05,0 0.099,-0.046 0.152,-0.056 0.11,-0.046 0.225,-0.082 0.335,-0.131 0.04,-0.033 0.09,-0.036 0.143,-0.053 0.385,-0.16 0.781,-0.324 1.178,-0.503 h 0.041 a 33.419,33.419 0 0 0 1.706,-0.818 c 18.227,-10.183 27.43,-44.397 56.04,-95.505 h -7.991 z"
       fill="url(#o)"
       transform="translate(0.81)"
       id="path83"
       style="fill:url(#o)" />
    <path
       d="m 73.01,2.257 c 0.045,0 0.085,0 0.13,0.032 0.11,0 0.22,0 0.331,0.036 h 0.11 c 0.201,0.032 0.402,0.05 0.606,0.079 0.037,0 0.07,0 0.102,0.032 0.168,0.032 0.34,0.06 0.511,0.085 0.038,0 0.086,0.033 0.127,0.033 0.393,0.078 0.794,0.16 1.178,0.261 0.037,0 0.074,0.033 0.106,0.033 0.164,0.039 0.311,0.088 0.475,0.134 0.05,0 0.086,0.032 0.13,0.04 0.193,0.049 0.373,0.098 0.561,0.16 0.008,0 0.02,0 0.041,0.032 0.16,0.049 0.323,0.111 0.491,0.167 0.066,0.032 0.127,0.046 0.188,0.062 0.115,0.05 0.242,0.098 0.352,0.144 0.066,0 0.13,0.046 0.2,0.07 0.151,0.068 0.31,0.13 0.466,0.195 0.082,0.033 0.151,0.07 0.23,0.099 0.09,0.046 0.183,0.088 0.281,0.12 0.082,0.04 0.172,0.082 0.25,0.118 0.086,0.047 0.167,0.082 0.25,0.128 2.028,0.998 3.897,2.327 5.627,3.939 A 18.272,18.272 0 0 1 87.748,6.444 C 83.965,3.76 79.68,2.23 74.735,2.23 c -0.572,0 -1.145,0.033 -1.726,0.076"
       fill="#7dcbec"
       id="path84" />
    <path
       d="M 85.753,8.208 A 31.884,31.884 0 0 1 88.788,11.48 70.897,70.897 0 0 1 91.56,9.63 29.254,29.254 0 0 0 87.744,6.395 17.858,17.858 0 0 0 85.752,8.207"
       fill="#5ec5ed"
       id="path85" />
    <path
       d="m 72.198,6.285 c 0.58,0.049 1.153,0.07 1.726,0.07 4.944,0 9.23,-1.53 13.013,-4.21 3.992,3.15 8.817,4.25 15.52,4.25 h -32.46 c 0.75,0 1.481,-0.045 2.201,-0.11"
       fill="url(#p)"
       transform="matrix(1,0,0,-1,0.81,8.541)"
       id="path86"
       style="fill:url(#p)" />
    <path
       d="m 102.457,9.63 c -6.703,0 -11.528,-1.1 -15.52,-4.25 a 29.485,29.485 0 0 0 3.812,-3.234 c 5.557,3.533 11.062,5.873 16.49,6.895 a 33.46,33.46 0 0 0 6.17,0.589 z"
       fill="url(#q)"
       transform="matrix(1,0,0,-1,0.81,11.776)"
       id="path87"
       style="fill:url(#q)" />
    <path
       d="m 182.021,59.372 c 2.883,-8.89 6.184,-19.683 10.277,-32.774 3.69,-11.795 10.22,-20.612 22.485,-24.46 0.324,-0.659 0.63,-1.338 0.945,-2.004 -19.994,1.198 -29.339,11.369 -34.042,26.431 -8.224,26.296 -13.206,43.342 -18.003,54.204 6.127,-5.856 12.253,-13.046 18.338,-21.397"
       fill="url(#r)"
       transform="translate(0.81)"
       id="path88"
       style="fill:url(#r)" />
  </g>
</svg>
