<?xml version="1.0" encoding="UTF-8" standalone="no"?>
<svg
   viewBox="0 0 39.999675 39.999675"
   version="1.1"
   id="svg4"
   width="128"
   height="128"
   sodipodi:docname="drupal-icon.svg"
   inkscape:version="1.4.2 (f4327f4, 2025-05-13)"
   xmlns:inkscape="http://www.inkscape.org/namespaces/inkscape"
   xmlns:sodipodi="http://sodipodi.sourceforge.net/DTD/sodipodi-0.dtd"
   xmlns="http://www.w3.org/2000/svg"
   xmlns:svg="http://www.w3.org/2000/svg"
   xmlns:rdf="http://www.w3.org/1999/02/22-rdf-syntax-ns#"
   xmlns:cc="http://creativecommons.org/ns#"
   xmlns:dc="http://purl.org/dc/elements/1.1/">
  <sodipodi:namedview
     id="namedview1"
     pagecolor="#ffffff"
     bordercolor="#000000"
     borderopacity="0.25"
     inkscape:showpageshadow="2"
     inkscape:pageopacity="0.0"
     inkscape:pagecheckerboard="0"
     inkscape:deskcolor="#d1d1d1"
     inkscape:zoom="3.0884615"
     inkscape:cx="-20.07472"
     inkscape:cy="34.159402"
     inkscape:window-width="1920"
     inkscape:window-height="1017"
     inkscape:window-x="-8"
     inkscape:window-y="-8"
     inkscape:window-maximized="1"
     inkscape:current-layer="svg4" />
  <metadata
     id="metadata10">
    <rdf:RDF>
      <cc:Work
         rdf:about="">
        <dc:format>image/svg+xml</dc:format>
        <dc:type
           rdf:resource="http://purl.org/dc/dcmitype/StillImage" />
      </cc:Work>
    </rdf:RDF>
  </metadata>
  <defs
     id="defs8" />
  <g
     id="g29"
     transform="translate(-1.6132424,-7.8927858)">
    <path
       style="fill:#0073ba;stroke-width:0.420235"
       id="path2"
       d="m 29.766303,16.023715 c -1.94653,-1.21322 -3.783799,-1.690187 -5.620227,-2.902565 -1.139258,-0.771132 -2.718502,-2.6084 -4.041823,-4.188065 -0.256764,2.534438 -1.028316,3.563175 -1.909969,4.298166 -1.873829,1.469563 -3.049648,1.91081 -4.665872,2.792884 -1.359462,0.69759 -8.7438357,5.105859 -8.7438357,14.583845 0,9.479247 7.9722837,16.458935 16.8257997,16.458935 8.854778,0 16.532897,-6.42918 16.532897,-16.16477 0,-9.735591 -7.200732,-14.143859 -8.37697,-14.87843 z m 0.213059,27.585924 c -0.184063,0.184063 -1.874249,1.359041 -3.85776,1.543104 -1.984351,0.184063 -4.665872,0.294165 -6.282517,-1.175398 -0.256764,-0.257184 -0.183223,-0.624469 0,-0.771132 0.184063,-0.147502 0.331145,-0.257604 0.551348,-0.257604 0.220204,0 0.184064,0 0.294165,0.07354 0.734151,0.587489 1.836428,1.065297 4.187645,1.065297 2.352057,0 4.004842,-0.66145 4.738993,-1.212379 0.331566,-0.257184 0.477808,-0.03656 0.514368,0.110522 0.03698,0.146662 0.110522,0.366865 -0.146242,0.62405 z m -6.43002,-3.343392 c 0.404687,-0.367285 1.066137,-0.954774 1.690186,-1.212378 0.62405,-0.256764 0.955615,-0.220204 1.543104,-0.220204 0.587489,0 1.211959,0.03614 1.653626,0.330726 0.440827,0.293324 0.698011,0.954774 0.844673,1.32248 0.147082,0.367286 0,0.587069 -0.293324,0.734151 -0.257184,0.147503 -0.294165,0.07354 -0.551349,-0.403426 -0.257184,-0.478228 -0.478228,-0.955615 -1.763727,-0.955615 -1.28634,0 -1.689766,0.441247 -2.314656,0.955615 -0.62447,0.514368 -0.844673,0.698011 -1.064876,0.403426 -0.220624,-0.293324 -0.147503,-0.587489 0.256343,-0.954775 z m 9.736431,0.294165 c -1.32248,-0.110102 -3.968281,-4.225045 -5.658468,-4.298587 -2.130172,-0.07354 -6.759904,4.445249 -10.396621,4.445249 -2.203713,0 -2.865584,-0.330305 -3.600155,-0.808112 -1.102277,-0.771552 -1.653206,-1.947371 -1.616645,-3.563595 0.0374,-2.865585 2.718922,-5.547526 6.098454,-5.584507 4.298587,-0.03572 7.274273,4.262446 9.442267,4.225466 1.836848,-0.03656 5.363883,-3.636716 7.090209,-3.636716 1.836849,0 2.352057,1.910389 2.352057,3.049227 0,1.138837 -0.368126,3.195889 -1.24978,4.481389 -0.882073,1.28592 -1.433002,1.763307 -2.461318,1.690186 z" />
  </g>
</svg>
