<?xml version="1.0" encoding="UTF-8" standalone="no"?>
<svg
   width="128"
   height="128"
   viewBox="0 0 82.051282 82.051282"
   version="1.1"
   id="svg2"
   xmlns:xlink="http://www.w3.org/1999/xlink"
   xmlns="http://www.w3.org/2000/svg"
   xmlns:svg="http://www.w3.org/2000/svg"
   xmlns:rdf="http://www.w3.org/1999/02/22-rdf-syntax-ns#"
   xmlns:cc="http://creativecommons.org/ns#"
   xmlns:dc="http://purl.org/dc/elements/1.1/">
  <!-- Generator: Sketch 64 (93537) - https://sketch.com -->
  <title
     id="title1">Icon-Architecture/64/Arch_Amazon-DynamoDB_64</title>
  <desc
     id="desc1">Created with Sketch.</desc>
  <defs
     id="defs2">
    <linearGradient
       x1="0"
       y1="1"
       x2="1"
       y2="0"
       id="linearGradient-1">
      <stop
         stop-color="#2E27AD"
         offset="0%"
         id="stop1" />
      <stop
         stop-color="#527FFF"
         offset="100%"
         id="stop2" />
    </linearGradient>
    <linearGradient
       xlink:href="#linearGradient-1"
       id="linearGradient2"
       x1="0"
       y1="80"
       x2="80"
       y2="0"
       gradientUnits="userSpaceOnUse" />
    <linearGradient
       xlink:href="#linearGradient-1"
       id="linearGradient3"
       x1="0"
       y1="80"
       x2="80"
       y2="0"
       gradientUnits="userSpaceOnUse" />
  </defs>
  <g
     id="Icon-Architecture/64/Arch_Amazon-DynamoDB_64"
     stroke="none"
     stroke-width="1"
     fill="none"
     fill-rule="evenodd"
     transform="translate(1.2772615,1.0218092)">
    <g
       id="Icon-Architecture-BG/64/Database"
       fill="url(#linearGradient-1)"
       style="fill:url(#linearGradient3)">
      <rect
         id="Rectangle"
         x="0"
         y="0"
         width="80"
         height="80"
         style="fill:url(#linearGradient2)" />
    </g>
    <path
       d="m 52.085952,54.850251 c -3.337995,2.698783 -10.340986,4.125042 -17.041977,4.125042 -6.701991,0 -13.706982,-1.427251 -17.043978,-4.126034 v 5.435256 h 0.001 c 0,2.710685 6.999,5.731815 17.042978,5.731815 10.035987,0 17.030978,-3.017162 17.041977,-5.725864 z m 10e-4,-10.327979 1.999997,-0.01091 v 0.01091 c 0,1.208055 -0.604999,2.335772 -1.782998,3.368272 1.427998,1.256655 1.782998,2.489506 1.782998,3.36728 0,0.006 -10e-4,0.01091 -10e-4,0.01686 v 9.00983 h 10e-4 C 54.08695,65.295266 44.274963,68 35.043975,68 25.834987,68 16.05,65.307168 16.003,60.319229 c 0,-0.005 -0.003,-0.0099 -0.003,-0.01488 v -9.049503 c 0,-0.002 0.002,-0.005 0.002,-0.0079 C 16.005,50.369172 16.360999,49.14128 17.786998,47.8876 16.369999,46.635872 16.01,45.414924 16.001,44.544092 h 10e-4 c 0,-0.004 -0.002,-0.0069 -0.002,-0.01091 v -9.049503 c 0,-0.003 0.002,-0.006 0.002,-0.0089 0.003,-0.877774 0.359999,-2.105665 1.785998,-3.357361 C 16.369999,30.864703 16.01,29.642762 16.001,28.772923 h 10e-4 c 0,-0.004 -0.002,-0.0079 -0.002,-0.0119 v -9.048512 c 0,-0.003 0.002,-0.006 0.002,-0.0089 C 16.019,14.699775 25.819987,12 35.043975,12 c 5.210993,0 10.216986,0.828182 13.733982,2.272294 l -0.764999,1.832911 c -3.282996,-1.347903 -8.00999,-2.121535 -12.968983,-2.121535 -10.043987,0 -17.042978,3.02113 -17.042978,5.733799 0,2.711677 6.998991,5.732806 17.042978,5.732806 0.271,0.003 0.535999,0 0.803999,-0.0099 l 0.084,1.981686 c -0.296,0.0119 -0.592,0.0119 -0.887999,0.0119 -6.701991,0 -13.706982,-1.427251 -17.043975,-4.126034 v 5.43228 h 9.97e-4 v 0.02281 c 0.01,1.040434 1.076999,1.948955 1.970998,2.526203 2.689996,1.714883 7.50999,2.886241 12.884983,3.12924 l -0.091,1.981687 C 27.320985,36.15318 22.552991,35.02348 19.483995,33.291736 c -0.755999,0.565346 -1.482998,1.33005 -1.482998,2.196914 0,2.711677 6.998991,5.732807 17.042978,5.732807 0.984999,0 1.962997,-0.03273 2.907996,-0.09819 l 0.139,1.978711 c -0.989999,0.06844 -2.015997,0.103151 -3.046996,0.103151 -6.701991,0 -13.706982,-1.427251 -17.043975,-4.126034 v 5.432281 h 9.97e-4 c 0.01,1.063247 1.076999,1.970776 1.970998,2.549016 3.075996,1.962842 8.851988,3.184782 15.07198,3.184782 h 0.439999 v 1.98367 h -0.439999 c -6.318992,0 -12.061984,-1.17334 -15.57398,-3.156019 -0.751999,0.564355 -1.468998,1.325092 -1.468998,2.185013 0,2.711677 6.998991,5.733798 17.042978,5.733798 10.035987,0 17.030978,-3.017162 17.041977,-5.726855 v -0.0099 -9.92e-4 c -0.002,-0.861905 -0.721999,-1.622643 -1.475998,-2.186997 -0.487999,0.276722 -1.010998,0.543526 -1.605997,0.788509 L 48.237958,48.02249 c 0.725999,-0.298542 1.355998,-0.620889 1.872997,-0.960096 0.901999,-0.588159 1.975998,-1.50759 1.975998,-2.54009 z M 60.65294,30.016684 h -5.603992 c -0.331,0 -0.642,-0.162661 -0.826999,-0.434424 -0.187,-0.271763 -0.225,-0.617913 -0.103,-0.922406 l 3.408995,-8.521847 H 44.61897 l -6,11.902021 h 6.381992 c 0.318999,0 0.618999,0.15175 0.807999,0.406652 0.187,0.255893 0.241999,0.584191 0.145,0.886701 L 40.257968,51.089212 Z M 63.721937,29.712191 38.72297,55.539576 c -0.195,0.200351 -0.456999,0.304493 -0.721999,0.304493 -0.176,0 -0.353,-0.04463 -0.510999,-0.138857 -0.4,-0.236056 -0.582999,-0.713129 -0.442,-1.153504 l 6.585992,-20.52801 h -6.632992 c -0.346999,0 -0.667999,-0.177539 -0.850998,-0.47013 -0.182,-0.292591 -0.199,-0.657587 -0.043,-0.965056 l 6.99999,-13.885691 c 0.169,-0.336232 0.515,-0.548484 0.893999,-0.548484 h 14.99998 c 0.331,0 0.641999,0.163652 0.826999,0.434423 0.187,0.272755 0.225,0.617914 0.103,0.923399 l -3.408995,8.520855 h 6.477991 c 0.4,0 0.762999,0.23804 0.919999,0.603036 0.157,0.365987 0.079,0.7895 -0.198,1.076141 z M 19.454995,60.674306 c 1.416999,0.798427 3.200996,1.4699 5.301993,1.993589 l 0.488,-1.92416 C 23.34599,60.270629 21.685992,59.64974 20.442994,58.949505 Z m 5.301993,-13.875773 0.488,-1.923168 C 23.34599,44.401268 21.685992,43.780379 20.442994,43.080144 l -0.987999,1.724801 c 1.416999,0.798427 3.199996,1.4699 5.301993,1.993588 z m -5.301993,-17.862949 0.987999,-1.724801 c 1.240998,0.700235 2.901996,1.320132 4.801994,1.795221 l -0.488,1.923168 c -2.103997,-0.52468 -3.886994,-1.196153 -5.301993,-1.993588 z"
       id="Amazon-DynamoDB_Icon_64_Squid"
       fill="#ffffff" />
  </g>
  <metadata
     id="metadata2">
    <rdf:RDF>
      <cc:Work
         rdf:about="">
        <dc:title>Icon-Architecture/64/Arch_Amazon-DynamoDB_64</dc:title>
      </cc:Work>
    </rdf:RDF>
  </metadata>
</svg>
