<?xml version="1.0" encoding="UTF-8" standalone="no"?>
<!-- Created with Inkscape (http://www.inkscape.org/) -->

<svg
   version="1.1"
   id="svg1"
   width="128"
   height="128"
   viewBox="0 0 1066.6578 1066.6578"
   sodipodi:docname="figma-icon.svg"
   inkscape:version="1.4.2 (f4327f4, 2025-05-13)"
   xmlns:inkscape="http://www.inkscape.org/namespaces/inkscape"
   xmlns:sodipodi="http://sodipodi.sourceforge.net/DTD/sodipodi-0.dtd"
   xmlns="http://www.w3.org/2000/svg"
   xmlns:svg="http://www.w3.org/2000/svg">
  <sodipodi:namedview
     id="namedview1"
     pagecolor="#ffffff"
     bordercolor="#000000"
     borderopacity="0.25"
     inkscape:showpageshadow="2"
     inkscape:pageopacity="0.0"
     inkscape:pagecheckerboard="0"
     inkscape:deskcolor="#d1d1d1"
     inkscape:zoom="3.7175926"
     inkscape:cx="13.180573"
     inkscape:cy="50.435865"
     inkscape:window-width="1920"
     inkscape:window-height="1017"
     inkscape:window-x="-8"
     inkscape:window-y="-8"
     inkscape:window-maximized="1"
     inkscape:current-layer="svg1" />
  <defs
     id="defs1" />
  <g
     id="g1"
     transform="translate(133.89343,-565.21629)"
     inkscape:label="Figma Icon">
    <path
       style="display:none;fill:#000000"
       d="m 1950.5,1599.9055 c -3.3,-0.4691 -9.6,-1.351 -14,-1.9598 -19.4079,-2.6852 -47.1703,-11.3363 -69.5,-21.657 -8.9106,-4.1185 -27.5447,-14.743 -28.4628,-16.2285 -0.2942,-0.4761 4.2413,-9.1219 10.0789,-19.2129 5.8376,-10.091 13.3367,-23.0723 16.6647,-28.8473 8.688,-15.0763 22.9038,-39.4492 23.2086,-39.7911 0.1428,-0.1602 4.2535,2.1405 9.1351,5.1125 19.7456,12.0218 32.9925,17.2704 56.3755,22.3369 12.5959,2.7292 39.5598,2.4609 54.5,-0.5423 18.9077,-3.8007 40.4739,-12.0603 54.1141,-20.7251 15.5531,-9.8799 33.9525,-26.9986 44.5177,-41.419 5.0598,-6.906 7.1216,-10.1789 12.7181,-20.188 3.8146,-6.8222 9.9519,-22.1839 12.4985,-31.2839 5.5333,-19.7725 5.9028,-23.8641 6.3898,-70.75 0.25,-24.0625 0.1252,-43.75 -0.2772,-43.75 -0.4025,0 -4.3833,3.296 -8.8464,7.3244 -32.9244,29.7183 -66.0767,45.3045 -111.0901,52.2278 -15.4705,2.3795 -49.1588,2.4134 -64.0245,0.064 -37.1547,-5.8709 -69.4184,-19.4834 -99.5,-41.9805 -19.5953,-14.6547 -42.3462,-39.8849 -57.283,-63.5254 -13.5292,-21.4128 -25.8093,-52.1245 -32.146,-80.3951 -5.1644,-23.0409 -6.0254,-32.1132 -6.0471,-63.7157 -0.022,-32.1859 0.723,-39.4722 6.5454,-64 18.2971,-77.08042 68.3549,-139.13412 134.9307,-167.26572 58.7566,-24.8276 127.8049,-23.0895 182.2282,4.5871 7.8495,3.99182 17.7373,9.60142 21.973,12.46579 7.2443,4.89894 27.6621,21.90846 30.6712,25.55133 0.7549,0.91382 1.7674,1.6615 2.25,1.6615 0.4827,0 0.8776,-10.35 0.8776,-23 v -23 h 50.5039 50.5038 l -0.1245,250.25 c -0.069,137.6375 -0.4601,255.2 -0.8702,261.25 -1.2241,18.0573 -6.6968,46.4477 -11.6623,60.5 -6.9941,19.7931 -8.1136,22.5152 -14.9723,36.4045 -8.4323,17.0762 -23.5138,40.1258 -33.8784,51.7777 -1.65,1.8549 -6.0754,6.8449 -9.8343,11.0889 -7.4276,8.3862 -23.5499,22.705 -34.972,31.0598 -37.1715,27.1893 -79.8883,44.0415 -124.6937,49.1929 -13.5803,1.5614 -48.595,1.7899 -58.5,0.3817 z m 66,-367.9907 c 44.9523,-5.3096 88.4372,-39.2555 108.3632,-84.5924 9.4746,-21.5574 13.4313,-40.2179 13.4265,-63.3224 -0.01,-27.9031 -4.6007,-47.763 -16.7737,-72.5 -23.8415,-48.44856 -71.2051,-79.5 -121.2636,-79.5 -64.3611,0 -120.8638,47.95849 -136.0771,115.5 -4.4403,19.7128 -4.9675,34.3619 -2.0514,57 6.409,49.7543 37.058,93.6251 80.8313,115.7017 14.3515,7.238 33.922,12.1945 51.5448,13.0543 6.0879,0.2971 10.3084,0.04 22,-1.3412 z M 3474,1393.4384 c -37.1159,-4.3479 -70.4708,-15.7003 -101.9043,-34.6836 -32.2192,-19.4577 -65.9479,-53.555 -85.817,-86.7548 -5.1156,-8.5477 -15.7639,-29.0315 -17.956,-34.541 -0.6475,-1.6275 -2.3973,-5.884 -3.8885,-9.459 -3.9893,-9.5637 -9.1057,-25.8643 -12.3984,-39.5 -21.8183,-90.3549 -3.6487,-185.0003 48.9502,-254.98143 14.6311,-19.46611 30.516,-35.66109 48.1278,-49.06732 52.3966,-39.88454 114.2849,-57.53217 178.3862,-50.86737 43.0836,4.47953 77.7826,16.81692 112.9253,40.15113 11.2628,7.47832 32.3112,24.72312 37.9797,31.1164 1.0477,1.18173 2.2852,2.14859 2.75,2.14859 0.4647,0 0.845,-13.275 0.845,-29.5 V 848 h 51 51 v 265.5 265.5 h -51 -51 v -29.5 c 0,-16.225 -0.2699,-29.5 -0.5998,-29.5 -0.3299,0 -4.684,3.8447 -9.6758,8.5438 -26.5281,24.9724 -63.3735,46.0477 -97.9711,56.0389 -32.2937,9.3258 -68.3871,12.53 -99.7533,8.8557 z m 65.4871,-100.4818 c 21.8062,-4.2082 39.3584,-10.8821 56.444,-21.4618 29.1788,-18.0682 52.271,-43.9723 67.3524,-75.554 18.1514,-38.0104 23.0108,-78.1075 14.5964,-120.4408 -8.175,-41.1289 -29.8576,-78.44512 -60.3799,-103.91494 -25.958,-21.66111 -48.1985,-32.03216 -81.5779,-38.04091 -9.6705,-1.74083 -35.5917,-2.10171 -42.2293,-0.58793 -2.306,0.52593 -7.944,1.67246 -12.5287,2.54785 -30.6372,5.84974 -63.4763,24.74487 -86.6924,49.88153 -23.1742,25.0914 -38.2402,54.3795 -46.098,89.6144 -2.6377,11.8277 -2.7868,13.8178 -2.7721,37 0.017,26.431 1.183,35.8889 6.7956,55.113 17.6843,60.5715 65.1764,108.5917 121.6028,122.9549 15.0835,3.8395 21.6666,4.6665 38.1992,4.7986 13.1186,0.1049 18.9697,-0.3046 27.2879,-1.9099 z M 955.46279,1377.75 c -0.26094,-0.6875 -0.35931,-178.775 -0.21861,-395.75 L 955.5,587.5 h 210.5 210.5 v 49.5 49.5 l -159.75,0.25306 -159.75,0.25306 V 795.00306 903 h 122.5 c 67.375,0 122.5434,0.3375 122.5965,0.75 0.053,0.4125 0.1656,22.68574 0.25,49.49609 l 0.1535,48.74611 -122.5,0.2539 -122.5,0.2539 -0.2526,188.25 -0.2526,188.25 h -50.5288 c -39.50331,0 -50.63229,-0.2728 -51.00321,-1.25 z m 554.21301,0.5925 C 1509.3041,1377.9708 1509,1258.4875 1509,1112.8242 V 847.98167 l 50.75,0.25917 50.75,0.25916 v 265 265 l -50.0742,0.2592 c -27.5408,0.1425 -50.3783,-0.045 -50.75,-0.4167 z m 888,0 C 2397.3041,1377.9708 2397,1258.4875 2397,1112.8242 V 847.98167 l 50.75,0.25917 50.75,0.25916 0.011,22.67784 c 0.01,12.47282 0.256,22.92274 0.5554,23.22205 0.2993,0.29932 3.2192,-2.63243 6.4888,-6.51498 21.2809,-25.27092 54.3933,-44.97972 87.0033,-51.78519 37.0506,-7.73217 76.9554,-3.87331 110.8042,10.71494 32.852,14.15864 58.7934,35.98387 78.3707,65.93534 2.9658,4.5375 5.7543,8.25 6.1965,8.25 0.4423,0 2.0397,-1.86703 3.5498,-4.14895 18.8521,-28.48752 53.1408,-56.17204 87.5489,-70.6866 28.2473,-11.91569 65.6073,-16.51784 98.9712,-12.19165 15.5778,2.01993 36.9526,8.34892 52,15.39703 28.542,13.36884 55.3753,37.32312 73.5182,65.63017 11.777,18.37489 22.0778,42.88632 27.4047,65.21157 8.0896,33.90413 8.1702,36.26603 7.8523,230.28843 l -0.2752,168 h -50.5 -50.5 l -0.5436,-176 -0.5435,-176 -2.1674,-8.5 c -11.2856,-44.26048 -44.2597,-76.34687 -86.9165,-84.57656 -10.207,-1.96922 -28.6373,-1.92561 -39.1786,0.0927 -31.8091,6.09048 -59.8515,26.94907 -75.9372,56.48385 -4.6111,8.46653 -7.1459,14.89991 -10.4408,26.50001 l -2.2724,8 -0.5,177 -0.5,177 h -50.5 -50.5 l -0.5446,-175.5 c -0.49,-157.8795 -0.7093,-176.2028 -2.1839,-182.5 -10.6297,-45.39313 -45.4641,-79.25656 -89.4422,-86.9492 -45.4646,-7.95266 -92.0619,15.76496 -114.065,58.05815 -6.2165,11.94895 -9.5509,22.15215 -11.8925,36.39105 -0.407,2.475 -0.7716,82.35 -0.8102,177.5 l -0.07,173 -50.0699,0.2592 c -27.5384,0.1425 -50.374,-0.045 -50.7457,-0.4167 z M 1544,745.49317 c -22.8783,-6.2433 -41.8301,-25.21972 -47.6513,-47.71343 -2.468,-9.53651 -2.1738,-26.43597 0.6142,-35.27974 5.2277,-16.58267 14.8688,-28.76862 29.9953,-37.91304 10.5482,-6.37666 19.875,-8.90474 33.0418,-8.95612 21.108,-0.0824 39.0061,8.44168 52.2691,24.89339 18.0795,22.42631 18.9831,55.4475 2.1623,79.01974 -7.748,10.85783 -19.8231,19.85261 -32.941,24.53792 -7.9878,2.85299 -29.2713,3.65418 -37.4904,1.41128 z"
       id="path1" />
    <path
       id="path4"
       style="display:inline;fill:#1abcfe;fill-opacity:1"
       d="m 549.06055,929.62891 c 5.52191,0.11097 8.35619,0.23787 8.44336,0.3789 0.38513,0.62315 -2.17843,0.99219 -6.88672,0.99219 -4.125,0 -7.7815,0.45667 -8.12696,1.01562 -0.34546,0.55896 -0.94318,0.82189 -1.32812,0.58399 -2.34071,-1.44664 -34.17358,7.17278 -41.9668,11.36328 -0.93244,0.50138 -3.94531,1.94798 -6.69531,3.21484 -25.55645,11.77324 -51.56488,34.64632 -68.58984,60.32227 -11.01007,16.6047 -20.95751,41.8756 -24.01172,61 -0.52702,3.3 -1.39371,8.025 -1.92774,10.5 -4.15602,19.2614 0.95477,63.684 9.11719,79.2363 0.50124,0.9551 0.91783,2.3051 0.92383,3 0.0144,1.6871 6.58387,15.5695 11.44922,24.1914 9.76777,17.3096 27.84554,37.8645 44.26172,50.3282 4.5227,3.4338 8.41585,6.2441 8.65039,6.2441 0.23453,0 2.83457,1.6269 5.77734,3.6152 6.01786,4.0661 22.38292,12.0605 26.47266,12.9317 0.61775,0.1315 2.64275,0.9582 4.5,1.8379 4.48667,2.125 18.58037,5.9464 26.63281,7.2207 2.05911,0.3259 3.97035,0.7299 4.24609,0.8984 0.27574,0.1686 4.10074,0.6244 8.5,1.0137 4.39926,0.3893 8.11039,0.8085 8.24805,0.9297 0.68901,0.6068 25.7779,-0.4271 32.75,-1.3496 23.08269,-3.0539 47.41463,-11.6412 66.5,-23.4688 16.66249,-10.3261 35.52684,-27.3239 46.20117,-41.6289 5.46383,-7.3223 16.78535,-25.3615 16.81055,-26.7852 0.007,-0.3931 1.32683,-3.3045 2.93164,-6.4687 3.88831,-7.6667 8.53431,-21.2088 10.54883,-30.7461 0.0581,-0.275 0.4118,-1.4 0.78515,-2.5 3.64918,-10.7514 4.948,-44.3556 2.35743,-61 -0.34241,-2.2 -0.81559,-5.35 -1.05079,-7 -1.27938,-8.9754 -8.32941,-31.468 -12.0332,-38.3906 -0.76764,-1.4347 -2.40532,-4.8594 -3.63867,-7.6094 -1.23334,-2.75 -3.74394,-7.2966 -5.57813,-10.1035 -1.83418,-2.8069 -3.33398,-5.5111 -3.33398,-6.0098 0,-0.4987 -1.03202,-2.0271 -2.29297,-3.3965 -1.26095,-1.3694 -3.81884,-4.7402 -5.68359,-7.4902 -4.75935,-7.01872 -24.04038,-26.07552 -33.22071,-32.83398 C 664.5695,960.54956 660.88022,958 660.60352,958 c -0.2767,0 -2.43767,-1.30317 -4.80274,-2.89648 -5.37883,-3.62361 -21.28338,-11.83677 -25.29492,-13.0625 -1.65332,-0.50517 -5.03086,-1.67504 -7.50586,-2.59961 -5.92243,-2.21239 -18.12029,-5.36443 -25,-6.46094 -3.025,-0.48214 -6.52976,-1.10296 -7.78906,-1.37891 -1.2593,-0.27595 -4.7468,-0.60115 -7.75,-0.72265 -3.0032,-0.1215 -5.46094,-0.56789 -5.46094,-0.99219 0,-0.0992 -0.0447,-0.18628 -0.12695,-0.25781 z" />
    <path
       id="path9"
       style="display:inline;fill:#ff7262;fill-opacity:1"
       d="m 487.5293,588.12695 -90.07813,0.17188 -0.1914,170.25 -0.19336,170.25 3.0332,0.082 c 15.30206,0.42034 178.94679,0.16781 181.14648,-0.2793 1.58794,-0.32308 5.13644,-0.83604 7.88672,-1.13867 9.62605,-1.05929 13.05648,-1.68388 20.00391,-3.64453 3.85103,-1.08681 9.02824,-2.54766 11.5039,-3.24609 23.35362,-6.58852 48.39998,-22.05534 68.25586,-42.14844 18.91142,-19.13735 31.28563,-38.88411 39.44336,-62.9375 5.54714,-16.35595 7.24384,-24.36167 8.86133,-41.84766 0.23278,-2.51648 0.62471,-4.92179 1.01758,-6.42969 v -12.27343 c -0.19318,0.0989 -0.31279,0.13624 -0.35742,0.10742 -9.9e-4,-7.8e-4 -0.005,-0.005 -0.006,-0.006 -0.0445,-0.0634 0.0752,-0.28006 0.36328,-0.66211 v -4.15234 c -0.3291,-1.36569 -0.64095,-3.39454 -0.83398,-5.60352 -1.5397,-17.61933 -2.81587,-23.51742 -9.75,-45.00976 -3.95341,-12.25361 -13.96818,-30.54937 -24.64454,-45.02344 -6.79219,-9.20825 -25.53297,-27.25792 -36.08789,-34.75782 -23.63821,-16.79634 -55.92464,-28.65944 -82.83203,-30.43359 -2.95655,-0.19493 -5.62037,-0.59687 -5.92187,-0.89453 -0.29717,-0.29772 -41.0761,-0.46693 -90.61914,-0.37305 z" />
    <path
       id="path2"
       style="display:inline;fill:#0acf83;fill-opacity:1"
       d="m 395.03906,1271.8301 -95.26953,0.5117 c -57.16357,0.3064 -97.46943,0.9122 -100.76953,1.5156 -12.69281,2.3206 -17.16148,3.485 -29.8125,7.7656 -36.31124,12.2862 -65.76201,35.2544 -87.035156,67.877 C 76.049985,1358.858 66,1378.4883 66,1381.0508 c 0,0.6305 -0.634207,2.5656 -1.408203,4.2988 -1.374372,3.0774 -3.027268,8.5342 -5.953125,19.6504 -0.796199,3.025 -1.734367,8.65 -2.085938,12.5 -0.715344,7.8336 -1.175237,12.3973 -1.574218,15.0156 v 19.584 c 0.450305,2.5775 0.908928,7.1515 1.554687,14.9043 0.343585,4.125 1.028578,8.85 1.521485,10.5 0.492904,1.65 1.860139,6.6 3.039062,11 1.178923,4.4 2.765657,9.4173 3.525391,11.1504 0.759734,1.7332 1.380859,3.6683 1.380859,4.2988 0,2.8034 10.469399,22.9342 17.285156,33.2364 16.770764,25.3496 44.930094,49.1757 71.714844,60.6796 3.025,1.2992 6.19015,2.7038 7.0332,3.1211 0.84306,0.4174 3.07791,1.0988 4.9668,1.5137 1.88889,0.4149 4.12374,1.1143 4.9668,1.5547 2.4358,1.2723 11.00562,3.685 17.5332,4.9355 10.39323,1.9912 11.16834,2.0948 21.19141,2.8516 12.43749,0.939 32.7664,0.2792 41.30859,-1.3418 0.825,-0.1566 4.425,-0.7981 8,-1.4258 3.575,-0.6277 7.4,-1.5065 8.5,-1.9531 1.1,-0.4466 7.12264,-2.5016 13.38477,-4.5664 17.05853,-5.6245 34.9306,-15.3764 50.11523,-27.3457 7.0273,-5.5393 22.96419,-22.0228 28.67578,-29.6582 9.16769,-12.2557 19.60216,-31.3294 23.82422,-43.5508 0.095,-0.275 0.44623,-1.175 0.78125,-2 0.33501,-0.825 1.04865,-3.075 1.58594,-5 0.53729,-1.925 1.87477,-6.65 2.9707,-10.5 1.09593,-3.85 2.31194,-9.7 2.70313,-13 0.39119,-3.3 0.98261,-6.9 1.31445,-8 0.33185,-1.1 0.73491,-44.6748 0.89453,-96.834 z" />
    <path
       id="path8"
       style="display:inline;fill:#a259ff;fill-opacity:1"
       d="m 215.79102,929.89648 c -0.006,0.007 -0.015,0.0196 -0.0215,0.0273 -0.001,0.001 -0.003,0.003 -0.004,0.004 -0.001,5e-4 -0.006,0.005 -0.008,0.006 h -0.002 c -0.14265,0.0476 -0.84457,-0.0558 -0.92383,-0.002 h -0.002 l -0.002,0.002 -0.002,0.002 v 0.002 0.002 0.002 c 9.5e-4,0.007 0.005,0.0185 0.006,0.0254 v 0.002 0.002 0.002 0.002 h -0.002 v 0.002 h -0.002 v 0.002 c -0.1108,0.0554 -0.29448,-0.009 -0.39843,0.043 -0.0894,0.0447 -0.203,0.0634 -0.3086,0.0898 -0.16091,0.0402 -0.76632,-0.0592 -0.88476,0 -0.1971,0.0986 -0.48882,0.0443 -0.70703,0.0879 -0.12553,0.0251 -0.24603,0.079 -0.35352,0.13281 -0.0471,0.0236 -0.12868,-0.0236 -0.17578,0 -0.001,5e-4 -0.004,0.003 -0.006,0.004 h -0.002 c -0.008,0.009 -0.0191,0.0264 -0.0273,0.0351 -5e-4,3.3e-4 -0.005,0.003 -0.006,0.004 h -0.002 -0.004 c -0.1479,0.037 -0.34173,-0.0482 -0.48632,0 l -0.002,0.002 h -0.002 l -0.002,0.002 c -0.0123,0.01 -0.0221,0.0305 -0.0352,0.0391 l -0.002,0.004 c -0.0598,0.0299 -0.15835,-0.0214 -0.22266,0 -0.0313,0.0104 -0.0567,0.0326 -0.0879,0.043 -0.0874,0.0292 -0.539,-0.0289 -0.61328,-0.002 -0.001,4.8e-4 -0.003,-5.3e-4 -0.004,0 l -0.002,0.002 v 0.004 h -0.002 v 0.002 c -6e-5,9e-4 -8e-5,0.005 0,0.006 10e-4,0.006 0.005,0.0155 0.006,0.0215 8e-5,9.6e-4 6e-5,0.005 0,0.006 v 0.002 0.002 h -0.002 v 0.002 h -0.002 l -0.002,0.002 c -0.0931,0.0617 -0.98013,-0.0573 -1.14649,-0.002 -0.12267,0.0409 -0.24664,0.0345 -0.35351,0.0879 -0.0582,0.0291 -0.15871,-0.0207 -0.22071,0 -0.0567,0.0189 -0.12103,0.0709 -0.17773,0.0898 -0.10812,0.0362 -0.14406,-0.0168 -0.26367,0.043 -0.10227,0.0512 -0.42909,-0.006 -0.53125,0.0449 -0.0843,0.0422 -0.0485,0.003 -0.13281,0.0449 h -0.002 v 0.002 l -0.002,0.002 v 0.002 0.002 c 9e-4,0.005 0.004,0.014 0.006,0.0195 l 0.002,0.002 v 0.002 0.002 0.002 0.002 l -0.002,0.002 v 0.002 0.002 h -0.002 l -0.002,0.002 c -0.0335,0.0244 -0.13469,-0.0215 -0.17383,-0.002 -0.13732,0.0687 -0.28735,0.0808 -0.44335,0.13281 -0.18531,0.0618 -0.40024,-0.0421 -0.57422,0.0449 -0.12946,0.0647 -0.34766,-0.0462 -0.48633,0 -0.13471,0.0449 -0.27858,0.0289 -0.39649,0.0879 -0.0821,0.0411 -0.22264,-0.0293 -0.31054,0 -0.0537,0.0179 -0.0739,0.0285 -0.082,0.0351 l -0.002,0.002 -0.002,0.002 v 0.002 l -0.002,0.002 v 0.002 h -0.002 c -0.005,7e-4 -0.0212,0 -0.0859,0 -0.0259,0 -0.0384,-0.002 -0.043,-0.002 h -0.002 v 0.002 h 0.002 l 0.002,0.002 v 0.002 0.002 0.002 0.002 0.002 l -0.002,0.002 c -0.006,0.007 -0.021,0.0173 -0.0449,0.0293 -0.0386,0.0193 -0.14043,-0.009 -0.17773,0 -0.13485,0.0337 -0.30114,0.0898 -0.44141,0.0898 -0.0589,0 -0.13603,-0.0417 -0.17773,0 l -0.002,0.002 v 0.002 c -6e-5,9e-4 -8e-5,0.007 0,0.008 0.001,0.006 0.005,0.0155 0.006,0.0215 8e-5,9.5e-4 6e-5,0.005 0,0.006 v 0.002 h -0.002 v 0.002 0.002 h -0.002 c -0.0612,0.0517 -0.2793,-0.0371 -0.35352,0 -0.18439,0.0922 -0.42152,-0.021 -0.61914,0.0449 -0.0914,0.0305 -0.0887,0.043 -0.17578,0.043 -0.10792,0 -0.25142,-0.0255 -0.35351,0 -0.12639,0.0316 -0.24389,0.078 -0.35352,0.13282 -0.0943,0.0471 -0.25921,-0.0471 -0.35351,0 -0.12423,0.0621 -0.274,0.0276 -0.39844,0.0898 -0.0475,0.0237 -0.12468,-0.0171 -0.17578,0 -0.09,0.03 -0.12417,0.0408 -0.13086,0.0449 v 0.002 c 0.009,-3e-5 0.042,-0.006 0.0547,-0.004 v 0.002 h 0.002 0.002 v 0.002 0.002 0.002 l -0.002,0.002 c -0.008,0.007 -0.027,0.0194 -0.0586,0.0352 -0.0847,0.0422 -0.22594,6.4e-4 -0.31054,0.043 v 0.002 h -0.002 v 0.002 0.002 0.002 c -1.14318,0.1186 -1.78827,0.23198 -2.63476,0.34961 -0.005,-10e-5 -0.009,1.2e-4 -0.0137,0 v 0.002 c -0.0294,0.004 -0.0629,0.008 -0.0918,0.0117 -0.0303,-0.007 -0.063,-0.0176 -0.0859,-0.0176 -0.0179,0.0128 -0.0362,0.025 -0.0547,0.0371 -0.49417,0.0712 -1.29836,0.14952 -1.61133,0.21289 -1.65,0.33409 -4.575,0.85992 -6.5,1.16797 -1.925,0.30805 -4.85,0.96422 -6.5,1.45703 -1.65,0.49282 -6.375,1.89963 -10.5,3.12696 -4.125,1.22734 -7.92672,2.59634 -8.44922,3.04297 -0.5225,0.44663 -1.59978,0.8125 -2.39258,0.8125 -1.51334,0 -14.13104,5.96064 -22.67578,10.71093 -15.33698,8.5263 -35.41388,25.93484 -48.175782,41.77539 -11.759334,14.59603 -21.480367,32.76893 -27.822266,52.01363 -5.24011,15.9013 -6.386091,21.646 -8.080078,40.4961 -0.155428,1.7295 -0.373928,3.3599 -0.603516,4.6133 v 18.3359 c 0.27926,1.4176 0.519189,3.1027 0.652344,4.711 3.958621,47.8204 26.765479,90.2023 64.726558,120.2851 13.19272,10.4548 31.34813,19.9017 47.24024,26.1817 5.86545,2.3178 9.75508,3.4381 11.64258,4.0781 0.80448,0.2728 3.5875,1.367 6.0625,1.9785 2.475,0.6115 12.68472,3.0934 14.8125,3.1367 5.65424,0.1151 129.1188,-0.4339 194.58789,-0.9355 l 0.75,-339.41015 -108.71485,-0.0781 z m -17.49805,2.22071 c -0.0468,-0.002 -0.11368,0.0135 -0.13281,0.0215 l -0.002,0.002 v 0.002 h 0.002 0.002 0.002 0.002 c 0.0596,0 0.11953,0.002 0.17773,0.004 8e-5,-0.001 0,-0.003 0,-0.004 v -0.002 -0.002 l -0.002,-0.002 v -0.002 l -0.002,-0.002 -0.002,-0.002 -0.002,-0.002 -0.002,-0.002 c -0.009,-0.006 -0.024,-0.009 -0.041,-0.01 z" />
    <path
       id="path3"
       style="display:inline;fill:#f24e1e;fill-opacity:1"
       d="m 392.53125,587.91992 c -15.30245,-0.40597 -178.94526,0.002 -181.14453,0.45117 -1.58764,0.32457 -5.13672,0.83932 -7.88672,1.14453 -9.62505,1.06833 -13.05441,1.6969 -20,3.66407 -3.85,1.09042 -9.025,2.55705 -11.5,3.25781 -23.34743,6.61044 -48.37979,22.09921 -68.2168,42.21094 -18.893435,19.1551 -31.249622,38.91357 -39.384762,62.97461 -5.53178,16.36115 -7.221187,24.36992 -8.822266,41.85742 -0.109986,1.2013 -0.256364,2.37648 -0.421875,3.44141 v 23.18554 c 0.10178,0.75512 0.192151,1.5608 0.265625,2.39258 1.556245,17.61788 2.838664,23.51417 9.792969,45 3.964916,12.24989 13.995598,30.53596 24.685547,45 6.800831,9.20187 25.559132,27.23462 36.121092,34.72461 23.65397,16.77414 55.95229,28.60659 82.86133,30.35547 2.49523,0.16217 4.78094,0.47272 5.61523,0.74414 H 395.5 L 395.53125,758.25 395.56445,588 Z" />
  </g>
</svg>
