<?xml version="1.0" encoding="UTF-8" standalone="no"?>
<!-- Created with Inkscape (http://www.inkscape.org/) -->

<svg
   version="1.1"
   id="svg1"
   width="128"
   height="128"
   viewBox="0 0 474.07407 474.07407"
   sodipodi:docname="git-icon.svg"
   inkscape:version="1.4.2 (f4327f4, 2025-05-13)"
   xmlns:inkscape="http://www.inkscape.org/namespaces/inkscape"
   xmlns:sodipodi="http://sodipodi.sourceforge.net/DTD/sodipodi-0.dtd"
   xmlns="http://www.w3.org/2000/svg"
   xmlns:svg="http://www.w3.org/2000/svg">
  <defs
     id="defs1" />
  <sodipodi:namedview
     id="namedview1"
     pagecolor="#ffffff"
     bordercolor="#000000"
     borderopacity="0.25"
     inkscape:showpageshadow="2"
     inkscape:pageopacity="0.0"
     inkscape:pagecheckerboard="0"
     inkscape:deskcolor="#d1d1d1"
     inkscape:zoom="3.1917192"
     inkscape:cx="151.01579"
     inkscape:cy="116.39495"
     inkscape:window-width="1920"
     inkscape:window-height="1017"
     inkscape:window-x="-8"
     inkscape:window-y="-8"
     inkscape:window-maximized="1"
     inkscape:current-layer="g1" />
  <g
     inkscape:groupmode="layer"
     inkscape:label="Image"
     id="g1"
     transform="translate(8.1228718,2.3208205)">
    <path
       id="path2"
       style="display:inline;fill:#f05134;fill-opacity:1"
       d="m 232.76839,11.713772 c -1.25252,-0.04589 -2.532,0.06269 -4.10352,0.08984 -10.80509,0.186675 -13.60299,2.126189 -37.69726,26.136719 -17.89266,17.830465 -21.16581,21.53415 -20.33008,23 0.54787,0.960961 11.73848,12.463027 24.86914,25.5586 22.83041,22.769379 24.00085,23.774639 26.78711,23.025389 5.93608,-1.59625 15.87451,-0.72945 21.57617,1.88086 10.73975,4.91682 17.14637,12.72925 19.89258,24.25586 1.53924,6.46066 1.60815,8.19798 0.51367,12.90625 l -1.26367,5.4414 24.59765,24.46485 24.59766,24.46679 3.5,-0.98047 c 5.28884,-1.48265 15.80307,-0.37845 21.33984,2.24219 6.64398,3.1447 13.69569,10.31002 17.21094,17.48633 2.50705,5.11809 2.94131,7.17942 2.94531,14.02148 0.004,7.05518 -0.39257,8.8254 -3.28906,14.70899 -4.22565,8.58351 -10.94755,14.6011 -19.80078,17.72656 -16.27358,5.74506 -34.50799,-1.79842 -42.33398,-17.51367 -2.84375,-5.71049 -3.93912,-17.64727 -2.19727,-23.94922 l 1.10352,-3.99414 -21.69336,-21.71289 c -11.9315,-11.94192 -21.84908,-21.55718 -22.03907,-21.36719 -0.19,0.18999 -0.34093,26.83597 -0.33593,59.21289 0.009,55.51932 0.11265,58.92406 1.80078,59.86719 0.98446,0.55 4.11692,3.36625 6.96094,6.25781 12.91133,13.12717 12.51504,35.28237 -0.85547,47.86133 -18.34032,17.25456 -47.18037,10.84351 -56.34961,-12.52734 -3.47103,-8.84709 -3.18539,-17.59605 0.85547,-26.13086 2.90312,-6.13175 10.31376,-14.15375 14.78515,-16.00586 l 2.89258,-1.19727 V 236.079 175.21377 l -3.75,-2.36914 c -5.69191,-3.5964 -11.02783,-9.54726 -14.03906,-15.65625 -2.34635,-4.76012 -2.71094,-6.72408 -2.71094,-14.59766 0,-6.24492 0.43017,-9.61661 1.37305,-10.75195 1.22293,-1.47258 -1.30624,-4.34001 -23.0625,-26.15234 -13.43963,-13.474269 -24.92897,-24.498049 -25.53321,-24.498049 -0.60424,0 -31.39208,30.370839 -68.416012,67.490229 -47.749998,47.87311 -68.041803,68.87341 -69.814453,72.25 -3.4716772,6.61294 -3.5542982,17.7186 -0.179687,24.25977 1.626934,3.15356 32.589758,34.76121 103.478512,105.63867 87.082,87.06811 101.78036,101.36156 105.6543,102.73242 6.82474,2.41506 17.60319,1.64835 23.14453,-1.64648 2.41413,-1.43542 49.01048,-47.30795 104.5332,-102.9082 l 100.17579,-100.31641 1.69726,-5.93164 c 2.06543,-7.22136 1.43391,-15.66719 -1.63086,-21.83008 C 446.18053,218.01645 414.17644,185.31461 345.45979,116.53604 248.94934,19.938599 241.53601,12.034986 232.76839,11.713772 Z"
       inkscape:label="icon" />
  </g>
</svg>
