<?xml version="1.0" encoding="UTF-8" standalone="no"?>
<svg
   viewBox="0 0 120.75472 120.75472"
   version="1.1"
   id="svg4"
   width="128"
   height="128"
   xmlns="http://www.w3.org/2000/svg"
   xmlns:svg="http://www.w3.org/2000/svg">
  <defs
     id="defs4" />
  <path
     fill="#ea4535"
     d="m 76.990891,39.548102 h 0.4 l -0.2,-0.2 13.999999,-14 v -0.3 c -11.799999,-10.4 -28.099999,-14 -43.199999,-9.5 -15.099999,4.5 -26.699999,16.5 -30.899999,31.699999 0.2,-0.1 0.5,-0.2 0.8,-0.2 5.2,-3.399999 11.4,-5.399999 17.9,-5.399999 2.2,0 4.3,0.2 6.399999,0.6 0.1,-0.1 0.2,-0.1 0.3,-0.1 9,-9.9 24.2,-11.1 34.6,-2.6 z"
     id="path1"
     style="display:inline" />
  <path
     fill="#557ebf"
     d="m 104.49089,47.048101 c -2.3,-8.499999 -7.1,-16.199999 -13.8,-22.099999 l -14.299999,14.2 c 5.999999,4.9 9.499999,12.299999 9.299999,19.999999 v 2.5 c 16.9,0 16.9,25.199999 0,25.199999 H 60.290891 v 20 h -0.1 l 0.1,0.2 H 85.69089 c 14.6,0.1 27.5,-9.3 31.8,-23.099999 4.3,-13.8 -1,-28.8 -13,-36.9 z"
     id="path2"
     style="display:inline" />
  <path
     fill="#36a852"
     d="m 35.390892,107.1481 h 26.299999 v -20.2 H 35.390892 c -1.9,0 -3.7,-0.4 -5.4,-1.1 l -15.2,14.6 v 0.2 c 6,4.3 13.2,6.6 20.7,6.6 z"
     id="path3"
     style="display:inline" />
  <path
     fill="#f9bc15"
     d="m 36.590892,41.148102 c -14.9,0.1 -28.0999997,9.299999 -32.8999995,22.799999 -4.7999999,13.6 0,28.499999 11.7999995,37.299999 l 15.6,-14.9 c -8.6,-3.699999 -10.6,-14.499999 -4,-20.799999 6.6,-6.4 17.799999,-4.4 21.699999,3.8 l 15.6,-14.9 c -6.6,-8.3 -16.9,-13.199999 -27.799999,-13.099999 z"
     id="path4"
     style="display:inline" />
</svg>
