<?xml version="1.0" encoding="UTF-8" standalone="no"?>
<!-- Created with Inkscape (http://www.inkscape.org/) -->

<svg
   version="1.1"
   id="svg1"
   width="682.66669"
   height="682.66669"
   viewBox="0 0 682.66669 682.66669"
   xmlns="http://www.w3.org/2000/svg"
   xmlns:svg="http://www.w3.org/2000/svg">
  <defs
     id="defs1" />
  <g
     id="g1">
    <path
       id="path1"
       style="display:inline;fill:#0066ff;stroke:#ffffff;stroke-opacity:1;stroke-width:1.3;stroke-dasharray:none"
       d="M 345.4082 0.33398438 C 174.12336 0.085465285 85.012439 0.4168204 80.125 1.3203125 C 56.044418 5.77185 36.589027 25.133836 32.027344 49.1875 C 30.145096 59.112555 30.145096 623.55347 32.027344 633.47852 C 36.463176 656.86857 55.883215 676.69269 78.810547 681.23438 C 82.032506 681.87261 201.30465 682.29574 344 682.17578 C 632.46546 681.93328 607.69486 682.75147 622.93359 672.95898 C 635.5816 664.83129 642.99684 655.20793 648.14648 640.24023 C 650.58784 633.14446 650.66602 623.79358 650.66602 341.33398 C 650.66602 58.874392 650.58779 49.52156 648.14648 42.425781 C 642.99684 27.458089 635.5816 17.834713 622.93359 9.7070312 C 607.70692 -0.07771278 632.23832 0.75014941 345.4082 0.33398438 z M 574.37695 40 L 584.85547 40.001953 C 597.16836 40.004388 603.09802 42.397394 607.64062 49.197266 L 610.66602 53.728516 L 610.66602 341.33398 L 610.66602 628.93945 L 607.64062 633.46875 C 605.976 635.96053 602.52471 639.04984 599.97266 640.33203 C 596.73374 641.95932 592.16933 642.66306 584.85547 642.66406 L 574.37695 642.66602 L 575.52148 639 C 577.01754 634.2072 577.01754 48.458813 575.52148 43.666016 L 574.37695 40 z M 83.333984 40.666016 L 304.23633 40.666016 L 525.13867 40.666016 L 528.90234 43.472656 C 530.97278 45.015978 533.86731 48.31663 535.33398 50.806641 C 537.97825 55.295975 538 57.731966 538 341.33398 C 538 624.93601 537.97829 627.372 535.33398 631.86133 C 533.86731 634.35135 530.97271 637.65004 528.90234 639.19336 L 525.13867 642 L 305.56836 642.30859 C 62.411341 642.65126 80.82185 643.3021 74.291016 634.14648 L 71.333984 630 L 70.990234 342.88672 C 70.610692 24.622533 69.911383 50.240626 79.164062 43.640625 L 83.333984 40.666016 z M 303.24609 304.00195 C 140.96938 304.00389 129.70569 304.15229 125.35938 306.33594 C 111.08676 313.50675 111.08676 334.49325 125.35938 341.66406 C 129.70569 343.84772 140.96938 343.99605 303.24609 343.99805 C 473.77148 344.00009 476.57766 343.9589 482 341.33398 C 488.33849 338.26557 493.33398 330.6259 493.33398 324 C 493.33398 317.3741 488.33849 309.73443 482 306.66602 C 476.57766 304.0411 473.77148 303.99995 303.24609 304.00195 z M 303.24609 374.66797 C 140.96938 374.66991 129.70569 374.81829 125.35938 377.00195 C 111.08676 384.17276 111.08676 405.16122 125.35938 412.33203 C 129.70569 414.51569 140.96938 414.66206 303.24609 414.66406 C 473.77148 414.6661 476.57766 414.62491 482 412 C 488.33849 408.93159 493.33398 401.29191 493.33398 394.66602 C 493.33398 388.04012 488.33849 380.4024 482 377.33398 C 476.57766 374.70907 473.77148 374.66597 303.24609 374.66797 z M 303.24609 482.66797 C 140.96938 482.66991 129.70569 482.81829 125.35938 485.00195 C 111.08676 492.17276 111.08676 513.16122 125.35938 520.33203 C 129.70569 522.51569 140.96938 522.66206 303.24609 522.66406 C 473.77148 522.6661 476.57766 522.62491 482 520 C 488.33849 516.93159 493.33398 509.29192 493.33398 502.66602 C 493.33398 496.04013 488.33849 488.40239 482 485.33398 C 476.57766 482.70906 473.77148 482.66597 303.24609 482.66797 z M 224.37695 552.00195 C 137.18744 552.00386 129.64614 552.1822 125.35938 554.33594 C 111.08676 561.50675 111.08676 582.49325 125.35938 589.66406 C 129.64613 591.8178 137.18744 591.99605 224.37695 591.99805 C 326.74588 592.00029 324.53927 592.15235 330.42188 584.67383 C 338.86203 573.9439 335.2998 559.05069 323.04297 553.82812 C 319.54352 552.33702 301.35276 551.99995 224.37695 552.00195 z " />
    <path
       id="path2"
       style="display:inline;fill:#2ca02c"
       d="m 189.45117,84.759766 c -5.42673,-0.125216 -10.95407,1.805005 -14.6914,5.832031 -4.94714,5.330595 -61.42579,137.196193 -61.42579,143.416013 0,7.34046 5.70695,16.08431 12,18.38477 1.1,0.40211 4.7,0.77488 8,0.83008 9.24565,0.15453 14.1354,-3.57904 19.13477,-14.61133 l 4.19727,-9.26367 32.99023,-0.008 32.98828,-0.006 4.42578,9 c 5.43024,11.04193 10.60031,15 19.59571,15 11.62817,0 20.74297,-9.61663 19.58984,-20.66796 -0.6586,-6.31183 -57.88368,-135.339218 -62.7168,-141.410161 -3.33587,-4.190232 -8.66115,-6.370878 -14.08789,-6.496093 z M 316,85.333984 c -12.50348,0 -19.99405,8.864344 -19.99805,23.666016 l -0.002,8.33398 -6.33398,0.006 c -20.57666,0.0242 -31.86282,13.56447 -24.12305,28.93946 4.15012,8.24418 9.59846,11.05468 21.43555,11.05468 H 296 l 0.0215,9 c 0.0264,10.83422 3.55908,18.10144 10.625,21.86133 2.55523,1.35967 6.76397,2.47071 9.35352,2.47071 12.08454,0 19.94252,-9.56922 19.97852,-24.33204 l 0.0215,-9 h 9.02148 c 11.83709,0 17.28543,-2.8105 21.43555,-11.05468 4.04878,-8.04287 3.08356,-15.12215 -2.92969,-21.49805 -4.70016,-4.98362 -11.66578,-7.43021 -21.19336,-7.44141 L 336,117.33398 335.99805,109 C 335.99437,94.198328 328.50348,85.333984 316,85.333984 Z M 189.74023,155.64844 c 0.0273,-0.002 0.0487,0.0116 0.0645,0.0371 0.44123,0.71392 4.06933,8.57622 8.0625,17.47265 l 7.26172,16.17578 h -15.32227 c -14.35229,0 -15.26978,-0.15721 -14.5293,-2.49023 2.46005,-7.75094 13.3276,-31.11914 14.46289,-31.19531 z" />
  </g>
</svg>
