<?xml version="1.0" encoding="UTF-8" standalone="no"?>
<svg
   width="128"
   height="128"
   viewBox="0 0 32.820513 32.820513"
   version="1.1"
   id="svg4"
   xmlns="http://www.w3.org/2000/svg"
   xmlns:svg="http://www.w3.org/2000/svg">
  <defs
     id="defs4" />
  <rect
     style="display:none;fill:#0000ff;fill-rule:evenodd;stroke-width:0.25641"
     id="rect1"
     width="39.247734"
     height="38.496307"
     x="-5.2022033"
     y="-3.1791244" />
  <path
     id="path1"
     style="display:inline;stroke:#ffffff;stroke-opacity:0.995268"
     d="M 2.2966747,0.40564904 4.8647837,29.206731 16.386719,32.404848 27.942708,29.202725 30.512821,0.40564904 Z M 6.8209135,5.1442308 H 27.051282 V 27.91867 H 6.8209135 Z" />
  <path
     id="path8"
     style="display:inline"
     d="M 2.2966747 0.40564904 L 4.8647837 29.206731 L 16.386719 32.404848 L 27.942708 29.202725 L 30.512821 0.40564904 L 2.2966747 0.40564904 z M 5.8378406 2.3697917 L 27.22506 2.3697917 L 27.22506 28.033854 L 5.8378406 28.033854 L 5.8378406 2.3697917 z " />
  <path
     id="path9"
     style="display:inline;fill:#e44d26;fill-opacity:1"
     d="M 2.2966747,0.40564904 4.8647837,29.206731 16.386719,32.404848 27.942708,29.202725 30.512821,0.40564904 Z M 7.5465746,6.2925681 h 8.8441504 0.002 0.01202 8.835637 l -0.08363,0.9480169 -0.164263,1.7898638 -0.07011,0.7942708 h -8.517628 v 10e-4 h -4.996996 l 0.323017,3.6167864 h 4.673979 v -0.002 h 8.209635 l -0.969551,10.845353 -7.242088,2.00671 v -0.02153 l -0.01402,0.0045 -7.2360777,-1.9997 -0.4947917,-5.546374 h 3.5476764 l 0.2499,2.817007 3.934295,1.0622 0.01502,-0.004 v 0.01252 l 3.9378,-1.062701 0.40014,-4.579827 h -4.33794 -0.01202 -7.8931286 z" />
  <path
     d="M 16.392616,6.2926158 H 7.5466158 l 0.953,10.6820002 h 7.9050002 v -3.532 h -4.674 l -0.323,-3.6170002 h 4.997 v -3.533 z m 0.012,16.3120002 -0.015,0.004 -3.934,-1.062 -0.25,-2.817 H 8.6576158 l 0.495,5.546 7.2360002,2 0.016,-0.005 z"
     fill="#ebebeb"
     id="path6"
     style="display:none" />
  <path
     d="m 16.392616,16.974616 h 4.35 l -0.4,4.58 -3.94,1.063 v 3.675 l 7.242,-2.007 0.97,-10.845 h -8.21 z m 8.764,-9.7340002 0.084,-0.948 h -8.85 v 3.532 h 8.532 l 0.07,-0.794 z"
     fill="#ffffff"
     id="path4"
     style="display:none" />
  <path
     d="m 4.8646158,29.206616 -2.568,-28.80100018 H 30.512616 l -2.57,28.79700018 -11.556,3.202 z"
     fill="#e44d26"
     id="path5"
     style="display:none" />
  <path
     d="m 25.741616,27.368616 2.197,-24.6080002 h -11.534 V 29.957616 Z"
     fill="#f16529"
     id="path10"
     style="display:inline;fill:#ebebeb;fill-opacity:0.15000001" />
  <path
     id="path2"
     style="display:inline;fill:#f16529;fill-opacity:1"
     d="m 16.404748,2.7604167 v 3.5321514 h 8.835637 l -0.08363,0.9480169 -0.164263,1.7898638 -0.07011,0.7942708 h -8.517628 v 3.6157854 h 8.209635 l -0.969551,10.845353 -7.240084,2.006209 v 3.665365 L 25.741687,27.36879 27.938702,2.7604167 Z m 0,14.2142433 v 5.642528 l 3.9378,-1.062701 0.40014,-4.579827 z" />
</svg>
