<?xml version="1.0" encoding="UTF-8" standalone="no"?>
<svg
   width="128"
   height="128"
   viewBox="0 0 32.820513 32.820513"
   version="1.1"
   id="svg2"
   sodipodi:docname="java-icon.svg"
   inkscape:version="1.4.2 (f4327f4, 2025-05-13)"
   xmlns:inkscape="http://www.inkscape.org/namespaces/inkscape"
   xmlns:sodipodi="http://sodipodi.sourceforge.net/DTD/sodipodi-0.dtd"
   xmlns="http://www.w3.org/2000/svg"
   xmlns:svg="http://www.w3.org/2000/svg">
  <defs
     id="defs2" />
  <sodipodi:namedview
     id="namedview2"
     pagecolor="#ffffff"
     bordercolor="#000000"
     borderopacity="0.25"
     inkscape:showpageshadow="2"
     inkscape:pageopacity="0.0"
     inkscape:pagecheckerboard="0"
     inkscape:deskcolor="#d1d1d1"
     inkscape:zoom="4.4359902"
     inkscape:cx="17.13259"
     inkscape:cy="65.712499"
     inkscape:window-width="1920"
     inkscape:window-height="1017"
     inkscape:window-x="-8"
     inkscape:window-y="-8"
     inkscape:window-maximized="1"
     inkscape:current-layer="svg2" />
  <path
     d="m 12.200023,25.144616 c 0,0 -1.23,0.748 0.855,0.962 2.51,0.32 3.847,0.267 6.624999,-0.267 a 10.02,10.02 0 0 0 1.763,0.855 c -6.249999,2.672 -14.1599994,-0.16 -9.243999,-1.55 z m -0.8,-3.473 c 0,0 -1.336,1.015 0.748,1.23 2.725,0.267 4.862,0.32 8.549999,-0.427 a 3.26,3.26 0 0 0 1.282,0.801 c -7.533999,2.244 -15.9759994,0.214 -10.579999,-1.603 z m 14.746999,6.09 c 0,0 0.908,0.748 -1.015,1.336 -3.58,1.07 -15.013999,1.39 -18.2199994,0 -1.122,-0.48 1.015,-1.175 1.7,-1.282 0.6949999,-0.16 1.0699999,-0.16 1.0699999,-0.16 -1.2299999,-0.855 -8.1749999,1.763 -3.5259999,2.51 12.7699994,2.084 23.2959994,-0.908 19.9829994,-2.404 z m -13.368999,-9.724 c 0,0 -5.8240004,1.39 -2.084,1.87 1.603,0.214 4.755,0.16 7.693999,-0.053 2.404,-0.214 4.81,-0.64 4.81,-0.64 0,0 -0.855,0.374 -1.443,0.748 -5.929999,1.55 -17.3119994,0.855 -14.0519994,-0.748 2.7780004,-1.336 5.0760004,-1.175 5.0760004,-1.175 z m 10.419999,5.824 c 5.984,-3.1 3.206,-6.09 1.282,-5.717 -0.48,0.107 -0.695,0.214 -0.695,0.214 0,0 0.16,-0.32 0.534,-0.427 3.794,-1.336 6.786,4.007 -1.23,6.09 0,0 0.053,-0.053 0.107,-0.16 z m -9.829999,8.442 c 5.769999,0.374 14.586999,-0.214 14.799999,-2.94 0,0 -0.427,1.07 -4.755,1.87 -4.916,0.908 -11.006999,0.8 -14.5869995,0.214 0,0 0.748,0.64 4.5420005,0.855 z"
     fill="#4e7896"
     id="path1" />
  <path
     d="m 19.574022,0.40561582 c 0,0 3.313,3.36599998 -3.151999,8.44199998 -5.183,4.1140002 -1.175,6.4650002 0,9.1370002 -3.046,-2.725 -5.236,-5.13 -3.74,-7.373 2.19,-3.3140002 8.227999,-4.9070002 6.891999,-10.20600018 z m -1.7,15.33500018 c 1.55,1.763 -0.426999,3.366 -0.426999,3.366 0,0 3.953999,-2.03 2.136999,-4.542 -1.656,-2.404 -2.939999,-3.58 4.007,-7.5870002 0,0 -10.952999,2.725 -5.717,8.7630002 z"
     fill="#f58219"
     id="path2" />
</svg>
