<?xml version="1.0" encoding="UTF-8" standalone="no"?>
<!-- Created with Inkscape (http://www.inkscape.org/) -->

<svg
   version="1.1"
   id="svg1"
   width="128"
   height="128"
   viewBox="0 0 492.30769 492.30769"
   xmlns="http://www.w3.org/2000/svg"
   xmlns:svg="http://www.w3.org/2000/svg">
  <defs
     id="defs1" />
  <g
     id="g1">
    <rect
       style="display:none;fill:#0000ff;fill-rule:evenodd;stroke-width:3.84615"
       id="rect3"
       width="515.60492"
       height="486.17685"
       x="-15.940224"
       y="0" />
    <rect
       style="display:none;fill:#ffffff;fill-rule:evenodd;stroke-width:3.84615"
       id="rect11"
       width="316.34616"
       height="307.69229"
       x="96.153847"
       y="83.653847" />
    <rect
       style="display:inline;fill:#ebebeb;fill-opacity:0.15;fill-rule:evenodd;stroke-width:3.84615"
       id="rect1"
       width="156.33681"
       height="343.94101"
       x="80.927292"
       y="64.987068" />
    <path
       id="path1"
       style="display:inline;fill:#d6ba32;fill-opacity:1;stroke:#ffffff;stroke-width:2.69230768;stroke-linecap:round;stroke-linejoin:bevel;stroke-dasharray:none;stroke-opacity:1;paint-order:fill markers stroke"
       d="m 34.630408,5.2884615 1.1869,15.2493985 c 0.654813,8.3875 1.446844,16.375902 1.757812,17.750902 0.310968,1.375 1.274808,12.625 2.140925,25 0.866117,12.375 1.985553,24.74399 2.493991,27.49399 0.508438,2.75 1.619836,15.354808 2.463942,28.004808 0.844106,12.65 1.992528,25.69639 2.554087,28.99639 0.561558,3.3 1.905251,17.70121 2.982271,32.00121 1.07702,14.3 2.186382,26.89729 2.463943,27.99729 0.277562,1.1 1.419031,13.9256 2.539062,28.5006 1.12003,14.575 2.236089,27.17981 2.478966,28.00481 0.242877,0.825 1.352782,13.2015 2.471455,27.5015 1.118673,14.3 2.473178,29.3711 3.004807,33.4961 0.531628,4.125 1.682251,17.628 2.561599,30.003 0.879347,12.375 1.825163,23.625 2.103365,25 0.692071,3.42053 1.896322,16.99914 3.432993,38.77704 l 1.292067,18.27675 2.561599,0.5634 c 4.053837,0.88902 9.387614,2.44211 11.56851,3.37289 1.1,0.46947 5.377704,1.63657 9.502704,2.59165 4.124994,0.95507 8.174394,2.10547 8.999394,2.5616 0.825,0.45613 4.8744,1.69461 8.9994,2.7494 4.125,1.05479 11.55391,3.05681 16.50391,4.44711 4.95,1.39031 12.5997,3.47394 16.9997,4.62741 4.4,1.15347 8.8985,2.51783 9.9985,3.03485 1.1,0.51702 5.1494,1.63409 8.9994,2.47897 3.85,0.84489 7.89939,1.9501 8.99939,2.46394 1.1,0.51383 5.5985,1.8537 9.9985,2.97476 4.4,1.12107 12.72711,3.41226 18.50211,5.09315 5.775,1.68089 14.32289,4.12761 18.99789,5.4387 4.675,1.31109 10.7491,3.05673 13.4991,3.8762 6.57466,1.95921 10.82335,1.97777 17.50301,0.0826 8.35512,-2.37038 25.6513,-7.21474 52.99729,-14.85127 16.77452,-4.68438 26.647,-7.47093 35.5018,-10.01352 4.95,-1.42136 12.5997,-3.47712 16.9997,-4.57482 4.4,-1.0977 8.67771,-2.36955 9.50271,-2.82452 0.825,-0.45496 4.8744,-1.60106 8.9994,-2.54657 4.125,-0.94551 8.1744,-2.07201 8.9994,-2.5015 0.825,-0.42949 4.87439,-1.56146 8.99939,-2.51653 4.125,-0.95508 8.40271,-2.13508 9.50271,-2.62169 1.1,-0.48662 4.49519,-1.58764 7.54958,-2.44141 l 5.55138,-1.54748 1.14183,-7.23407 c 0.62824,-3.9799 2.08132,-18.71238 3.22265,-32.73738 1.14132,-14.025 2.46787,-29.3244 2.95223,-33.9994 0.48436,-4.675 1.39971,-16.3741 2.03575,-25.9991 0.63604,-9.625 1.57701,-19.75601 2.08835,-22.50601 0.51134,-2.75 1.62146,-14.66989 2.46394,-26.49489 0.84248,-11.825 2.18497,-27.3527 2.98978,-34.5027 0.80481,-7.15 2.16411,-22.4494 3.01232,-33.9994 0.8482,-11.55 1.75855,-22.00547 2.02825,-23.23468 0.2697,-1.2292 1.37635,-13.37739 2.45643,-26.99819 1.08009,-13.62079 2.41962,-28.36743 2.98227,-32.76743 0.56265,-4.4 1.70483,-17.90301 2.53906,-30.00301 0.83424,-12.099988 1.92728,-23.57079 2.42638,-25.49579 0.4991,-1.925 1.66117,-14.928528 2.58414,-28.898738 0.92298,-13.970209 2.04722,-26.575017 2.49399,-28.004808 0.44677,-1.42979 1.06362,-6.309855 1.36719,-10.847355 L 458.128,5.2884615 H 246.37921 Z M 88.897235,28.816106 H 404.63491 V 392.99128 H 88.897235 Z" />
    <rect
       style="display:none;fill:#ffffff;fill-rule:evenodd;stroke-width:3.84615"
       id="rect2"
       width="316.34616"
       height="307.69229"
       x="96.153847"
       y="83.653847" />
    <path
       id="path5"
       style="display:inline;fill:#d6ba32;fill-opacity:1;stroke:none;stroke-width:11.5385;stroke-linecap:round;stroke-linejoin:bevel;stroke-dasharray:none;stroke-opacity:1;paint-order:fill markers stroke"
       d="m 34.630408,5.2884615 1.1869,15.2493985 c 0.654813,8.3875 1.446844,16.375902 1.757812,17.750902 0.310968,1.375 1.274808,12.625 2.140925,25 0.866117,12.375 1.985553,24.74399 2.493991,27.49399 0.508438,2.75 1.619836,15.354808 2.463942,28.004808 0.844106,12.65 1.992528,25.69639 2.554087,28.99639 0.561558,3.3 1.905251,17.70121 2.982271,32.00121 1.07702,14.3 2.186382,26.89729 2.463943,27.99729 0.277562,1.1 1.419031,13.9256 2.539062,28.5006 1.12003,14.575 2.236089,27.17981 2.478966,28.00481 0.242877,0.825 1.352782,13.2015 2.471455,27.5015 1.118673,14.3 2.473178,29.3711 3.004807,33.4961 0.531628,4.125 1.682251,17.628 2.561599,30.003 0.879347,12.375 1.825163,23.625 2.103365,25 0.692071,3.42053 1.896322,16.99914 3.432993,38.77704 l 1.292067,18.27675 2.561599,0.5634 c 4.053837,0.88902 9.387614,2.44211 11.56851,3.37289 1.1,0.46947 5.377704,1.63657 9.502704,2.59165 4.124994,0.95507 8.174394,2.10547 8.999394,2.5616 0.825,0.45613 4.8744,1.69461 8.9994,2.7494 4.125,1.05479 11.55391,3.05681 16.50391,4.44711 4.95,1.39031 12.5997,3.47394 16.9997,4.62741 4.4,1.15347 8.8985,2.51783 9.9985,3.03485 1.1,0.51702 5.1494,1.63409 8.9994,2.47897 3.85,0.84489 7.89939,1.9501 8.99939,2.46394 1.1,0.51383 5.5985,1.8537 9.9985,2.97476 4.4,1.12107 12.72711,3.41226 18.50211,5.09315 5.775,1.68089 14.32289,4.12761 18.99789,5.4387 4.675,1.31109 10.7491,3.05673 13.4991,3.8762 6.57466,1.95921 10.82335,1.97773 17.50301,0.0826 8.35512,-2.37038 25.6513,-7.21474 52.99729,-14.85127 16.77452,-4.68438 26.647,-7.47093 35.5018,-10.01352 4.95,-1.42136 12.5997,-3.47712 16.9997,-4.57482 4.4,-1.0977 8.67771,-2.36955 9.50271,-2.82452 0.825,-0.45496 4.8744,-1.60106 8.9994,-2.54657 4.125,-0.94551 8.1744,-2.07201 8.9994,-2.5015 0.825,-0.42949 4.87439,-1.56146 8.99939,-2.51653 4.125,-0.95508 8.40271,-2.13508 9.50271,-2.62169 1.1,-0.48662 4.49519,-1.58764 7.54958,-2.44141 l 5.55138,-1.54748 1.14183,-7.23407 c 0.62824,-3.9799 2.08132,-18.71238 3.22265,-32.73738 1.14132,-14.025 2.46787,-29.3244 2.95223,-33.9994 0.48436,-4.675 1.39971,-16.3741 2.03575,-25.9991 0.63604,-9.625 1.57701,-19.75601 2.08835,-22.50601 0.51134,-2.75 1.62146,-14.66989 2.46394,-26.49489 0.84248,-11.825 2.18497,-27.3527 2.98978,-34.5027 0.80481,-7.15 2.16411,-22.4494 3.01232,-33.9994 0.8482,-11.55 1.75855,-22.00547 2.02825,-23.23468 0.2697,-1.2292 1.37635,-13.37739 2.45643,-26.99819 1.08009,-13.62079 2.41962,-28.36743 2.98227,-32.76743 0.56265,-4.4 1.70483,-17.90301 2.53906,-30.00301 0.83424,-12.099991 1.92728,-23.57079 2.42638,-25.49579 0.4991,-1.925 1.66117,-14.928528 2.58414,-28.898738 0.92298,-13.970209 2.04722,-26.575017 2.49399,-28.004808 0.44677,-1.42979 1.06362,-6.309855 1.36719,-10.847355 L 458.128,5.2884615 H 246.37921 Z M 208.70643,96.289062 h 21.48437 v 142.998798 142.9988 h -2.83203 c -1.55834,0 -3.03829,-0.19876 -3.28275,-0.44321 -0.41256,-0.41256 -9.5772,-3.06356 -31.15234,-8.9994 -4.8227,-1.32684 -12.9215,-3.57522 -17.9988,-4.99549 -5.0773,-1.42027 -11.93438,-3.26234 -15.23438,-4.09405 -3.3,-0.83171 -8.925,-2.36235 -12.5,-3.40295 -3.575,-1.0406 -10.7756,-3.10229 -16.0006,-4.58233 -5.225,-1.48004 -13.43419,-3.83885 -18.24669,-5.24339 l -8.7515,-2.55409 v -25.96154 -25.95402 l 2.24609,0.54086 c 2.36283,0.56971 7.80496,2.08649 47.2506,13.17609 4.4,1.23699 12.28348,3.40242 17.51803,4.8152 5.23457,1.41278 10.78098,3.0508 12.31971,3.63582 1.53873,0.58502 2.88057,1.05915 2.98227,1.05919 0.0121,1e-5 0.0221,-0.69097 0.03,-2.01322 v -38.42398 h 0.008 c -0.0229,-18.81746 -0.0688,-42.78911 -0.13521,-68.81009 -0.15341,-60.08754 -0.031,-110.263404 0.27043,-111.500904 0.54713,-2.246 0.57773,-2.246094 22.02524,-2.246094 z m 55.48377,1.998197 h 67.14243 67.14994 l -0.63101,6.745791 c -0.34658,3.71144 -1.14866,13.72454 -1.78035,22.2506 -0.63169,8.52606 -1.52802,16.5134 -1.99068,17.7509 l -0.84135,2.25361 h -44.52374 -44.52373 v 37.9357 c 0,20.86754 0.3387,38.13828 0.7512,38.3789 0.4125,0.24062 5.2497,-0.18075 10.7497,-0.939 19.80191,-2.72997 67.32095,-8.3759 70.48527,-8.3759 2.88763,0 3.16712,0.24534 2.64423,2.32873 -0.32202,1.28301 -1.49633,14.89641 -2.61418,30.2509 -1.11785,15.35449 -2.70102,35.79266 -3.51562,45.41766 -0.81459,9.625 -2.18865,26.71304 -3.04988,37.97326 -0.86122,11.26022 -1.6561,20.56384 -1.76533,20.67308 -0.44789,0.44788 -17.67048,5.05346 -63.18359,16.90204 -26.4,6.87281 -48.57426,12.70207 -49.27134,12.95072 -1.006,0.35877 -1.2113,-4.64236 -0.99909,-24.23377 l 0.27043,-24.69201 31.49789,-8.33083 c 17.325,-4.58565 35.5424,-9.35209 40.48228,-10.59194 l 8.97686,-2.26112 0.64603,-3.94381 c 0.35426,-2.17016 0.96145,-11.93221 1.34465,-21.69471 0.65798,-16.76257 0.59426,-17.74739 -1.1268,-17.74339 -1.99522,0.004 -11.55905,1.59762 -32.32422,5.39363 -24.98815,4.56801 -47.94937,8.60126 -48.97836,8.60126 -0.6879,0 -1.02164,-29.88622 -1.02164,-91.50391 z" />
    <path
       id="path13"
       style="display:inline;fill:#ffda3e;fill-opacity:1;fill-rule:evenodd;stroke:none;stroke-width:3.84615"
       d="M 243.08143,39.085036 V 248.02434 c 0,127.78256 0.37408,208.9393 0.96154,208.9393 0.52832,0 5.3064,-1.15946 10.61448,-2.57662 5.30809,-1.41716 15.70469,-4.19265 23.10697,-6.16737 7.40227,-1.97472 16.71731,-4.47522 20.70313,-5.55889 3.98585,-1.08366 10.51235,-2.81982 14.49819,-3.86118 3.98583,-1.04139 12.59997,-3.36837 19.14814,-5.16827 6.54815,-1.79991 15.8707,-4.30901 20.71064,-5.57392 4.83996,-1.26491 14.15496,-3.78025 20.70312,-5.58894 6.54816,-1.8087 12.9275,-3.50367 14.17518,-3.77104 1.88065,-0.40301 2.36073,-1.38325 2.8095,-5.70913 1.75564,-16.92293 4.01073,-40.66109 5.84435,-61.50841 1.15303,-13.10936 3.21411,-36.15512 4.58233,-51.21695 1.3682,-15.06182 3.67132,-40.85276 5.11569,-57.3092 1.44437,-16.45644 2.87203,-31.51358 3.17007,-33.46604 0.29803,-1.95246 1.46864,-15.19202 2.60667,-29.41707 1.13803,-14.22506 2.30095,-27.00833 2.58413,-28.40294 0.28317,-1.39462 1.44943,-14.40228 2.59165,-28.90625 1.14222,-14.50399 2.30871,-27.511639 2.59165,-28.906252 0.41872,-2.063988 4.65745,-51.169586 4.65745,-53.958834 0,-0.444426 -40.76447,-0.811298 -90.58744,-0.811298 z m 21.10877,59.202223 h 67.14243 67.14994 l -0.63101,6.745791 c -0.34658,3.71144 -1.14866,13.72454 -1.78035,22.2506 -0.63169,8.52606 -1.52802,16.5134 -1.99068,17.7509 l -0.5634,1.4949 -0.0225,0.0676 -0.26292,0.72116 -0.16527,-0.0601 v 0.11268 h -88.84465 v 76.69772 c 1.25201,0.0854 5.75888,-0.33192 10.8098,-1.01412 20.50057,-2.76892 69.69579,-8.4961 72.97175,-8.4961 0.2183,0 0.42573,-0.003 0.61599,0 0.53921,0.29148 0.49768,0.88348 0.20282,2.0583 -0.32202,1.28301 -1.49633,14.89641 -2.61418,30.2509 -1.11785,15.35449 -2.70102,35.79266 -3.51562,45.41766 -0.81459,9.625 -2.18865,26.71304 -3.04988,37.97326 -0.86122,11.26022 -1.6561,20.56384 -1.76533,20.67308 -0.44789,0.44788 -17.67048,5.05346 -63.18359,16.90204 -26.4,6.87281 -48.57426,12.70207 -49.27134,12.95072 -1.00609,0.35877 -1.2113,-4.64236 -0.99909,-24.23377 l 0.2554,-23.3774 0.27795,-0.0751 -0.30048,-1.14183 81.70823,-21.46184 0.15775,-0.939 1.93059,-38.61178 c -0.092,-1.42422 -0.29891,-2.08896 -0.63852,-2.38882 -0.22549,-1.11962 -0.64037,-1.26356 -1.29958,-1.26202 -1.99522,0.004 -11.55905,1.59762 -32.32422,5.39363 -24.98815,4.56801 -47.94937,8.60126 -48.97836,8.60126 -0.6879,0 -1.02164,-29.88622 -1.02164,-91.50391 z" />
  </g>
</svg>
