<?xml version="1.0" encoding="UTF-8" standalone="no"?>
<!-- Created with Inkscape (http://www.inkscape.org/) -->

<svg
   version="1.1"
   id="svg1"
   width="128"
   height="128"
   viewBox="0 0 228.57143 228.57143"
   sodipodi:docname="javafx-icon.svg"
   inkscape:version="1.4.2 (f4327f4, 2025-05-13)"
   xmlns:inkscape="http://www.inkscape.org/namespaces/inkscape"
   xmlns:sodipodi="http://sodipodi.sourceforge.net/DTD/sodipodi-0.dtd"
   xmlns="http://www.w3.org/2000/svg"
   xmlns:svg="http://www.w3.org/2000/svg">
  <defs
     id="defs1" />
  <sodipodi:namedview
     id="namedview1"
     pagecolor="#ffffff"
     bordercolor="#000000"
     borderopacity="0.25"
     inkscape:showpageshadow="2"
     inkscape:pageopacity="0.0"
     inkscape:pagecheckerboard="0"
     inkscape:deskcolor="#d1d1d1"
     inkscape:zoom="4.8219243"
     inkscape:cx="97.886232"
     inkscape:cy="78.703019"
     inkscape:window-width="1920"
     inkscape:window-height="1017"
     inkscape:window-x="-8"
     inkscape:window-y="-8"
     inkscape:window-maximized="1"
     inkscape:current-layer="g1" />
  <g
     inkscape:groupmode="layer"
     inkscape:label="Image"
     id="g1"
     transform="translate(-1.1110011,9.2336188)">
    <path
       id="path3"
       style="display:inline;fill:#148489;fill-opacity:1;stroke:none"
       d="m 96.537062,7.3406121 0.984755,9.0215629 C 96.415927,26.517719 96.281463,26.594889 90.617193,34.844438 84.79845,43.318963 70.802428,51.21838 61.849504,60.29748 c -11.83575,12.002555 -10.029337,19.054064 -6.84729,26.064812 1.658799,3.654698 4.700915,7.188663 7.275088,10.248253 4.324455,5.139925 9.530185,11.468525 15.763635,15.151865 C 72.583005,100.36768 60.327341,86.349229 66.419824,72.958162 68.242189,68.952668 71.096542,65.487793 74.139091,62.350785 81.952042,54.295245 94.798451,45.617273 99.722551,31.614216 102.48525,23.757717 102.38263,15.44779 96.537062,7.3406121 Z M 120.54542,46.340804 c -15.92996,3.187164 -45.569449,17.17081 -42.490622,35.970952 2.238419,13.668386 10.324137,14.913487 11.222927,23.601354 0.40538,3.91849 -0.220592,4.63967 -4.518027,12.0193 l 1.97077,-0.98413 C 93.60826,111.67752 103.65478,104.62748 99.156144,95.77637 95.624554,88.827944 87.855029,82.967534 89.027599,75.165197 90.854499,63.008932 111.5843,52.591498 120.54542,46.340804 Z m 9.63837,64.296986 c -0.60813,-0.005 -1.20507,0.0175 -1.78743,0.0662 l -4.66545,1.24433 -2.17806,1.41382 c 9.69235,-2.60939 19.90797,4.43373 17.33811,14.63082 -1.93547,7.67987 -15.81993,15.89832 -22.53154,19.59806 9.68735,-0.76714 25.78047,-8.56544 29.45318,-18.07651 4.89712,-12.68187 -6.50676,-18.80252 -15.62881,-18.87667 z m -75.107231,1.31993 c -10.170398,0.16478 -23.578115,3.94636 -31.445365,8.42996 l -0.697456,1.53919 c 0.896416,5.8851 24.141749,7.07176 32.88312,7.30281 20.474613,0.54118 33.093683,-1.15099 52.011172,-5.67983 l 8.83444,-3.96863 c -19.067157,2.79785 -36.869191,4.35015 -53.896886,4.5174 -8.750572,0.0859 -33.487417,-1.63585 -24.632728,-5.93184 z m -8.021687,22.4572 c -3.274572,0.32275 -3.832809,0.6457 -6.734512,2.20325 -7.377098,7.40725 3.689729,9.71731 9.582299,10.82033 16.571573,3.102 42.647756,1.39649 59.464561,-3.93587 l -2.43763,-1.97013 c -0.93472,-0.48401 -1.18749,-0.61037 -1.21661,-0.6332 v -0.002 h 0.002 0.003 0.002 c 0.0217,0.004 0.0888,0.0233 0.11277,0.0139 l 0.003,-0.002 h 0.002 v -0.003 h 0.002 v -0.002 -0.002 -0.003 -0.002 -0.002 -0.003 c -0.0174,-0.0827 -0.51447,-0.48495 -3.18171,-2.15222 -0.19113,-0.11947 -10.393984,1.54064 -12.613424,1.77168 -16.958182,1.76532 -14.364855,1.29102 -24.261634,1.36341 -11.394318,0.0833 -25.503572,-0.62017 -18.72798,-7.46095 z m 4.10346,20.01389 c -16.154909,6.16737 -1.784715,12.71846 4.935744,13.78531 15.338156,4.28978 37.151625,1.27002 50.740384,-4.54134 l -5.59981,-3.21447 c -2.640435,-1.45668 -0.0633,-0.0545 -4.320193,-2.36581 -0.17537,-0.0952 -8.063302,2.55767 -19.18791,2.66067 -10.481758,0.097 -22.706069,0.46026 -26.316199,-2.40676 -1.095174,-0.86974 -0.89942,-2.4702 -0.252016,-3.9176 z m -20.289223,13.8943 c -4.673461,0.31704 -9.457792,1.60308 -15.785057,3.95918 -2.550024,0.94956 -9.2739751,4.97748 -7.1011961,7.9045 1.9951,2.68766 8.8458221,3.34133 11.4818741,3.91382 6.851326,1.48798 15.295207,2.25907 22.265662,2.83393 23.699249,1.9545 49.074155,2.01811 72.535408,-2.67768 6.81621,-1.36427 13.7681,-2.18953 18.99007,-5.42781 2.17982,-1.35176 5.67089,-4.34853 4.94331,-6.33758 l -1.09942,-1.21913 -1.27521,-0.95892 c 4.27401,6.56582 -14.27511,9.39757 -24.24021,10.88711 -19.283745,2.88244 -41.304638,2.48841 -60.75993,1.23803 -6.658043,-0.42792 -14.408178,-0.28453 -20.894693,-1.88886 -2.406456,-0.5952 -8.509836,-1.47359 -9.790843,-3.83758 -1.953948,-3.60584 13.092523,-7.70727 15.419633,-8.38711 -1.58614,-0.10573 -3.131578,-0.10744 -4.689398,-0.002 z m 116.134901,12.10562 c -4.3858,1.67106 -5.85361,4.03106 -10.4001,5.41584 -31.64477,9.63846 -69.731426,11.42417 -101.851856,5.79134 l 0.933721,1.83027 c 23.626648,5.52454 49.264681,5.93746 73.132685,2.36706 12.58198,-1.88213 33.61284,-4.68643 38.18555,-15.40451 z" />
    <path
       id="path4"
       style="display:inline;fill:#ff6600;fill-opacity:1;stroke:none;stroke-width:0.75782"
       d="m 153.45547,146.08251 c -2.89418,0.0543 -5.59805,0.36752 -7.99271,1.42453 -6.54431,2.88871 -8.6924,9.27571 -10.2703,14.64216 -3.44943,11.73167 -7.28232,23.86099 -9.0537,35.83045 h 6.97204 5.15185 c 1.54572,-5.60796 3.0552,-12.06642 4.50228,-17.1031 0.84502,-2.94116 0.85491,-4.13782 1.1851,-4.14126 8.02893,-0.0836 26.94421,0.0365 34.59621,0.0365 -1.79619,-2.43833 -6.93085,-8.15892 -7.16294,-8.29008 -0.18122,-0.10241 -0.53717,-0.1202 -0.75857,-0.11719 -9.16522,0.12438 -17.39114,0.10141 -24.77953,0.20035 0.39838,-1.65668 0.69967,-3.80991 1.54423,-5.77622 1.33072,-3.09815 0.55605,-6.32061 4.08456,-7.57121 1.82872,-0.64814 2.37327,-0.43192 4.84565,-0.47694 5.92015,-0.10777 13.63184,-0.0178 19.93766,-0.022 3.47496,-0.002 9.69689,0.0421 9.74296,-0.1216 0.98552,-3.50079 1.70975,-5.82566 2.38596,-8.47216 l -25.79263,0.0901 c -3.1591,0.0186 -6.24394,-0.18665 -9.13812,-0.13231 z m 70.54636,13.45139 c -6.57766,0.13715 -14.95045,0.007 -15.37238,0.18082 -0.7753,0.31881 -10.81731,8.54948 -14.26854,11.73452 l -10.22243,-11.78618 -9.33406,0.11718 -3.65109,-0.0989 c 4.29696,4.40315 14.98963,16.96628 15.47382,17.53594 0.38602,0.45418 -5.00914,4.74591 -7.76652,7.03378 -5.26026,4.36457 -11.12262,9.20949 -16.37478,13.96424 l 15.07122,-0.0907 16.06921,-12.53152 c 3.30331,4.11251 10.45548,12.44582 11.00682,12.54223 0.41969,0.0734 8.05456,-0.0336 12.87049,0.004 l -16.49764,-19.40464 9.14001,-7.55357 z" />
    <path
       id="path1"
       style="display:none;fill:#148489;fill-opacity:1;stroke:none"
       d="m 96.537305,7.340742 0.98437,9.021484 c -1.10589,10.155544 -1.24002,10.232873 -6.90429,18.482422 -5.818743,8.474525 -19.814657,16.374025 -28.767581,25.453125 -11.83575,12.002555 -10.029704,19.053705 -6.847657,26.064453 1.658799,3.654698 4.701218,7.188455 7.275391,10.248045 C 66.601993,101.7502 71.80776,108.07928 78.04121,111.76262 72.583278,100.36789 60.327633,86.348996 66.420116,72.957929 68.242481,68.952435 71.096317,65.487515 74.138866,62.350507 81.951817,54.294967 94.798755,45.617236 99.722855,31.614179 102.48555,23.75768 102.38287,15.44792 96.537305,7.340742 Z m 24.007805,39 c -15.92996,3.187164 -45.569055,17.170561 -42.490228,35.970703 2.238419,13.668386 10.323863,14.913706 11.222653,23.601565 0.40538,3.91849 -0.22014,4.6399 -4.517575,12.01953 l 1.970703,-0.98438 C 93.608455,111.6774 103.65508,104.6274 99.156445,95.776291 95.624855,88.827865 87.854965,82.967297 89.027535,75.16496 90.854435,63.008695 111.58399,52.591436 120.54511,46.340742 Z m 70.26758,61.826168 -8.69922,0.0742 -3.48242,0.10938 0.25586,50.59765 c 0.0732,5.21581 1.17331,22.40589 -2.26953,30.08594 -2.34667,5.23476 -4.47844,6.00837 -9.61328,10.1582 4.57823,5.04191 4.8024,6.40826 5.95117,6.23633 7.09088,-1.06127 17.18976,-11.11482 17.92773,-19.48437 0.89639,-10.16622 0.227,-20.67298 0.1875,-28.28907 z m 199.14453,0.17578 c -3.40029,0.0805 -6.57721,0.54473 -9.39062,2.11133 -7.68872,4.28135 -10.21259,13.74756 -12.06641,21.70117 -4.05264,17.38751 -8.55557,35.36359 -10.63672,53.10352 h 8.19141 6.05273 c 1.81601,-8.31155 3.58893,-17.8828 5.28906,-25.34766 0.99279,-4.35909 1.00465,-6.13357 1.39258,-6.13867 9.43296,-0.12393 31.65638,0.0547 40.64649,0.0547 -2.11029,-3.61385 -8.14335,-12.09272 -8.41602,-12.28711 -0.21292,-0.15178 -0.63051,-0.17829 -0.89062,-0.17383 -10.76796,0.18435 -20.43288,0.15024 -29.11329,0.29688 0.46805,-2.45537 0.82221,-5.64628 1.81446,-8.56055 1.56342,-4.59177 0.65328,-9.36719 4.79883,-11.2207 2.14851,-0.96061 2.78862,-0.64032 5.69335,-0.70704 6.95541,-0.15973 16.01529,-0.0269 23.42383,-0.0332 4.08262,-0.003 11.39314,0.0629 11.44727,-0.17969 1.15786,-5.18852 2.00827,-8.63426 2.80273,-12.55664 l -30.30273,0.13282 c -3.71154,0.0275 -7.33604,-0.27585 -10.73633,-0.19532 z m -259.77344,2.29493 c -0.60813,-0.005 -1.20475,0.0177 -1.78711,0.0664 l -4.66601,1.24414 -2.17774,1.41406 c 9.69235,-2.60939 19.90775,4.43377 17.33789,14.63086 -1.93547,7.67987 -15.81964,15.89792 -22.53125,19.59766 9.68735,-0.76714 25.78042,-8.5651 29.45313,-18.07617 4.89712,-12.68187 -6.50686,-18.8028 -15.62891,-18.87695 z m -75.107414,1.32031 c -10.170398,0.16478 -23.578062,3.94609 -31.445312,8.42969 l -0.697266,1.53906 c 0.896416,5.8851 24.141442,7.07168 32.882813,7.30273 20.474613,0.54118 33.094214,-1.15085 52.011709,-5.67969 l 8.83399,-3.96874 c -19.067165,2.79785 -36.868786,4.35032 -53.896481,4.51757 -8.750572,0.0859 -33.487501,-1.63565 -24.632812,-5.93164 z m 277.130854,15.40429 c -8.09278,-0.32211 -17.58254,1.76413 -23.5957,4.65821 l 1.24609,4.41797 c 0.57979,1.76176 0.9201,3.0298 1.07617,3 10e-4,-4e-4 0.003,5.6e-4 0.004,0 5.01705,-2.37807 22.81407,-5.80643 27.02734,1.39062 0.22324,0.38133 0.62722,1.81893 0.66797,2.92578 0.0827,2.24453 -0.028,5.87949 0.0156,7.63282 -8.09277,0.0833 -18.778,0.92963 -23.85547,3.99218 -4.77063,2.87746 -8.63068,8.37737 -8.97461,13.17969 -0.58466,8.16383 2.4517,13.73599 9.33789,16.94531 6.88414,3.20836 14.32208,1.01904 20.01953,-2.23632 1.82927,-1.0452 3.80086,-2.79827 5.16016,-3.88868 0.3824,0.78004 0.34058,6.21318 0.61914,6.44532 0.003,0.002 0.0102,0.005 0.0137,0.006 2.99927,0.21682 9.59914,-0.023 9.60156,-0.0977 0.0874,-2.69853 0.35307,-6.99035 0.31641,-11.17774 -0.0417,-4.76704 -0.0371,-9.79415 -0.0371,-12.86523 0,-4.85095 0.10311,-10.74276 0.002,-16.15234 -0.0645,-3.46024 -0.11455,-6.48162 -1.60547,-9.32032 -1.38826,-2.64321 -3.67257,-4.67076 -5.94531,-6.09375 -3.1972,-2.0018 -7.03694,-2.60025 -11.09375,-2.76172 z m -109.54492,0.004 c -0.99588,0.009 -1.95323,0.058 -2.85352,0.14258 -5.19528,0.48819 -9.97582,2.39451 -14.34179,3.62109 l -2.72266,1.03516 1.71484,7.17187 c 8.80492,-2.26466 22.94371,-7.98735 28.28711,3.11524 0.34327,0.71326 0.23375,0.92215 0.20703,2.29297 -0.011,0.56377 0.054,1.7859 0.0332,2.32031 -0.077,1.98029 -0.0676,2.09194 -0.13867,3.75195 -8.34082,0.081 -16.59106,0.27525 -23.74024,5.20899 -10.07981,6.95624 -10.65286,23.33587 1.74414,28.20898 3.63638,1.42942 5.9234,3.05613 9.42774,2.40821 4.99639,-0.92378 9.67656,-4.21859 14.02539,-6.97071 l 0.31054,5.76758 c 3.09033,-0.0395 10.04997,0.15749 10.06446,-0.043 0.28127,-3.88808 -0.0684,-12.58821 -0.0469,-16.53125 0.0289,-5.30878 -0.13838,-12.16082 -0.0566,-18.53711 0.0725,-5.65408 0.20956,-10.73909 -2.45312,-15.08594 -3.67562,-6.00048 -12.48982,-7.93916 -19.46094,-7.87695 z m 78.39258,0.78906 -12.53907,0.20118 -2.8457,15.56835 -8.23633,28.33399 -8.88476,-29.07031 -4.36914,-14.72657 -8.44336,0.004 h -4.53711 c 3.81454,14.32595 8.63959,27.73204 12.90625,41.60352 1.61603,5.25392 4.4792,15.2867 4.75976,15.33398 2.00744,0.33831 14.60552,0.40269 14.73047,0.0449 0.65084,-1.86364 4.06981,-9.27941 5.46485,-13.03125 1.19956,-3.22615 0.74881,-2.73852 2.26757,-6.62304 1.39199,-3.56028 3.30063,-10.0846 4.01368,-12.57227 2.41504,-8.42551 4.05065,-16.33442 5.71289,-25.06641 z m 171.78515,0.12305 c -7.7279,0.20327 -17.56482,0.0105 -18.06054,0.26758 -0.91087,0.47251 -12.70894,12.67203 -16.76368,17.39258 l -12.00976,-17.46875 -10.9668,0.17383 -4.28906,-0.14649 c 5.04837,6.5259 17.61083,25.14593 18.17969,25.99023 0.45352,0.67313 -5.88543,7.03298 -9.125,10.42383 -6.18012,6.46872 -13.06767,13.65025 -19.23828,20.69727 l 17.70703,-0.13477 18.8789,-18.57226 c 3.88097,6.09515 12.28388,18.445 12.93164,18.58789 0.49308,0.10876 9.463,-0.0491 15.1211,0.008 l -19.38282,-28.75977 10.73829,-11.19531 z m -425.785148,6.13672 c -3.274955,0.32277 -3.832544,0.6455 -6.734375,2.20312 -7.377098,7.40725 3.689461,9.7173 9.582031,10.82032 16.571573,3.102 42.648027,1.39681 59.464842,-3.93555 l -2.4375,-1.9707 c -0.93472,-0.48401 -1.18768,-0.60999 -1.2168,-0.63282 v -0.002 h 0.002 0.002 0.002 c 0.0217,0.004 0.0893,0.0231 0.11328,0.0137 l 0.002,-0.002 h 0.002 v -0.002 h 0.002 v -0.002 -0.002 -0.002 -0.002 -0.002 -0.002 c -0.0174,-0.0827 -0.5144,-0.48508 -3.18164,-2.15235 -0.19113,-0.11947 -10.393835,1.54045 -12.613275,1.77149 -16.958182,1.76532 -14.364942,1.29089 -24.261721,1.36328 -11.395502,0.0833 -25.507199,-0.62012 -18.726562,-7.46289 z m 4.103515,20.01367 c -16.154909,6.16737 -1.784912,12.71831 4.935547,13.78516 15.338156,4.28978 37.151471,1.27034 50.740226,-4.54102 l -5.59961,-3.21484 c -2.640435,-1.45668 -0.0634,-0.0539 -4.320305,-2.36524 -0.17537,-0.0952 -8.06289,2.55716 -19.187498,2.66016 -10.481758,0.097 -22.706276,0.46077 -26.316406,-2.40625 -1.095174,-0.86974 -0.899358,-2.47057 -0.251954,-3.91797 z m 286.517573,4.32617 0.80664,0.14649 c -0.0483,3.24707 -0.0155,4.73897 -0.0644,9.36133 -0.0137,1.29183 0.0377,3.36132 -0.16406,3.67968 -0.88147,1.39123 -1.99358,1.94299 -3.31055,2.79297 -2.63284,1.69927 -5.85025,2.96276 -8.04492,3.11719 -2.04133,0.14364 -4.708,0.0311 -5.91602,-0.97852 -2.35589,-1.96892 -2.69214,-2.90924 -3.25195,-4.57031 -0.58832,-1.74564 -0.81301,-4.96562 0.61719,-6.96484 1.42677,-1.99442 1.96716,-2.94908 4.66992,-4.52539 1.68808,-0.98453 5.73532,-1.90702 7.67773,-1.98828 3.18765,-0.13336 3.95807,0.0634 6.98047,-0.0703 z m -110.63086,0.0684 c 2.46433,0.0227 4.87533,0.45078 5.63672,1.02344 0.3016,0.22685 0.53818,5.39266 0.19141,7.86328 -0.24122,1.7186 -0.002,3.82935 -0.35743,4.29492 -2.41188,3.16183 -5.57501,4.92382 -9.01562,5.4336 -2.97195,0.44034 -6.53744,0.98225 -9.07422,-1.10547 -2.74296,-2.25741 -4.29292,-7.2918 -2.83203,-10.57422 1.70097,-3.82189 5.81791,-6.05224 9.81445,-6.52734 l 3.21485,-0.28516 c 0.77437,-0.0921 1.60043,-0.13061 2.42187,-0.12305 z m -196.175775,9.5 c -4.673461,0.31704 -9.457891,1.60289 -15.785156,3.95899 -2.550024,0.94956 -9.274342,4.97727 -7.101563,7.90429 1.9951,2.68766 8.84637,3.34158 11.482422,3.91407 6.851326,1.48798 15.29517,2.25912 22.265625,2.83398 23.699249,1.9545 49.073902,2.01806 72.535147,-2.67773 6.81621,-1.36427 13.76827,-2.18946 18.99024,-5.42774 2.17982,-1.35176 5.67094,-4.34884 4.94336,-6.33789 l -1.09961,-1.21875 -1.27539,-0.95898 c 4.27401,6.56582 -14.27514,9.39718 -24.24024,10.88672 -19.283745,2.88244 -41.304465,2.48866 -60.759757,1.23828 -6.658043,-0.42792 -14.408016,-0.28435 -20.894531,-1.88868 -2.406456,-0.5952 -8.510009,-1.4739 -9.791016,-3.83789 -1.953948,-3.60584 13.092812,-7.70687 15.419922,-8.38671 -1.58614,-0.10573 -3.131633,-0.10764 -4.689453,-0.002 z M 147.0041,180.42876 c -4.3858,1.67106 -5.8539,4.03124 -10.40039,5.41602 -31.64477,9.63846 -69.731133,11.42384 -101.851563,5.79101 l 0.933594,1.83008 c 23.626648,5.52454 49.264807,5.93759 73.132809,2.36719 12.58198,-1.88213 33.61284,-4.68622 38.18555,-15.4043 z" />
    <path
       id="path2"
       style="display:inline;fill:#fe6600;fill-opacity:1;stroke:none"
       d="m 96.537062,7.3406121 0.984755,9.0215629 c -1.10589,10.155544 -1.240354,10.232714 -6.904624,18.482263 -5.818755,8.474525 -19.814765,16.373942 -28.767689,25.453042 -11.83575,12.002555 -10.029336,19.054064 -6.84729,26.064812 1.6588,3.654698 4.700915,7.188663 7.275088,10.248253 4.324455,5.139925 9.530185,11.468525 15.763635,15.151865 C 72.583005,100.36768 60.327341,86.349229 66.419824,72.958162 68.242189,68.952668 71.096542,65.487793 74.139091,62.350785 81.952042,54.295245 94.798451,45.617273 99.722551,31.614216 102.48525,23.757717 102.38263,15.44779 96.537062,7.3406121 Z M 120.54542,46.340804 c -15.92996,3.187164 -45.569449,17.17081 -42.490622,35.970952 2.238419,13.668386 10.324137,14.913491 11.222927,23.601354 0.40538,3.91849 -0.220592,4.63967 -4.518027,12.0193 l 1.97077,-0.98413 C 93.60826,111.67752 103.65478,104.62748 99.156144,95.77637 95.624554,88.827936 87.855029,82.967534 89.027599,75.165197 90.854499,63.008932 111.5843,52.591498 120.54542,46.340804 Z" />
  </g>
</svg>
