<?xml version="1.0" encoding="UTF-8" standalone="no"?>
<svg
   width="128"
   height="128"
   version="1.1"
   id="svg4"
   sodipodi:docname="joomla-icon.svg"
   viewBox="0 0 65.306122 65.306122"
   inkscape:version="1.4.2 (f4327f4, 2025-05-13)"
   xmlns:inkscape="http://www.inkscape.org/namespaces/inkscape"
   xmlns:sodipodi="http://sodipodi.sourceforge.net/DTD/sodipodi-0.dtd"
   xmlns="http://www.w3.org/2000/svg"
   xmlns:svg="http://www.w3.org/2000/svg">
  <defs
     id="defs4" />
  <sodipodi:namedview
     id="namedview4"
     pagecolor="#ffffff"
     bordercolor="#000000"
     borderopacity="0.25"
     inkscape:showpageshadow="2"
     inkscape:pageopacity="0.0"
     inkscape:pagecheckerboard="0"
     inkscape:deskcolor="#d1d1d1"
     inkscape:zoom="4.4359902"
     inkscape:cx="17.358019"
     inkscape:cy="54.215629"
     inkscape:window-width="1920"
     inkscape:window-height="1017"
     inkscape:window-x="-8"
     inkscape:window-y="-8"
     inkscape:window-maximized="1"
     inkscape:current-layer="svg4" />
  <path
     d="m 12.010074,32.788074 -1.195,-1.193 c -3.8400005,-3.84 -4.9500005,-9.216 -3.5840005,-14.08 -3.84,-0.855 -6.656,-4.268 -6.656,-8.3640004 0,-4.6930001 3.84,-8.5330001 8.5330001,-8.5330001 4.2670004,0 7.7670004,3.072 8.4470004,7.167 4.608,-1.11 9.643,0.1700001 13.227,3.7550005 l 0.512,0.512 -6.315,6.315 -0.512,-0.512 c -2.048,-2.048 -5.376,-2.048 -7.424,0 -2.048,2.048 -2.048,5.376 0,7.424 l 14.167,14.166 -6.315,6.315 -6.656,-6.656 z"
     fill="#7ac143"
     id="path1" />
  <path
     d="m 19.092074,25.791074 14.166,-14.166 c 3.754,-3.7540005 9.217,-4.9500005 13.994,-3.5830004 0.597,-4.1800001 4.18,-7.3400001 8.448,-7.3400001 4.693,0 8.533,3.84 8.533,8.5330001 0,4.3520004 -3.243,7.9360004 -7.424,8.4480004 1.365,4.78 0.17,10.155 -3.584,13.91 l -0.512,0.512 -6.144,-6.315 0.512,-0.512 c 2.048,-2.048 2.048,-5.376 0,-7.424 -2.048,-2.048 -5.376,-2.048 -7.424,0 l -14.165,14.166 z"
     fill="#f9a541"
     id="path2" />
  <path
     d="m 47.508074,57.620074 c -4.864,1.45 -10.325,0.34 -14.165,-3.5 l -0.512,-0.512 6.315,-6.315 0.512,0.512 c 2.048,2.048 5.376,2.048 7.424,0 2.048,-2.048 2.048,-5.376 0,-7.424 l -14.167,-14.163 6.315,-6.315 14.25,14.25 c 3.584,3.584 4.864,8.704 3.755,13.397 4.18,0.597 7.34,4.18 7.34,8.448 0,4.693 -3.84,8.533 -8.533,8.533 -4.267,-0.085 -7.765,-3.072 -8.533,-6.912 z"
     fill="#f44321"
     id="path3" />
  <path
     d="m 45.035074,39.871074 -14.167,14.164 c -3.67,3.67 -8.79,4.864 -13.397,3.755 -0.853,3.84 -4.267,6.656 -8.3630004,6.656 -4.6930001,0.001 -8.5330001,-3.839 -8.5330001,-8.531 0,-4.01 2.816,-7.424 6.57,-8.277 -1.195,-4.78 0,-9.9 3.6700005,-13.568 l 0.512,-0.512 6.315,6.315 -0.512,0.512 c -2.048,2.048 -2.048,5.376 0,7.424 2.048,2.048 5.376,2.048 7.424,0 l 14.165,-14.165 z"
     fill="#5091cd"
     id="path4" />
</svg>
