<?xml version="1.0" encoding="UTF-8" standalone="no"?>
<svg
   height="128"
   width="128"
   version="1.1"
   id="svg10"
   viewBox="0 0 27.826117 27.826117"
   sodipodi:docname="jquery-icon.svg"
   inkscape:version="1.4.2 (f4327f4, 2025-05-13)"
   xmlns:inkscape="http://www.inkscape.org/namespaces/inkscape"
   xmlns:sodipodi="http://sodipodi.sourceforge.net/DTD/sodipodi-0.dtd"
   xmlns="http://www.w3.org/2000/svg"
   xmlns:svg="http://www.w3.org/2000/svg">
  <sodipodi:namedview
     id="namedview1"
     pagecolor="#ffffff"
     bordercolor="#000000"
     borderopacity="0.25"
     inkscape:showpageshadow="2"
     inkscape:pageopacity="0.0"
     inkscape:pagecheckerboard="0"
     inkscape:deskcolor="#d1d1d1"
     inkscape:zoom="4.3015663"
     inkscape:cx="15.343249"
     inkscape:cy="72.415483"
     inkscape:window-width="1920"
     inkscape:window-height="1017"
     inkscape:window-x="-8"
     inkscape:window-y="-8"
     inkscape:window-maximized="1"
     inkscape:current-layer="svg10" />
  <defs
     id="defs10" />
  <path
     d="M 2.1437221,7.1149829 C -0.24941191,10.555357 0.04793661,15.031235 1.8763694,18.685491 l 0.1343285,0.260832 0.086074,0.164325 0.052166,0.0952 0.095204,0.169541 0.1747573,0.299957 0.099117,0.164324 0.2021449,0.316912 0.086074,0.133024 0.293436,0.423851 0.057383,0.07824 0.2673527,0.356037 0.1004205,0.127807 0.2608321,0.303869 0.093899,0.113463 0.3442984,0.393856 0.020866,0.02217 0.3495149,0.369077 0.1121578,0.113461 0.2790903,0.260832 0.1147661,0.108245 0.3821189,0.348211 0.073033,0.0613 0.3482107,0.293436 0.130416,0.114766 0.2895236,0.226923 0.1564994,0.130417 0.3260399,0.234748 0.1512826,0.10694 0.3156068,0.208665 0.1369369,0.09129 0.4955809,0.302566 0.1369367,0.07824 0.3716856,0.208665 0.206058,0.10433 0.266048,0.138241 0.0613,0.03 0.108245,0.05217 0.421244,0.195624 0.08868,0.03913 0.4916681,0.20345 0.119983,0.04695 0.462976,0.172149 0.05869,0.02087 0.516447,0.169541 0.125199,0.03652 0.521664,0.151282 c 11.574421,2.112739 14.936547,-6.95639 14.936547,-6.95639 -2.823508,3.677732 -7.824962,4.649331 -12.585146,3.569486 -0.179974,-0.03913 -0.354732,-0.09651 -0.529489,-0.148675 l -0.130416,-0.03913 a 16.536751,16.536751 0 0 1 -0.508623,-0.165628 l -0.07043,-0.02609 c -0.151282,-0.05217 -0.299958,-0.109549 -0.449935,-0.166932 l -0.126504,-0.04956 A 14.450095,14.450095 0 0 1 11.911871,22.54188 l -0.09651,-0.04304 -0.409507,-0.190407 -0.130415,-0.05738 c -0.10694,-0.05217 -0.211274,-0.10694 -0.316912,-0.161717 l -0.211273,-0.110853 a 12.246064,12.246064 0 0 1 -0.379509,-0.212579 l -0.127808,-0.07173 A 19.340696,19.340696 0 0 1 9.7443559,21.391613 c -0.04565,-0.0287 -0.08868,-0.05999 -0.133024,-0.08868 l -0.352123,-0.234749 c -0.03913,-0.02609 -0.07565,-0.05217 -0.113462,-0.07825 L 8.8131979,20.748673 8.6658279,20.637819 8.3658709,20.403071 8.231542,20.29613 7.8572482,19.980522 c -0.013042,-0.01304 -0.026083,-0.02217 -0.039125,-0.0339 C 7.685099,19.816199 7.554683,19.709258 7.424267,19.589274 L 7.3134134,19.482333 7.0304105,19.205851 6.9195569,19.094998 A 14.867426,14.867426 0 0 1 6.5726504,18.728528 16.562835,16.562835 0 0 1 6.203573,18.311197 L 6.1122818,18.201648 5.8592747,17.888649 5.7679834,17.758234 5.4758516,17.369594 C 2.8518811,13.780545 1.9037567,8.8195206 4.0256254,4.7453238 M 9.5852609,4.217139 C 7.8546398,6.6950434 7.9485393,10.042822 9.2983449,12.67592 a 11.020154,11.020154 0 0 0 0.7655421,1.278078 c 0.260833,0.371685 0.547747,0.813796 0.890741,1.112448 l 0.388641,0.39125 0.101723,0.100413 0.396464,0.369077 0.01956,0.01695 0.462977,0.383423 0.10433,0.08216 0.485149,0.352123 0.339081,0.225619 0.358644,0.221707 0.05217,0.03 0.318214,0.177365 0.113463,0.05869 0.221706,0.114766 0.03391,0.01565 0.462977,0.216491 0.101724,0.04174 0.391247,0.153891 0.163021,0.05999 0.348209,0.121288 0.1565,0.05217 c 0.166932,0.05217 0.331257,0.130415 0.50471,0.146065 8.93741,1.480221 11.000591,-5.399223 11.000591,-5.399223 -1.859732,2.678745 -5.461822,3.956822 -9.305183,2.960444 l -0.506014,-0.146067 -0.152587,-0.04956 -0.352123,-0.122591 -0.160412,-0.05999 -0.380814,-0.153891 -0.10433,-0.04304 -0.465585,-0.21649 -0.23475,-0.130417 -0.134328,-0.06913 -0.365165,-0.208666 -0.358643,-0.219099 -0.339082,-0.225619 -0.48254,-0.352123 -0.108245,-0.08608 C 12.334432,12.548116 11.013318,10.745767 10.378191,8.674762 9.7261119,6.5398513 9.856528,4.1441091 11.008102,2.1996061 M 15.820453,2.052236 c -1.019854,1.4997843 -1.121578,3.3647334 -0.412114,5.0249293 0.745978,1.7606172 2.277063,3.1299837 4.062459,3.7820627 l 0.221707,0.07824 0.09781,0.03131 0.318217,0.0913 c 4.934944,0.952035 6.25997,-2.5326799 6.629049,-3.0452149 -1.173746,1.6875825 -3.129985,2.0931759 -5.56094,1.5063055 A 7.7988783,7.7988783 0 0 1 20.589765,9.3411845 7.1467982,7.1467982 0 0 1 19.894647,9.0529655 7.1859229,7.1859229 0 0 1 18.676561,8.309594 C 16.511656,6.6663518 15.155329,3.5363672 16.580777,0.98673399"
     fill="#0868ac"
     id="path10"
     style="display:inline;stroke-width:1.30417" />
</svg>
