<?xml version="1.0" encoding="UTF-8" standalone="no"?>
<!-- Created with Inkscape (http://www.inkscape.org/) -->

<svg
   version="1.1"
   id="svg1"
   width="128"
   height="128"
   viewBox="0 0 200 200"
   sodipodi:docname="jsp-icon.svg"
   inkscape:version="1.4.2 (f4327f4, 2025-05-13)"
   xmlns:inkscape="http://www.inkscape.org/namespaces/inkscape"
   xmlns:sodipodi="http://sodipodi.sourceforge.net/DTD/sodipodi-0.dtd"
   xmlns="http://www.w3.org/2000/svg"
   xmlns:svg="http://www.w3.org/2000/svg">
  <sodipodi:namedview
     id="namedview1"
     pagecolor="#ffffff"
     bordercolor="#000000"
     borderopacity="0.25"
     inkscape:showpageshadow="2"
     inkscape:pageopacity="0.0"
     inkscape:pagecheckerboard="0"
     inkscape:deskcolor="#d1d1d1"
     inkscape:zoom="3.8980583"
     inkscape:cx="17.701121"
     inkscape:cy="47.331258"
     inkscape:window-width="1920"
     inkscape:window-height="1017"
     inkscape:window-x="-8"
     inkscape:window-y="-8"
     inkscape:window-maximized="1"
     inkscape:current-layer="svg1" />
  <defs
     id="defs1" />
  <g
     id="g1"
     transform="translate(-0.26722702,-3.0002311)">
    <path
       id="path1"
       style="display:inline;fill:#148489;fill-opacity:1;stroke:none"
       d="m 130.18351,110.63775 c -0.60813,-0.005 -1.20506,0.0174 -1.78742,0.0662 l -4.66546,1.24433 -2.17805,1.41381 c 9.69235,-2.60939 19.90796,4.43373 17.3381,14.63082 -1.93547,7.67987 -15.81992,15.89832 -22.53153,19.59806 9.68735,-0.76714 25.78045,-8.56544 29.45316,-18.07651 4.89712,-12.68187 -6.50675,-18.80251 -15.6288,-18.87666 z m -75.107203,1.31993 c -10.170398,0.16478 -23.578104,3.94635 -31.445354,8.42995 l -0.697455,1.53919 c 0.896416,5.8851 24.141737,7.07176 32.883108,7.30281 20.474613,0.54118 33.093671,-1.15098 52.011154,-5.67982 l 8.83444,-3.96863 c -19.067161,2.79785 -36.869176,4.35015 -53.896871,4.5174 -8.750572,0.0859 -33.487407,-1.63585 -24.632718,-5.93184 z m -8.021684,22.45719 c -3.274571,0.32275 -3.832806,0.6457 -6.73451,2.20325 -7.377098,7.40725 3.689726,9.71731 9.582296,10.82033 16.571573,3.102 42.64774,1.39649 59.464541,-3.93587 l -2.43763,-1.97014 c -0.93472,-0.48401 -1.18749,-0.61036 -1.21661,-0.63319 v -0.002 h 0.003 0.003 0.003 c 0.0217,0.004 0.0888,0.0233 0.11278,0.0139 l 0.003,-0.002 h 0.002 v -0.003 h 0.003 v -0.002 -0.002 -0.002 -0.003 -0.002 -0.003 c -0.0174,-0.0827 -0.51447,-0.48495 -3.18171,-2.15222 -0.19113,-0.11947 -10.393979,1.54064 -12.613419,1.77168 -16.958182,1.76532 -14.364846,1.29102 -24.261625,1.36341 -11.394318,0.0833 -25.504195,-0.62017 -18.728603,-7.46095 z m 4.103458,20.01389 c -16.154909,6.16737 -1.784716,12.71845 4.935743,13.7853 15.338156,4.28978 37.151603,1.27002 50.740366,-4.54134 l -5.59981,-3.21447 c -2.640429,-1.45668 -0.0633,-0.0545 -4.32019,-2.3658 -0.17537,-0.0952 -8.063295,2.55766 -19.187903,2.66066 -10.481758,0.097 -22.706059,0.46026 -26.316189,-2.40676 -1.095174,-0.86974 -0.899421,-2.47019 -0.252017,-3.91759 z m -20.289215,13.89429 c -4.673461,0.31704 -9.457786,1.60308 -15.785051,3.95918 -2.550024,0.94956 -9.2739726,4.97748 -7.1011936,7.9045 1.9951,2.68766 8.8458176,3.34132 11.4818696,3.91381 6.851326,1.48798 15.2952,2.25907 22.265655,2.83393 23.699249,1.9545 49.074134,2.01811 72.535374,-2.67768 6.81621,-1.36427 13.7681,-2.18952 18.99007,-5.4278 2.17982,-1.35176 5.67089,-4.34853 4.94331,-6.33758 l -1.09943,-1.21913 -1.2752,-0.95893 c 4.27401,6.56582 -14.2751,9.39757 -24.2402,10.88711 -19.283751,2.88244 -41.304619,2.48842 -60.759911,1.23804 -6.658043,-0.42792 -14.408169,-0.28454 -20.894684,-1.88887 -2.406456,-0.5952 -8.509833,-1.47359 -9.79084,-3.83758 -1.953948,-3.60584 13.092517,-7.70727 15.419627,-8.38711 -1.58614,-0.10573 -3.131576,-0.10743 -4.689396,-0.002 z m 116.134854,12.10561 c -4.3858,1.67106 -5.8536,4.03106 -10.40009,5.41584 -31.64477,9.63846 -69.73139,11.42417 -101.85182,5.79134 l 0.933721,1.83027 c 23.626648,5.52454 49.264647,5.93746 73.132659,2.36706 12.58198,-1.88213 33.61282,-4.68643 38.18553,-15.40451 z" />
    <path
       id="path2"
       style="display:inline;fill:#fe6600;fill-opacity:1;stroke:none;stroke-width:0.46275"
       d="m 150.54177,153.75343 c -2.29456,0 -4.3321,0.428 -6.11296,1.28399 -1.74661,0.85599 -3.11654,2.0815 -4.10971,3.67676 -0.99317,1.55634 -1.48983,3.44355 -1.48983,5.66134 0,3.22941 0.78766,5.77803 2.36303,7.64564 1.60962,1.86762 3.97287,3.44323 7.08936,4.72721 2.22607,0.8949 3.95555,1.75091 5.18845,2.56799 1.26714,0.77817 2.15748,1.63418 2.67119,2.56799 0.51371,0.9338 0.77057,2.08171 0.77057,3.44351 0,2.06215 -0.70203,3.69627 -2.10616,4.90244 -1.36989,1.20616 -3.42479,1.80936 -6.16456,1.80936 -1.95209,0 -3.85282,-0.2531 -5.70217,-0.75891 -1.8151,-0.50581 -3.33921,-1.06991 -4.5721,-1.69245 v 5.01905 c 1.1644,0.62254 2.61996,1.10904 4.36656,1.45922 1.74661,0.35018 3.64733,0.52537 5.70216,0.52537 4.00692,0 7.19196,-1.0312 9.55502,-3.09335 2.36305,-2.06216 3.54468,-4.94148 3.54468,-8.6378 0,-2.17888 -0.39398,-3.9879 -1.18166,-5.42752 -0.75344,-1.43962 -1.88358,-2.66542 -3.39045,-3.67704 -1.47263,-1.05053 -3.28774,-2.02324 -5.44531,-2.91814 -1.98633,-0.85599 -3.56164,-1.6535 -4.72605,-2.39276 -1.1644,-0.73927 -2.00354,-1.57587 -2.51725,-2.50968 -0.51371,-0.9338 -0.77057,-2.10111 -0.77057,-3.50182 0,-1.82871 0.58228,-3.28762 1.74668,-4.37706 1.16441,-1.12835 2.89389,-1.69275 5.18845,-1.69275 1.60962,0 3.1508,0.214 4.62342,0.642 1.50688,0.42799 2.89388,0.9533 4.16102,1.57583 l 1.43823,-4.49397 c -1.36989,-0.70036 -2.89371,-1.26446 -4.57182,-1.69245 -1.67811,-0.428 -3.52764,-0.642 -5.54822,-0.642 z m 18.39077,0.58368 v 41.67115 h 4.62342 v -16.22483 h 4.21233 c 3.66445,0 6.55849,-0.62261 8.68182,-1.86768 2.15757,-1.24508 3.68139,-2.85979 4.57182,-4.84413 0.92467,-2.02324 1.38719,-4.18267 1.38719,-6.47827 0,-3.89086 -1.096,-6.90628 -3.28782,-9.04626 -2.19182,-2.13997 -5.68492,-3.20998 -10.47952,-3.20998 z m -38.59441,0.0362 -4.02545,0.0344 -1.61169,0.0507 0.11837,23.4139 c 0.0339,2.41362 0.543,10.36823 -1.05017,13.92217 -1.08592,2.42238 -2.07234,2.78034 -4.44849,4.70068 2.11857,2.33314 2.2224,2.96563 2.75399,2.88607 3.28131,-0.49111 7.9546,-5.14352 8.2961,-9.01653 0.4148,-4.70441 0.10487,-9.5663 0.0866,-13.09065 z m 43.21783,4.45782 h 4.67473 c 3.25348,0 5.6338,0.6614 7.14068,1.98429 1.50687,1.3229 2.2601,3.32681 2.2601,6.0115 0,3.07378 -0.8562,5.2526 -2.56856,6.53658 -1.71236,1.28399 -4.31512,1.926 -7.80833,1.926 h -3.69862 z" />
    <path
       id="path3"
       style="display:inline;fill:#fe6600;fill-opacity:1;stroke:none"
       d="m 96.536795,7.3406094 0.984754,9.0215596 C 96.415659,26.517713 96.281198,26.594877 90.616928,34.844426 84.798173,43.318951 70.802174,51.218358 61.84925,60.297458 50.0135,72.300013 51.819916,79.351513 55.001962,86.362261 c 1.6588,3.654698 4.700912,7.188659 7.275085,10.248249 4.324455,5.13992 9.53018,11.46852 15.76363,15.15186 C 72.582745,100.36764 60.327085,86.349202 66.419568,72.958135 68.241933,68.952641 71.096283,65.48777 74.138832,62.350762 81.951783,54.295222 94.798183,45.617262 99.722283,31.614205 102.48498,23.757706 102.38236,15.447787 96.536795,7.3406094 Z M 120.54514,46.340787 c -15.92996,3.187164 -45.569429,17.170797 -42.490602,35.970939 2.238419,13.668386 10.324133,14.913478 11.222923,23.601344 0.40538,3.91849 -0.22059,4.63966 -4.518025,12.01929 l 1.970769,-0.98412 C 93.607997,111.67748 103.65451,104.62745 99.155876,95.776335 95.624286,88.827901 87.854765,82.967506 89.027335,75.165169 90.854235,63.008904 111.58402,52.591481 120.54514,46.340787 Z" />
  </g>
</svg>
