<?xml version="1.0" encoding="UTF-8" standalone="no"?>
<!-- Created with Inkscape (http://www.inkscape.org/) -->

<svg
   version="1.1"
   id="svg1"
   width="128"
   height="128"
   viewBox="0 0 127.99987 127.99987"
   sodipodi:docname="junit-icon.svg"
   inkscape:version="1.4.2 (f4327f4, 2025-05-13)"
   xmlns:inkscape="http://www.inkscape.org/namespaces/inkscape"
   xmlns:sodipodi="http://sodipodi.sourceforge.net/DTD/sodipodi-0.dtd"
   xmlns="http://www.w3.org/2000/svg"
   xmlns:svg="http://www.w3.org/2000/svg">
  <sodipodi:namedview
     id="namedview1"
     pagecolor="#ffffff"
     bordercolor="#000000"
     borderopacity="0.25"
     inkscape:showpageshadow="2"
     inkscape:pageopacity="0.0"
     inkscape:pagecheckerboard="0"
     inkscape:deskcolor="#d1d1d1"
     inkscape:zoom="4.5064027"
     inkscape:cx="30.623095"
     inkscape:cy="51.815165"
     inkscape:window-width="1920"
     inkscape:window-height="1017"
     inkscape:window-x="-8"
     inkscape:window-y="-8"
     inkscape:window-maximized="1"
     inkscape:current-layer="svg1" />
  <defs
     id="defs1" />
  <g
     id="g1"
     transform="matrix(1.000001,0,0,1.000001,0.44381297,1.3314389)">
    <path
       id="path5"
       style="display:inline;fill:#d84445;fill-opacity:1"
       d="m 24.415681,37.749469 c -21.4323114,21.55634 0.05179,-0.04248 -21.3850832,21.560864 -1.3829151,2.155562 -1.1879196,2.353563 -1.1873735,3.675599 4.22e-4,1.021638 0.5058042,2.639315 2.0489183,4.077762 L 60.043922,122.37075 c 0,0 0.758491,0.45563 1.169705,0.61252 0.495697,0.18912 1.018188,0.31418 1.543511,0.38846 0.109348,0.0155 0.216932,0.0291 0.325159,0.0391 0.128568,0.0119 0.337915,0.019 0.466977,0.0235 0.281473,0.01 0.566163,0.0166 0.844313,-0.006 0.47616,-0.0393 0.95581,-0.12084 1.404999,-0.28364 0.532461,-0.19298 1.49414,-0.80892 1.49414,-0.80892 L 96.172381,93.932706 88.241611,86.128889 87.512445,85.455604 C 79.615958,93.30877 71.612259,101.05536 63.734907,108.9273 16.86989,62.650783 63.740507,108.9303 16.873909,62.655058 l 16.395935,-16.19357 c -8.834284,-8.693603 0.01403,0.01067 -8.854163,-8.712019 z" />
    <path
       id="path4"
       style="display:inline;fill:#000000"
       d="m 105.95181,20.011837 -21.500555,21.07116 -20.433258,20.371982 -5.898655,-5.325955 -6.491752,-6.447266 -4.854818,4.607422 -4.496745,4.369141 9.229167,9.028429 2.708333,2.756727 c 5.664376,5.445628 6.059999,5.881928 7.549696,6.371745 1.958116,0.643835 4.06668,0.534894 5.16276,-0.459418 2.692677,-2.44267 8.933777,-8.299218 25.199653,-24.554905 L 114.88149,29.060665 c -4.76892,-4.596089 -4.77427,-4.605695 -8.92968,-9.048828 z" />
    <path
       id="path3"
       style="display:inline;fill:#299d5b;fill-opacity:1"
       d="m 63.464389,1.9183193 c -1.358529,0.014 -2.53355,0.3967908 -3.749029,1.3949086 -28.343897,27.5689681 0.0088,0.01176 -28.344417,27.5731791 l 8.861759,8.719615 c 23.682437,-23.190436 -0.10687,0.03353 23.571497,-23.209084 17.219423,16.937019 0.13775,0.0141 17.265618,16.993293 l 8.68869,-8.573673 C 67.705686,3.2603531 89.768512,24.9193 67.648118,3.2328909 65.836848,1.9705206 64.73941,1.90518 63.464389,1.9183193 Z m 38.280911,51.8440557 8.97352,8.79557 -16.143661,15.929356 c 8.722771,8.417214 0.03306,0.01521 8.718531,8.41905 l 18.8151,-18.565531 5.4e-4,-5.42e-4 5.4e-4,-5.43e-4 v -5.43e-4 c 2.85503,-3.133277 2.98881,-3.340128 3.02741,-5.412408 -0.15345,-2.022453 -0.14983,-1.926025 -2.14312,-4.794293 -12.54011,-12.913911 0.003,0.0024 -12.5469,-12.937852 -2.91295,2.834969 -5.80548,5.709509 -8.70196,8.567736 z" />
  </g>
</svg>
