<?xml version="1.0" encoding="UTF-8" standalone="no"?>
<svg
   viewBox="0 0 32.820513 32.820513"
   width="128"
   height="128"
   version="1.1"
   id="svg2"
   sodipodi:docname="linkedin-icon.svg"
   inkscape:version="1.4.2 (f4327f4, 2025-05-13)"
   xmlns:inkscape="http://www.inkscape.org/namespaces/inkscape"
   xmlns:sodipodi="http://sodipodi.sourceforge.net/DTD/sodipodi-0.dtd"
   xmlns="http://www.w3.org/2000/svg"
   xmlns:svg="http://www.w3.org/2000/svg">
  <defs
     id="defs2" />
  <sodipodi:namedview
     id="namedview2"
     pagecolor="#ffffff"
     bordercolor="#000000"
     borderopacity="0.25"
     inkscape:showpageshadow="2"
     inkscape:pageopacity="0.0"
     inkscape:pagecheckerboard="0"
     inkscape:deskcolor="#d1d1d1"
     inkscape:zoom="4.4359902"
     inkscape:cx="26.149742"
     inkscape:cy="53.313914"
     inkscape:window-width="1920"
     inkscape:window-height="1017"
     inkscape:window-x="-8"
     inkscape:window-y="-8"
     inkscape:window-maximized="1"
     inkscape:current-layer="svg2" />
  <path
     d="M 30.092418,0.34781356 H 2.8244181 c -1.302,0 -2.36200002,1.03300004 -2.36200002,2.30499994 V 30.036813 c 0,1.275 1.06000002,2.31 2.36200002,2.31 H 30.094418 c 1.305,0 2.368,-1.035 2.368,-2.31 V 2.6528135 c 0,-1.2719999 -1.063,-2.30499994 -2.37,-2.30499994 z"
     fill="#0177b5"
     id="path1"
     style="display:inline" />
  <path
     d="m 5.2074181,12.343813 h 4.755 v 15.27 h -4.755 z m 2.374,-7.5999995 c 1.517,0 2.7499999,1.233 2.7499999,2.75 0,1.517 -1.2329999,2.7530005 -2.7489999,2.7530005 a 2.76,2.76 0 0 1 -2.754,-2.7530005 2.75,2.75 0 0 1 2.753,-2.75 m 5.3499999,7.5999995 h 4.552 v 2.087 h 0.063 c 0.634,-1.2 2.182,-2.466 4.5,-2.466 4.806,0 5.693,3.163 5.693,7.274 v 8.376 h -4.743 v -7.428 c 0,-1.77 -0.032,-4.05 -2.466,-4.05 -2.47,0 -2.85,1.93 -2.85,3.92 v 7.554 h -4.742 v -15.27 z"
     fill="#ffffff"
     id="path2"
     style="display:inline" />
</svg>
