<?xml version="1.0" encoding="UTF-8" standalone="no"?>
<!-- Created with Inkscape (http://www.inkscape.org/) -->

<svg
   version="1.1"
   id="svg1"
   width="128"
   height="128"
   viewBox="0 0 365.71429 365.71429"
   xmlns="http://www.w3.org/2000/svg"
   xmlns:svg="http://www.w3.org/2000/svg">
  <defs
     id="defs1">
    <filter
       style="color-interpolation-filters:sRGB"
       id="filter104"
       x="-0.062088997"
       y="-0.062724899"
       width="1.1790546"
       height="1.1888083">
      <feFlood
         result="flood"
         in="SourceGraphic"
         flood-opacity="0.498039"
         flood-color="rgb(0,0,0)"
         id="feFlood103" />
      <feGaussianBlur
         result="blur"
         in="SourceGraphic"
         stdDeviation="3.300000"
         id="feGaussianBlur103" />
      <feOffset
         result="offset"
         in="blur"
         dx="7.000000"
         dy="8.000000"
         id="feOffset103" />
      <feComposite
         result="comp1"
         operator="in"
         in="flood"
         in2="offset"
         id="feComposite103" />
      <feComposite
         result="comp2"
         operator="over"
         in="SourceGraphic"
         in2="comp1"
         id="feComposite104" />
    </filter>
    <filter
       style="color-interpolation-filters:sRGB"
       id="filter106"
       x="-0.039209963"
       y="-0.024170348"
       width="1.1130752"
       height="1.0727552">
      <feFlood
         result="flood"
         in="SourceGraphic"
         flood-opacity="0.498039"
         flood-color="rgb(0,0,0)"
         id="feFlood104" />
      <feGaussianBlur
         result="blur"
         in="SourceGraphic"
         stdDeviation="3.300000"
         id="feGaussianBlur104" />
      <feOffset
         result="offset"
         in="blur"
         dx="7.000000"
         dy="8.000000"
         id="feOffset104" />
      <feComposite
         result="comp1"
         operator="in"
         in="flood"
         in2="offset"
         id="feComposite105" />
      <feComposite
         result="comp2"
         operator="over"
         in="SourceGraphic"
         in2="comp1"
         id="feComposite106" />
    </filter>
  </defs>
  <g
     id="g1"
     style="display:inline">
    <path
       id="path3"
       style="display:inline;fill:#2c4639;fill-opacity:0.709804;filter:url(#filter104)"
       d="m 186.83041,9.1908631 c -3.09239,0.17839 -5.75994,0.61503 -7.65429,1.3398499 -1.70211,0.65127 -4.44571,1.42755 -6.09571,1.7246 -2.49207,0.44866 -3.59259,0.87141 -6.5,2.4961 -4.19281,2.34298 -8.33895,4.28666 -11.45117,5.36523 -1.73667,0.60187 -2.85914,1.29724 -4.66797,2.89844 -1.30945,1.15914 -3.3552,2.60608 -4.54687,3.21484 -2.16667,1.10683 -2.16733,1.1073 -0.94922,1.68946 1.2181,0.58217 1.21939,0.58102 3.40039,-0.63867 3.28009,-1.83434 12.40252,-3.61849 18.15039,-3.55079 2.71777,0.032 5.02449,-0.14192 6.83399,-0.51367 2.2846,-0.46936 3.60318,-0.51681 8.06445,-0.28906 2.93333,0.14974 7.43333,0.29496 10,0.32226 3.57461,0.0381 5.25104,0.21152 7.16601,0.74024 1.46116,0.40342 4.12025,0.77769 6.39844,0.90039 2.14385,0.11546 4.9945,0.41544 6.33399,0.66602 1.33948,0.25059 3.82173,0.56077 5.51757,0.68945 8.87661,0.67359 -0.55422,1.76286 -11.75,1.35742 -3.97839,-0.14407 -7.44752,-0.0948 -9.33203,0.13281 -1.65,0.19932 -7.87565,0.42089 -13.83398,0.49219 -11.9734,0.14327 -29.33094,0.70916 -31.66602,1.03125 -1.52666,0.21058 2.1378,4.60554 7.50781,9.00586 0.80412,0.6589 2.29913,2.22207 3.32227,3.47266 2.06815,2.52789 5.99467,4.55453 10.33594,5.33593 1.22563,0.22061 3.54875,1.13883 6,2.3711 2.2,1.10596 5.87434,2.66537 8.16601,3.46484 6.91514,2.41245 20.01731,0.62718 34,-4.63281 2.10833,-0.79311 4.71979,-1.69949 5.80274,-2.01367 5.669,-1.64463 17.3238,-8.3261 21.39453,-12.26563 5.6934,-5.50991 -2.30213,-12.75154 -17.55078,-15.89453 -3.4918,-0.71972 -6.98094,-1.93457 -12.47852,-4.34766 -7.53756,-3.30852 -20.64078,-5.0996199 -29.91797,-4.5644499 z M 140.30502,31.665473 c -3.41729,-0.007 -6.22987,2.9239 -8.67187,8.83594 -0.62264,1.50742 -2.01161,3.95902 -3.08594,5.44922 -5.48829,7.61281 -9.06217,26.66902 -6.80078,36.257807 0.43652,1.85095 0.97305,4.53012 1.19336,5.95312 0.37896,2.44774 0.5848,2.87465 3.83203,7.91993 6.50738,10.11064 9.63232,13.36697 14.93555,15.5625 1.6719,0.69216 4.39101,2.14617 6.04101,3.23242 1.96987,1.29682 6.05767,3.31954 11.90625,5.89062 6.62936,2.91431 9.57014,4.39572 11.5,5.78907 2.02511,1.46211 3.31549,2.0955 5.89453,2.89257 2.05415,0.63485 4.25946,1.6166 5.83399,2.59961 1.39213,0.86914 3.50559,1.9675 4.69726,2.43946 5.63817,2.23304 8.70246,0.0634 7.11133,-5.03516 -1.12317,-3.59908 -1.99307,-14.46106 -1.53125,-19.12695 0.29835,-3.01423 0.25727,-3.61804 -0.42969,-6.37305 -0.41743,-1.67406 -0.86062,-4.46928 -0.98437,-6.21094 -0.12375,-1.74167 -0.58466,-4.43087 -1.02539,-5.97656 -0.44073,-1.54569 -0.89628,-4.24569 -1.01172,-6 -0.19661,-2.98787 -0.31067,-3.38119 -1.8125,-6.191407 -0.88179,-1.65 -2.13853,-4.24659 -2.79102,-5.77148 -1.43524,-3.3542 -4.22879,-6.89498 -7.81054,-9.89844 -2.48012,-2.0797 -5.01029,-4.7222 -8.79297,-9.18164 -1.25919,-1.48447 -2.8207,-2.79783 -4.8711,-4.09766 -2.30203,-1.45934 -3.55476,-2.55702 -5.28124,-4.62695 -1.24483,-1.49247 -3.01324,-3.38646 -3.93165,-4.21094 -0.91841,-0.82449 -3.13939,-2.98343 -4.93359,-4.79687 -3.49903,-3.53655 -6.52179,-5.31886 -9.17969,-5.32422 z m 0.74219,15.19141 c 0.66813,-0.0327 5.72995,6.57513 6.83008,8.95898 0.70039,1.51764 2.69901,4.93347 4.44336,7.5918 3.89702,5.93891 4.92662,7.76892 6.24804,11.11719 1.26217,3.19811 3.08773,6.600937 6.02149,11.216787 3.67413,5.78071 5.32863,8.84803 6.66992,12.36719 0.70106,1.83938 2.31911,5.02217 3.5957,7.07227 1.27659,2.05009 3.03239,5.0022 3.90039,6.56054 0.86801,1.55833 1.64191,2.94453 1.72071,3.08203 0.05,0.0873 0.0801,0.15199 0.0723,0.17969 l -0.002,0.002 v 0.002 l -0.002,0.002 -0.002,0.002 v 0.002 h -0.002 l -0.002,0.002 c -0.099,0.0514 -0.88812,-0.53877 -3.51172,-2.55859 -4.63756,-3.57029 -9.7413,-9.55918 -13.11133,-15.38282 -0.79569,-1.375 -2.29564,-3.7737 -3.33203,-5.33203 -2.63159,-3.95689 -5.1638,-8.44915 -6.18945,-10.97851 -0.47814,-1.179137 -2.19195,-4.927827 -3.81055,-8.332027 -5.96686,-12.54937 -10.49924,-24.63748 -9.58203,-25.55469 0.0117,-0.0117 0.0261,-0.0186 0.0449,-0.0195 z" />
    <path
       id="path2"
       style="display:inline;fill:#f4ce14;fill-opacity:1;filter:url(#filter106)"
       d="m 176.78518,22.775433 c -1.16424,0 -1.88028,0.12694 -3.13165,0.35691 -1.88741,0.34686 -4.53364,0.63724 -6.97155,0.59172 -5.65454,-0.10559 -15.08399,1.71391 -18.26596,3.49337 -2.17749,1.21774 -2.20012,1.2511 -3.41822,0.66933 -0.48322,-0.23079 -0.7377,-0.33821 -0.78848,-0.48496 l -0.93945,-0.73047 c -0.2411,-0.034 -0.50399,-0.0136 -0.72071,-0.11133 -1.27001,-0.57271 -1.27037,-0.573 -5.79687,0.97071 -2.48959,0.849 -4.84715,1.54296 -5.23828,1.54296 -1.23722,0 -5.01814,2.32512 -7.26563,4.4668 -1.19166,1.13555 -3.06797,2.75293 -4.16797,3.59375 -1.69389,1.29481 -2.12618,1.85245 -2.82812,3.64063 -0.45582,1.16118 -1.601,3.31618 -2.54492,4.78906 -1.71623,2.67798 -1.71679,2.67755 -1.94141,8.18359 -0.39343,9.64358 -1.70675,16.75582 -3.62891,19.64649 -1.16364,1.74997 -1.73644,3.06431 -2.2207,5.09179 -0.41162,1.72339 -1.51088,4.460647 -2.97266,7.410157 -1.27505,2.5728 -2.56244,5.50339 -2.86132,6.51172 -2.956416,9.97414 -5.084326,14.76118 -8.031246,18.0625 -2.29434,2.57022 -4.19953,6.26801 -4.94532,9.60351 -1.26256,5.64693 -2.47085,9.00667 -4.02148,11.17969 -1.25196,1.75446 -1.6181,2.62816 -2.12109,5.05469 -0.35304,1.70315 -1.12097,3.94452 -1.83008,5.34375 -1.22142,2.41016 -1.22027,2.40992 -0.76172,5.27344 0.43565,2.72061 0.40529,3.28512 -0.60156,11.3164 -1.05973,8.45311 -1.05987,8.45404 -0.30469,11.06055 1.64083,5.66329 1.93877,8.59721 1.19141,11.72461 -0.60427,2.52856 -0.62319,2.96122 -0.20313,4.66797 0.70531,2.8657 1.46094,9.19717 1.46094,12.24804 0,2.26444 0.1649,3.11688 0.96875,5.01368 1.20611,2.84594 1.46305,3.82637 2.51562,9.55078 0.48753,2.65141 1.26188,5.57559 1.82813,6.90625 0.54014,1.26932 1.53221,4.74962 2.20312,7.73437 2.07876,9.24815 2.67805,11.08136 4.50782,13.79297 0.90943,1.34777 2.17338,3.59599 2.81054,4.99414 0.63716,1.39815 1.88824,3.38844 2.7793,4.42383 3.948166,4.58769 8.465696,11.11324 9.712886,14.03125 1.7861,4.17894 6.36505,10.28168 9.70312,12.93164 1.76725,1.40294 2.96367,2.69804 3.97071,4.29688 0.79282,1.25871 2.35698,3.1147 3.47461,4.12304 1.11763,1.00833 3.75478,3.91236 5.86133,6.45313 3.88992,4.69175 7.35117,7.90878 11.41796,10.61328 2.45893,1.63522 5.81847,4.74923 8.82422,8.17969 4.80419,5.48294 24.67286,14.24409 37.58789,16.57421 2.65071,0.47825 3.31178,0.75137 5.66797,2.3418 2.05312,1.38585 3.39399,2.00134 5.83203,2.67774 4.38957,1.2178 8.39775,3.74574 10.51758,6.63281 1.29175,1.75927 1.91334,2.26959 3.91211,3.22461 1.38278,0.6607 4.20403,2.60336 6.75391,4.64844 4.38022,3.51306 4.38099,3.5128 7.01562,3.27343 1.44906,-0.13166 3.53477,-0.25473 4.63477,-0.27343 3.81238,-0.0647 5.42503,-1.06217 6.49219,-4.01368 0.49715,-1.37497 1.22773,-3.22472 1.62304,-4.11132 0.71203,-1.59703 0.71395,-1.63435 0.125,-4 -1.49698,-6.01294 2.79817,-21.09817 7.22852,-25.38672 1.83724,-1.77845 2.50512,-3.42985 4.36914,-10.81641 0.70336,-2.78724 1.57835,-4.54104 5.16601,-10.35156 1.35861,-2.20037 1.84075,-3.35395 2.15821,-5.16602 0.22483,-1.28334 1.43586,-4.95964 2.6914,-8.16797 1.35142,-3.45322 2.8309,-8.03054 3.62696,-11.21875 1.48354,-5.9415 2.44379,-8.81223 4.42187,-13.21875 0.94095,-2.09609 1.44382,-3.8173 1.75,-6 0.23614,-1.68336 0.74475,-4.1875 1.13086,-5.5625 0.3861,-1.37497 0.85143,-4.14934 1.03516,-6.16601 0.58364,-6.40635 1.87145,-13.47589 2.96679,-16.29102 1.02101,-2.624 1.02037,-2.62393 0.30274,-5.5664 -0.71763,-2.9425 -0.71627,-2.94177 0.19336,-5.98047 1.05732,-3.53212 1.57915,-12.86246 0.96094,-17.18555 -0.21504,-1.50348 -0.22757,-3.4367 -0.0352,-5.33398 0.34821,-3.4327 -0.065,-5.8546 -1.90234,-11.16211 -1.10293,-3.18609 -1.10396,-3.18508 -0.67188,-6.10742 0.41657,-2.81742 0.40454,-3.00348 -0.375,-5.14844 -0.44472,-1.22368 -1.17264,-3.76138 -1.61719,-5.64063 -0.44455,-1.87926 -2.15475,-6.87712 -3.80078,-11.10547 -2.10371,-5.40402 -3.14883,-8.58562 -3.51758,-10.71093 -0.50223,-2.89467 -0.65914,-3.23419 -3.65429,-7.96485 -2.49865,-3.9464 -3.27153,-5.47443 -3.8418,-7.58789 -0.60403,-2.23857 -1.00893,-2.99741 -2.63281,-4.92969 -1.05579,-1.25626 -3.14759,-4.47933 -4.64844,-7.1621 -2.56175,-4.57919 -2.88042,-4.99577 -5.19727,-6.81055 -2.03113,-1.59101 -3.01867,-2.74186 -5.57421,-6.4961 -2.42767,-3.56634 -3.50514,-4.84367 -4.93946,-5.85546 -1.00901,-0.71179 -4.00964,-3.40712 -6.66797,-5.99024 -5.25603,-5.107327 -11.7076,-10.062627 -16.38281,-12.582027 -2.09433,-1.1286 -3.33922,-2.07756 -4.55078,-3.4707 -1.50187,-1.72696 -1.94315,-2.01204 -4.44922,-2.86524 -2.97109,-1.01152 -5.67745,-2.7316 -9.31836,-5.92187 -1.21103,-1.06115 -2.74887,-2.1907 -3.41797,-2.50977 -0.62885,-0.29987 -0.83642,-0.52796 -0.78711,-0.70898 l -3.12304,-1.20313 c -1.08158,-0.17071 -2.09007,-0.39392 -2.97071,-0.70117 -2.29164,-0.79956 -5.96601,-2.35908 -8.16601,-3.4668 -2.45729,-1.23728 -4.77135,-2.15385 -6,-2.375 -4.3584,-0.78448 -8.29562,-2.83219 -10.32497,-5.34387 -1.00371,-1.24231 -2.558,-2.82941 -3.39769,-3.51745 -5.11652,-4.19262 -8.83677,-8.71228 -7.46456,-8.93028 1.99475,-0.31687 19.02938,-0.90074 31.6423,-1.05215 6.11692,-0.0734 12.32696,-0.28851 13.80261,-0.44619 1.77923,-0.19011 4.98334,-0.33756 9.20325,-0.18662 11.40534,0.40794 20.87977,-0.66786 11.95507,-1.35742 -1.69581,-0.13103 -4.2779,-0.49547 -5.74456,-0.75009 -1.46664,-0.25461 -4.3208,-0.50269 -6.33747,-0.61124 -2.02602,-0.10906 -4.7174,-0.50239 -6.12953,-0.90197 -1.9007,-0.53783 -3.64425,-0.71236 -7.3596,-0.76609 -2.65823,-0.0385 -7.0279,-0.13585 -9.69641,-0.28702 -1.99313,-0.11291 -3.00459,-0.14785 -4.16883,-0.14785 z m -36.81269,8.93592 c 0.45802,-0.0418 0.82506,-0.0303 1.30045,0.0332 2.32801,0.40485 4.32118,1.77537 7.42163,4.52601 1.54764,1.37303 3.71285,3.69624 4.99231,4.83777 1.49859,1.33705 3.34425,3.35135 4.62758,4.8922 1.81149,2.17499 3.09032,3.2445 5.47544,4.75964 2.42324,1.53938 3.50988,2.55471 5.46231,4.89101 2.47574,2.96241 6.80707,7.39263 9.40271,9.53635 2.3364,1.92959 5.15391,5.7033 6.67442,9.17471 0.78151,1.78421 2.02827,4.24884 2.70777,5.57069 1.11539,2.169777 1.45124,2.609047 1.64487,5.556757 0.11617,1.76845 0.53732,4.52185 0.96206,6.1427 0.42698,1.62938 0.98671,4.36758 1.1102,6.10925 0.12349,1.74166 0.56518,4.53688 0.98047,6.21094 0.68383,2.75653 0.72462,3.35943 0.42383,6.39844 -0.46532,4.70119 0.36568,15.51419 1.50869,19.07202 1.66247,5.17475 -1.46639,7.26534 -7.29127,4.96023 -1.28333,-0.50786 -3.28079,-1.61846 -4.58989,-2.46082 -1.52275,-0.97983 -3.63826,-1.8863 -5.76072,-2.54126 -2.57993,-0.79614 -3.8847,-1.42875 -5.90051,-2.87513 -1.9022,-1.36485 -4.89457,-2.90313 -11.26185,-5.69481 -5.5635,-2.43931 -9.87672,-4.54329 -12.03527,-5.91652 -1.85159,-1.17793 -4.71487,-2.71022 -6.3534,-3.38646 -5.07538,-2.09468 -8.27945,-5.47648 -14.73122,-15.5143 -3.20285,-4.98302 -3.37391,-5.30394 -3.73633,-7.79359 -0.20895,-1.43539 -0.83234,-4.17599 -1.27987,-6.07007 -2.25791,-9.556267 1.51646,-28.944647 6.98483,-36.342537 1.01637,-1.375 2.36918,-3.87307 3.05335,-5.52307 2.25033,-5.4271 5.00125,-8.26074 8.20741,-8.55335 z m 1.06691,15.12795 c -0.72521,0.72521 3.57318,12.79961 7.61914,21.40234 1.46579,3.11666 3.74385,8.06669 5.06445,11 1.3206,2.933327 3.58204,7.208327 5.02344,9.499997 1.44139,2.29166 3.56407,5.71923 4.71875,7.61719 4.3526,7.15441 8.79048,12.39152 13.75391,16.22852 3.21374,2.48438 3.5235,2.69481 3.25586,2.23632 -0.0803,-0.1375 -1.14557,-2.01605 -2.36719,-4.17578 -1.22161,-2.15972 -3.01505,-5.15907 -3.98438,-6.66601 -0.96934,-1.50695 -2.25493,-4.09024 -2.85742,-5.74024 -1.28177,-3.51031 -2.4703,-5.75664 -6.17578,-11.66797 -3.7001,-5.90272 -4.85915,-8.052267 -6.75977,-12.537107 -1.06556,-2.51432 -2.82551,-5.67584 -5.09375,-9.15234 -1.90562,-2.92076 -4.21905,-6.81886 -5.14257,-8.66406 -1.42632,-2.8497 -6.6455,-9.79005 -7.05469,-9.38086 z" />
  </g>
</svg>
