<?xml version="1.0" encoding="UTF-8" standalone="no"?>
<svg
   height="128"
   width="128"
   version="1.1"
   id="svg3"
   sodipodi:docname="lua-icon.svg"
   viewBox="0 0 67.368421 67.368421"
   inkscape:version="1.4.2 (f4327f4, 2025-05-13)"
   xmlns:inkscape="http://www.inkscape.org/namespaces/inkscape"
   xmlns:sodipodi="http://sodipodi.sourceforge.net/DTD/sodipodi-0.dtd"
   xmlns="http://www.w3.org/2000/svg"
   xmlns:svg="http://www.w3.org/2000/svg">
  <defs
     id="defs3" />
  <sodipodi:namedview
     id="namedview3"
     pagecolor="#ffffff"
     bordercolor="#000000"
     borderopacity="0.25"
     inkscape:showpageshadow="2"
     inkscape:pageopacity="0.0"
     inkscape:pagecheckerboard="0"
     inkscape:deskcolor="#d1d1d1"
     inkscape:zoom="4.4359902"
     inkscape:cx="26.375171"
     inkscape:cy="53.539343"
     inkscape:window-width="1920"
     inkscape:window-height="1017"
     inkscape:window-x="-8"
     inkscape:window-y="-8"
     inkscape:window-maximized="1"
     inkscape:current-layer="svg3" />
  <g
     transform="matrix(0.069276,0,0,0.069276,0.8525464,0.8614934)"
     id="g3">
    <path
       d="M 880.4,266.18 A 456.67,456.67 0 1 1 722.22,90.51"
       fill="none"
       stroke="#808080"
       stroke-width="10.597"
       stroke-dasharray="39.8522"
       id="path1" />
    <circle
       r="353.20999"
       cx="473.5"
       cy="473.5"
       fill="#000080"
       id="circle1" />
    <circle
       r="103.45"
       cx="619.81"
       cy="327.20001"
       fill="#ffffff"
       id="circle2" />
    <circle
       r="103.46"
       cx="826.71997"
       cy="120.29"
       fill="#000080"
       id="circle3" />
    <path
       d="M 377.82,650.1 V 624.033 H 263.38 v -205.68 h -29.564 v 231.75 h 144 M 536.7,650.1 V 483.53 h -26.385 v 91.872 c 0,34.015 -17.802,56.267 -45.46,56.267 -20.98,0 -34.333,-12.716 -34.333,-32.743 v -115.4 h -26.385 v 125.9 c 0,27.657 20.663,45.46 53.1,45.46 24.478,0 40.055,-8.583 55.632,-30.518 v 25.75 h 23.84 m 193.79,-0.648 v -20.027 c -2.86,0.636 -4.133,0.636 -5.722,0.636 -9.22,0 -14.305,-4.768 -14.305,-13.034 V 524.22 c 0,-29.564 -21.617,-45.46 -62.625,-45.46 -40.373,0 -65.17,15.577 -66.758,54.042 h 26.703 c 2.225,-20.345 14.305,-29.564 39.1,-29.564 23.842,0 37.194,8.9 37.194,24.796 v 6.994 c 0,11.126 -6.676,15.895 -27.657,18.438 -37.512,4.768 -43.234,6.04 -53.406,10.173 -19.392,7.947 -29.246,22.888 -29.246,43.234 0,30.2 20.98,48.002 54.678,48.002 21.3,0 41.962,-8.9 56.585,-24.478 2.86,12.716 14.305,21.935 27.34,21.935 5.404,0 9.537,-0.636 18.12,-2.86 m -46.413,-56.903 c 0,23.842 -24.16,39.1 -49.9,39.1 -20.663,0 -32.743,-7.312 -32.743,-25.432 0,-17.484 11.762,-25.114 40.055,-29.246 27.975,-3.815 33.697,-5.086 42.598,-9.22 v 24.796"
       fill="#ffffff"
       id="path3" />
  </g>
</svg>
