<?xml version="1.0" encoding="UTF-8" standalone="no"?>
<svg
   width="128"
   height="128"
   viewBox="0 0 45.714286 45.714286"
   version="1.1"
   id="svg1"
   sodipodi:docname="mariadb-icon.svg"
   inkscape:version="1.4.2 (f4327f4, 2025-05-13)"
   xmlns:inkscape="http://www.inkscape.org/namespaces/inkscape"
   xmlns:sodipodi="http://sodipodi.sourceforge.net/DTD/sodipodi-0.dtd"
   xmlns:xlink="http://www.w3.org/1999/xlink"
   xmlns="http://www.w3.org/2000/svg"
   xmlns:svg="http://www.w3.org/2000/svg">
  <sodipodi:namedview
     id="namedview1"
     pagecolor="#ffffff"
     bordercolor="#000000"
     borderopacity="0.25"
     inkscape:showpageshadow="2"
     inkscape:pageopacity="0.0"
     inkscape:pagecheckerboard="0"
     inkscape:deskcolor="#d1d1d1"
     inkscape:zoom="4.4359902"
     inkscape:cx="26.826029"
     inkscape:cy="76.533082"
     inkscape:window-width="1920"
     inkscape:window-height="1017"
     inkscape:window-x="-8"
     inkscape:window-y="-8"
     inkscape:window-maximized="1"
     inkscape:current-layer="svg1" />
  <defs
     id="defs1">
    <clipPath
       id="A">
      <use
         xlink:href="#B"
         id="use1" />
    </clipPath>
    <path
       id="B"
       d="M 0,0 H 191.356 V 57.344 H 0 Z" />
  </defs>
  <path
     clip-path="url(#A)"
     d="m 75.198,5.328 c -1.872,0.047 -2.977,0.863 -3.34,2.42 0.48,0.418 1.126,0.6 1.77,0.572 1.415,-0.06 2.817,-1.138 2.42,-2.965 C 75.75,5.33 75.466,5.32 75.198,5.328 M 84.84,0 H 84.673 C 83.338,0.043 83.131,0.767 80.248,1.477 77.336,2.194 74.523,1.505 71.388,2.821 62.025,6.748 60.03,20.293 51.52,25.1 c -6.36,3.593 -12.512,5.188 -18.28,6.995 -3.792,1.188 -7.552,2.556 -10.988,5.516 -2.667,2.3 -3.4,4.085 -6.177,6.97 -2.835,2.933 -11.553,-2.258 -15.8,1.54 a 0.84,0.84 0 0 0 0.014,1.253 c 0.92,0.805 2.67,2.722 4.336,3.314 -0.528,1 -3.513,3.946 -2.904,5.42 0.64,1.55 8.04,0.497 14.88,-3.633 3.185,-1.924 5.723,-4.696 10.685,-5.357 6.42,-0.855 13.817,0.55 21.25,1.62 -1.103,3.286 -3.315,5.473 -5.088,8.1 -0.55,0.592 1.103,0.658 2.986,0.3 3.4,-0.838 5.832,-1.513 8.4,-3 3.143,-1.83 3.62,-6.52 7.474,-7.534 1.864,2.865 6.5,3.83 10.074,2.3 0.198,-0.084 0.392,-0.177 0.582,-0.275 0.43,-0.375 0.178,-0.813 -0.086,-1.135 A 6.21,6.21 0 0 1 72.516,47.13 c -2.012,-2.162 -2.472,-7.266 -1.58,-9.748 1.017,-2.824 2.022,-7.343 3.046,-11.075 1.1,-4 1.506,-9.063 2.837,-11.106 2.002,-3.072 4.215,-4.127 6.136,-5.86 1.921,-1.733 3.68,-3.42 3.62,-7.384 C 86.547,0.734 85.946,0.03 84.84,0 m 0.204,4.163 C 84.647,6.897 82.9,8.4 80.836,9.85 c -1.8,1.27 -3.794,2.493 -5.07,4.477 -1.305,2.03 -2.134,8.985 -4.16,15.852 -1.68,5.698 -4.184,11.335 -8.467,14.05 -0.278,0.176 -0.645,0.015 -0.704,-0.3 -0.3,-1.592 -0.24,-4.5 -0.734,-3.56 -0.62,1.77 -1.322,3.458 -2.143,5.027 -2.52,4.816 -6.166,8.505 -12.057,9.95 a 0.53,0.53 0 0 1 -0.552,-0.82 c 2.718,-3.77 5.15,-7.825 5.447,-14.014 0.025,-0.534 -0.646,-0.778 -0.983,-0.364 -1.284,1.583 -1.6,5.347 -3.477,6.506 -1.474,0.16 -2.967,0.16 -4.47,0.07 -6.17,-0.37 -12.502,-2.226 -18.274,-0.373 -3.93,1.262 -8.057,4.85 -11.386,6.293 C 9.894,54.33 8.04,55.93 3.1,55.82 2.595,55.14 5.162,52.197 6.034,50.927 6.312,50.52 5.717,50.092 5.16,49.827 3.822,49.213 2.48,47.547 1.053,46.897 c 0.183,-0.337 0.83,-0.674 1.187,-0.88 3.24,-1.88 11.832,2.124 14.14,-0.143 1.425,-1.398 2.385,-2.626 3.353,-4.05 0.94,-1.38 2.368,-2.838 3.847,-4.047 a 31.3,31.3 0 0 1 1.94,-1.435 c 2.52,-1.724 3.907,-1.852 7.17,-3.064 4.152,-1.544 9.293,-2.898 13.747,-4.6 2.752,-1.053 5.744,-2.35 8.183,-4.17 0.58,-0.432 1.127,-0.893 1.634,-1.386 6.964,-6.8 8.345,-18.766 19.2,-19.882 1.314,-0.135 2.248,-0.192 3.228,-0.223 1.096,-0.03 2.18,-0.3 3.263,-0.818 0.334,-0.146 2.324,-1.35 2.996,-0.768 0.448,0.388 0.115,2.492 0.086,2.72"
     transform="matrix(0.52012,0,0,0.52012,0.31799531,7.3566606)"
     fill="#444b5e"
     id="path1" />
</svg>
