<?xml version="1.0" encoding="UTF-8" standalone="no"?>
<svg
   width="128"
   height="128"
   version="1.1"
   id="svg6"
   viewBox="0 0 320 320"
   xmlns="http://www.w3.org/2000/svg"
   xmlns:svg="http://www.w3.org/2000/svg">
  <desc
     id="desc1">Logo of Meta Platforms -- Graphic created by Detmar Owen</desc>
  <defs
     id="defs6">
    <linearGradient
       id="Grad_Logo1"
       x1="61"
       y1="117"
       x2="259"
       y2="127"
       gradientUnits="userSpaceOnUse"
       gradientTransform="matrix(1.0776496,0,0,1.0776496,5.351806,55.896641)">
      <stop
         style="stop-color:#0064e1"
         offset="0"
         id="stop1" />
      <stop
         style="stop-color:#0064e1"
         offset="0.4"
         id="stop2" />
      <stop
         style="stop-color:#0073ee"
         offset="0.83"
         id="stop3" />
      <stop
         style="stop-color:#0082fb"
         offset="1"
         id="stop4" />
    </linearGradient>
    <linearGradient
       id="Grad_Logo2"
       x1="45"
       y1="139"
       x2="45"
       y2="66"
       gradientUnits="userSpaceOnUse"
       gradientTransform="matrix(1.0776496,0,0,1.0776496,5.351806,55.896641)">
      <stop
         style="stop-color:#0082fb"
         offset="0"
         id="stop5" />
      <stop
         style="stop-color:#0064e0"
         offset="1"
         id="stop6" />
    </linearGradient>
  </defs>
  <path
     id="Logo0"
     style="display:inline;fill:#0081fb;stroke-width:1.07765"
     d="m 38.8236,191.63736 c 0,11.83259 2.597135,20.91718 5.991731,26.41319 4.450692,7.19871 11.089014,10.24845 17.856652,10.24845 8.728961,0 16.714344,-2.16608 32.103178,-23.44965 12.328309,-17.0592 26.855029,-41.00457 36.629309,-56.01623 l 16.5527,-25.43252 c 11.49852,-17.66267 24.8075,-37.297447 40.06701,-50.606418 12.45763,-10.862707 25.89592,-16.897545 39.42042,-16.897545 22.70608,0 44.3345,13.158101 60.88719,37.836275 18.11529,27.027438 26.90891,61.070388 26.90891,96.201768 0,20.88485 -4.11662,36.23057 -11.12135,48.35414 -6.76763,11.72482 -19.95806,23.43887 -42.14687,23.43887 V 228.299 c 18.99897,0 23.74062,-17.45792 23.74062,-37.43754 0,-28.47151 -6.63832,-60.06818 -21.26202,-82.64494 -10.37776,-16.01387 -23.82683,-25.798928 -38.62295,-25.798928 -16.0031,0 -28.88102,12.069674 -43.35384,33.590338 -7.69443,11.43386 -15.59359,25.36786 -24.46265,41.09077 l -9.76351,17.29628 c -19.61322,34.77574 -24.58118,42.69646 -34.38779,55.76836 -17.188514,22.88927 -31.866101,31.56435 -51.188357,31.56435 -22.921605,0 -37.415991,-9.92515 -46.392811,-24.88293 C 8.9511551,224.65654 5.3518057,208.66423 5.3518057,190.44117 Z" />
  <path
     id="Logo1"
     style="display:inline;fill:url(#Grad_Logo1);stroke-width:1.07765"
     d="m 31.743442,96.092968 c 15.34573,-23.654411 37.491426,-40.196331 62.891626,-40.196331 14.709912,0 29.333622,4.353704 44.603922,16.822109 16.70356,13.632266 34.50633,36.079704 56.71668,73.075414 l 7.96384,13.27664 c 19.22527,32.02774 30.16341,48.505 36.56465,56.27485 8.23324,9.97904 13.99867,12.95335 21.48832,12.95335 18.99897,0 23.74062,-17.45792 23.74062,-37.43754 l 29.5276,-0.92678 c 0,20.88485 -4.11662,36.23057 -11.12135,48.35414 -6.76763,11.72482 -19.95806,23.43887 -42.14687,23.43887 -13.79391,0 -26.01446,-2.99587 -39.52818,-15.74446 -10.38854,-9.78506 -22.53365,-27.16754 -31.87687,-42.79346 l -27.79258,-46.42514 c -13.94479,-23.29878 -26.73648,-40.67049 -34.13994,-48.53734 -7.96383,-8.459545 -18.2015,-18.675658 -34.538667,-18.675658 -13.22276,0 -24.451867,9.278556 -33.848971,23.471198 z" />
  <path
     id="Logo2"
     style="display:inline;fill:url(#Grad_Logo2);stroke-width:1.07765"
     d="m 94.096243,89.551632 c -13.22276,0 -24.451867,9.278556 -33.848971,23.471198 -13.287419,20.05506 -21.423672,49.9275 -21.423672,78.61453 0,11.83259 2.597135,20.91718 5.991731,26.41319 L 16.279172,236.84476 C 8.9511551,224.65654 5.3518057,208.66423 5.3518057,190.44117 c 0,-33.13772 9.0953623,-67.67638 26.3916363,-94.348202 15.34573,-23.654411 37.491426,-40.196331 62.891626,-40.196331 z" />
</svg>
