<?xml version="1.0" encoding="UTF-8" standalone="no"?>
<!-- Created with Inkscape (http://www.inkscape.org/) -->

<svg
   version="1.1"
   id="svg1"
   width="128"
   height="128"
   viewBox="0 0 853.33333 853.33333"
   xmlns="http://www.w3.org/2000/svg"
   xmlns:svg="http://www.w3.org/2000/svg">
  <defs
     id="defs1" />
  <g
     id="g1">
    <path
       style="display:inline;fill:#eb3c00;fill-opacity:1"
       d="M 475.50295,810.50556 C 446.53629,800.48081 346.51206,765.93398 253.22689,733.73484 159.94173,701.5357 83.741724,675.08832 83.893554,674.96289 c 0.15183,-0.12543 51.276066,5.67738 113.609396,12.89513 62.33334,7.21775 118.73334,13.73239 125.33334,14.47697 6.6,0.74458 22.5,2.58215 35.33333,4.08349 12.83333,1.50134 54.53333,6.30552 92.66667,10.67596 38.13333,4.37044 71.28333,8.28303 73.66666,8.69463 l 4.33334,0.74837 V 438.477 c 0,-158.43324 -0.29499,-288.06044 -0.65554,-288.06044 -0.58591,0 -50.1136,11.05092 -155.34446,34.66139 -19.43334,4.36022 -54.23334,12.15449 -77.33334,17.3206 -23.1,5.16611 -46.8,10.48926 -52.66666,11.82924 l -10.66667,2.43631 -0.3394,194.54291 -0.33939,194.54292 -76.99394,32.34628 c -42.34667,17.79046 -77.443946,32.34046 -77.993946,32.33334 -0.55,-0.007 -1,-110.33144 -1,-245.16516 V 180.11218 l 5.66667,-2.12062 c 3.11667,-1.16634 19.166666,-6.89992 35.666666,-12.74128 C 154.66412,151.8584 439.6027,50.700972 489.38497,32.989961 c 20.46845,-7.28204 37.86845,-13.257289 38.66667,-13.278329 0.79822,-0.021 56.5025,16.874539 123.78728,37.54573 l 122.33597,37.584 -0.33597,331.352078 -0.33597,331.35208 -10,2.99665 c -5.5,1.64816 -32.2,9.40628 -59.33333,17.24027 -39.30174,11.34727 -106.05432,30.67031 -170,49.21034 l -6,1.7396 z"
       id="path1" />
  </g>
</svg>
