<?xml version="1.0" encoding="UTF-8" standalone="no"?>
<svg
   viewBox="0 0 116.36364 116.36364"
   version="1.1"
   id="svg1"
   width="128"
   height="128"
   xmlns="http://www.w3.org/2000/svg"
   xmlns:svg="http://www.w3.org/2000/svg">
  <defs
     id="defs1" />
  <rect
     style="display:none;fill:#0000ff;fill-rule:evenodd;stroke-width:0.909091;paint-order:fill markers stroke"
     id="rect1"
     width="119.11695"
     height="117.37801"
     x="-1.3042002"
     y="-1.0143778" />
  <path
     d="m 48.004442,1.5415996 c -0.33,0.1099999 -2.1,0.6799999 -3.96,1.2899999 -10,3.2699999 -17.08,7.0599998 -18.839999,10.0599995 -0.67,1.15 -0.8,2.08 -0.4,3.01 0.44,1.05 1.25,1.84 3.469999,3.41 1.04,0.73 2.81,2.26 3.96,3.41 5.5,5.49 8.17,12.22 7.87,19.829999 -0.34,8.56 -4.35,17.12 -12.03,25.689999 -2.679999,2.99 -5.429999,5.48 -10.709999,9.71 -4.4,3.52 -6.79,5.8 -8.4199999,8.01 -4.9899999,6.8 -3.6599999,12.86 3.9599999,17.920003 6.72,4.47 18.559999,8.19 32.509999,10.21 4.68,0.68 9.97,1.11 11.24,0.92 l 0.89,-0.13 1.399999,-2.52 c 7.08,-12.750004 10.66,-24.770003 11.09,-37.210003 0.19,-5.55 -0.51,-12.119999 -1.7,-15.959999 -0.22,-0.69 -0.38,-1.28 -0.35,-1.3 0.02,-0.02 2,-0.61 4.4,-1.33 12.61,-3.76 24.809999,-6.72 34.889999,-8.47 1.96,-0.34 3.64,-0.69 3.73,-0.78 0.54,-0.53 -1.03,-2.98 -3.58,-5.61 -9.43,-9.729999 -26.089999,-17.139999 -45.639999,-20.289999 -3.769999,-0.61 -4.229999,-0.83 -5.629999,-2.68 -2.22,-2.94 -4.31,-7.97 -7.16,-17.1699994 -0.09,-0.28 -0.18,-0.28 -0.99,-0.02 z m 1.3,3.4599998 c 1.1,2.99 1.77,5.3399996 1.77,6.1699996 v 0.65 l -0.93,-0.11 c -5.04,-0.58 -13.08,-1.8299997 -14.79,-2.2899997 -0.44,-0.12 -0.69,-0.29 -0.61,-0.42 0.13,-0.21 1.84,-1.0299999 6.92,-3.3399999 4.74,-2.1499999 6.54,-2.9499999 6.68,-2.9599999 0.06,0 0.49,1.03 0.96,2.2999999 z m -10.66,6.3099996 c 6.15,1.29 10.63,2.1 11.62,2.1 0.96,0 0.85,0.08 -3.67,2.84 -3.49,2.12 -3.89,2.32 -4.77,2.32 h -0.96 l -2.58,-2.62 c -3.13,-3.17 -5.25,-5.49 -5.25,-5.75 0,-0.11 0.06,-0.14 0.15,-0.09 0.08,0.04 2.55,0.59 5.46,1.2 z m -4.54,2.91 c 1.51,1.76 2.68,3.24 2.62,3.31 -0.13,0.13 -4.44,-0.94 -7.08,-1.75 -2.3,-0.71 -2.58,-0.95 -1.97,-1.73 0.4,-0.52 3.37,-3 3.59,-3.01 0.06,-0.01 1.33,1.41 2.84,3.18 z m 19.62,3.65 c 0.6,1.43 1.06,2.59 1.04,2.61 -0.03,0.02 -8.11,-1.23 -8.82,-1.37 -0.15,-0.03 1.22,-0.96 3.06,-2.08 1.84,-1.12 3.41,-1.97 3.49,-1.88 0.08,0.07 0.63,1.29 1.23,2.72 z m -17.62,2.71 c 0.16,0.16 2.09,6.36 2,6.44 -0.03,0.03 -0.95,-1.03 -2.04,-2.38 -1.1,-1.35 -2.75,-3.24 -3.7,-4.23 l -1.71,-1.79 2.67,0.92 c 1.46,0.51 2.72,0.98 2.78,1.04 z m 7.72,0.83 c 3.35,0.48 6.13,0.91 6.18,0.96 0.04,0.05 -1.98,1.62 -4.5,3.5 -2.52,1.87 -4.6,3.38 -4.63,3.35 -0.03,-0.03 -0.28,-0.81 -0.56,-1.74 -0.28,-0.93 -1,-2.86 -1.59,-4.31 -0.59,-1.45 -1.05,-2.63 -1.03,-2.63 0.02,0 2.78,0.4 6.13,0.87 z m 8.42,2.68 c 0.74,1.73 1.03,3.39 1.15,6.7 0.06,1.78 0.07,3.23 0.01,3.23 -0.06,0 -1.12,-0.37 -2.35,-0.81 -2.46,-0.89 -7.28,-2.48 -7.85,-2.59 -0.25,-0.05 0.91,-1.16 3.96,-3.79 2.38,-2.05 4.4,-3.72 4.49,-3.72 0.1,0.01 0.36,0.45 0.59,0.98 z m 8.639999,0.42 c 3.71,0.76 6.95,1.44 7.21,1.5 0.37,0.09 -0.52,0.65 -4.44,2.8 -2.7,1.48 -5.759999,3.16 -6.799999,3.75 -1.05,0.59 -1.91,1.04 -1.93,1.02 -0.02,-0.02 0.09,-0.57 0.24,-1.23 0.56,-2.4 0.21,-5.4 -0.91,-7.79 -0.33,-0.69 -0.6,-1.3 -0.6,-1.35 0,-0.17 0.67,-0.05 7.229999,1.3 z m 10.11,4.53 c -0.19,0.84 -0.6,2.27 -0.93,3.2 -0.71,2.04 -3.3,7.329999 -3.65,7.469999 -0.14,0.06 -1.36,-0.51 -2.69,-1.25 -1.33,-0.74 -3.26,-1.72 -4.27,-2.17 l -1.839999,-0.82 6.789999,-4.349999 c 5.63,-3.61 6.8,-4.29 6.86,-3.97 0.04,0.2 -0.08,1.05 -0.27,1.89 z m 4.96,-1.55 c 7.04,2.02 14.47,4.75 14.04,5.16 -0.09,0.08 -1.01,0.39 -2.04,0.68 -5.31,1.51 -12.7,4.059999 -16.16,5.579999 -1.07,0.47 -2,0.82 -2.05,0.77 -0.05,-0.05 0.37,-1.61 0.94,-3.45 1.11,-3.629999 2.4,-8.529999 2.4,-9.159999 0,-0.28 0.1,-0.37 0.35,-0.3 0.18,0.05 1.31,0.37 2.52,0.72 z m -30.269999,7.3 c 1.61,0.529999 3.48,1.239999 4.17,1.589999 1.25,0.63 1.26,0.64 0.9,1.03 -0.64,0.71 -7.63,7.22 -7.83,7.29 -0.1,0.04 -0.18,-0.95 -0.18,-2.38 -0.01,-2.48 -0.29,-6.95 -0.5,-7.949999 -0.16,-0.73 -0.03,-0.72 3.44,0.42 z m 44.699999,1.289999 c -1.54,2.54 -4.07,6.16 -5.9,8.44 -1.87,2.34 -5.82,6.74 -6.05,6.74 -0.09,0 -0.66,-0.71 -1.27,-1.59 -2.25,-3.21 -4.86,-5.99 -7.15,-7.61 -0.22,-0.15 -0.35,-0.32 -0.3,-0.37 0.05,-0.05 3.81,-1.43 8.33,-3.07 9.16,-3.32 13.189999,-4.669999 13.439999,-4.489999 0.02,0.03 -0.47,0.9 -1.099999,1.949999 z m 5.729999,-0.43 c 6.32,4.41 10.62,7.98 12.18,10.11 0.39,0.54 0.68,1 0.64,1.03 -0.04,0.03 -2.07,0.26 -4.53,0.5 -9.81,0.97 -16.799999,1.95 -20.499999,2.89 -0.99,0.25 -1.82,0.44 -1.83,0.43 -0.02,-0.02 0.63,-0.82 1.46,-1.81 4.28,-5.13 8.139999,-10.47 9.579999,-13.24 0.38,-0.729999 0.75,-1.329999 0.83,-1.329999 0.07,-0.01 1.04,0.63 2.17,1.419999 z m -35.429999,5.47 c 1.21,0.65 2.14,1.25 2.09,1.35 -0.09,0.18 -10.759999,6.02 -10.849999,5.94 -0.02,-0.02 0.53,-1.77 1.23,-3.91 0.7,-2.14 1.38,-4.46 1.51,-5.17 l 0.24,-1.3 1.8,0.96 c 1,0.53 2.769999,1.48 3.979999,2.13 z m -8.929999,0.34 c -1.03,3.57 -3.12,8.17 -4.07,8.97 -0.22,0.18 -0.65,-0.07 -2.06,-1.21 -0.99,-0.8 -2,-1.59 -2.27,-1.77 -0.26,-0.18 -0.45,-0.37 -0.41,-0.42 0.73,-0.73 9.23,-7.58 9.27,-7.47 0.03,0.07 -0.18,0.93 -0.46,1.9 z m 19.319999,6.21 c 1.61,1.07 5.17,4.26 4.98,4.46 -0.05,0.05 -3.67,1.23 -8.03,2.6 -4.36,1.38 -9.22,2.94 -10.799999,3.47 -1.59,0.53 -2.89,0.95 -2.9,0.93 -0.02,-0.02 1.09,-1.28 2.46,-2.81 3.569999,-3.98 7.239999,-8.25 8.539999,-9.93 l 1.12,-1.45 1.47,0.79 c 0.79,0.44 2.23,1.32 3.16,1.94 z m -8.26,-2.29 c -0.1,0.13 -1.06,1.35 -2.14,2.72 -1.08,1.36 -3.659999,4.68 -5.759999,7.37 l -3.81,4.9 -0.13,-0.83 c -0.24,-1.61 -1.1,-4.74 -1.59,-5.81 l -0.49,-1.07 2.42,-1.21 c 2.5,-1.25 7.709999,-4.08 10.149999,-5.5 1.54,-0.9 1.64,-0.94 1.35,-0.57 z m -20.209999,5.92 c 0.99,0.51 1.92,1.17 1.92,1.38 0,0.32 -6.45,5.3 -6.62,5.11 -0.04,-0.04 0.54,-1.19 1.29,-2.56 0.76,-1.37 1.52,-2.9 1.7,-3.42 0.18,-0.52 0.46,-0.94 0.6,-0.94 0.16,0 0.66,0.2 1.11,0.43 z m 5.5,6.13 c 0.45,0.87 0.91,3.32 0.67,3.54 -0.1,0.09 -2.76,1.35 -5.93,2.8 -3.17,1.45 -7.28,3.4 -9.17,4.339999 -1.88,0.94 -3.31,1.6 -3.17,1.48 0.14,-0.13 2.21,-1.86 4.61,-3.859999 4.64,-3.86 9.93,-8.47 10.9,-9.49 l 0.58,-0.61 0.57,0.55 c 0.32,0.3 0.74,0.86 0.94,1.25 z m -5.21,-0.05 c -0.46,0.41 -2.94,2.58 -5.5,4.8 -2.56,2.21 -5.64,4.89 -6.84,5.939999 -2.42,2.11 -2.42,2.11 0.67,-1.919999 2.39,-3.12 3.64,-4.28 7.07,-6.58 1.67,-1.12 4.99,-2.99 5.31,-2.99 0.07,-0.01 -0.25,0.34 -0.71,0.75 z m 24.029999,2.12 c 0.13,0.65 0.28,2.69 0.35,4.51 l 0.12,3.319999 -0.77,-0.359999 c -2.66,-1.23 -10.129999,-5.44 -9.849999,-5.55 1.63,-0.65 9.699999,-3.33 9.789999,-3.24 0.07,0.07 0.23,0.66 0.36,1.32 z m -6.34,5.94 c 3.11,1.829999 5.68,3.349999 5.72,3.379999 0.04,0.03 -0.37,0.37 -0.88,0.75 -0.99,0.73 -11.539999,6.18 -11.679999,6.04 -0.04,-0.04 0.1,-0.95 0.31,-2 0.43,-2.12 0.82,-8.439999 0.63,-10.449999 -0.06,-0.71 -0.04,-1.21 0.06,-1.15 0.11,0.06 2.73,1.6 5.839999,3.43 z m -8.599999,-1.34 c 0.24,1.97 -0.05,5.929999 -0.58,7.989999 -0.63,2.42 -0.99,3.43 -1.26,3.52 -0.37,0.13 -2.67,-1.97 -4.08,-3.72 -1.42,-1.76 -3.28,-5.079999 -3,-5.349999 0.17,-0.16 8.39,-3.55 8.64,-3.56 0.08,-0.01 0.21,0.5 0.28,1.12 z m -10.08,4.949999 c 0.87,1.8 2.86,4.4 5.04,6.6 1.4,1.41 1.75,1.87 1.53,2.01 -0.98,0.66 -5.35,2.71 -8.11,3.79 -3.35,1.32 -7.7,2.82 -7.8,2.7 -0.04,-0.04 0.96,-1.86 2.22,-4.04 2.73,-4.74 6.18,-11.44 6.18,-11.99 0,-0.7 0.29,-0.42 0.94,0.93 z m -5.16,0.11 c -0.05,0.14 -0.47,1.18 -0.92,2.33 -1.94,4.92 -5.71,11.6 -6.55,11.6 -0.65,0 -1.61,-3.89 -1.88,-7.63 l -0.14,-1.88 4.61,-2.33 c 2.54,-1.28 4.69,-2.33 4.8,-2.33 0.09,-0.01 0.13,0.1 0.08,0.24 z m 30.779999,4.55 c 0.02,2.83 -1.17,9.68 -1.8,10.37 -0.26,0.29 -3.19,-0.79 -5.82,-2.15 -2.359999,-1.22 -6.239999,-3.63 -6.239999,-3.87 0,-0.07 0.59,-0.37 1.33,-0.68 1.4,-0.59 7.909999,-4.07 10.669999,-5.7 l 1.59,-0.94 0.14,0.72 c 0.05,0.39 0.12,1.42 0.13,2.25 z m -43.429998,3.27 c 0.27,2.24 0.96,4.98 1.82,7.16 0.35,0.89 0.6,1.66 0.56,1.7 -0.34,0.31 -14.19,4.12 -16.02,4.41 l -0.87,0.14 0.13,-0.67 c 0.19,-0.95 1.53,-3.69 2.53,-5.17 1.24,-1.84 4.31,-4.92 6.34,-6.35 1.51,-1.07 5.15,-3.19 5.26,-3.07 0.01,0.01 0.13,0.84 0.25,1.85 z m 31.419999,4.72 c 4.279999,2.05 5.899999,2.76 7.949999,3.47 l 1.57,0.54 -0.99,0.5 c -5.609999,2.84 -15.529999,6.89 -18.099999,7.39 -0.57,0.11 -0.65,0.08 -0.54,-0.2 0.44,-1.15 6.36,-13.38 6.47,-13.38 0.07,-0.01 1.72,0.76 3.64,1.68 z m -7.53,-0.46 c -0.3,1.44 -1.93,6.11 -2.88,8.23 -0.82,1.84 -2.72,5.43 -3.06,5.77 -0.15,0.15 -3.53,-1.76 -5.13,-2.9 -1.8,-1.28 -5.74,-5.08 -5.63,-5.43 0.04,-0.13 2.44,-1.05 5.33,-2.05 6.09,-2.1 9.5,-3.37 10.49,-3.88 0.96,-0.5 1.04,-0.47 0.88,0.26 z m 17.029999,6.45 c -0.06,0.42 -0.4,2.26 -0.77,4.12 -1.16,5.83 -2.57,9.810003 -3.47,9.810003 -1.24,0 -9.729999,-2.060004 -12.469999,-3.030003 -1.86,-0.66 -3.47,-1.41 -4,-1.88 -0.33,-0.29 -0.16,-0.39 2.28,-1.39 7.85,-3.2 16.899999,-7.28 17.879999,-8.06 0.57,-0.45 0.66,-0.39 0.55,0.43 z m -39.719998,1.78 c -0.89,1.59 -2.72,4.22 -6.2,8.92 l -2.97,4.000003 -0.89,-0.64 c -1.25,-0.89 -3.23,-3.050003 -4.06,-4.420003 -0.89,-1.47 -1.5,-3.28 -1.57,-4.66 l -0.06,-1.07 1.47,-0.15 c 1.99,-0.2 7.55,-1.35 11.52,-2.39 1.8,-0.47 3.3,-0.83 3.34,-0.8 0.03,0.04 -0.23,0.58 -0.58,1.21 z m 8.629999,4.11 c 0.99,0.71 2.35,1.61 3.05,2.02 l 1.27,0.74 -0.57,0.24 c -0.32,0.13 -4.93,1.81 -10.26,3.740003 -9.099999,3.29 -9.699999,3.48 -9.949999,3.14 -0.15,-0.2 -0.25,-0.41 -0.23,-0.48 0.02,-0.07 2.48,-3.240004 5.47,-7.070003 l 5.429999,-6.95 2,1.67 c 1.12,0.93 2.8,2.24 3.79,2.95 z m 2.24,10.450003 c -1.99,2.97 -3.67,5.48 -3.73,5.56 -0.15,0.2 -3.33,-0.55 -5.709999,-1.34 -2.5,-0.84 -5.58,-2.4 -6.78,-3.43 l -0.87,-0.75 1.96,-0.53 c 8.029999,-2.19 18.649999,-5.000003 18.699999,-4.960003 0.04,0.01 -1.58,2.480003 -3.57,5.450003 z m 9.56,-4.500004 c 4.25,1.460004 8.13,2.290004 13.159999,2.830004 l 1.39,0.15 -3.749999,1.35 c -9.36,3.38 -16.94,5.75 -20.76,6.49 -1.07,0.21 -2.05,0.38 -2.16,0.38 -0.11,0 0.66,-1.05 1.71,-2.32 2.86,-3.49 5.96,-7.46 6.78,-8.680004 0.4,-0.589999 0.8,-1.089999 0.89,-1.089999 0.09,0.01 1.31,0.4 2.74,0.889999 z m 13.949999,7.880004 c -1.609999,4.16 -2.789999,6.69 -3.209999,6.85 -0.8,0.31 -11.85,-1.32 -15.22,-2.23 -2.24,-0.61 -3.67,-1.2 -3.25,-1.35 0.16,-0.06 1.76,-0.43 3.57,-0.84 5.85,-1.32 14.77,-4.03 18.459999,-5.61 0.48,-0.2 0.9,-0.35 0.93,-0.32 0.02,0.03 -0.55,1.6 -1.28,3.5 z"
     id="path1"
     style="stroke:#ffffff;stroke-opacity:1;stroke-width:1.18181822;stroke-dasharray:none;paint-order:stroke fill markers;stroke-linecap:round;stroke-linejoin:bevel" />
</svg>
