<?xml version="1.0" encoding="UTF-8" standalone="no"?>
<svg
   version="1.0"
   width="128pt"
   height="128pt"
   viewBox="0 0 1280 1280"
   preserveAspectRatio="xMidYMid"
   id="svg20"
   xmlns="http://www.w3.org/2000/svg"
   xmlns:svg="http://www.w3.org/2000/svg">
  <defs
     id="defs20" />
  <rect
     style="display:none;fill:#0000ff;fill-rule:evenodd;stroke-width:7.5"
     id="rect1"
     width="1525.3029"
     height="1493.2288"
     x="-121.16892"
     y="-114.04134" />
  <g
     transform="matrix(0.1,0,0,-0.1,0,1544)"
     fill="#000000"
     stroke="none"
     id="g20"
     style="fill:#102036;fill-opacity:1">
    <path
       d="m 6548.3292,14325.125 c -88.7354,-90.824 -321.5352,-328.843 -515.7091,-530.325 -194.1739,-200.437 -429.0616,-442.633 -520.9288,-537.632 -92.9112,-94.999 -245.3272,-252.635 -340.3263,-349.721 -93.9551,-98.131 -244.2832,-252.635 -334.0625,-344.503 -88.7354,-91.867 -234.8878,-242.195 -323.6231,-334.062 -88.7354,-91.867 -244.2833,-251.591 -344.5021,-354.942 -100.2187,-103.35 -323.6231,-333.018 -495.8741,-511.533 -351.8096,-364.337 -611.7521,-630.543 -852.9035,-876.914 l -164.9434,-168.075 V 9656.5996 8995.782 l 39.6699,29.2305 c 20.879,16.7031 165.9874,132.5813 320.4913,259.9426 1139.9885,930.1559 2230.9116,1708.9389 3246.6706,2317.5599 967.7375,580.433 1850.9154,1011.583 2745.5768,1342.514 l 219.2285,81.427 3.1319,730.762 2.0879,731.806 H 7971.227 6710.1408 Z m 637.8507,-1004.276 v -844.552 l -22.9668,-14.615 c -13.5713,-8.352 -83.5156,-46.978 -156.5918,-85.604 l -133.625,-70.988 v 930.155 930.156 h 156.5918 156.5918 z m 595.049,145.108 v -700.487 l -152.4161,-72.032 c -84.5596,-40.714 -154.5039,-73.077 -156.5918,-73.077 -2.0879,0 -4.1758,347.634 -4.1758,772.52 v 772.52 h 156.5918 156.5919 z m 551.2032,130.494 -3.1318,-568.951 -143.0206,-66.812 -144.0645,-66.813 v 635.763 635.763 h 146.1524 146.1524 z m 576.2579,115.878 V 13260.3 l -137.8008,-53.241 c -76.208,-29.231 -147.1963,-55.329 -156.5918,-59.505 -17.7471,-7.308 -18.791,20.879 -18.791,505.27 v 512.577 h 156.5918 156.5918 z m -2359.3169,-608.621 v -916.584 l -86.6474,-49.065 c -46.9776,-27.143 -104.3946,-60.549 -127.3614,-75.164 l -41.7578,-25.055 2.0879,867.519 2.0879,867.518 123.1855,123.186 c 67.8565,67.856 124.2296,123.186 125.2735,123.186 2.0879,0 3.1318,-412.359 3.1318,-915.541 z m -469.7754,-381.04 v -817.409 l -102.3067,-63.681 c -55.3291,-35.494 -103.3506,-62.637 -105.4385,-60.549 -2.0879,2.088 -4.1758,348.678 -4.1758,771.476 v 768.344 l 45.9336,49.065 c 92.9112,99.175 159.7237,169.12 162.8555,169.12 2.0879,0 3.1319,-367.469 3.1319,-816.366 z m -407.1388,-334.062 v -744.334 l -102.3067,-65.768 -101.2627,-64.725 -3.1318,700.488 -2.0879,700.487 101.2627,107.527 c 56.3731,59.504 103.3506,108.57 105.4385,108.57 1.0439,1.044 2.0879,-334.063 2.0879,-742.245 z m -396.6993,-336.151 v -672.301 l -85.6035,-58.461 -86.6475,-59.505 -3.1319,645.159 -2.0878,644.114 85.6035,86.648 c 46.9775,48.021 87.6914,86.647 88.7354,86.647 2.0878,0 3.1318,-302.744 3.1318,-672.301 z m -344.502,-297.524 v -614.884 l -88.7354,-63.681 -88.7354,-63.681 v 591.917 592.962 l 85.6036,85.603 c 48.0215,48.022 87.6914,86.648 88.7353,86.648 2.0879,0 3.1319,-276.646 3.1319,-614.884 z m -313.1837,-275.602 v -566.862 l -80.3838,-59.505 -81.4277,-60.549 -3.1319,545.983 -2.0879,544.94 80.3838,81.428 c 44.8897,44.889 82.4717,81.427 83.5157,81.427 2.0879,0 3.1318,-254.722 3.1318,-566.862 z m -317.3594,-796.53 c -4.1758,-11.484 -127.3614,-108.571 -136.7569,-108.571 -3.1318,0 -5.2197,227.58 -5.2197,506.314 v 506.313 l 70.9883,74.121 69.9443,74.12 3.1319,-519.885 c 1.0439,-287.085 0,-526.149 -2.0879,-532.412 z m -277.6895,268.294 v -489.611 l -72.0323,-58.461 c -40.7139,-32.362 -75.1641,-58.461 -78.2959,-58.461 -4.1758,0 -6.2637,212.965 -6.2637,471.864 v 472.907 l 75.1641,75.164 c 41.7578,41.758 77.252,76.208 78.2959,76.208 2.0879,0 3.1319,-220.272 3.1319,-489.61 z m -282.9093,-253.679 v -462.468 l -67.8564,-55.329 -66.8126,-55.329 v 446.808 446.809 l 65.7686,69.944 c 35.4942,38.626 65.7686,69.945 67.8565,69.945 1.0439,1.044 2.0879,-206.701 1.0439,-460.38 z m -249.503,-231.756 v -432.194 l -64.7246,-54.2854 -65.7686,-55.329 -3.1318,421.7544 -2.0879,420.71 64.7246,65.769 c 35.4942,36.538 66.8126,65.768 67.8565,65.768 2.0879,0 3.1318,-194.173 3.1318,-432.193 z m -281.8653,-260.986 v -411.3154 l -59.5049,-49.065 -60.5488,-49.066 -3.1318,399.8314 -2.0879,399.831 59.5049,60.549 c 33.4062,33.406 61.5928,60.549 62.6367,60.549 2.0879,0 3.1318,-184.778 3.1318,-411.314 z m -341.3701,-702.5764 -60.5489,-55.329 -3.1318,383.128 -2.0879,383.1284 59.5049,60.549 60.5488,61.593 3.1319,-389.3924 3.1318,-389.392 z"
       id="path1"
       style="fill:#102036;fill-opacity:1;stroke-width:110.99999669;stroke:#33dbf3;stroke-opacity:1;stroke-dasharray:none" />
    <path
       d="m 9399.3444,13783.317 c 0,-666.037 1.044,-704.663 18.7911,-699.444 773.5635,226.536 1442.7335,350.766 2210.0335,408.183 114.834,8.352 264.118,15.659 330.93,15.659 66.813,0 128.406,3.132 137.801,6.264 14.615,5.22 16.703,58.461 16.703,490.654 v 484.391 H 10756.474 9399.3444 Z m 574.1701,91.867 v -290.217 l -146.1524,-41.758 -146.1524,-42.801 v 333.018 331.975 h 146.1524 146.1524 z m 592.9615,63.681 -3.132,-226.536 -140.933,-29.231 c -77.252,-15.659 -144.064,-28.186 -148.24,-29.23 -5.22,0 -8.352,114.834 -8.352,255.766 v 255.767 h 151.372 151.373 z m 597.137,44.889 v -181.646 l -28.187,-6.264 c -16.703,-3.132 -74.12,-10.439 -128.405,-16.703 -54.285,-6.264 -111.702,-13.571 -127.361,-16.703 l -29.231,-6.264 v 204.614 204.613 h 156.592 156.592 z m 584.609,14.616 v -167.032 h -87.691 c -46.978,0 -115.878,-3.132 -151.372,-6.263 l -63.681,-7.308 v 174.339 173.295 h 151.372 151.372 z"
       id="path2"
       style="fill:#102036;fill-opacity:1;stroke-width:110.99999669;stroke:#33dbf3;stroke-opacity:1;stroke-dasharray:none" />
    <path
       d="M 11461.137,13214.367 C 9799.1756,13113.104 7859.5248,12370.859 5735.0956,11024.169 4253.7369,10085.662 2792.2132,8948.8045 807.67275,7191.8441 695.97058,7092.6693 584.26841,6993.4945 560.25766,6970.5277 l -44.88966,-39.67 42.80177,-180.6025 C 660.47643,6310.7544 833.77139,5644.7172 992.45111,5080.9866 l 68.90039,-246.3712 84.5596,-6.2636 c 46.9775,-3.1319 198.3496,-10.4395 338.2383,-16.7032 1267.3499,-56.373 3558.8103,-357.0293 5916.0393,-773.5636 834.1125,-147.1963 1902.0688,-355.9854 2562.8863,-499.006 157.636,-34.4502 290.217,-59.5049 293.349,-55.3291 15.659,16.7031 182.69,1885.3656 238.02,2658.9293 12.527,160.7676 33.406,496.9177 48.021,746.4207 80.384,1375.9202 143.021,2086.8471 246.371,2813.4337 147.197,1036.6384 387.304,1976.1894 693.18,2715.3024 81.428,195.218 248.459,540.764 331.975,685.872 32.362,56.373 59.505,107.527 59.505,112.746 0,11.484 -215.053,10.44 -412.359,-2.087 z"
       id="path4"
       style="fill:#102036;fill-opacity:1;stroke-width:110.99999669;stroke:#33dbf3;stroke-opacity:1;stroke-dasharray:none" />
    <path
       d="m 12054.098,12974.259 c -271.425,-479.171 -511.533,-1070.044 -697.355,-1711.027 -265.162,-917.628 -452.029,-2015.8589 -557.467,-3293.6484 -33.406,-397.7433 -35.494,-439.5011 -25.055,-428.0177 5.22,6.2637 75.164,151.3721 154.504,323.6231 714.059,1548.1716 1044.99,2176.627 1477.183,2798.819 127.361,182.69 120.054,170.163 151.372,298.568 120.054,502.138 48.022,1111.802 -204.613,1707.895 -49.066,115.878 -178.515,370.601 -206.701,408.183 l -18.791,25.054 z"
       id="path5"
       style="fill:#102036;fill-opacity:1;stroke-width:110.99999669;stroke:#33dbf3;stroke-opacity:1;stroke-dasharray:none" />
    <path
       d="m 275.26053,11510.647 v -233.843 l 39.66993,-14.616 c 20.87891,-8.351 289.17291,-104.394 594.00501,-212.965 l 556.42293,-198.349 2.0879,-1400.9754 3.1318,-1402.0191 344.5021,298.5684 c 189.998,164.9434 420.71,363.293 513.6212,441.5889 l 170.1631,141.9766 v 756.8612 756.8604 l 420.71,420.71 c 230.712,231.756 519.8849,524.061 642.0265,650.378 l 223.4044,228.624 H 2030.1329 275.26053 Z"
       id="path10"
       style="display:inline;fill:#102036;fill-opacity:1;stroke-width:110.99999669;stroke:#33dbf3;stroke-opacity:1;stroke-dasharray:none" />
  </g>
</svg>
