<?xml version="1.0" encoding="UTF-8" standalone="no"?>
<svg
   width="128"
   height="128"
   viewBox="0 0 32.820513 32.820513"
   version="1.1"
   id="svg3"
   sodipodi:docname="mongodb-icon.svg"
   inkscape:version="1.4.2 (f4327f4, 2025-05-13)"
   xmlns:inkscape="http://www.inkscape.org/namespaces/inkscape"
   xmlns:sodipodi="http://sodipodi.sourceforge.net/DTD/sodipodi-0.dtd"
   xmlns="http://www.w3.org/2000/svg"
   xmlns:svg="http://www.w3.org/2000/svg">
  <defs
     id="defs3" />
  <sodipodi:namedview
     id="namedview3"
     pagecolor="#ffffff"
     bordercolor="#000000"
     borderopacity="0.25"
     inkscape:showpageshadow="2"
     inkscape:pageopacity="0.0"
     inkscape:pagecheckerboard="0"
     inkscape:deskcolor="#d1d1d1"
     inkscape:zoom="4.4359902"
     inkscape:cx="11.722298"
     inkscape:cy="58.047919"
     inkscape:window-width="1920"
     inkscape:window-height="1017"
     inkscape:window-x="-8"
     inkscape:window-y="-8"
     inkscape:window-maximized="1"
     inkscape:current-layer="svg3" />
  <path
     d="m 16.709232,0.49161582 0.854,1.60399998 c 0.192,0.296 0.4,0.558 0.645,0.802 0.715,0.715 1.394,1.464 2.004,2.266 1.447,1.9 2.423,4.01 3.12,6.2920002 0.418,1.394 0.645,2.824 0.662,4.27 0.07,4.323 -1.412,8.035 -4.4,11.12 -0.488,0.488 -1.01,0.94 -1.57,1.342 -0.296,0 -0.436,-0.227 -0.558,-0.436 -0.227,-0.383 -0.366,-0.82 -0.436,-1.255 -0.105,-0.523 -0.174,-1.046 -0.14,-1.586 v -0.244 c -0.024,-0.052 -0.285,-24.05200019 -0.181,-24.17500018 z"
     fill="#599636"
     id="path1" />
  <path
     d="m 16.709232,0.43861582 c -0.035,-0.07 -0.07,-0.017 -0.105,0.017 0.017,0.34999999 -0.105,0.66199998 -0.296,0.95999998 -0.21,0.296 -0.488,0.523 -0.767,0.767 -1.55,1.342 -2.77,2.963 -3.747,4.776 -1.3,2.44 -1.9700004,5.0550002 -2.1600004,7.8080002 -0.087,0.993 0.314,4.497 0.6270004,5.508 0.854,2.684 2.388,4.933 4.375,6.885 0.488,0.47 1.01,0.906 1.55,1.325 0.157,0 0.174,-0.14 0.21,-0.244 a 4.78,4.78 0 0 0 0.157,-0.68 l 0.35,-2.614 z"
     fill="#6cac48"
     id="path2" />
  <path
     d="m 17.563232,29.249616 c 0.035,-0.4 0.227,-0.732 0.436,-1.063 -0.21,-0.087 -0.366,-0.26 -0.488,-0.453 -0.105,-0.174 -0.192,-0.383 -0.26,-0.575 -0.244,-0.732 -0.296,-1.5 -0.366,-2.248 v -0.453 c -0.087,0.07 -0.105,0.662 -0.105,0.75 a 17.37,17.37 0 0 1 -0.314,2.353 c -0.052,0.314 -0.087,0.627 -0.28,0.906 0,0.035 0,0.07 0.017,0.122 0.314,0.924 0.4,1.865 0.453,2.824 v 0.35 c 0,0.418 -0.017,0.33 0.33,0.47 0.14,0.052 0.296,0.07 0.436,0.174 0.105,0 0.122,-0.087 0.122,-0.157 l -0.052,-0.575 v -1.604 c -0.017,-0.28 0.035,-0.558 0.07,-0.82 z"
     fill="#c2bfbf"
     id="path3" />
</svg>
