<?xml version="1.0" encoding="UTF-8" standalone="no"?>
<svg
   width="128"
   height="128"
   viewBox="0 0 26.122449 26.122449"
   version="1.1"
   id="svg1"
   sodipodi:docname="mysql-icon.svg"
   inkscape:version="1.4.2 (f4327f4, 2025-05-13)"
   xmlns:inkscape="http://www.inkscape.org/namespaces/inkscape"
   xmlns:sodipodi="http://sodipodi.sourceforge.net/DTD/sodipodi-0.dtd"
   xmlns="http://www.w3.org/2000/svg"
   xmlns:svg="http://www.w3.org/2000/svg">
  <defs
     id="defs1" />
  <sodipodi:namedview
     id="namedview1"
     pagecolor="#ffffff"
     bordercolor="#000000"
     borderopacity="0.25"
     inkscape:showpageshadow="2"
     inkscape:pageopacity="0.0"
     inkscape:pagecheckerboard="0"
     inkscape:deskcolor="#d1d1d1"
     inkscape:zoom="4.4359902"
     inkscape:cx="22.092024"
     inkscape:cy="57.146204"
     inkscape:window-width="1920"
     inkscape:window-height="1017"
     inkscape:window-x="-8"
     inkscape:window-y="-8"
     inkscape:window-maximized="1"
     inkscape:current-layer="svg1" />
  <path
     d="m 23.856646,19.941023 c -1.392337,-0.03878 -2.472491,0.103933 -3.377822,0.484762 -0.260673,0.104709 -0.678998,0.104709 -0.713338,0.432796 0.139311,0.137673 0.156091,0.36299 0.278233,0.553793 0.208772,0.346314 0.574807,0.81285 0.905331,1.054843 l 1.114104,0.796174 c 0.678998,0.414957 1.445018,0.657338 2.106456,1.072682 0.383205,0.242382 0.76602,0.553793 1.149224,0.813626 0.195115,0.138448 0.313354,0.363766 0.557247,0.449859 v -0.05235 C 25.75433,25.39208 25.719209,25.16715 25.597848,24.993411 l -0.522907,-0.501438 c -0.504566,-0.674789 -1.131664,-1.263485 -1.810662,-1.747472 -0.557247,-0.380829 -1.775542,-0.899719 -2.001875,-1.539606 l -0.03434,-0.03878 c 0.382424,-0.03878 0.83509,-0.173351 1.201125,-0.277284 0.592367,-0.155124 1.131664,-0.120996 1.740421,-0.276508 l 0.836261,-0.242381 V 20.214817 C 24.692517,19.903405 24.466184,19.488061 24.13566,19.194101 23.247889,18.43283 22.272317,17.688622 21.262404,17.065799 20.722717,16.719873 20.026159,16.494555 19.451741,16.200983 19.242188,16.09705 18.894494,16.045083 18.772743,15.87212 18.458609,15.492066 18.284957,14.989852 18.058624,14.539605 L 16.631166,11.529036 C 16.317812,10.854247 16.12582,10.179457 15.743395,9.5566343 13.949903,6.6150954 11.999538,4.8331085 9.0049212,3.0852488 8.3610433,2.7218708 7.5950238,2.5655834 6.7806159,2.3755565 L 5.4749097,2.3057507 C 5.1958959,2.184754 4.9176626,1.8558911 4.6737695,1.6999915 3.6814172,1.0771686 1.1219051,-0.27241016 0.39022577,1.5060865 -0.08000018,2.6307355 1.0867845,3.737933 1.482867,4.3091772 c 0.296574,0.397893 0.6789984,0.8477526 0.8885514,1.2976122 0.1170687,0.29396 0.1560916,0.6057593 0.2782333,0.9171707 0.2782333,0.761271 0.5396867,1.6094115 0.9053313,2.3191038 0.1951145,0.363378 0.3999847,0.7445952 0.6438778,1.0730703 0.1393118,0.1939048 0.3832049,0.2768958 0.4351054,0.5883078 -0.2438932,0.346314 -0.260673,0.864816 -0.3999848,1.298 -0.627098,1.955338 -0.3832048,4.377599 0.5045661,5.81715 0.2790138,0.432408 0.9365496,1.384482 1.8286131,1.020716 0.7835799,-0.311412 0.6087573,-1.297612 0.8350901,-2.162816 0.052681,-0.207479 0.01756,-0.345927 0.1217514,-0.484763 v 0.03878 l 0.7141191,1.43606 c 0.5396867,0.847753 1.4801386,1.730409 2.2633278,2.319104 0.417545,0.311412 0.748459,0.848141 1.270586,1.038168 v -0.05235 h -0.03434 C 11.633113,20.617363 11.476241,20.547557 11.336929,20.426561 11.023576,20.115149 10.675491,19.73432 10.431598,19.388393 9.7006995,18.419644 9.0568217,17.346574 8.4820143,16.239376 8.2030006,15.703035 7.9591075,15.114727 7.7335551,14.578386 7.6281933,14.37052 7.6281933,14.058721 7.4545414,13.955563 c -0.2614535,0.380054 -0.6438779,0.709692 -0.8362608,1.176616 -0.3309142,0.743819 -0.3652543,1.66099 -0.4870058,2.612676 -0.070241,0.01745 -0.039023,0 -0.070241,0.03878 C 5.5045671,17.645575 5.3125744,17.073943 5.1038019,16.589956 4.5816755,15.361374 4.4942642,13.388973 4.9469298,11.969976 5.0686813,11.606598 5.5915881,10.464497 5.3828156,10.118571 5.2774538,9.7897081 4.93015,9.5996812 4.7381573,9.3398485 4.5118245,9.0109856 4.2687118,8.5960289 4.1118398,8.2326509 3.6942947,7.2631259 3.4855222,6.1908313 3.0324663,5.2216941 2.8229134,4.7718345 2.457659,4.3045235 2.1614752,3.8895668 1.830561,3.4222557 1.4656969,3.0933928 1.2042435,2.539988 1.1172224,2.346083 0.99547095,2.0381618 1.1347827,1.8302957 1.1691228,1.6918475 1.2393641,1.6363907 1.3778954,1.6053659 1.6042282,1.4114609 2.2488865,1.6573324 2.4752193,1.7604899 3.1190972,2.0203226 3.6587839,2.262316 4.1984706,2.6253062 4.4423637,2.7982694 4.7038172,3.1271323 5.017171,3.2140017 h 0.3660348 c 0.5572471,0.1209968 1.1835646,0.038781 1.7053008,0.193905 0.9228916,0.2947356 1.7583718,0.726756 2.5076115,1.1944548 2.2804979,1.4360605 4.1614019,3.4778801 5.4319879,5.9179805 0.208772,0.397893 0.295793,0.761271 0.487786,1.176616 0.366035,0.84814 0.8187,1.712956 1.183564,2.544033 0.366035,0.813238 0.714119,1.644315 1.236246,2.319104 0.261453,0.363378 1.305706,0.553405 1.775542,0.74382 0.348474,0.155124 0.887771,0.294735 1.201905,0.484762 0.591587,0.363378 1.183565,0.778723 1.740421,1.176616 0.278234,0.20709 1.149225,0.639886 1.201125,0.985037 z M 6.1012272,4.9048533 A 2.7667236,2.7495729 0 0 0 5.3878886,4.991335 v 0.038781 h 0.03434 c 0.1393118,0.2768963 0.3832049,0.467311 0.5572471,0.7096923 l 0.4007651,0.830689 0.03434,-0.038781 C 6.6584742,6.358753 6.7806159,6.0818567 6.7806159,5.6669 6.6760345,5.5459033 6.6588644,5.4245187 6.5718434,5.303522 6.467262,5.1305588 6.2409292,5.0436893 6.1012272,4.905629 Z"
     fill-rule="evenodd"
     fill="#00678c"
     id="path1"
     style="stroke-width:0.389018" />
</svg>
