<?xml version="1.0" encoding="UTF-8" standalone="no"?>
<svg
   width="128"
   height="128"
   viewBox="0 0 133.33333 133.33333"
   fill="none"
   version="1.1"
   id="svg8"
   xmlns="http://www.w3.org/2000/svg"
   xmlns:svg="http://www.w3.org/2000/svg">
  <g
     clip-path="url(#clip0_204_235)"
     id="g8"
     transform="translate(2.6124258,2.3799642)">
    <path
       d="M 125.189,54.7739 73.2261,2.81074 71.2959,0.885028 69.1612,0 H 58.8388 L 56.7041,0.885028 54.7739,2.81074 2.81074,54.7739 0.885028,56.7041 0,58.8388 v 10.3224 l 0.885028,2.1347 1.925712,1.9302 51.96316,51.9629 1.9302,1.926 2.1347,0.885 h 10.3224 l 2.1347,-0.885 1.9302,-1.926 51.9629,-51.9629 1.926,-1.9302 L 128,69.1612 V 58.8388 l -0.885,-2.1347 z"
       fill="#014847"
       id="path1" />
    <path
       d="M 59.3681,116.019 V 91.0556 l 0.6626,-0.6626 h 7.943 l 0.6627,0.6626 v 24.9634 l -0.6627,0.662 h -7.943 z"
       fill="#32e6e2"
       id="path2" />
    <path
       d="M 59.3681,36.9444 V 11.9812 l 0.6626,-0.6626 h 7.943 l 0.6627,0.6626 v 24.9632 l -0.6627,0.6626 h -7.943 z"
       fill="#32e6e2"
       id="path3" />
    <path
       d="m 38.3898,97.5221 h -1.0941 l -5.4569,-5.4569 v -1.0941 l 7.2714,-7.2759 5.7772,0.0045 0.7738,0.7694 v 5.7771 z"
       fill="#32e6e2"
       id="path4" />
    <path
       d="M 31.8388,37.3046 V 36.215 l 5.4569,-5.4614 h 1.0896 l 7.2759,7.2759 v 5.7727 l -0.7694,0.7783 h -5.7771 z"
       fill="#32e6e2"
       id="path5" />
    <path
       d="M 9.85984,59.3547 H 37.9361 l 0.6627,0.6627 v 7.9519 L 37.9361,68.632 H 9.85984 L 9.19718,67.9693 v -7.9519 z"
       fill="#32e6e2"
       id="path6" />
    <path
       d="M 78.8831,80.5376 H 70.9446 L 70.2819,79.8749 V 61.2938 c 0.0045,-3.3089 -1.2942,-5.8706 -5.2879,-5.9551 -2.0503,-0.0533 -4.4029,0 -6.9112,0.1023 l -0.3781,0.3869 0.0045,24.047 -0.6627,0.6627 H 49.108 L 48.4453,79.8749 V 48.1251 l 0.6627,-0.6627 h 17.8606 c 6.9424,0 12.5683,5.626 12.5683,12.5683 v 19.8442 l -0.6626,0.6627 z"
       fill="#ffffff"
       id="path7" />
    <path
       d="M 118.14,68.6453 H 90.0639 l -0.6627,-0.6627 v -7.9519 l 0.6627,-0.6626 H 118.14 l 0.663,0.6626 v 7.9519 z"
       fill="#32e6e2"
       id="path8" />
  </g>
  <defs
     id="defs8">
    <clipPath
       id="clip0_204_235">
      <rect
         width="128"
         height="128"
         fill="#ffffff"
         id="rect8"
         x="0"
         y="0" />
    </clipPath>
  </defs>
</svg>
