<?xml version="1.0" encoding="UTF-8" standalone="no"?>
<svg
   viewBox="0 0 120.75472 120.75472"
   version="1.1"
   id="svg4"
   width="128"
   height="128"
   xmlns="http://www.w3.org/2000/svg"
   xmlns:svg="http://www.w3.org/2000/svg">
  <defs
     id="defs4" />
  <path
     d="m 89.969359,88.225957 c 0.785,-6.532998 0.55,-7.491998 5.415999,-6.432998 l 1.234999,0.108 c 3.742003,0.17 8.637003,-0.602 11.513003,-1.938 6.191,-2.873 9.861,-7.668 3.758,-6.409 -13.924003,2.873 -14.881003,-1.842 -14.881003,-1.842 C 111.71336,49.89696 117.85936,22.203962 112.55336,15.424962 98.083357,-3.0640369 73.036359,5.6789626 72.617359,5.9049625 l -0.134,0.025 c -2.751,-0.5709999 -5.83,-0.9119998 -9.288999,-0.9679998 -6.301,-0.104 -11.081999,1.6519998 -14.708999,4.4019997 0,0 -44.6829978,-18.408999 -42.603998,23.1509986 0.442,8.841 12.671999,66.897996 27.259998,49.361998 5.332,-6.412 10.484,-11.834 10.484,-11.834 2.558,1.699 5.622,2.567 8.834,2.255 l 0.249,-0.212 c -0.078,0.796 -0.044,1.575 0.099,2.497 -3.757,4.199 -2.653,4.936 -10.166,6.482 -7.602,1.566 -3.136,4.355 -0.221,5.084 3.535,0.883999 11.712,2.135998 17.237999,-5.598 l -0.22,0.882 c 1.474,1.18 1.375,8.476998 1.583,13.689998 0.209,5.214003 0.558,10.079003 1.621,12.948003 1.063,2.868 2.316999,10.256 12.190999,8.14 8.252,-1.764 14.561,-4.309 15.136,-27.985003"
     id="path1"
     style="display:inline;stroke:none;stroke-width:6;stroke-dasharray:none;stroke-opacity:1" />
  <path
     fill="#336791"
     d="m 111.89136,73.553959 c -13.925003,2.873 -14.882003,-1.842 -14.882003,-1.842 C 111.71236,49.89596 117.85836,22.201962 112.55436,15.424962 98.084357,-3.0630369 73.035359,5.6799626 72.617359,5.9069625 l -0.135,0.024 c -2.751,-0.5709999 -5.83,-0.9109998 -9.290999,-0.9669998 -6.301,-0.103 -11.079999,1.6519998 -14.706999,4.4019997 0,0 -44.6839978,-18.407999 -42.605998,23.1509986 0.442,8.842 12.671999,66.898996 27.259998,49.362998 5.332,-6.412 10.483,-11.834 10.483,-11.834 2.559,1.699 5.622,2.567 8.833,2.255 l 0.25,-0.212 c -0.078,0.796 -0.042,1.575 0.1,2.497 -3.758,4.199 -2.654,4.936 -10.167,6.482 -7.602,1.566 -3.136,4.355 -0.22,5.084 3.534,0.883999 11.712,2.135998 17.236999,-5.598 l -0.221,0.882 c 1.473,1.18 2.507,7.671998 2.334,13.556998 -0.174,5.885003 -0.29,9.926003 0.871,13.082003 1.16,3.156 2.315999,10.256 12.191999,8.14 8.252,-1.768 12.528,-6.351 13.124,-13.995 0.422,-5.435003 1.377,-4.631003 1.438,-9.490003 l 0.767,-2.3 c 0.884,-7.366998 0.14,-9.742998 5.224999,-8.637998 l 1.234999,0.108 c 3.742003,0.17 8.639003,-0.602 11.514003,-1.938 6.19,-2.871 9.861,-7.667 3.758,-6.408 z"
     id="path3"
     style="display:inline" />
  <path
     id="path6"
     style="display:inline;fill:#ffffff;fill-opacity:1;stroke:#000000;stroke-width:0.7;stroke-dasharray:none;stroke-opacity:1"
     d="m 87.177937,1.8795877 c -7.429,-0.085 -13.427359,1.7134531 -15.068359,2.3144531 l -0.02148,0.00781 0.02148,-0.00586 c -0.12822,0.047068 -0.22921,0.086338 -0.302735,0.1171876 C 69.15865,3.6504906 66.26771,3.2457446 63.121298,3.1940408 57.365707,3.0999419 52.394144,4.4779459 48.287314,7.2975565 44.242841,5.7757287 25.048117,-0.74454266 13.207238,7.6452125 6.632238,12.302212 3.5967538,20.638556 4.1857538,32.422555 c 0.199,3.975 2.4650152,16.204874 6.0410152,27.921873 4.697999,15.393 9.791671,24.100765 15.138671,25.884765 a 6.7099996,6.7099996 0 0 0 2.115234,0.351563 c 1.935001,0 4.31011,-0.874516 6.787109,-3.853516 4.229807,-5.088708 8.177897,-9.34284 9.558594,-10.810547 2.160008,1.177297 4.543551,1.821652 6.978515,1.867188 a 8.2179995,8.2179995 0 0 0 0.02539,0.357422 c -0.493375,0.582784 -0.892691,1.09003 -1.234375,1.523437 -1.673,2.125 -2.022953,2.566922 -7.376953,3.669922 -1.482,0.305 -5.419563,1.117219 -5.476563,3.824219 -0.05,2.413 3.240406,3.88114 5.191407,4.369139 1.883,0.471 3.726515,0.710937 5.478515,0.710937 4.34747,0 8.140126,-1.466162 11.134765,-4.275389 -0.09263,10.843002 0.356369,22.000582 1.664062,25.271482 1.067,2.666 3.67425,9.18555 11.906249,9.18555 1.208,-10e-4 2.537,-0.14012 4,-0.45312 8.609,-1.846 12.348922,-5.65011 13.794922,-14.03711 0.786541,-4.559683 2.140537,-15.492572 2.761719,-21.232427 1.333974,0.446023 3.090377,0.646485 4.996097,0.646485 3.832003,0 8.262103,-0.815469 11.037113,-2.105469 3.09699,-1.438 8.69035,-4.955703 7.69335,-7.970703 -0.507,-1.533 -2.16468,-2.019219 -4.92968,-1.449219 -8.69776,1.795377 -11.694453,0.464664 -12.636723,-0.291016 6.574823,-9.990603 11.982863,-22.09029 14.896483,-33.373044 2.945,-11.402 2.93747,-20.107718 -0.0195,-23.886718 C 107.46117,6.2812595 98.285967,1.9975877 87.177966,1.8795877 Z m 0.417969,3.1992187 c 10.039001,0.2169999 17.979514,3.968297 23.603514,11.1542966 4.32389,5.525832 -0.42171,30.662845 -14.203123,52.267575 -0.16941,-0.218165 -0.34704,-0.440295 -0.5293,-0.667969 -0.0744,-0.09302 -0.14974,-0.186746 -0.226559,-0.283203 3.566839,-5.827858 2.871929,-11.609368 2.255859,-16.732421 -0.253,-2.106 -0.49264,-4.096702 -0.43164,-5.970702 0.063,-1.985 0.32512,-3.683172 0.57812,-5.326172 0.3116,-2.022543 0.63334,-4.108868 0.54297,-6.574219 0.0614,-0.246595 0.0858,-0.540608 0.0527,-0.890625 -0.221,-2.348 -2.90771,-9.382765 -8.386712,-15.759764 C 87.793463,12.735291 83.30387,8.7410794 77.144734,6.1081031 79.750571,5.5436411 83.434195,4.989223 87.595906,5.0788064 Z M 63.06661,6.3854465 c 21.592999,0.354 30.694468,18.5647175 32.605467,24.3867175 -6.495999,-0.695 -10.90514,0.551797 -13.11914,3.716797 -4.784,6.839 2.663188,20.193326 6.242188,26.611326 0.66,1.185 1.230109,2.208438 1.412109,2.648438 1.162,2.818 2.668531,4.702125 3.769531,6.078125 0.387,0.483 0.762391,0.951609 1.02539,1.349609 -1.877057,0.529911 -5.547763,1.68751 -5.214843,8.294922 -0.258265,3.269212 -2.090734,18.520636 -3.021484,23.916019 -1.225,7.101 -3.97536,9.88398 -11.31836,11.45898 -7.735,1.657 -10.469437,-2.28592 -12.273436,-6.79492 -1.156,-2.892 -1.725219,-15.889472 -1.324219,-30.23047 a 1.594,1.594 0 0 0 -0.07422,-0.52539 c -0.04481,-0.327422 -0.115314,-0.65832 -0.210937,-0.992188 -0.586,-2.047 -2.01075,-3.758797 -3.71875,-4.466797 -0.536,-0.223 -1.346938,-0.558594 -2.335938,-0.558594 -0.435237,0 -0.863497,0.06487 -1.283202,0.195313 0.318064,-1.4041 0.91423,-2.9973 1.560546,-4.730469 l 0.255859,-0.689453 c 0.291,-0.783 0.656016,-1.591266 1.041016,-2.447265 2.069,-4.596 4.901219,-10.889187 1.824219,-25.117186 -1.14,-5.27 -4.947608,-7.843094 -10.724608,-7.246094 -3.487001,0.361 -6.679485,1.769172 -8.271485,2.576172 -0.427681,0.216803 -0.814039,0.425095 -1.164062,0.625 0.412853,-5.331934 2.056306,-15.623179 8.498047,-22.128905 4.002,-4.0409996 9.326311,-6.0376875 15.820312,-5.9296875 z m -35.917967,0.294922 c 7.229869,-0.248942 14.554426,1.7776839 18.234374,2.9902349 -0.135973,0.130934 -0.270753,0.2635689 -0.404297,0.3984366 -9.72749,9.824687 -9.580163,26.52756 -9.552734,27.822265 -1.29e-4,0.0124 -0.0019,0.02948 -0.002,0.04102 4.15e-4,0.01875 -3.06e-4,0.04161 0,0.05273 a 1.5955529,1.5955529 0 0 0 0.0039,0.03516 c 0.0017,0.394798 0.02971,0.927757 0.07422,1.681641 0.17,2.863 0.485625,8.191514 -0.359375,14.228514 -0.778,5.558999 0.935219,10.99878 4.699219,14.925781 0.421734,0.440008 0.862966,0.853809 1.320312,1.238281 a 245.27198,245.27198 0 0 0 -9.349608,10.591797 c -2.819,3.39 -4.7895,2.733578 -5.4375,2.517578 -4.129,-1.377 -8.903657,-10.049016 -13.097655,-23.791016 C 9.6554978,47.548793 7.540202,35.613356 7.373202,32.264356 6.842202,21.645357 9.4230768,14.238638 15.045076,10.252638 18.50733,7.7978025 22.810669,6.8297385 27.148591,6.6803725 Z M 92.162312,33.762399 c 1.157608,-0.0057 2.440906,0.08293 3.847655,0.263671 -0.01986,1.763107 -0.265717,3.349299 -0.521484,5.009766 -0.267,1.737 -0.543281,3.531984 -0.613281,5.708984 -0.068,2.116 0.196125,4.321124 0.453125,6.453124 0.529728,4.411466 1.07584,8.954588 -1.128906,13.445312 -0.367201,-0.630774 -0.722534,-1.327554 -1.044921,-2.109375 -0.254,-0.614 -0.806219,-1.610328 -1.574219,-2.986328 -3.008,-5.394999 -10.053063,-18.027514 -6.414063,-23.228514 1.179016,-1.684506 3.523272,-2.539574 6.996094,-2.55664 z m -42.390623,0.589843 c 0.634334,-6.6e-5 1.247672,0.0578 1.826172,0.185547 2.253,0.499 3.624452,2.011953 4.189452,4.626953 2.855,13.200999 0.375766,18.706858 -1.615233,23.130858 -0.408,0.906 -0.792094,1.762484 -1.121094,2.646484 l -0.255859,0.685547 c -0.66,1.769 -1.273579,3.411797 -1.642578,4.966797 h -0.06641 c -3.296,0 -6.504406,-1.403313 -8.941406,-3.945313 -3.084,-3.216 -4.482797,-7.69039 -3.841797,-12.275389 0.888,-6.352 0.558813,-11.887327 0.382813,-14.861327 l -0.06055,-1.138672 c 1.267875,-1.20575 6.706146,-4.02102 11.146484,-4.021485 z m 40.740232,1.208985 c -0.301,0 -0.613687,0.02241 -0.929687,0.06641 -1.434,0.199 -2.827891,0.8415 -2.712891,1.6875 0.099,0.705 1.303219,1.791016 2.699219,1.791016 l 0.371094,-0.02539 c 0.947,-0.131 1.641656,-0.731125 1.972656,-1.078125 0.501,-0.528 0.791281,-1.113188 0.738281,-1.492188 -0.082,-0.586 -0.900672,-0.949218 -2.138672,-0.949218 z m -40.384763,0.884765 c -1.401,0 -2.299391,0.441735 -2.400391,1.177735 -0.071,0.502 0.28686,1.063515 0.50586,1.353515 0.623,0.826 1.533593,1.392578 2.433593,1.517578 l 0.40625,0.02734 c 1.555,0 2.846985,-1.206531 2.958985,-2.019531 0.041,-0.293 -0.02555,-0.859188 -0.935547,-1.367188 -0.525,-0.293 -1.235953,-0.515093 -2.001953,-0.621093 -0.328,-0.046 -0.653797,-0.06836 -0.966797,-0.06836 z m 46.623039,37.519529 a 6.1619996,6.1619996 0 0 0 0.54102,0.402344 c 2.786003,1.839 7.773173,2.032172 14.826173,0.576172 l 0.5,-0.0918 c -0.902,0.925 -2.64295,2.280188 -5.25195,3.492188 -2.04,0.947 -5.44006,1.647156 -8.664063,1.785156 -3.626003,0.156 -5.376565,-0.451688 -5.726565,-0.804687 -0.218,-4.203001 1.416094,-4.662469 2.996093,-5.105469 0.199003,-0.056 0.477292,-0.134907 0.779292,-0.253907 z m -41.238275,0.503907 c 0.328,0 0.685235,0.136453 1.115235,0.314453 0.793,0.329 1.563047,1.313484 1.873047,2.396484 0.148,0.517 0.312765,1.499438 -0.240235,2.273438 -2.651,3.712 -6.299702,5.59375 -10.845702,5.59375 -1.492,0 -3.074078,-0.207235 -4.705078,-0.615235 -1.073,-0.268 -2.038531,-0.764718 -2.519531,-1.136718 0.385,-0.209 1.160828,-0.523985 2.673828,-0.833985 6.2,-1.277 7.156234,-2.176265 9.240234,-4.822265 a 41.145998,41.145998 0 0 1 1.792969,-2.16211 c 0.902,-1.009 1.439233,-1.007812 1.615233,-1.007812 z" />
  <path
     id="path4"
     style="display:inline;fill:#ffffff;fill-opacity:1;stroke:none;stroke-opacity:1"
     d="m 87.177937,1.8795877 c -7.429,-0.085 -13.427359,1.7134531 -15.068359,2.3144531 l -0.02148,0.00781 0.02148,-0.00586 c -0.12822,0.047068 -0.22921,0.086338 -0.302735,0.1171876 C 69.15865,3.6504906 66.26771,3.2457446 63.121298,3.1940408 57.365707,3.0999419 52.394144,4.4779459 48.287314,7.2975565 44.242841,5.7757287 25.048117,-0.74454266 13.207238,7.6452125 6.632238,12.302212 3.5967538,20.638556 4.1857538,32.422555 c 0.199,3.975 2.4650152,16.204874 6.0410152,27.921873 4.697999,15.393 9.791671,24.100765 15.138671,25.884765 a 6.7099996,6.7099996 0 0 0 2.115234,0.351563 c 1.935001,0 4.31011,-0.874516 6.787109,-3.853516 4.229807,-5.088708 8.177897,-9.34284 9.558594,-10.810547 2.160008,1.177297 4.543551,1.821652 6.978515,1.867188 a 8.2179995,8.2179995 0 0 0 0.02539,0.357422 c -0.493375,0.582784 -0.892691,1.09003 -1.234375,1.523437 -1.673,2.125 -2.022953,2.566922 -7.376953,3.669922 -1.482,0.305 -5.419563,1.117219 -5.476563,3.824219 -0.05,2.413 3.240406,3.88114 5.191407,4.369139 1.883,0.471 3.726515,0.710937 5.478515,0.710937 4.34747,0 8.140126,-1.466162 11.134765,-4.275389 -0.09263,10.843002 0.356369,22.000582 1.664062,25.271482 1.067,2.666 3.67425,9.18555 11.906249,9.18555 1.208,-10e-4 2.537,-0.14012 4,-0.45312 8.609,-1.846 12.348922,-5.65011 13.794922,-14.03711 0.786541,-4.559683 2.140537,-15.492572 2.761719,-21.232427 1.333974,0.446023 3.090377,0.646485 4.996097,0.646485 3.832003,0 8.262103,-0.815469 11.037113,-2.105469 3.09699,-1.438 8.69035,-4.955703 7.69335,-7.970703 -0.507,-1.533 -2.16468,-2.019219 -4.92968,-1.449219 -8.69776,1.795377 -11.694453,0.464664 -12.636723,-0.291016 6.574823,-9.990603 11.982863,-22.09029 14.896483,-33.373044 2.945,-11.402 2.93747,-20.107718 -0.0195,-23.886718 C 107.46117,6.2812595 98.285967,1.9975877 87.177966,1.8795877 Z m 0.417969,3.1992187 c 10.039001,0.2169999 17.979514,3.968297 23.603514,11.1542966 4.32389,5.525832 -0.42171,30.662845 -14.203123,52.267575 -0.16941,-0.218165 -0.34704,-0.440295 -0.5293,-0.667969 -0.0744,-0.09302 -0.14974,-0.186746 -0.226559,-0.283203 3.566839,-5.827858 2.871929,-11.609368 2.255859,-16.732421 -0.253,-2.106 -0.49264,-4.096702 -0.43164,-5.970702 0.063,-1.985 0.32512,-3.683172 0.57812,-5.326172 0.3116,-2.022543 0.63334,-4.108868 0.54297,-6.574219 0.0614,-0.246595 0.0858,-0.540608 0.0527,-0.890625 -0.221,-2.348 -2.90771,-9.382765 -8.386712,-15.759764 C 87.793463,12.735291 83.30387,8.7410794 77.144734,6.1081031 79.750571,5.5436411 83.434195,4.989223 87.595906,5.0788064 Z M 63.06661,6.3854465 c 21.592999,0.354 30.694468,18.5647175 32.605467,24.3867175 -6.495999,-0.695 -10.90514,0.551797 -13.11914,3.716797 -4.784,6.839 2.663188,20.193326 6.242188,26.611326 0.66,1.185 1.230109,2.208438 1.412109,2.648438 1.162,2.818 2.668531,4.702125 3.769531,6.078125 0.387,0.483 0.762391,0.951609 1.02539,1.349609 -1.877057,0.529911 -5.547763,1.68751 -5.214843,8.294922 -0.258265,3.269212 -2.090734,18.520636 -3.021484,23.916019 -1.225,7.101 -3.97536,9.88398 -11.31836,11.45898 -7.735,1.657 -10.469437,-2.28592 -12.273436,-6.79492 -1.156,-2.892 -1.725219,-15.889472 -1.324219,-30.23047 a 1.594,1.594 0 0 0 -0.07422,-0.52539 c -0.04481,-0.327422 -0.115314,-0.65832 -0.210937,-0.992188 -0.586,-2.047 -2.01075,-3.758797 -3.71875,-4.466797 -0.536,-0.223 -1.346938,-0.558594 -2.335938,-0.558594 -0.435237,0 -0.863497,0.06487 -1.283202,0.195313 0.318064,-1.4041 0.91423,-2.9973 1.560546,-4.730469 l 0.255859,-0.689453 c 0.291,-0.783 0.656016,-1.591266 1.041016,-2.447265 2.069,-4.596 4.901219,-10.889187 1.824219,-25.117186 -1.14,-5.27 -4.947608,-7.843094 -10.724608,-7.246094 -3.487001,0.361 -6.679485,1.769172 -8.271485,2.576172 -0.427681,0.216803 -0.814039,0.425095 -1.164062,0.625 0.412853,-5.331934 2.056306,-15.623179 8.498047,-22.128905 4.002,-4.0409996 9.326311,-6.0376875 15.820312,-5.9296875 z m -35.917967,0.294922 c 7.229869,-0.248942 14.554426,1.7776839 18.234374,2.9902349 -0.135973,0.130934 -0.270753,0.2635689 -0.404297,0.3984366 -9.72749,9.824687 -9.580163,26.52756 -9.552734,27.822265 -1.29e-4,0.0124 -0.0019,0.02948 -0.002,0.04102 4.15e-4,0.01875 -3.06e-4,0.04161 0,0.05273 a 1.5955529,1.5955529 0 0 0 0.0039,0.03516 c 0.0017,0.394798 0.02971,0.927757 0.07422,1.681641 0.17,2.863 0.485625,8.191514 -0.359375,14.228514 -0.778,5.558999 0.935219,10.99878 4.699219,14.925781 0.421734,0.440008 0.862966,0.853809 1.320312,1.238281 a 245.27198,245.27198 0 0 0 -9.349608,10.591797 c -2.819,3.39 -4.7895,2.733578 -5.4375,2.517578 -4.129,-1.377 -8.903657,-10.049016 -13.097655,-23.791016 C 9.6554978,47.548793 7.540202,35.613356 7.373202,32.264356 6.842202,21.645357 9.4230768,14.238638 15.045076,10.252638 18.50733,7.7978025 22.810669,6.8297385 27.148591,6.6803725 Z M 92.162312,33.762399 c 1.157608,-0.0057 2.440906,0.08293 3.847655,0.263671 -0.01986,1.763107 -0.265717,3.349299 -0.521484,5.009766 -0.267,1.737 -0.543281,3.531984 -0.613281,5.708984 -0.068,2.116 0.196125,4.321124 0.453125,6.453124 0.529728,4.411466 1.07584,8.954588 -1.128906,13.445312 -0.367201,-0.630774 -0.722534,-1.327554 -1.044921,-2.109375 -0.254,-0.614 -0.806219,-1.610328 -1.574219,-2.986328 -3.008,-5.394999 -10.053063,-18.027514 -6.414063,-23.228514 1.179016,-1.684506 3.523272,-2.539574 6.996094,-2.55664 z m -42.390623,0.589843 c 0.634334,-6.6e-5 1.247672,0.0578 1.826172,0.185547 2.253,0.499 3.624452,2.011953 4.189452,4.626953 2.855,13.200999 0.375766,18.706858 -1.615233,23.130858 -0.408,0.906 -0.792094,1.762484 -1.121094,2.646484 l -0.255859,0.685547 c -0.66,1.769 -1.273579,3.411797 -1.642578,4.966797 h -0.06641 c -3.296,0 -6.504406,-1.403313 -8.941406,-3.945313 -3.084,-3.216 -4.482797,-7.69039 -3.841797,-12.275389 0.888,-6.352 0.558813,-11.887327 0.382813,-14.861327 l -0.06055,-1.138672 c 1.267875,-1.20575 6.706146,-4.02102 11.146484,-4.021485 z m 40.740232,1.208985 c -0.301,0 -0.613687,0.02241 -0.929687,0.06641 -1.434,0.199 -2.827891,0.8415 -2.712891,1.6875 0.099,0.705 1.303219,1.791016 2.699219,1.791016 l 0.371094,-0.02539 c 0.947,-0.131 1.641656,-0.731125 1.972656,-1.078125 0.501,-0.528 0.791281,-1.113188 0.738281,-1.492188 -0.082,-0.586 -0.900672,-0.949218 -2.138672,-0.949218 z m -40.384763,0.884765 c -1.401,0 -2.299391,0.441735 -2.400391,1.177735 -0.071,0.502 0.28686,1.063515 0.50586,1.353515 0.623,0.826 1.533593,1.392578 2.433593,1.517578 l 0.40625,0.02734 c 1.555,0 2.846985,-1.206531 2.958985,-2.019531 0.041,-0.293 -0.02555,-0.859188 -0.935547,-1.367188 -0.525,-0.293 -1.235953,-0.515093 -2.001953,-0.621093 -0.328,-0.046 -0.653797,-0.06836 -0.966797,-0.06836 z m 46.623039,37.519529 a 6.1619996,6.1619996 0 0 0 0.54102,0.402344 c 2.786003,1.839 7.773173,2.032172 14.826173,0.576172 l 0.5,-0.0918 c -0.902,0.925 -2.64295,2.280188 -5.25195,3.492188 -2.04,0.947 -5.44006,1.647156 -8.664063,1.785156 -3.626003,0.156 -5.376565,-0.451688 -5.726565,-0.804687 -0.218,-4.203001 1.416094,-4.662469 2.996093,-5.105469 0.199003,-0.056 0.477292,-0.134907 0.779292,-0.253907 z m -41.238275,0.503907 c 0.328,0 0.685235,0.136453 1.115235,0.314453 0.793,0.329 1.563047,1.313484 1.873047,2.396484 0.148,0.517 0.312765,1.499438 -0.240235,2.273438 -2.651,3.712 -6.299702,5.59375 -10.845702,5.59375 -1.492,0 -3.074078,-0.207235 -4.705078,-0.615235 -1.073,-0.268 -2.038531,-0.764718 -2.519531,-1.136718 0.385,-0.209 1.160828,-0.523985 2.673828,-0.833985 6.2,-1.277 7.156234,-2.176265 9.240234,-4.822265 a 41.145998,41.145998 0 0 1 1.792969,-2.16211 c 0.902,-1.009 1.439233,-1.007812 1.615233,-1.007812 z" />
</svg>
