<?xml version="1.0" encoding="UTF-8" standalone="no"?>
<!-- Created with Inkscape (http://www.inkscape.org/) -->

<svg
   version="1.1"
   id="svg1"
   width="128"
   height="128"
   viewBox="0 0 128 128"
   xmlns="http://www.w3.org/2000/svg"
   xmlns:svg="http://www.w3.org/2000/svg">
  <defs
     id="defs1" />
  <g
     id="g1"
     style="display:inline">
    <path
       id="path4"
       style="display:inline;fill:#808000;stroke-width:0.261895"
       d="m 87.119558,68.958155 c -7.162532,0 -6.867601,-0.06702 -6.867601,1.559099 0,1.701625 -1.363967,6.015217 -2.860906,9.047685 -2.534438,5.134212 -5.971908,8.905085 -10.886575,11.942855 -3.156034,1.950742 -7.603509,3.514656 -11.459983,4.029705 l -1.244004,0.166255 v 6.569886 6.5694 l 1.955524,-0.16523 c 2.826521,-0.23891 5.610023,-0.85312 9.071717,-2.00206 15.741312,-5.22453 26.970456,-19.308846 28.662237,-35.949796 l 0.179542,-1.767799 z" />
    <path
       id="path3"
       style="display:inline;fill:#71c837;stroke-width:0.135442"
       d="m 95.061341,14.507891 c -2.224468,-0.08365 -4.491049,0.166167 -6.729494,0.774434 -0.487932,0.125851 -0.93285,0.334591 -1.381091,0.556528 -8.314451,4.118218 -13.160785,12.819679 -12.24311,21.983383 0.147408,1.471989 0.41084,2.731707 0.954485,4.569877 0.54735,1.850685 0.56137,1.82691 -1.626618,2.728421 l -1.758077,0.724305 4.958629,2.349899 4.959138,2.349902 1.143236,-2.327908 c 0.239899,-0.48846 0.543452,-1.119187 0.864461,-1.794393 l -0.366246,0.140155 -6.178591,-0.834792 2.004117,-5.176534 0.834793,0.250643 c 0.100195,-0.150308 0.756779,-0.435978 1.626615,-0.762157 -0.0248,-0.07816 -0.05135,-0.161513 -0.07928,-0.25013 -1.582767,-5.017776 -0.24707,-10.646763 3.463469,-14.594549 0.970795,-1.032866 2.431251,-2.186878 3.441472,-2.719213 0.434811,-0.21187 0.798163,-0.441694 1.251168,-0.61433 0.404473,-0.154144 0.676727,-0.197855 1.038373,-0.28645 1.109101,-0.271699 2.967483,-0.376597 4.379083,-0.247573 5.395347,0.493157 10.128967,3.819731 12.272757,8.624657 0.6007,1.346358 0.61134,1.392808 0.4261,1.812809 -0.17677,0.400784 -0.30995,0.485216 -1.89671,1.200525 l -1.70691,0.769829 2.69926,1.198481 c 1.48452,0.659372 3.7792,1.64198 5.09928,2.183146 l 2.40005,0.983644 2.15193,-5.047633 2.15247,-5.047627 -1.79594,0.624048 c -2.23536,0.776636 -2.20919,0.784844 -3.02715,-0.963184 -0.8124,-1.736201 -1.4511,-2.853385 -2.31715,-4.052734 -4.04364,-5.599799 -10.34113,-8.854511 -17.014515,-9.105479 z" />
    <path
       id="path1"
       style="display:inline;fill:#0000ff;stroke-width:0.261895"
       d="m 26.864105,95.671524 c -15.549216,0 -22.470963,0.08695 -23.0519381,0.289518 -0.4566635,0.159189 -0.9459674,0.504834 -1.0869691,0.768287 -0.1425584,0.266386 -0.2562697,2.789578 -0.2562697,5.683971 0,5.42116 0.05125,5.69602 1.1785308,6.31261 0.3673285,0.20091 7.2321591,0.28853 22.9813491,0.29411 l 22.457558,0.008 v -6.67834 -6.678351 z" />
    <path
       id="path2"
       style="display:inline;fill:#d45500;stroke-width:0.261895"
       d="m 48.955418,15.826577 -7.594976,7.409294 -7.594975,7.40981 3.452215,3.638918 c 1.898699,2.001429 5.274081,5.451395 7.500858,7.666589 l 4.048641,4.027667 0.193863,-3.615388 c 0.18,-3.360775 0.238938,-3.660462 0.837861,-4.259386 0.627637,-0.627636 0.719538,-0.64072 3.566794,-0.499239 10.161362,0.504922 19.468387,6.712439 24.130213,16.094312 1.219681,2.454591 2.329647,5.878662 2.615378,8.068127 0.09318,0.713927 0.224151,1.563394 0.291052,1.887492 l 0.12174,0.589264 h 6.567855 6.568365 L 93.487918,62.607188 C 91.613205,44.764037 79.096514,30.126536 61.866059,25.627716 59.098286,24.905061 56.637194,24.53452 52.939098,24.283967 49.215803,24.031706 49.249361,24.07326 49.086366,19.500278 Z" />
    <path
       id="path6"
       style="display:inline;fill:#00ffff;stroke-width:0.261895"
       d="m 112.07226,87.013621 -0.13091,3.653753 c -0.12241,3.415353 -0.1723,3.697962 -0.76575,4.328952 l -0.6348,0.675198 H 99.603593 88.666381 l -3.879844,3.863984 c -4.011584,3.995292 -6.390005,5.857002 -10.416492,8.154062 l -2.345811,1.33865 H 91.282267 110.5408 l 0.6348,0.67518 c 0.59696,0.6347 0.63986,0.8874 0.72124,4.2328 l 0.0865,3.55809 7.56941,-7.56582 7.5694,-7.56582 -0.9765,-1.05424 c -0.53717,-0.57964 -3.92339,-4.032932 -7.52487,-7.674256 z" />
    <path
       id="path7"
       style="display:inline;fill:#ff00ff;stroke-width:0.261895"
       d="m 28.771033,30.745937 -2.283915,1.688512 C 17.523475,39.062501 11.550172,48.726591 9.6777088,59.629658 9.4580171,60.908899 9.2782155,62.470453 9.2782155,63.099777 v 1.14426 h 6.5136355 6.513633 l 0.174426,-1.543753 c 0.213922,-1.890819 1.161611,-5.358615 2.066009,-7.560194 1.978647,-4.816635 6.253735,-9.931996 10.70959,-12.814475 l 1.843503,-1.192342 -3.380605,-3.438405 c -4.251798,-4.324091 -4.294226,-4.376751 -4.651206,-5.782676 z" />
    <path
       id="path9"
       style="display:inline;fill:#00ff66;stroke-width:0.261895"
       d="m 9.2782155,68.958155 v 1.132504 c 0,1.601068 0.7304175,5.675154 1.4869755,8.293699 0.9438,3.266624 2.472262,6.756056 4.312072,9.844615 l 1.625084,2.728428 h 9.269163 9.268654 L 33.324542,89.426433 C 27.51358,84.782521 23.709126,78.277782 22.611881,71.110104 l -0.329417,-2.151949 h -6.502379 z" />
  </g>
</svg>
