<?xml version="1.0" encoding="UTF-8" standalone="no"?>
<!-- Created with Inkscape (http://www.inkscape.org/) -->

<svg
   version="1.1"
   id="svg1"
   width="128"
   height="128"
   viewBox="0 0 213.33333 213.33333"
   xmlns="http://www.w3.org/2000/svg"
   xmlns:svg="http://www.w3.org/2000/svg">
  <defs
     id="defs1" />
  <g
     id="g1">
    <path
       id="path2"
       style="display:inline;fill:#1d5074;fill-opacity:1;stroke:#ffffff;stroke-width:1.2;stroke-dasharray:none;stroke-opacity:1"
       d="m 82.833335,60.333334 v 5 5 h 53.000005 53 v -5 -5 h -53 z m 11.019531,68.000006 a 49.988282,49.988282 0 0 1 7.296874,10.74609 l 43.29883,0.23438 44.97852,-0.1875 -0.0977,-5.8418 -0.19917,-4.95117 h -47.91211 z" />
    <path
       id="path7"
       style="display:inline;fill:#000000;stroke:#ffffff;stroke-width:1.2;stroke-dasharray:none;stroke-opacity:1"
       d="m 54.198568,115.92318 c -0.04676,-0.001 -0.09431,0.003 -0.142578,0.0137 -0.0249,0.005 -0.04906,0.013 -0.07422,0.0215 -0.02437,0.008 -0.04741,0.0164 -0.07227,0.0273 -0.04971,0.0219 -0.101274,0.0507 -0.152344,0.084 -0.102148,0.0666 -0.205344,0.15553 -0.3125,0.26758 -0.01828,0.0191 -0.0382,0.0401 -0.05664,0.0605 -0.03588,0.0394 -0.07121,0.0805 -0.107422,0.125 -0.0371,0.0457 -0.07406,0.0939 -0.111328,0.14453 -0.01364,0.0186 -0.02724,0.0377 -0.04102,0.0566 -0.05999,0.0835 -0.120665,0.17308 -0.181641,0.26954 -0.024,0.0341 -0.04801,0.0694 -0.07227,0.10546 -0.14999,0.22089 -0.305272,0.47203 -0.462891,0.75391 v 0.002 c -0.183084,0.32752 -0.371571,0.69523 -0.5625,1.10352 v 0.002 c -0.255715,0.54694 -0.521316,1.27017 -0.785156,1.95899 -0.130492,0.34068 -0.257289,0.59394 -0.388672,0.96875 -0.622838,1.77601 -1.235563,4.11272 -1.822266,6.66015 -0.168473,0.57842 -0.333202,1.18702 -0.488281,1.92383 -0.0026,0.0122 -0.0052,0.0191 -0.0078,0.0312 -6.39e-4,0.003 -0.0013,0.005 -0.002,0.008 v 0.002 c -0.02515,0.0811 -0.05281,0.17292 -0.07813,0.27734 v 0.002 0.002 c -0.119556,0.41192 -0.214409,0.73171 -0.185547,0.97851 -0.0069,0.0356 -0.01451,0.0724 -0.02148,0.10743 -0.110179,0.55224 -0.230676,1.03227 -0.34375,1.55859 a 53.91166,46.206182 0 0 0 6.359375,0.32226 53.91166,46.206182 0 0 0 0.279297,-0.0156 53.91166,46.206182 0 0 0 0.28125,0.0156 53.91166,46.206182 0 0 0 6.359375,-0.32226 c -0.113074,-0.52632 -0.233571,-1.00635 -0.34375,-1.55859 -0.007,-0.0351 -0.01458,-0.0717 -0.02148,-0.10743 0.0036,-0.0308 0.0059,-0.0625 0.0059,-0.0957 -4.41e-4,-0.23218 -0.08677,-0.52229 -0.191406,-0.88281 v -0.002 -0.002 c -0.02533,-0.10457 -0.05294,-0.19624 -0.07813,-0.27734 v -0.002 c -7e-4,-0.003 -0.0013,-0.005 -0.002,-0.008 -0.0026,-0.0122 -0.0052,-0.019 -0.0078,-0.0312 -0.155079,-0.73681 -0.319808,-1.34541 -0.488281,-1.92383 -0.586703,-2.54743 -1.199428,-4.88414 -1.822266,-6.66015 -0.131383,-0.37481 -0.25818,-0.62807 -0.388672,-0.96875 -0.26384,-0.68882 -0.529441,-1.41205 -0.785156,-1.95899 v -0.002 c -0.190929,-0.40829 -0.379416,-0.776 -0.5625,-1.10352 v -0.002 c -0.157619,-0.28188 -0.312905,-0.533 -0.46289,-0.75391 -0.02426,-0.0361 -0.04827,-0.0714 -0.07227,-0.10546 -0.06098,-0.0965 -0.121651,-0.186 -0.181641,-0.26954 l -0.002,-0.002 -0.002,-0.002 v -0.002 l -0.002,-0.002 c -0.01794,-0.0252 -0.03493,-0.0504 -0.05273,-0.0742 a 27.250406,45.83376 0 0 0 -0.002,0 c -0.03081,-0.0413 -0.06103,-0.0813 -0.0918,-0.11914 -0.03621,-0.0445 -0.07154,-0.0856 -0.107422,-0.125 -0.01844,-0.0204 -0.03836,-0.0414 -0.05664,-0.0605 -0.107156,-0.11205 -0.210352,-0.20098 -0.3125,-0.26758 -0.05107,-0.0333 -0.102634,-0.0621 -0.152344,-0.084 -0.02486,-0.0109 -0.0479,-0.0193 -0.07227,-0.0273 -0.02516,-0.008 -0.04932,-0.0165 -0.07422,-0.0215 -0.04827,-0.0107 -0.09582,-0.0147 -0.142578,-0.0137 -0.008,1.1e-4 -0.01534,-5.1e-4 -0.02344,0 -0.01358,-8.3e-4 -0.02752,-3.2e-4 -0.04102,0 -0.002,3e-5 -0.004,4e-5 -0.0059,0 h -0.002 c -0.0052,-1.1e-4 -0.01018,-3.4e-4 -0.01563,0 -0.01552,-9.5e-4 -0.03164,-3.2e-4 -0.04687,0 -0.01056,0 -0.02041,5.8e-4 -0.03125,0.002 -0.01084,-0.001 -0.02264,-0.002 -0.0332,-0.002 -0.01522,-3.2e-4 -0.03135,-9.5e-4 -0.04687,0 -0.0064,-4e-4 -0.01146,-9e-5 -0.01758,0 h -0.002 c -0.0013,-2e-5 -0.0026,3e-5 -0.0039,0 -0.01328,-3.1e-4 -0.02768,-8.1e-4 -0.04102,0 -0.0081,-5.1e-4 -0.01544,1.1e-4 -0.02344,0 z m 7.347657,2.23633 0.474609,1.28906 v 0.002 c 0.132103,0.35968 0.385979,1.23892 0.679688,2.23047 v 0.002 c 0.308402,1.0411 0.721635,2.32512 1.611328,5.6875 v 0.002 c 0.373815,1.41323 0.643327,2.97586 0.832031,4.19336 v 0.002 c 6.09e-4,0.004 0.0013,0.01 0.002,0.0137 0.02727,0.17617 0.0522,0.34382 0.07617,0.5039 0.03416,0.22834 0.07193,0.48104 0.09961,0.66797 1.691537,-0.30889 3.364063,-0.68651 5.01172,-1.13281 0.79557,-0.2155 1.585785,-0.4483 2.369141,-0.69531 0.452808,-0.14292 0.903168,-0.29014 1.351562,-0.44336 -0.398248,-0.68822 -0.809258,-1.35521 -1.232422,-2 -0.650609,-0.91251 -1.485423,-2.00995 -2.488281,-3.22461 -0.257837,-0.31229 -0.52687,-0.63233 -0.806641,-0.95899 v -0.002 h -0.002 c -0.846213,-0.98772 -2.581078,-2.54474 -4.207032,-3.91797 -0.03655,-0.0309 -0.06933,-0.0607 -0.09961,-0.0898 -1.192239,-0.85559 -2.419433,-1.56707 -3.671875,-2.12891 z m -14.429688,0.17578 c -2.490621,1.18314 -4.857178,2.95145 -7.033203,5.23828 -1.869533,1.96474 -3.598427,4.31224 -5.144531,7 1.685448,0.56718 3.402489,1.06173 5.144531,1.48047 1.098039,0.26394 2.206011,0.4973 3.322266,0.70118 0.02768,-0.18693 0.06545,-0.43964 0.09961,-0.66797 0.02397,-0.16008 0.0489,-0.32774 0.07617,-0.50391 7e-4,-0.004 0.0032,-0.01 0.0039,-0.0137 v -0.002 c 0.188704,-1.21755 0.458215,-2.78013 0.832031,-4.19336 v -0.002 c 0.889693,-3.36238 1.302924,-4.6464 1.611328,-5.6875 v -0.002 c 0.293709,-0.99155 0.547585,-1.87079 0.679688,-2.23047 v -0.002 l 0.410156,-1.11524 z m -11.078125,1.90039 c 0,0 -0.01203,0.002 -0.0332,0.004 -0.0052,5.5e-4 -0.01138,7e-4 -0.01758,0.002 v -0.002 h -0.002 -0.002 -0.002 -0.002 l -0.002,0.002 h -0.002 v -0.002 l -0.002,-0.002 h -0.002 c -0.0038,5.5e-4 -0.0143,0.002 -0.03125,0.004 -0.0282,0.003 -0.236704,0.0244 -0.541016,0.0664 -0.04213,0.006 -0.0867,0.0131 -0.130859,0.0195 h -0.002 c -0.0089,0.001 -0.01844,0.003 -0.02734,0.004 -0.04037,0.006 -0.08174,0.0155 -0.123047,0.0215 -0.126618,0.0198 -0.250633,0.0381 -0.375,0.0625 -0.112225,0.022 -0.22194,0.0452 -0.320312,0.0703 -0.05533,0.0144 -0.108033,0.0292 -0.15625,0.0449 h -0.002 -0.002 -0.002 l -0.002,0.002 h -0.002 c -0.206449,0.0678 -0.453836,0.1834 -0.6875,0.2832 -1.099848,0.5092 -2.179443,1.06105 -3.236328,1.6543 -0.252759,0.15191 -0.504072,0.30621 -0.753906,0.46289 -0.524091,0.3598 -1.25985,0.91669 -1.992188,1.49414 -0.128189,0.10064 -0.254454,0.20176 -0.378906,0.30078 -0.489026,0.38924 -0.941434,0.75933 -1.291016,1.06445 0.0064,0.007 0.01312,0.0129 0.01953,0.0195 -0.149308,0.13328 -0.426496,0.34767 -0.521484,0.44531 l -0.002,0.002 -0.002,0.002 -0.002,0.002 -0.002,0.002 c -0.02662,0.0274 -0.04343,0.0486 -0.06445,0.0723 -0.01625,0.0182 -0.04002,0.0409 -0.05273,0.0566 -0.01575,0.0196 -0.02706,0.0372 -0.03711,0.0527 v 0.002 h -0.002 l -0.002,0.002 c -0.0028,0.005 -0.0054,0.009 -0.0078,0.0137 0.269217,0.15509 0.540061,0.30808 0.8125,0.45898 0.943022,0.4703 2.135753,1.07609 2.945312,1.44727 0.234759,0.0972 0.470656,0.19291 0.707032,0.28711 0.0011,-10e-4 0.0046,-0.006 0.0059,-0.008 l 0.002,-0.002 c 0.0017,-0.002 0.0038,-0.004 0.0059,-0.006 0.01408,-0.0105 0.03972,-0.0402 0.07422,-0.084 l 0.04883,0.0215 c 0.08548,-0.10601 0.239952,-0.32488 0.402344,-0.55664 0.0702,-0.0885 0.218456,-0.302 0.322266,-0.44336 0.002,0.002 0.0039,0.004 0.0059,0.006 0.197217,-0.27044 0.430136,-0.59765 0.644531,-0.90039 0.06049,-0.0845 0.101987,-0.13605 0.160157,-0.21875 v -0.002 c 0.481457,-0.68438 0.635335,-0.87552 1.269531,-1.73047 0.03107,-0.0417 0.06621,-0.09 0.09961,-0.13477 0.03278,-0.0439 0.0644,-0.0836 0.09961,-0.13085 0.02213,-0.0295 0.04338,-0.0609 0.06641,-0.0918 0.02498,-0.0335 0.05181,-0.0665 0.07813,-0.10156 v -0.002 l 3.066406,-4.0332 h -0.002 l -0.002,-0.002 -0.002,-0.002 h -0.002 -0.002 l -0.002,0.002 h -0.0039 -0.0039 z m 36.642579,0 -0.002,0.002 -0.002,0.002 h -0.002 l 3.066406,4.0332 v 0.002 c 0.02631,0.0351 0.05315,0.0681 0.07813,0.10156 0.02303,0.0309 0.04428,0.0623 0.06641,0.0918 0.03521,0.0473 0.06683,0.0869 0.09961,0.13085 0.0334,0.0448 0.06854,0.0931 0.09961,0.13477 0.634196,0.85495 0.788074,1.04609 1.269531,1.73047 v 0.002 c 0.05817,0.0827 0.09967,0.1343 0.160157,0.21875 0.214397,0.30274 0.447314,0.62995 0.644531,0.90039 l 0.002,-0.002 c 10e-4,-0.001 0.0028,-0.003 0.0039,-0.004 0.103827,0.14135 0.251988,0.35474 0.322266,0.44336 0.162392,0.23176 0.316867,0.45063 0.402344,0.55664 l 0.04883,-0.0215 c 0.01734,0.022 0.03247,0.0405 0.04492,0.0547 0.0062,0.007 0.01072,0.0127 0.01563,0.0176 h 0.002 c 0.0049,0.005 0.0082,0.009 0.01172,0.0117 0.0021,0.002 0.0042,0.004 0.0059,0.006 l 0.002,0.002 c 0.0013,0.002 0.0048,0.007 0.0059,0.008 0.236484,-0.0942 0.472168,-0.18994 0.707032,-0.28711 0.809561,-0.37118 2.00229,-0.97697 2.945312,-1.44727 0.272398,-0.15087 0.543323,-0.30391 0.8125,-0.45898 -0.0024,-0.005 -0.0051,-0.009 -0.0078,-0.0137 l -0.002,-0.002 h -0.002 v -0.002 c -0.01005,-0.0155 -0.02136,-0.0331 -0.03711,-0.0527 -0.01271,-0.0157 -0.03648,-0.0384 -0.05273,-0.0566 -0.02102,-0.0237 -0.03784,-0.0449 -0.06445,-0.0723 l -0.002,-0.002 -0.002,-0.002 -0.002,-0.002 -0.002,-0.002 c -0.09499,-0.0976 -0.372176,-0.31203 -0.521484,-0.44531 0.0064,-0.007 0.01313,-0.0125 0.01953,-0.0195 -0.349582,-0.30512 -0.80199,-0.67521 -1.291016,-1.06445 -0.124452,-0.099 -0.250717,-0.20014 -0.378906,-0.30078 -0.732338,-0.57745 -1.468097,-1.13434 -1.992188,-1.49414 -0.249834,-0.15668 -0.501147,-0.31098 -0.753906,-0.46289 -1.056885,-0.59325 -2.13648,-1.1451 -3.236328,-1.6543 -0.233664,-0.0998 -0.481051,-0.2154 -0.6875,-0.2832 h -0.002 l -0.002,-0.002 h -0.002 -0.002 -0.002 c -0.04821,-0.0157 -0.10092,-0.0305 -0.15625,-0.0449 -0.09837,-0.0251 -0.208087,-0.0483 -0.320312,-0.0703 -0.124367,-0.0244 -0.248382,-0.0427 -0.375,-0.0625 -0.04131,-0.006 -0.08268,-0.0155 -0.123047,-0.0215 -0.0089,-0.001 -0.01844,-0.003 -0.02734,-0.004 h -0.002 c -0.04416,-0.006 -0.08873,-0.0135 -0.130859,-0.0195 -0.304312,-0.042 -0.512816,-0.0634 -0.541016,-0.0664 -0.02117,-0.002 -0.0332,-0.004 -0.0332,-0.004 l -0.002,0.002 v 0.002 h -0.002 l -0.002,-0.002 h -0.002 -0.002 -0.002 -0.002 v 0.002 c -0.006,-6.2e-4 -0.01257,-7.5e-4 -0.01758,-0.002 -0.02117,-0.002 -0.0332,-0.004 -0.0332,-0.004 h -0.002 v 0.002 h -0.002 -0.002 l -0.0039,-0.002 z m -51.460938,9.37305 c -0.611224,0.61483 -1.20522,1.24661 -1.78125,1.89453 -0.02412,0.0273 -0.04821,0.0547 -0.07227,0.082 -0.661358,0.77584 -1.297115,1.57315 -1.90625,2.39063 -0.02984,0.0385 -0.05999,0.0843 -0.08984,0.12304 -0.131517,0.17065 -0.260787,0.40137 -0.392578,0.57618 -0.09037,0.11221 -0.180209,0.22484 -0.269531,0.33789 l -0.002,0.002 v 0.002 c -8.98e-4,0.001 -0.0035,0.005 -0.0039,0.006 -0.283935,0.38943 -0.562489,0.8707 -0.845703,1.29102 -0.430608,0.62848 -0.86619,1.16046 -1.289063,1.88476 -1.400451,2.42901 -2.300804,4.15131 -2.867187,5.3086 -1.281513,2.87796 -2.2683164,5.87829 -2.9453134,8.95508 -0.1266281,0.63666 -0.2658631,1.41579 -0.3964841,2.21289 -0.09349,0.47974 -0.179439,0.96092 -0.257813,1.44336 -0.177971,1.29112 -0.301777,2.58913 -0.371094,3.89062 2.6e-5,0.003 1e-6,0.005 0,0.008 1e-6,0.0105 -1.28e-4,0.0209 0,0.0312 v 0.002 0.01 0.002 c -4e-6,0.002 0,0.004 0,0.006 v 0.0117 c -1.5e-5,0.004 1.2e-5,0.008 0,0.0117 l -0.002,0.0352 v 0.0215 c -2e-5,0.006 3e-5,0.01 0,0.0156 -3e-4,0.0727 -3.4e-5,0.14181 0,0.20898 H 22.284418 l 0.357422,-6.02539 c 0.09098,-1.53475 0.393294,-3.58491 0.761718,-5.64648 0.158897,-0.80014 0.292903,-1.42616 0.47461,-2.22852 0.352124,-1.65457 0.709543,-3.36091 1.121094,-4.69336 l 1.464843,-4.51562 c 0.682657,-1.65836 1.535628,-3.76535 1.544922,-3.94531 v -0.002 c 5.1e-5,-0.002 1.82e-4,-0.004 0,-0.006 v -0.002 h -0.002 v -0.002 h -0.002 c -0.0053,-0.003 -0.01034,-0.007 -0.01563,-0.01 0.01108,-0.0347 0.01722,-0.0596 0.01758,-0.0703 v -0.002 -0.002 l -0.002,-0.002 h -0.002 c -1.583326,-0.85226 -4.384766,-2.25 -4.384766,-2.25 h -0.002 c -0.236819,-0.14286 -0.477275,-0.28363 -0.720703,-0.42383 -0.505216,-0.29904 -0.79687,-0.468 -1.066406,-0.61914 -0.0095,-0.005 -0.0198,-0.0106 -0.0293,-0.0156 -0.07727,-0.044 -0.154492,-0.0906 -0.232422,-0.13671 -0.0051,-0.003 -0.01053,-0.005 -0.01563,-0.008 -0.08988,-0.0533 -0.179868,-0.1077 -0.267578,-0.1582 l -0.02344,0.0234 c -0.01353,-0.008 -0.02745,-0.0157 -0.04102,-0.0234 z m 66.226563,0 c -0.08771,0.0505 -0.177703,0.10487 -0.267578,0.1582 -0.0051,0.003 -0.0105,0.005 -0.01563,0.008 -0.07793,0.0461 -0.155157,0.0927 -0.232422,0.13671 -0.0095,0.005 -0.01983,0.0102 -0.0293,0.0156 -0.269536,0.15114 -0.56119,0.3201 -1.066406,0.61914 -0.243428,0.1402 -0.483884,0.28097 -0.720703,0.42383 h -0.002 c 0,0 -2.80144,1.39774 -4.384766,2.25 h -0.002 v 0.002 h -0.002 v 0.002 0.002 c 9.7e-5,0.003 0.0012,0.005 0.002,0.01 v 0.002 c 0.0025,0.0131 0.0075,0.0333 0.01563,0.0586 -0.0055,0.003 -0.01017,0.007 -0.01563,0.01 h -0.002 -0.002 v 0.002 c -0.03173,0.09 0.846203,2.2577 1.544922,3.95508 l 1.464844,4.51562 c 0.411551,1.33245 0.768969,3.03879 1.121093,4.69336 0.181707,0.80236 0.315713,1.42838 0.47461,2.22852 0.368435,2.06161 0.670748,4.11172 0.761718,5.64648 l 0.357422,6.02344 h 14.55663 c 4e-5,-0.067 3e-4,-0.1364 0,-0.20899 -3e-5,-0.006 2e-5,-0.01 0,-0.0156 v -0.0215 l -0.002,-0.0352 c -1e-5,-0.004 10e-6,-0.008 0,-0.0117 v -0.01 c 0,-0.002 10e-6,-0.004 0,-0.006 v -0.002 -0.01 -0.002 c 1.3e-4,-0.0103 0,-0.0208 0,-0.0312 0,-0.003 -2e-5,-0.005 0,-0.008 -0.0693,-1.30149 -0.19312,-2.5995 -0.37109,-3.89062 -0.0784,-0.48244 -0.16433,-0.96362 -0.25782,-1.44336 -0.13063,-0.7971 -0.26985,-1.57623 -0.396475,-2.21289 -0.677,-3.07679 -1.6638,-6.07712 -2.94531,-8.95508 -0.56638,-1.15729 -1.466737,-2.87959 -2.867188,-5.3086 -0.422873,-0.7243 -0.858455,-1.25628 -1.289062,-1.88476 -0.283217,-0.42032 -0.561766,-0.90159 -0.845704,-1.29102 v -0.002 c -0.0011,-0.002 -0.0035,-0.003 -0.0039,-0.004 v -0.002 l -0.002,-0.002 c -0.08932,-0.11305 -0.179166,-0.22568 -0.269531,-0.33789 -0.131788,-0.17481 -0.261064,-0.4055 -0.392578,-0.57618 -0.02985,-0.0387 -0.06,-0.0845 -0.08984,-0.12304 -0.609135,-0.81748 -1.244892,-1.61479 -1.90625,-2.39063 -0.02406,-0.0274 -0.04815,-0.0547 -0.07227,-0.082 -0.576065,-0.64727 -1.170045,-1.27838 -1.78125,-1.89258 -0.0134,0.008 -0.02764,0.0137 -0.04102,0.0215 z M 76.31771,134.931 c -2.930688,1.12406 -5.972819,2.02155 -9.089845,2.68164 v 0.002 l -1.164062,0.35352 -0.0059,0.002 -0.01953,0.004 v 0.002 l -0.0039,0.002 h -0.002 l 0.0059,0.0644 -0.0039,0.002 0.433594,4.22656 0.175781,1.71875 c 0.0265,0.22056 0.05712,0.45138 0.08984,0.69141 0.117823,1.80892 0.310492,4.08742 0.55664,6.9707 l 0.195313,2.2793 c 2e-5,0.004 -2e-5,0.007 0,0.01 3.58e-4,0.0596 -9.7e-5,0.11954 0,0.17774 l 0.15625,4.5 0.01758,1.73632 c 0.895027,0.0166 1.785722,0.0282 2.673829,0.0352 1.00893,0.008 2.014909,0.0103 3.019531,0.01 0.0312,-2e-5 0.06255,2e-5 0.09375,0 2.756055,-0.002 5.504972,-0.0268 8.298828,-0.0293 -0.09509,-3.52071 -0.431297,-7.01122 -1.001953,-10.40234 -0.120509,-0.65846 -0.250555,-1.30515 -0.384765,-1.94336 -0.0016,-0.008 -0.0023,-0.0154 -0.0039,-0.0234 -0.03406,-0.16936 -0.06192,-0.33689 -0.08984,-0.50391 l -0.0039,-0.002 v -0.002 c -0.0016,-0.006 -0.0023,-0.0135 -0.0039,-0.0195 l -0.002,-0.002 v -0.002 -0.002 c -0.01264,-0.076 -0.02493,-0.15097 -0.03711,-0.22657 v -0.002 c -0.01252,-0.078 -0.02452,-0.15647 -0.03711,-0.23437 -0.92052,-4.32779 -2.22285,-8.39806 -3.863281,-12.07422 z m -43.634767,0.10156 c -3.260895,7.3499 -5.136101,16.17653 -5.382812,25.33789 h 12.783203 1.126953 l -0.002,-0.0156 h -0.150391 l 0.03125,-1.73632 0.15625,-4.5 c 9.7e-5,-0.0582 -3.58e-4,-0.11814 0,-0.17774 2e-5,-0.003 -2e-5,-0.006 0,-0.01 l 0.195313,-2.2793 c 0.246148,-2.88328 0.438824,-5.16178 0.55664,-6.9707 0.03272,-0.24003 0.06334,-0.47085 0.08984,-0.69141 l 0.175782,-1.71875 0.433593,-4.22656 -0.0039,-0.002 0.0059,-0.0644 h -0.002 l -0.0039,-0.002 v -0.002 l -0.01758,-0.002 -0.0078,-0.002 -1.164062,-0.35547 v -0.002 c -3.021477,-0.6402 -5.972628,-1.50346 -8.820313,-2.58008 z m 14.042969,3.45508 c -7.13e-4,0.005 -0.0012,0.0103 -0.002,0.0156 a 53.91166,46.206182 0 0 1 -0.06641,-0.008 c -0.0086,0.0642 -0.01631,0.13303 -0.02344,0.20508 a 53.91166,46.206182 0 0 1 -0.01367,-0.002 c -0.05092,0.39229 -0.09621,0.81493 -0.136718,1.25977 h -0.01563 c -0.213198,1.85787 -0.398396,3.94346 -0.556641,6.12695 -0.198582,2.74206 -0.355079,5.63829 -0.472656,8.43164 -0.03483,0.37455 -0.06325,0.73119 -0.08398,1.0625 l -0.208984,4.72852 h 0.002 l -0.002,0.0625 h 18.439453 l -0.002,-0.0625 h 0.002 l -0.208984,-4.72852 c -0.02073,-0.33131 -0.04915,-0.68795 -0.08398,-1.0625 -0.117577,-2.79335 -0.274074,-5.68958 -0.472656,-8.43164 -0.158238,-2.18339 -0.343459,-4.26914 -0.55664,-6.12695 h -0.01563 c -0.04049,-0.44465 -0.08582,-0.86762 -0.136718,-1.25977 a 53.91166,46.206182 0 0 1 -0.01367,0.002 c -0.0071,-0.0719 -0.01486,-0.14098 -0.02344,-0.20508 a 53.91166,46.206182 0 0 1 -0.06641,0.008 c -6.98e-4,-0.005 -0.0013,-0.0104 -0.002,-0.0156 a 53.91166,46.206182 0 0 1 -0.494141,0.0449 53.91166,46.206182 0 0 1 -6.9375,0.42187 53.91166,46.206182 0 0 1 -0.208984,0.006 53.91166,46.206182 0 0 1 -0.207031,-0.006 53.91166,46.206182 0 0 1 -6.9375,-0.42187 53.91166,46.206182 0 0 1 -0.494141,-0.0449 z M 7.7278645,164.74545 v 0.002 c 1.2e-5,0.0557 -2.45e-4,0.11247 0,0.17188 v 0.0332 c 5.2e-5,0.0174 -7.1e-5,0.0331 0,0.0508 0,0.005 -10e-6,0.0106 0,0.0156 -6.9e-5,0.006 7e-5,0.0116 0,0.0176 -2.9e-5,0.003 4e-5,0.007 0,0.01 0.07019,1.32968 0.197266,2.6558 0.38086,3.97461 0.07572,0.4628 0.158412,0.92445 0.248047,1.38477 0.008,0.048 0.01544,0.0869 0.02344,0.13476 0.10667,0.68164 0.228448,1.36087 0.3652341,2.03711 0.680588,3.10504 1.6766684,6.13259 2.9726574,9.03516 0.164878,0.33613 0.357813,0.7193 0.582031,1.15234 h 0.06836 0.01563 c 0.55795,1.08768 1.128165,2.20602 2.181641,4.0332 0.681468,1.16724 1.381205,2.20702 2.078125,3.16797 0.02233,0.0308 0.04408,0.0709 0.06641,0.10157 l 0.0039,0.006 c 0.07252,0.0994 0.142404,0.17593 0.214844,0.27344 0.742379,1.01627 1.525588,2.00212 2.347656,2.95508 0.627695,0.71433 1.277108,1.40934 1.947266,2.08398 0.01364,-0.008 0.0273,-0.0156 0.04102,-0.0234 l 0.02344,0.0234 c 0.08522,-0.0486 0.172309,-0.10044 0.259766,-0.15234 0.007,-0.004 0.01449,-0.008 0.02148,-0.0117 0.07794,-0.0462 0.155092,-0.0922 0.232422,-0.13672 0.0063,-0.004 0.02065,-0.0116 0.02734,-0.0156 0.16106,-0.0903 0.418975,-0.24407 0.636718,-0.3711 0.146574,-0.0855 0.226355,-0.12769 0.429688,-0.24804 0.145999,-0.0841 0.290054,-0.16922 0.433594,-0.25391 0.09656,-0.0565 0.193886,-0.11252 0.289062,-0.16992 0.02977,-0.0148 2.812178,-1.4024 4.386719,-2.25 0.05732,-0.0338 -0.834793,-2.23668 -1.542969,-3.95703 l -1.285156,-3.96289 -0.179688,-0.55274 c -0.41154,-1.33244 -0.768975,-3.03881 -1.121093,-4.69336 -0.181705,-0.80235 -0.315714,-1.42838 -0.47461,-2.22851 -0.368429,-2.06159 -0.670749,-4.11174 -0.761718,-5.64649 l -0.353516,-5.99023 z m 19.5800785,0 c 0.272754,9.14558 2.168014,17.94463 5.441407,25.26172 2.379458,-0.89283 4.830531,-1.63686 7.333984,-2.22656 0.44952,-0.10589 0.900729,-0.20684 1.353516,-0.30274 v -0.004 c 0.06377,-0.0138 0.127575,-0.0274 0.191406,-0.041 h 0.0039 l 1.0625,-0.32422 h 0.002 l -0.0059,-0.0644 0.0039,-0.002 -0.433594,-4.22656 -0.175781,-1.71875 c -0.0265,-0.22056 -0.05712,-0.45137 -0.08984,-0.6914 -0.08271,-1.26989 -0.20247,-2.77128 -0.351562,-4.55079 -0.06329,-0.75534 -0.131738,-1.56086 -0.205078,-2.41992 l -0.19336,-2.25586 v -0.002 c 3e-6,-0.042 6.9e-5,-0.084 0,-0.125 l -0.002,-0.0547 v -0.002 -0.0273 l -0.15625,-4.45313 v -0.0117 l -0.05273,-1.7539 h -0.951127 z m 17.839844,0 0.002,0.0273 h -0.0059 l 0.208984,4.72852 c 0.02073,0.33131 0.04915,0.68795 0.08398,1.0625 0.01293,0.30716 0.02943,0.61316 0.04687,0.91601 0.106253,2.35554 0.239233,4.76006 0.402343,7.06641 0.01294,-2.2e-4 0.02633,-6.4e-4 0.03906,0 0.08226,1.46533 0.170624,2.90038 0.294922,4.21875 h 0.06836 0.0078 c 0.02144,0.22584 0.04235,0.45065 0.06445,0.67188 0.07807,1.10395 0.167303,2.14331 0.283203,3.03906 0.0051,0.0392 0.01044,0.0785 0.01563,0.11719 a 53.91166,46.206182 0 0 1 0.06445,-0.008 53.91166,46.206182 0 0 1 3.810547,-0.34961 53.91166,46.206182 0 0 1 3.830078,-0.11718 53.91166,46.206182 0 0 1 3.863281,0.11914 53.91166,46.206182 0 0 1 1.248047,0.11523 53.91166,46.206182 0 0 1 2.595703,0.24024 c 0.0052,-0.0387 0.01053,-0.078 0.01563,-0.11719 0.116073,-0.89709 0.205044,-1.93718 0.283203,-3.04297 0.02196,-0.21984 0.04316,-0.44358 0.06445,-0.66797 h 0.0078 0.06836 c 0.124261,-1.31798 0.212681,-2.75192 0.294922,-4.2168 0.01275,-6.5e-4 0.0261,-0.002 0.03906,-0.002 0.163242,-2.30821 0.298001,-4.71491 0.404297,-7.07227 0.01735,-0.3014 0.03205,-0.60447 0.04492,-0.91015 0.03484,-0.37455 0.06325,-0.73119 0.08398,-1.0625 l 0.208984,-4.72852 h -0.0059 l 0.002,-0.0273 z m 22.527344,0 -0.03125,1.75391 v 0.01 l -0.15625,4.45313 c -1.5e-5,0.009 -7e-6,0.0181 0,0.0273 l -0.002,0.0566 c -6.9e-5,0.0415 2e-6,0.0845 0,0.12695 v 0.006 l -0.19336,2.25 c -0.07334,0.85906 -0.141783,1.66461 -0.205078,2.41992 -0.149092,1.77951 -0.268849,3.2809 -0.351562,4.55079 -0.03272,0.24003 -0.06334,0.47084 -0.08984,0.6914 l -0.175781,1.71875 -0.433594,4.22656 0.0039,0.002 -0.0059,0.0644 h 0.002 l 1.0625,0.32422 h 0.0039 c 0.05992,0.0123 0.119817,0.0247 0.179688,0.0371 l 0.0078,0.002 0.0039,0.002 v 0.002 0.004 c 1.021517,0.21633 2.034919,0.45963 3.039063,0.72657 2.013566,0.53527 3.989701,1.17005 5.917969,1.90429 1.953325,-4.34663 3.430213,-9.24424 4.361328,-14.46289 0.01454,-0.0755 0.02866,-0.1527 0.04297,-0.22851 0.609887,-3.47164 0.973095,-7.05259 1.082031,-10.66797 h -11.40423 z m 18.769532,0 -0.353516,5.99023 c -0.09097,1.53476 -0.393288,3.58491 -0.761718,5.64649 -0.158894,0.80013 -0.292905,1.42616 -0.47461,2.22851 -0.35212,1.65456 -0.709547,3.36093 -1.121093,4.69336 l -0.179688,0.55274 -1.285156,3.96289 c -0.19453,0.47256 -0.402764,0.98224 -0.601563,1.47265 -0.276282,0.7454 -0.564144,1.47938 -0.863281,2.20118 -0.05364,0.15239 -0.08191,0.25296 -0.08008,0.27929 v 0.002 0.002 h 0.002 c 1.574918,0.8478 4.358218,2.23579 4.386719,2.25 0.09518,0.0574 0.192506,0.11341 0.289062,0.16992 0.143553,0.0847 0.287581,0.16981 0.433594,0.25391 0.203342,0.12035 0.283095,0.16254 0.429688,0.24804 0.217751,0.12703 0.475658,0.28081 0.636718,0.3711 0.0067,0.004 0.02109,0.0121 0.02734,0.0156 0.07733,0.0445 0.15448,0.0905 0.232422,0.13672 0.007,0.004 0.01446,0.008 0.02148,0.0117 0.08746,0.0519 0.174549,0.10371 0.259766,0.15234 l 0.02344,-0.0234 c 0.01385,0.008 0.02723,0.0156 0.04102,0.0234 0.670161,-0.67465 1.319568,-1.36965 1.947266,-2.08398 0.822066,-0.95296 1.60528,-1.93881 2.347656,-2.95508 0.07244,-0.0975 0.142326,-0.17404 0.214844,-0.27344 l 0.0039,-0.006 c 0.02233,-0.0307 0.04408,-0.0708 0.06641,-0.10157 0.696924,-0.96096 1.396653,-2.00072 2.078125,-3.16797 1.053458,-1.82715 1.623709,-2.94552 2.181637,-4.0332 h 0.0156 0.0684 c 0.22421,-0.43304 0.41715,-0.81621 0.58203,-1.15234 1.29598,-2.90258 2.29207,-5.9301 2.97265,-9.03516 0.136785,-0.67624 0.258565,-1.35547 0.365235,-2.03711 0.008,-0.0479 0.0154,-0.0868 0.0234,-0.13476 0.0896,-0.46032 0.17232,-0.92196 0.24804,-1.38477 0.1836,-1.31882 0.31067,-2.64492 0.38086,-3.97461 -4e-5,-0.003 3e-5,-0.007 0,-0.01 -7e-5,-0.006 7e-5,-0.0116 0,-0.0176 1e-5,-0.005 0,-0.0106 0,-0.0156 7e-5,-0.0173 -5e-5,-0.0337 0,-0.0508 v -0.0332 c 2.6e-4,-0.0608 6e-5,-0.11796 0,-0.17383 z M 54.30599,191.23373 a 53.91166,46.206182 0 0 0 -6.527344,0.33984 c 8.87e-4,0.004 0.0011,0.008 0.002,0.0117 a 53.91166,46.206182 0 0 0 -0.06641,0.008 c 0.123253,0.57929 0.255998,1.09989 0.375,1.71484 -0.0072,0.0618 -0.0067,0.12802 0,0.19922 0.02013,0.21337 0.09595,0.47063 0.185547,0.77929 v 0.002 c 0.0254,0.10497 0.05284,0.19782 0.07813,0.2793 v 0.002 c 6.68e-4,0.003 0.0013,0.005 0.002,0.008 v 0.002 c 0.157038,0.75217 0.325116,1.36603 0.496094,1.95313 0.586798,2.54795 1.199318,4.88378 1.822266,6.66016 0.131383,0.37477 0.258182,0.62811 0.388672,0.96874 0.263809,0.68875 0.52947,1.41207 0.785156,1.95899 v 0.002 c 0.190896,0.40822 0.379446,0.77604 0.5625,1.10352 v 0.002 c 0.156287,0.2795 0.310187,0.52856 0.458984,0.74805 0.02575,0.038 0.0507,0.0751 0.07617,0.11133 0.02642,0.0418 0.05377,0.0819 0.08008,0.12109 0.03955,0.0588 0.08013,0.11826 0.119141,0.17188 0.04548,0.0627 0.08988,0.12253 0.134765,0.17773 0.03088,0.038 0.06307,0.0732 0.09375,0.10742 0.02403,0.0268 0.04664,0.0534 0.07031,0.0781 0.106798,0.11155 0.210679,0.20117 0.3125,0.26757 0.05107,0.0333 0.102634,0.0621 0.152344,0.084 0.04971,0.0219 0.09821,0.0383 0.146484,0.0488 0.04828,0.0107 0.09582,0.0147 0.142578,0.0137 0.008,-1.1e-4 0.01534,5.1e-4 0.02344,0 0.01487,9.1e-4 0.03026,3.3e-4 0.04492,0 h 0.002 c 0.0047,0 0.0091,-2e-5 0.01367,0 0.0025,-1.4e-4 0.0053,2e-4 0.0078,0 0.01552,9.5e-4 0.03164,3.2e-4 0.04687,0 0.0091,0 0.01806,-6.5e-4 0.02734,-0.002 0.01112,0.001 0.02238,0.002 0.0332,0.002 0.01523,3.2e-4 0.03135,9.5e-4 0.04687,0 0.0074,4.7e-4 0.01424,0 0.02148,0 h 0.002 c 0.01097,2.4e-4 0.02193,2.1e-4 0.0332,0 0.0038,-1.2e-4 0.0079,1.9e-4 0.01172,0 0.0081,5.1e-4 0.01544,-1.1e-4 0.02344,0 0.04676,0.001 0.0943,-0.003 0.142578,-0.0137 0.04827,-0.0105 0.09677,-0.0269 0.146484,-0.0488 0.04971,-0.0219 0.101274,-0.0507 0.152344,-0.084 0.101821,-0.0664 0.205702,-0.15602 0.3125,-0.26757 0.02367,-0.0247 0.04628,-0.0513 0.07031,-0.0781 0.03068,-0.0342 0.06287,-0.0694 0.09375,-0.10742 0.04489,-0.0552 0.08929,-0.11505 0.134765,-0.17773 0.03358,-0.0461 0.06756,-0.0946 0.101563,-0.14454 0.03244,-0.0477 0.06502,-0.0968 0.09766,-0.14843 0.02547,-0.0362 0.05042,-0.0733 0.07617,-0.11133 0.148797,-0.21949 0.302697,-0.46855 0.458984,-0.74805 v -0.002 c 0.183084,-0.32752 0.371571,-0.69523 0.5625,-1.10352 v -0.002 c 0.255715,-0.54694 0.521308,-1.27015 0.785157,-1.95899 0.13049,-0.34066 0.257288,-0.594 0.388671,-0.96874 0.622948,-1.77637 1.235468,-4.11221 1.822266,-6.66016 0.170978,-0.5871 0.339056,-1.20096 0.496094,-1.95313 v -0.002 c 7e-4,-0.003 0.0013,-0.005 0.002,-0.008 v -0.002 c 0.02528,-0.0815 0.05272,-0.17426 0.07813,-0.2793 v -0.002 c 0.08962,-0.30876 0.165417,-0.56588 0.185547,-0.77929 0.0067,-0.0712 0.0072,-0.13742 0,-0.19922 0.118995,-0.61492 0.251753,-1.13559 0.375,-1.71484 a 53.91166,46.206182 0 0 0 -0.06641,-0.008 c 8.55e-4,-0.004 0.0011,-0.008 0.002,-0.0117 a 53.91166,46.206182 0 0 0 -6.527344,-0.33984 53.91166,46.206182 0 0 0 -0.06055,0.004 53.91166,46.206182 0 0 0 -0.05859,-0.004 z m -10.916015,0.95703 c -1.110722,0.19686 -2.213476,0.42341 -3.306641,0.67969 -1.740692,0.40808 -3.457069,0.8912 -5.142578,1.44727 1.545512,2.68658 3.273729,5.03375 5.142578,6.99804 2.155412,2.26549 4.497891,4.02186 6.962891,5.20508 l -0.324219,-0.88281 c -0.132014,-0.35914 -0.385745,-1.24008 -0.679688,-2.23242 -0.308436,-1.04128 -0.721353,-2.32601 -1.611328,-5.68946 -0.5334,-2.01585 -0.853887,-4.33627 -1.03125,-5.52539 z m 21.947265,0 c -0.177363,1.18912 -0.49785,3.50954 -1.03125,5.52539 -0.889975,3.36345 -1.302892,4.64818 -1.611328,5.68946 -0.293943,0.99234 -0.547673,1.87328 -0.679687,2.23242 l -0.386719,1.05469 c 3.147491,-1.42977 6.073321,-3.86705 8.705079,-7.0293 v 0.11133 c 0.224823,-0.26936 0.432325,-0.57847 0.652344,-0.85938 0.222124,-0.28362 0.441144,-0.56998 0.658203,-0.86523 0.83942,-1.14157 1.654642,-2.33683 2.412109,-3.64649 -1.225153,-0.41036 -2.466881,-0.78105 -3.722656,-1.11328 v 0.16797 c -1.657508,-0.44014 -3.285545,-0.96622 -4.986329,-1.26758 z m -35.689453,4.22656 -0.002,0.002 h -0.002 -0.002 -0.002 c -0.01039,0.002 -0.02297,0.008 -0.03711,0.0117 -0.01913,0.006 -0.04548,0.0134 -0.07227,0.0234 -0.006,0.002 -0.01149,0.006 -0.01758,0.008 -0.326613,0.14621 -0.651564,0.29534 -0.97461,0.44726 -0.93236,0.4376 -1.849452,0.89875 -2.75,1.38281 -0.187573,0.10058 -0.374433,0.20214 -0.560547,0.30469 v 0.002 l 0.002,0.002 c 0.0014,0.002 0.0046,0.008 0.0059,0.01 v 0.002 c 0.003,0.006 0.0076,0.0116 0.01172,0.0176 v 0.002 c 0.0091,0.0142 0.02118,0.0292 0.03516,0.0469 0.02989,0.0379 0.07041,0.0845 0.121093,0.13672 0.270886,0.27928 0.986954,0.85044 1.621094,1.36719 0.2776,0.2264 0.362305,0.32322 0.658203,0.55469 0.68212,0.53484 1.36435,1.04748 1.863282,1.39062 0.267195,0.16809 0.536089,0.33347 0.80664,0.4961 1.042542,0.5836 2.107164,1.127 3.191407,1.6289 0.235704,0.10069 0.487966,0.22001 0.689453,0.28711 0.0098,0.004 0.01805,0.009 0.02734,0.0117 h 0.002 c 0.02623,0.009 0.05356,0.0174 0.08203,0.0254 0.116097,0.0328 0.253244,0.0622 0.394531,0.0898 0.12436,0.0244 0.248389,0.0427 0.375,0.0625 0.0355,0.006 0.07055,0.0116 0.105469,0.0176 0.0059,0.001 0.01179,0.003 0.01758,0.004 0.0089,10e-4 0.01845,0.003 0.02734,0.004 h 0.002 0.002 c 0.213008,0.0309 0.40685,0.0548 0.537109,0.0703 0.0587,0.007 0.104005,0.0126 0.132813,0.0156 0.02116,0.002 0.0332,0.004 0.0332,0.004 h 0.002 v -0.002 h 0.002 0.002 l 0.002,0.002 h 0.002 0.002 l 0.002,-0.002 0.002,-0.002 h 0.002 l -0.002,-0.004 c 0.0086,9.1e-4 0.0161,0.002 0.01953,0.002 0.0011,9e-5 0.0029,-1e-4 0.0039,0 -1.266472,-1.45544 -2.465671,-3.05937 -3.58789,-4.79883 -0.449788,-0.60329 -0.629218,-0.83486 -1.044922,-1.42578 -0.398596,-0.5666 -0.90152,-1.26795 -1.144531,-1.57227 -0.207233,-0.29563 -0.39991,-0.56671 -0.449219,-0.60351 -0.0021,-0.002 -0.0042,-0.004 -0.0059,-0.006 l -0.002,-0.002 c -6.64e-4,-0.001 -0.0027,-0.004 -0.0039,-0.006 l -0.002,-0.002 -0.002,-0.002 v -0.002 h -0.002 -0.002 -0.002 -0.002 -0.002 -0.002 l -0.002,-0.002 h -0.002 c -0.0026,-1.8e-4 -0.0066,-1.3e-4 -0.0098,0 h -0.002 -0.002 -0.0039 l -0.0293,0.0117 c -0.0012,-10e-4 -0.0049,-0.005 -0.0059,-0.006 v -0.002 h -0.002 -0.002 v -0.002 h -0.002 -0.0039 -0.002 -0.002 v -0.002 c -0.001,4e-5 -0.0048,5e-5 -0.0059,0 h -0.002 c -0.003,-6e-5 -0.0066,-2.8e-4 -0.0098,0 h -0.002 -0.002 c -9.09e-4,-2e-5 -0.0029,-3e-5 -0.0039,0 -0.0013,0 -0.0025,-9e-5 -0.0039,0 h -0.002 -0.002 -0.002 -0.002 z m 49.326173,0 v 0.002 h -0.002 -0.002 -0.002 -0.002 -0.002 -0.002 v 0.002 l -0.002,0.002 -0.002,0.002 c -0.0012,0.002 -0.0033,0.005 -0.0039,0.006 l -0.002,0.002 c -0.0017,0.002 -0.0038,0.004 -0.0059,0.006 -0.04933,0.0368 -0.241998,0.3079 -0.449219,0.60351 -0.243017,0.30433 -0.745937,1.00568 -1.144531,1.57227 -0.264804,0.37642 -0.432868,0.60689 -0.636719,0.88086 -1.221553,1.95177 -2.538373,3.7402 -3.9375,5.34766 0.002,-2.3e-4 0.0036,3e-4 0.0059,0 0.0023,-3e-4 0.0053,-10e-4 0.0078,-0.002 0.02881,-0.003 0.07411,-0.009 0.132813,-0.0156 0.130262,-0.0155 0.324103,-0.0394 0.537109,-0.0703 h 0.002 0.002 c 0.0089,-0.001 0.01845,-0.003 0.02734,-0.004 0.0058,-0.001 0.01168,-0.003 0.01758,-0.004 0.03492,-0.006 0.06997,-0.0116 0.105469,-0.0176 0.126614,-0.0198 0.250637,-0.0381 0.375,-0.0625 0.141291,-0.0277 0.278432,-0.057 0.394531,-0.0898 0.02848,-0.008 0.0558,-0.0164 0.08203,-0.0254 h 0.002 c 0.0023,-7.5e-4 0.0036,-0.001 0.0059,-0.002 0.0067,-0.003 0.01414,-0.007 0.02148,-0.01 0.201492,-0.0671 0.453746,-0.18642 0.689454,-0.28711 1.08423,-0.5019 2.148875,-1.0453 3.191406,-1.6289 0.270547,-0.16263 0.539451,-0.32801 0.80664,-0.4961 0.498937,-0.34315 1.181159,-0.85578 1.863282,-1.39062 0.295893,-0.23147 0.380597,-0.32828 0.658203,-0.55469 0.634145,-0.51676 1.350221,-1.08792 1.621094,-1.36719 0.05069,-0.0522 0.0912,-0.0988 0.121093,-0.13672 0.01398,-0.0177 0.02606,-0.0327 0.03516,-0.0469 v -0.002 c 0.0041,-0.006 0.0087,-0.0116 0.01172,-0.0176 v -0.002 c 0.0013,-0.002 0.0045,-0.008 0.0059,-0.01 l 0.002,-0.002 v -0.002 c -0.18611,-0.10254 -0.372978,-0.20411 -0.560547,-0.30469 -0.900538,-0.48405 -1.817651,-0.94522 -2.75,-1.38281 -0.323071,-0.15193 -0.647972,-0.30104 -0.974609,-0.44726 -0.0061,-0.002 -0.01157,-0.006 -0.01758,-0.008 -0.02679,-0.01 -0.05314,-0.0177 -0.07227,-0.0234 -0.01414,-0.004 -0.02672,-0.01 -0.03711,-0.0117 h -0.002 -0.002 c -0.0031,-6.1e-4 -0.0096,-0.002 -0.01172,-0.002 h -0.002 c -0.0014,-8e-5 -0.0026,0 -0.0039,0 -0.001,-3e-5 -0.003,-3e-5 -0.0039,0 h -0.002 -0.002 c -0.0032,-2.8e-4 -0.0068,-6e-5 -0.0098,0 h -0.002 c -0.0011,5e-5 -0.0049,4e-5 -0.0059,0 v 0.002 h -0.002 -0.002 -0.0039 -0.002 v 0.002 h -0.002 -0.002 v 0.002 l -0.002,0.002 -0.002,0.002 -0.0039,0.002 -0.0293,-0.0117 h -0.0039 -0.002 -0.0039 c -0.0026,-9e-5 -0.0054,-7e-5 -0.0078,0 z" />
    <path
       id="path19"
       style="display:inline;fill:#2a7abd;fill-opacity:1;stroke:#ffffff;stroke-width:1.2;stroke-dasharray:none;stroke-opacity:1"
       d="m 71.159507,7.8430991 c -4.459697,0.02028 -7.945263,3.6970829 -8.271485,7.6054689 -0.07949,0.95239 -0.105469,15.720704 -0.105469,15.720704 -0.03503,12.167847 -0.578271,12.695336 0.5625,16.615234 1.307592,2.934015 3.580177,6.904216 7.763673,7.230469 65.190584,1.162424 64.774694,0.594698 130.839844,-0.140625 4.52876,-0.05041 6.70477,-1.552713 6.72657,-7.572266 0.0814,-22.504938 0.11667,-10.863996 0.24804,-31.103516 0.0411,-6.3400765 -3.10499,-7.7846525 -7.18359,-8.3203126 C 145.66879,6.320741 109.94865,7.6667079 71.159507,7.8430991 Z M 121.63607,28.87435 c 31.84046,0.25633 31.87117,0.285092 64.875,0.09961 3.1345,-0.01762 3.13728,4.603581 0.17579,4.613281 -33.27956,0.10851 -33.18812,0.10691 -64.80469,0.09961 -2.8968,-6.71e-4 -3.00614,-4.834719 -0.2461,-4.812501 z m -18.42382,0.0957 c 2.27509,0.01339 2.48938,4.076292 0.1289,4.039062 -8.399853,0.03313 -8.073444,-0.0017 -18.412112,0.02148 -2.125685,0.0048 -2.258565,-3.989987 -0.0059,-4.035157 9.931516,-0.199143 10.152066,-0.07328 18.289072,-0.02539 z m 32.16797,46.462891 c 0,0 -43.11048,-0.212073 -64.150401,0.560547 -3.723146,0.13672 -8.391941,5.249975 -8.437501,9.908203 -0.08929,9.129911 0.05078,11.121094 0.05078,11.121094 l 0.04883,14.351575 7.990235,2.28515 c 0.141599,0.0482 0.285157,0.0964 0.429688,0.14649 a 49.988282,49.988282 0 0 1 7.59375,3.15234 c 0.771992,0.38901 1.53377,0.77803 2.169922,1.17773 a 49.988282,49.988282 0 0 1 7.382812,4.97852 l 56.068365,-0.043 c 0,0 33.33922,-0.0229 56.84766,0.0547 2.63436,0.009 6.92822,-2.11614 7.43554,-6.41406 0.33663,-2.85189 0.16211,-16.43165 0.16211,-16.43165 0.07,-10.196173 0.0634,-11.416506 0.0234,-15.177737 -0.0423,-3.979102 -5.31496,-9.456505 -10.43555,-9.515625 -27.79795,-0.320933 -27.98007,-0.407512 -63.17968,-0.154297 z m 18.82617,21.207032 c 5.57485,0.04346 24.97797,-0.001 32.16601,0.101562 2.31698,0.03307 2.38026,5.526015 0.34961,5.511715 -7.73026,-0.0544 -32.02539,0.19336 -32.02539,0.19336 -29.46597,-0.26116 -32.43373,0.26514 -33.58594,-0.54883 -2.07064,-1.46278 -1.52647,-4.450504 -0.21093,-5.199214 0.73084,-0.415939 3.91072,-0.287778 33.30664,-0.05859 z m -50.5293,0.490234 c 1.6265,-0.01499 1.47633,4.105613 0.16602,4.136713 -8.382708,0.19899 -9.137531,0.23751 -19.316416,0.33789 -1.39109,0.0137 -1.233153,-4.16203 0.02539,-4.18554 10.124428,-0.189105 10.651301,-0.210943 19.125006,-0.289063 z m 92.19727,47.169933 c -7.12669,-0.38237 -19.92878,0.0332 -45.36329,0.0332 h -47.08398 a 49.988282,49.988282 0 0 1 3.05859,17.2168 49.988282,49.988282 0 0 1 -7.009765,25.52343 c -0.76342,1.5655 -1.57065,3.06215 -2.25391,4.16016 -0.37062,0.5956 35.434585,0.60671 53.558605,0.41602 l 50.91796,-0.53516 c 0,0 3.17675,-0.88913 4.01954,-2.1543 3.11398,-4.67459 3.20469,-5.20485 2.95703,-21.05859 -0.20897,-13.37704 0.0447,-17.0691 -1.48242,-18.84766 -2.7401,-3.19112 -4.19167,-4.37153 -11.31836,-4.7539 z m -73.89454,20.66406 c 0.0341,-0.001 0.0683,-0.001 0.10352,0 6.85743,0.26429 50.54697,0.13685 64.5,0 1.62989,-0.016 2.61003,5.73582 -0.10156,5.76172 -31.06057,0.29616 -32.93152,0.12262 -64.3711,-0.19922 -2.19656,-0.0225 -2.27811,-5.4749 -0.13086,-5.5625 z" />
  </g>
</svg>
