<?xml version="1.0" encoding="UTF-8" standalone="no"?>
<svg
   width="128"
   height="128"
   version="1.1"
   id="svg5"
   viewBox="0 0 130.61224 130.61224"
   sodipodi:docname="slack-icon.svg"
   inkscape:version="1.4.2 (f4327f4, 2025-05-13)"
   xmlns:inkscape="http://www.inkscape.org/namespaces/inkscape"
   xmlns:sodipodi="http://sodipodi.sourceforge.net/DTD/sodipodi-0.dtd"
   xmlns="http://www.w3.org/2000/svg"
   xmlns:svg="http://www.w3.org/2000/svg">
  <sodipodi:namedview
     id="namedview1"
     pagecolor="#ffffff"
     bordercolor="#000000"
     borderopacity="0.25"
     inkscape:showpageshadow="2"
     inkscape:pageopacity="0.0"
     inkscape:pagecheckerboard="0"
     inkscape:deskcolor="#d1d1d1"
     inkscape:zoom="6.1769231"
     inkscape:cx="48.729763"
     inkscape:cy="64.514321"
     inkscape:window-width="1920"
     inkscape:window-height="1017"
     inkscape:window-x="-8"
     inkscape:window-y="-8"
     inkscape:window-maximized="1"
     inkscape:current-layer="svg5" />
  <defs
     id="defs5" />
  <g
     fill="none"
     id="g5"
     transform="translate(-0.33039368)">
    <path
       d="m 29.447039,81.966159 c 0,7.3 -5.9,13.2 -13.2,13.2 -7.3000001,0 -13.2000001,-5.9 -13.2000001,-13.2 0,-7.3 5.9,-13.2 13.2000001,-13.2 h 13.2 z m 6.6,0 c 0,-7.3 5.9,-13.2 13.2,-13.2 7.3,0 13.2,5.9 13.2,13.2 v 33.000001 c 0,7.3 -5.9,13.2 -13.2,13.2 -7.3,0 -13.2,-5.9 -13.2,-13.2 z"
       fill="#e01e5a"
       id="path2"
       style="display:inline" />
    <path
       d="m 49.247039,28.966159 c -7.3,0 -13.2,-5.9 -13.2,-13.2 0,-7.2999999 5.9,-13.1999999 13.2,-13.1999999 7.3,0 13.2,5.9 13.2,13.1999999 v 13.2 z m 0,6.7 c 7.3,0 13.2,5.9 13.2,13.2 0,7.3 -5.9,13.2 -13.2,13.2 h -33.1 c -7.3000001,0 -13.2000001,-5.9 -13.2000001,-13.2 0,-7.3 5.9,-13.2 13.2000001,-13.2 z"
       fill="#36c5f0"
       id="path3"
       style="display:inline" />
    <path
       d="m 102.14704,48.866159 c 0,-7.3 5.9,-13.2 13.2,-13.2 7.3,0 13.2,5.9 13.2,13.2 0,7.3 -5.9,13.2 -13.2,13.2 h -13.2 z m -6.600001,0 c 0,7.3 -5.9,13.2 -13.2,13.2 -7.3,0 -13.2,-5.9 -13.2,-13.2 v -33.1 c 0,-7.2999999 5.9,-13.1999999 13.2,-13.1999999 7.3,0 13.2,5.9 13.2,13.1999999 z"
       fill="#2eb67d"
       id="path4"
       style="display:inline" />
    <path
       d="m 82.347039,101.76616 c 7.3,0 13.2,5.9 13.2,13.2 0,7.3 -5.9,13.2 -13.2,13.2 -7.3,0 -13.2,-5.9 -13.2,-13.2 v -13.2 z m 0,-6.600001 c -7.3,0 -13.2,-5.9 -13.2,-13.2 0,-7.3 5.9,-13.2 13.2,-13.2 h 33.100001 c 7.3,0 13.2,5.9 13.2,13.2 0,7.3 -5.9,13.2 -13.2,13.2 z"
       fill="#ecb22e"
       id="path5"
       style="display:inline" />
  </g>
</svg>
