<?xml version="1.0" encoding="UTF-8" standalone="no"?>
<!-- Created with Inkscape (http://www.inkscape.org/) -->

<svg
   version="1.1"
   id="svg1"
   width="128"
   height="128"
   viewBox="0 0 206.45161 206.45161"
   sodipodi:docname="spring_boot-icon.svg"
   inkscape:version="1.4.2 (f4327f4, 2025-05-13)"
   xmlns:inkscape="http://www.inkscape.org/namespaces/inkscape"
   xmlns:sodipodi="http://sodipodi.sourceforge.net/DTD/sodipodi-0.dtd"
   xmlns="http://www.w3.org/2000/svg"
   xmlns:svg="http://www.w3.org/2000/svg">
  <defs
     id="defs1" />
  <sodipodi:namedview
     id="namedview1"
     pagecolor="#ffffff"
     bordercolor="#000000"
     borderopacity="0.25"
     inkscape:showpageshadow="2"
     inkscape:pageopacity="0.0"
     inkscape:pagecheckerboard="0"
     inkscape:deskcolor="#d1d1d1"
     inkscape:zoom="5.6568544"
     inkscape:cx="63.286055"
     inkscape:cy="67.617084"
     inkscape:window-width="1920"
     inkscape:window-height="1017"
     inkscape:window-x="-8"
     inkscape:window-y="-8"
     inkscape:window-maximized="1"
     inkscape:current-layer="layer2" />
  <g
     inkscape:groupmode="layer"
     id="layer2"
     inkscape:label="Image 1"
     style="display:inline"
     transform="translate(-10.250791,-5.5985233)">
    <path
       style="display:inline;fill:#71c837;stroke-width:0.415339"
       d="m 70.397737,196.96747 c -2.6348,-0.51481 -8.3955,-3.66498 -10.6709,-5.83522 -1.5396,-1.46853 -3.5072,-4.32815 -6.7389,-9.79422 -2.5103,-4.24606 -4.5643,-7.78213 -4.5643,-7.85793 0,-0.14112 -4.6816,-8.22824 -5.4141,-9.35255 -0.2233,-0.34266 -0.5355,-0.90337 -0.6938,-1.24602 -0.1584,-0.34266 -1.3348,-2.39858 -2.6142,-4.56872 -1.2794,-2.17015 -2.459,-4.22607 -2.6214,-4.56873 -0.1623,-0.34265 -0.6648,-1.18371 -1.1167,-1.86902 -0.4518,-0.68531 -0.9544,-1.52637 -1.1168,-1.86902 -0.346,-0.72979 -3.6991,-6.56644 -4.295,-7.4761 -0.2245,-0.34265 -0.5377,-0.90336 -0.6961,-1.24601 -0.1584,-0.34266 -1.372,-2.46054 -2.6971,-4.70641 -1.325,-2.24586 -2.4091,-4.15141 -2.4091,-4.23454 0,-0.0831 -1.6629,-2.95295 -3.6953,-6.37736 -2.0325,-3.42442 -4.2085,-7.31086 -4.8356,-8.63654 -2.14,-4.52362 -2.2522,-12.8472 -0.2329,-17.2799 0.4906,-1.07679 1.0772,-2.37892 1.3037,-2.89364 0.2264,-0.51471 0.7807,-1.49655 1.2316,-2.18186 0.451,-0.68531 0.9493,-1.52637 1.1074,-1.86903 0.1581,-0.34265 1.3751,-2.46269 2.7043,-4.7112 1.3292,-2.2485 2.4168,-4.14687 2.4168,-4.21858 0,-0.13583 4.7039,-8.2551 5.4141,-9.34511 0.2233,-0.34266 0.5329,-0.90336 0.688,-1.24602 0.1551,-0.34265 1.0884,-1.99349 2.074,-3.66853 0.9856,-1.67504 1.792,-3.21698 1.792,-3.42654 0,-0.20956 0.1687,-0.38102 0.3747,-0.38102 0.2061,0 0.5805,-0.51399 0.8319,-1.14218 0.2515,-0.6282 0.8284,-1.70289 1.2821,-2.3882 0.4537,-0.68531 0.9577,-1.52637 1.12,-1.86902 0.1624,-0.34266 1.3793,-2.46054 2.7043,-4.70641 1.325,-2.24586 2.4091,-4.14638 2.4091,-4.22337 0,-0.15266 4.7319,-8.33347 5.4053,-9.34512 0.2281,-0.34266 0.5419,-0.90336 0.6972,-1.24602 0.1553,-0.34265 2.0145,-3.53857 4.1315,-7.10205 4.4615,-7.50994 6.9467,-10.13888 11.819,-12.5026 5.619,-2.72604 3.5847,-2.61596 48.346903,-2.61596 43.2547,0 42.6522,-0.0253 47.141,1.97745 2.2994,1.02593 5.6706,3.17743 7.0607,4.50616 1.2117,1.15818 3.7381,4.32223 3.7381,4.68161 0,0.13578 1.0837,2.07204 2.4083,4.30279 1.3246,2.23076 2.5415,4.3356 2.7043,4.67742 0.1627,0.34182 0.6656,1.1822 1.1174,1.86751 0.4519,0.68531 0.9544,1.52637 1.1167,1.86903 0.1623,0.34265 1.3793,2.46053 2.7043,4.7064 1.325,2.24586 2.4091,4.14617 2.4091,4.2229 0,0.0767 0.8099,1.50999 1.7997,3.18503 0.9898,1.67504 2.421,4.16694 3.1805,5.53756 0.7594,1.37061 1.8568,3.23964 2.4386,4.15338 0.5818,0.91375 1.3572,2.22206 1.7231,2.90737 0.3658,0.68531 2.5046,4.42336 4.7527,8.30677 2.2481,3.88342 4.5586,7.90182 5.1345,8.92978 0.5758,1.02796 1.8566,3.23951 2.8461,4.91455 0.9895,1.67504 1.7991,3.12724 1.7991,3.22713 0,0.0999 0.5055,0.97222 1.1233,1.93853 3.2381,5.06482 4.0118,7.65647 3.9987,13.39465 -0.01,2.54968 -0.2458,5.30917 -0.5419,6.23008 -0.5242,1.63012 -2.1609,5.21546 -2.9352,6.42952 -0.8787,1.37789 -6.629,11.28099 -6.629,11.41643 0,0.08 -1.1214,2.04484 -2.492,4.36643 -1.3706,2.32159 -2.492,4.30301 -2.492,4.40315 0,0.10015 -0.5078,0.9727 -1.1283,1.93902 -1.3708,2.13444 -2.8668,4.7168 -3.5444,6.11799 -0.2762,0.57109 -0.615,1.1318 -0.753,1.24602 -0.138,0.11421 -0.9156,1.42253 -1.728,2.90736 -0.8124,1.48484 -2.6191,4.63068 -4.0148,6.99077 -1.3957,2.36008 -2.5377,4.35405 -2.5377,4.43104 0,0.077 -1.0841,1.97751 -2.4091,4.22338 -1.325,2.24587 -2.542,4.36375 -2.7043,4.7064 -0.1623,0.34266 -0.6567,1.18372 -1.0986,1.86903 -0.4419,0.68531 -1.2341,2.08707 -1.7603,3.11504 -0.5262,1.02796 -1.056,1.96247 -1.1775,2.07669 -0.3307,0.31111 -3.3103,5.42446 -3.3103,5.6809 0,0.37031 -2.5724,3.59846 -3.7098,4.65548 -1.47,1.36613 -6.1577,4.31304 -7.9197,4.97874 -0.7995,0.30207 -2.2013,0.70964 -3.1151,0.90573 -1.973,0.4234 -84.471303,0.42867 -86.636903,0.006 z m 50.087103,-37.58323 c 10.0636,-1.28288 18.0887,-4.58657 26.5817,-10.94289 3.6877,-2.75992 9.2618,-8.67459 11.8918,-12.61831 3.2822,-4.92185 6.5356,-11.84071 7.3925,-15.72138 0.1766,-0.79953 0.5229,-2.20129 0.7695,-3.11504 0.7648,-2.83313 1.3418,-8.12844 1.3389,-12.28868 -0.01,-12.14386 -4.0554,-24.02708 -11.4452,-33.60623 -3.5908,-4.65467 -8.9594,-9.72791 -11.9038,-11.24883 -5.9475,-3.07219 -12.6124,2.66151 -10.374,8.92465 0.5971,1.67069 1.3589,2.57052 4.2375,5.00525 7.9513,6.72518 12.6927,15.31975 14.3068,25.93369 0.7463,4.90738 0.6874,6.69069 -0.4127,12.50376 -1.4603,7.7157 -4.7998,14.26447 -10.3548,20.30598 -2.3459,2.55142 -7.9898,6.75327 -11.0217,8.20569 -9.5859,4.59212 -20.0271,5.52473 -29.2814,2.61542 -4.069803,-1.27946 -5.271303,-1.77378 -7.891403,-3.24647 -10.2754,-5.77571 -16.6188,-13.96113 -19.9968,-25.80393 -1.106,-3.87718 -1.1046,-15.23665 0,-19.10557 2.553,-8.9234 6.9943,-15.95277 13.4569,-21.29844 1.6922,-1.39977 3.4349,-3.24713 3.8727,-4.10525 2.4528,-4.80783 -1.2344,-10.73077 -6.6801,-10.73077 -3.2713,0 -6.8937,2.6976 -13.6443,10.16085 -4.1307,4.56669 -8.4174,12.41919 -10.4381,19.12052 -2.0039,6.64562 -2.2615,8.51324 -2.2629,16.40587 0,9.10229 0.4851,11.80927 3.7332,20.76693 0.686,1.89196 2.4929,5.48629 4.0714,8.0991 6.5433,10.83085 17.9791,19.83497 29.9625,23.59143 8.392403,2.63079 15.545403,3.28185 24.089603,2.19265 z m -2.1196,-47.90122 c 3.3312,-2.35027 3.1597,-0.6574 3.1442,-31.03971 l -0.014,-27.00349 -1.1344,-1.66135 c -1.7167,-2.5141 -4.2085,-3.63318 -7.5995,-3.41301 -3.2069,0.2082 -4.8804,1.21272 -6.439,3.86484 l -0.9977,1.69784 v 26.79437 26.79436 l 1.3186,1.8275 c 0.7252,1.00513 1.613,2.05895 1.9728,2.34182 2.1693,1.70517 7.1923,1.60049 9.7488,-0.20317 z"
       id="path25" />
  </g>
</svg>
