<?xml version="1.0" encoding="UTF-8" standalone="no"?>
<svg
   viewBox="0 0 130.61224 130.61224"
   version="1.1"
   id="svg5"
   width="128"
   height="128"
   xmlns="http://www.w3.org/2000/svg"
   xmlns:svg="http://www.w3.org/2000/svg">
  <defs
     id="defs3">
    <linearGradient
       id="sqlite-original-a"
       x1="-15.615"
       x2="-6.7410002"
       y1="-9.1079998"
       y2="-9.1079998"
       gradientTransform="matrix(0,9.2712003,-9.2712003,0,-23.900137,156.42125)"
       gradientUnits="userSpaceOnUse">
      <stop
         stop-color="#95d7f4"
         offset="0"
         id="stop1" />
      <stop
         stop-color="#0f7fcc"
         offset=".92"
         id="stop2" />
      <stop
         stop-color="#0f7fcc"
         offset="1"
         id="stop3" />
    </linearGradient>
  </defs>
  <path
     d="m 71.451867,100.47725 c -0.059,-0.730004 -0.094,-1.200004 -0.094,-1.200004 0,0 -2.206,-14.889 -4.836,-19.334 -0.414,-0.707 0.043,-3.594 1.207,-7.880001 0.68,1.169 3.54,6.192001 4.118,7.810001 0.648,1.824 0.78,2.347 0.78,2.347 0,0 -1.57,-8.082 -4.144,-12.797001 a 162.28601,162.28601 0 0 1 2.004,-6.265 c 0.973,1.71 3.313,5.859 3.828,7.3 0.102,0.293 0.192,0.543 0.27,0.774 0.023,-0.137 0.05,-0.274 0.074,-0.414 -0.59,-2.504 -1.75,-6.86 -3.336,-10.082 3.52,-18.328001 15.531,-42.824002 27.840001,-53.754002 H 18.851865 c -5.387,0 -9.7890006,4.406 -9.7890006,9.789 v 88.570007 c 0,5.383 4.4060006,9.789 9.7900006,9.789 h 52.897002 a 118.657,118.657 0 0 1 -0.297,-14.652"
     fill="#0b7fcc"
     id="path3"
     style="display:inline" />
  <path
     d="m 67.728867,72.063245 c 0.68,1.168 3.54,6.188001 4.117,7.809001 0.649,1.824 0.781,2.347 0.781,2.347 0,0 -1.57,-8.082 -4.144,-12.797001 a 164.53501,164.53501 0 0 1 2.004,-6.27 c 0.887,1.567 2.922,5.169 3.652,6.872 l 0.082,-0.961 c -0.648,-2.496 -1.633,-5.766 -2.898,-8.328 3.242,-16.871001 13.68,-38.970001 24.926001,-50.8980019 H 18.850865 a 6.9400003,6.9400003 0 0 0 -6.934,6.9329999 v 82.110003 c 17.527,-6.731 38.664001,-12.88 56.855002,-12.614 -0.672,-2.605 -1.441,-4.96 -2.25,-6.324 -0.414,-0.707 0.043,-3.597 1.207,-7.879001"
     fill="url(#sqlite-original-a)"
     id="path4"
     style="display:inline;fill:url(#sqlite-original-a)" />
  <path
     d="m 117.90187,4.0822429 c -5.5,-4.90600019 -12.164,-2.9330001 -18.734002,2.8990001 a 44.347002,44.347002 0 0 0 -2.914,2.8590001 C 85.003867,21.766244 74.569867,43.863244 71.327867,60.735245 c 1.262,2.563 2.25,5.832 2.894,8.328 0.168,0.64 0.32,1.242 0.442,1.754 0.285,1.207 0.437,1.996 0.437,1.996 0,0 -0.101,-0.383 -0.515,-1.582 -0.078,-0.23 -0.168,-0.484 -0.27,-0.773 -0.043,-0.125 -0.105,-0.274 -0.172,-0.434 -0.734,-1.703 -2.765,-5.305 -3.656,-6.867 -0.762,2.25 -1.437,4.36 -2.004,6.265 2.578,4.715001 4.149,12.797001 4.149,12.797001 0,0 -0.137,-0.523 -0.782,-2.347 -0.578,-1.621 -3.441,-6.640001 -4.117,-7.809001 -1.164,4.281001 -1.625,7.172001 -1.207,7.880001 0.809,1.362 1.574,3.722 2.25,6.323 1.524,5.867 2.586,13.012 2.586,13.012 0,0 0.031,0.469 0.094,1.200004 a 118.653,118.653 0 0 0 0.297,14.651 c 0.504,6.11 1.453,11.363 2.664,14.172 l 0.828,-0.449 c -1.781,-5.535 -2.504,-12.793 -2.188,-21.156 0.48,-12.793004 3.422,-28.215004 8.856,-44.289005 9.191001,-24.270001 21.938003,-43.738002 33.602003,-53.035002 -10.633,9.602 -25.023002,40.684002 -29.332003,52.195002 -4.82,12.891001 -8.238,24.984001 -10.301,36.574001 3.55,-10.863 15.047001,-15.53 15.047001,-15.53 0,0 5.637,-6.958 12.227002,-16.888001 -3.950002,0.903 -10.430002,2.442 -12.598002,3.352 -3.200001,1.344 -4.067001,1.8 -4.067001,1.8 0,0 10.371001,-6.312 19.270003,-9.171 12.234,-19.270001 25.562,-46.648002 12.141,-58.6210021"
     fill="#003956"
     id="path5"
     style="display:inline" />
</svg>
