<?xml version="1.0" encoding="UTF-8" standalone="no"?>
<!-- Created with Inkscape (http://www.inkscape.org/) -->

<svg
   version="1.1"
   id="svg1"
   width="128"
   height="128"
   viewBox="0 0 237.03704 237.03704"
   xmlns="http://www.w3.org/2000/svg"
   xmlns:svg="http://www.w3.org/2000/svg">
  <defs
     id="defs1">
    <linearGradient
       id="swatch36">
      <stop
         style="stop-color:#000000;stop-opacity:1;"
         offset="0"
         id="stop36" />
    </linearGradient>
    <filter
       style="color-interpolation-filters:sRGB"
       id="filter31"
       x="-0.10045171"
       y="-0.24100922"
       width="1.2641334"
       height="1.634006">
      <feFlood
         result="flood"
         in="SourceGraphic"
         flood-opacity="0.498039"
         flood-color="rgb(0,0,0)"
         id="feFlood30" />
      <feGaussianBlur
         result="blur"
         in="SourceGraphic"
         stdDeviation="4.000000"
         id="feGaussianBlur30" />
      <feOffset
         result="offset"
         in="blur"
         dx="7.000000"
         dy="7.000000"
         id="feOffset30" />
      <feComposite
         result="comp1"
         operator="in"
         in="flood"
         in2="offset"
         id="feComposite30" />
      <feComposite
         result="comp2"
         operator="over"
         in="SourceGraphic"
         in2="comp1"
         id="feComposite31" />
    </filter>
    <filter
       style="color-interpolation-filters:sRGB"
       id="filter33"
       x="-0.072638262"
       y="-0.063094373"
       width="1.1932248"
       height="1.1679116">
      <feFlood
         result="flood"
         in="SourceGraphic"
         flood-opacity="0.498039"
         flood-color="rgb(0,0,0)"
         id="feFlood31" />
      <feGaussianBlur
         result="blur"
         in="SourceGraphic"
         stdDeviation="4.000000"
         id="feGaussianBlur31" />
      <feOffset
         result="offset"
         in="blur"
         dx="7.000000"
         dy="7.000000"
         id="feOffset31" />
      <feComposite
         result="comp1"
         operator="in"
         in="flood"
         in2="offset"
         id="feComposite32" />
      <feComposite
         result="comp2"
         operator="over"
         in="SourceGraphic"
         in2="comp1"
         id="feComposite33" />
    </filter>
  </defs>
  <g
     id="g1">
    <path
       id="path2"
       style="display:inline;fill:#ffb00d;fill-opacity:1;stroke:#000000;stroke-width:2;stroke-miterlimit:4.1;stroke-dasharray:none;stroke-opacity:1;filter:url(#filter33)"
       d="m 155.68741,79.959543 c -21.5076,-0.49009 -35.71738,0.741058 -49.80594,4.318384 -37.660283,9.562599 -38.179177,26.570493 -1.09653,35.922713 9.4073,2.37251 17.66425,3.66138 29.42467,4.59257 9.96075,0.78869 31.1948,0.32739 41.33228,-0.89819 41.78611,-5.05177 60.27396,-20.76218 38.38025,-32.613605 C 200.47263,84.000988 182.86611,80.578856 155.68741,79.959543 Z M 77.268466,111.89478 v 16.93791 c 0,13.0159 0.327661,17.44056 1.410652,19.11008 5.793691,8.93135 28.523742,15.9864 57.528422,17.85735 31.7763,2.04972 67.27122,-3.68178 80.4325,-12.98824 6.26735,-4.43169 6.47768,-5.21541 6.47768,-23.96029 v -16.91662 l -3.99197,3.48874 c -23.53486,20.5625 -115.02571,20.38734 -138.193101,-0.26473 z m 145.849254,41.03056 -3.59979,3.20983 c -10.6572,9.50013 -36.44092,15.37347 -67.82639,15.45352 -32.5912,0.083 -57.880662,-5.26062 -69.615543,-14.71134 l -4.807531,-3.87164 v 17.13881 17.13879 l 2.897395,3.21929 c 7.835681,8.71139 31.705879,15.20044 61.036519,16.59045 27.67624,1.3116 59.86225,-4.04011 73.70703,-12.25315 7.9786,-4.73308 8.20041,-5.40274 8.20441,-24.81593 z m -145.839494,39.82746 -0.0059,17.83844 -0.0039,17.83845 3.268112,3.48166 c 5.944905,6.33527 23.383402,12.19555 43.921392,14.76097 18.55193,2.3173 50.41468,1.10673 67.1513,-2.55273 7.64135,-1.67077 19.85093,-6.11254 24.27959,-8.83296 6.94851,-4.26826 7.22096,-5.18185 7.22496,-24.19192 l 0.004,-17.05845 -4.76656,3.84092 c -11.49295,9.25587 -36.21135,14.58141 -67.65663,14.57899 -23.84182,-0.002 -40.52654,-2.3423 -55.372454,-7.76695 -8.805239,-3.21742 -13.532224,-5.97591 -16.135673,-9.41441 z"
       transform="matrix(0.99949683,0,0,1.0751964,-52.814271,-72.708809)" />
    <path
       id="path1"
       style="display:inline;fill:#ffb00d;fill-opacity:1;stroke:#000000;stroke-width:3;stroke-linecap:butt;stroke-linejoin:bevel;stroke-miterlimit:0;stroke-dasharray:none;stroke-opacity:1;paint-order:stroke fill markers;filter:url(#filter31)"
       d="m 117.10585,169.65795 c -3.23846,-0.0198 -6.57837,1.40196 -8.70933,3.89151 -3.86611,4.51667 -3.40931,11.34114 1.02591,15.32878 2.0258,1.82137 3.23248,2.33043 7.59354,3.20324 4.72195,0.94505 8.18859,5.14314 8.17006,9.89476 -0.0224,5.74356 -4.28682,10.08909 -9.90043,10.08909 -3.15023,0 -5.52809,-1.07082 -7.96438,-3.58786 -1.46426,-1.51277 -2.10987,-1.91371 -2.75386,-1.70931 -2.08442,0.66156 -0.78101,3.72206 2.5652,6.0243 2.20499,1.51709 3.56862,2.07452 6.03967,2.47045 2.78231,0.44581 4.89381,0.10387 7.74658,-1.25506 3.38348,-1.61174 6.11715,-4.62518 7.02269,-7.7401 1.44696,-4.97737 0.0867,-10.45967 -3.43645,-13.84942 -1.68197,-1.6183 -5.56791,-3.64098 -7.00811,-3.64778 -1.7891,-0.008 -5.02327,-1.27303 -6.08179,-2.37815 -2.13024,-2.22401 -2.93765,-5.65219 -1.94899,-8.27451 0.242,-0.64189 1.03488,-1.79532 1.76194,-2.56357 3.37286,-3.56386 8.21025,-3.43965 11.58221,0.29717 1.65841,1.83785 2.93576,2.18592 3.583,0.97652 0.90916,-1.69876 -2.53894,-5.44222 -6.13118,-6.65588 -1.00835,-0.34069 -2.0768,-0.50758 -3.15628,-0.51418 z m 39.80413,0.0381 c -6.47711,0 -11.5562,2.1298 -16.20246,6.79435 -9.01784,9.05329 -9.01004,22.89119 0.0186,32.01464 3.89502,3.93592 8.24401,6.12998 13.48586,6.80407 1.25582,0.16145 2.84308,0.2337 3.52713,0.16032 5.85274,-0.62786 8.12225,-1.36909 11.88262,-3.88017 l 2.34738,-1.56762 2.61538,2.63888 c 1.9554,1.97293 2.90412,2.63887 3.75953,2.63887 0.88555,0 1.20581,-0.2427 1.41458,-1.0745 0.23258,-0.92667 -0.11644,-1.46378 -2.53199,-3.89798 l -2.80163,-2.82268 1.04211,-1.38866 c 5.03375,-6.70424 5.8131,-16.35078 1.94089,-24.03245 -1.71608,-3.40435 -6.77163,-8.50939 -9.92633,-10.0235 -3.3179,-1.59244 -6.76633,-2.36357 -10.57169,-2.36357 z m 29.73934,0.009 c -0.16106,0.003 -0.33924,0.0274 -0.53522,0.0551 l -1.01296,0.14332 -0.1085,22.38709 c -0.10006,20.67828 -0.0543,22.42665 0.59757,22.90532 0.52968,0.38892 3.99619,0.51822 13.89315,0.51822 12.68422,0 13.21927,-0.0322 14.02594,-0.83887 0.66611,-0.66611 0.74841,-1.00729 0.4,-1.65831 -0.42223,-0.78893 -0.91199,-0.81943 -13.06886,-0.81943 h -12.62998 v -20.64944 c 0,-20.1407 -0.004,-22.07659 -1.56114,-22.04296 z m -30.85513,3.37571 c 4.79126,-0.20955 8.20868,0.61832 11.59922,2.80973 8.66526,5.60063 11.66425,16.4962 7.0243,25.5207 -2.14326,4.16857 -1.89072,4.13453 -5.4073,0.7247 -3.1262,-3.03131 -3.85514,-3.41531 -4.76276,-2.5077 -1.02366,1.02366 -0.45563,2.21969 2.43563,5.13038 l 2.9328,2.95304 -2.0332,1.30446 c -1.11839,0.71767 -3.04448,1.65018 -4.28017,2.07207 -11.5971,3.95946 -23.89804,-3.50864 -25.77738,-15.65024 -1.31262,-8.48024 3.22381,-16.88878 11.13929,-20.64782 2.86493,-1.36055 3.69378,-1.55905 7.12957,-1.70932 z" />
  </g>
</svg>
