<?xml version="1.0" encoding="UTF-8" standalone="no"?>
<!-- Created with Inkscape (http://www.inkscape.org/) -->

<svg
   version="1.1"
   id="svg1"
   width="128"
   height="128"
   viewBox="0 0 581.81818 581.81818"
   sodipodi:docname="teams-icon.svg"
   inkscape:version="1.4.2 (f4327f4, 2025-05-13)"
   xmlns:inkscape="http://www.inkscape.org/namespaces/inkscape"
   xmlns:sodipodi="http://sodipodi.sourceforge.net/DTD/sodipodi-0.dtd"
   xmlns="http://www.w3.org/2000/svg"
   xmlns:svg="http://www.w3.org/2000/svg">
  <sodipodi:namedview
     id="namedview1"
     pagecolor="#ffffff"
     bordercolor="#000000"
     borderopacity="0.25"
     inkscape:showpageshadow="2"
     inkscape:pageopacity="0.0"
     inkscape:pagecheckerboard="0"
     inkscape:deskcolor="#d1d1d1"
     inkscape:zoom="5.6549296"
     inkscape:cx="45.447073"
     inkscape:cy="67.109589"
     inkscape:window-width="1920"
     inkscape:window-height="1017"
     inkscape:window-x="-8"
     inkscape:window-y="-8"
     inkscape:window-maximized="1"
     inkscape:current-layer="svg1" />
  <defs
     id="defs1">
    <filter
       style="color-interpolation-filters:sRGB"
       id="filter36"
       x="-0.034990541"
       y="-0.035410317"
       width="1.095495"
       height="1.0966407">
      <feFlood
         result="flood"
         in="SourceGraphic"
         flood-opacity="0.498039"
         flood-color="rgb(0,0,0)"
         id="feFlood35" />
      <feGaussianBlur
         result="blur"
         in="SourceGraphic"
         stdDeviation="4.000000"
         id="feGaussianBlur35" />
      <feOffset
         result="offset"
         in="blur"
         dx="7.000000"
         dy="7.000000"
         id="feOffset35" />
      <feComposite
         result="comp1"
         operator="in"
         in="flood"
         in2="offset"
         id="feComposite35" />
      <feComposite
         result="comp2"
         operator="over"
         in="SourceGraphic"
         in2="comp1"
         id="feComposite36" />
    </filter>
    <filter
       style="color-interpolation-filters:sRGB"
       id="filter39"
       x="-0.023202654"
       y="-0.020332925"
       width="1.0633239"
       height="1.0554919">
      <feFlood
         result="flood"
         in="SourceGraphic"
         flood-opacity="0.498039"
         flood-color="rgb(0,0,0)"
         id="feFlood38" />
      <feGaussianBlur
         result="blur"
         in="SourceGraphic"
         stdDeviation="4.000000"
         id="feGaussianBlur38" />
      <feOffset
         result="offset"
         in="blur"
         dx="7.000000"
         dy="7.000000"
         id="feOffset38" />
      <feComposite
         result="comp1"
         operator="in"
         in="flood"
         in2="offset"
         id="feComposite38" />
      <feComposite
         result="comp2"
         operator="over"
         in="SourceGraphic"
         in2="comp1"
         id="feComposite39" />
    </filter>
    <filter
       style="color-interpolation-filters:sRGB"
       id="filter41"
       x="-0.0082085878"
       y="-0.074154034"
       width="1.0224026"
       height="1.2023787">
      <feFlood
         result="flood"
         in="SourceGraphic"
         flood-opacity="0.498039"
         flood-color="rgb(0,0,0)"
         id="feFlood39" />
      <feGaussianBlur
         result="blur"
         in="SourceGraphic"
         stdDeviation="4.000000"
         id="feGaussianBlur39" />
      <feOffset
         result="offset"
         in="blur"
         dx="7.000000"
         dy="7.000000"
         id="feOffset39" />
      <feComposite
         result="comp1"
         operator="in"
         in="flood"
         in2="offset"
         id="feComposite40" />
      <feComposite
         result="comp2"
         operator="over"
         in="SourceGraphic"
         in2="comp1"
         id="feComposite41" />
    </filter>
    <filter
       style="color-interpolation-filters:sRGB"
       id="filter43"
       x="-0.070383545"
       y="-0.027004919"
       width="1.1920884"
       height="1.0737009">
      <feFlood
         result="flood"
         in="SourceGraphic"
         flood-opacity="0.498039"
         flood-color="rgb(0,0,0)"
         id="feFlood41" />
      <feGaussianBlur
         result="blur"
         in="SourceGraphic"
         stdDeviation="4.000000"
         id="feGaussianBlur41" />
      <feOffset
         result="offset"
         in="blur"
         dx="7.000000"
         dy="7.000000"
         id="feOffset41" />
      <feComposite
         result="comp1"
         operator="in"
         in="flood"
         in2="offset"
         id="feComposite42" />
      <feComposite
         result="comp2"
         operator="over"
         in="SourceGraphic"
         in2="comp1"
         id="feComposite43" />
    </filter>
  </defs>
  <g
     id="g1"
     transform="translate(0.80380392,35.367372)">
    <path
       id="path8"
       style="display:inline;fill:#4b54bd;fill-opacity:1;filter:url(#filter43)"
       d="m 474.26172,62.695312 c -11.42127,0 -13.11467,0.247416 -19.61914,2.857422 -14.46893,5.805845 -25.85154,17.381941 -31.11328,31.642578 -2.39967,6.503688 -2.75772,8.894828 -2.69532,17.999998 0.0625,9.12316 0.44429,11.41789 2.91016,17.5 3.4464,8.50058 7.92891,14.88836 14.76563,21.03516 6.0323,5.42355 10.65741,7.95559 20.25195,11.08984 19.09289,6.23707 41.88047,-0.15974 55.90234,-15.69336 17.60728,-19.5056 17.43483,-49.759307 -0.39258,-69.236325 -6.57615,-7.184659 -11.70782,-10.767776 -20.60742,-14.386719 -6.29027,-2.557882 -8.01079,-2.808592 -19.40234,-2.808594 z m 11.78125,134.541018 -54.28125,0.0391 3.94336,1.96875 c 5.16622,2.57744 8.30819,5.58709 10.70117,10.25391 1.88367,3.67434 1.94756,6.34548 1.88086,79.33593 -0.043,47.09596 -0.46689,78.41865 -1.125,83.19727 -1.32007,9.58528 -8.18517,31.71472 -11.0918,35.75195 -1.36145,1.89103 10.86752,6.92929 21.69141,8.93555 24.86268,4.60841 50.4167,-1.75591 70.01953,-17.4375 13.71347,-10.9703 24.24502,-28.27179 28.05469,-46.08594 1.10794,-5.18079 1.39072,-19.99659 1.38672,-73 -0.005,-74.29196 0.27218,-71.25233 -7.06836,-77.4414 -6.73925,-5.68211 -5.32614,-5.56068 -64.11133,-5.51758 z" />
    <path
       id="path9"
       style="display:inline;fill:#7b82ea;fill-opacity:1;filter:url(#filter39)"
       d="m 146.25391,13.087891 c -1.16891,0.01576 -1.18337,0.03132 0,0.04687 z m 130.35547,0.953125 c 10.94227,0.157865 16.8625,0.316265 16.15234,0.458984 -14.44589,2.903155 -18.28869,4.04153 -25.4043,7.529297 -9.4356,4.624919 -12.34311,6.701411 -20.54101,14.666015 -7.39088,7.180555 -14.9099,18.117278 -17.18555,25 -0.90925,2.750001 -2.01415,5.466296 -2.45508,6.035157 -1.40396,1.811273 -2.89825,13.658326 -2.90625,23.03125 -0.008,9.876511 1.27032,18.814931 3.53125,24.683591 l 1.44531,3.75 -95.20507,22.25 c -91.584357,21.40382 -79.586785,2.3009 -84.806645,4.25391 -6.231725,2.33159 -7.299291,-6.53514 -10.142578,-0.25391 -2.012069,4.44495 -2.537109,-4.31876 -2.537109,111.25 0,51.22771 -0.616178,70.9211 -1.111329,77.6211 2.294781,5.3958 -0.719988,24.93898 4.81836,27.52734 4.424431,2.06776 -5.049284,19.10704 65.250001,19.36133 39.325,0.14225 72.47726,3.93347 73.06055,4.14648 0.58329,0.213 1.89814,7.59483 2.61523,9.98828 1.50927,5.03748 9.77699,21.8376 11.48633,23.33985 0.63679,0.55965 3.39206,4.38395 6.12305,8.5 2.63417,3.97016 6.49437,8.62386 10.91406,13.30859 3.25165,3.69128 6.35171,6.88025 8.79687,8.94336 3.25156,2.74352 6.36211,5.5003 6.91211,6.125 1.60132,1.81878 6.15244,4.79993 11.78125,8.02148 9.58963,5.83936 24.80616,13.61719 26.93945,13.61719 0.51142,0 4.18573,1.10259 8.16602,2.44922 0.29197,0.0988 0.60326,0.19969 0.93164,0.30078 0.0699,0.023 0.13062,0.0415 0.18164,0.0566 0.0452,0.0134 0.0962,0.0272 0.15235,0.043 4.17545,1.25025 10.81193,2.61445 15.58007,3.17188 5.2849,0.61785 11.18438,1.42775 13.10938,1.80078 0.34061,0.066 -1.3725,0.13723 -4.86524,0.21094 h 30.51758 c -4.28045,-0.0368 -6.38065,-0.0741 -6.15234,-0.11133 2.75,-0.44874 9.95,-1.55328 16,-2.45508 6.05,-0.90179 11.45,-1.98537 12,-2.4082 0.55,-0.42283 3.19323,-1.30474 5.87305,-1.95899 9.44279,-2.30536 37.58393,-17.32635 42.12695,-22.48633 0.55,-0.6247 3.66055,-3.38148 6.91211,-6.125 5.76177,-4.8615 15.159,-15.97482 21.60937,-25.17773 1.93344,-2.48667 3.10006,-4.09583 4.22461,-6.07813 2.62851,-4.63336 2.97739,-5.05605 4.80274,-8.99218 l 7.20898,2.96875 c 1.92667,0.79355 3.95668,1.48382 6.05859,2.09179 v -0.13867 c -7.12066,-2.18419 -12.91655,-4.94493 -12.5996,-6.37304 0.0302,-0.0662 0.0608,-0.13334 0.0918,-0.20118 1.94458,-2.70097 5.17212,-12.81828 7.81446,-22.54101 1.49805,-5.02311 2.81822,-9.87719 3.27734,-13.21094 0.57045,-4.14225 0.96492,-28.22755 1.08789,-65.24219 0.0189,-5.68805 0.0314,-11.68186 0.0371,-17.95508 0.001,-1.43932 -0.0383,-0.17926 -0.0371,-1.56445 v -50.25391 c -0.13605,-23.04151 -0.581,-25.05466 -1.84375,-27.51757 -2.39296,-4.66669 -5.53504,-7.67651 -10.70117,-10.25391 l -3.87696,-1.93555 -0.0351,-0.0176 c -0.23493,-0.0142 -0.47311,-0.0262 -0.71485,-0.0371 h -0.002 c -2.38846,-0.10782 -5.08044,-0.0643 -7.52539,-0.0645 -1.3254,-8e-5 -2.64713,3.2e-4 -3.96484,0 -35.18208,-0.22677 -69.28619,-0.6902 -104.14063,-0.68945 -3.7,0.0495 -8.46313,0.0953 -14.12109,0.13867 -1.18964,-0.031 -1.9716,-0.0615 -2.3125,-0.0937 L 298.53711,196.5 H 221.125 v 0.42383 l -37.5,156.45117 -8.26758,1 H 165.25 l -15.75,1.07031 -1.73828,-12.25 -35.5,-14.5 2.25,-65.25 13.5,-47 -12.5,-2.5 -27.250001,-2 -7.25,-24 4,-17.25 69.250001,-5.75 44.23828,-1.5 20,-4.32031 76.29297,8.25 6.96289,-0.043 c 5.22135,-0.0319 10.28385,-0.4606 11.25,-0.95312 0.96615,-0.49251 4.54609,-1.42884 7.95703,-2.08008 11.96529,-2.28449 27.12651,-10.76341 36.82031,-20.5918 5.91325,-5.99534 13.60038,-17.35611 15.57227,-23.01172 0.76706,-2.2 1.69354,-4.22562 2.05859,-4.50195 0.36505,-0.27632 1.38048,-3.96904 2.25586,-8.20703 1.82287,-8.825083 2.05874,-23.323678 0.53125,-32.738283 -2.91549,-17.969439 -16.46307,-37.73488 -33.20312,-48.443359 -5.83843,-3.734799 -16.73633,-8.899893 -16.73633,-7.931641 0,0.312079 -0.59184,0.07823 -1.31445,-0.521485 -0.72262,-0.599716 -5.56012,-1.821652 -10.75,-2.714843 -3.43283,-0.590796 -6.53375,-1.191805 -8.30665,-1.595703 z M 431.79297,197.29102 c 0.003,1.8e-4 0.007,-1.9e-4 0.01,0 l 0.0176,-0.0156 h -0.0586 z m 0.0273,-0.0156 h 0.008 v -0.006 z M 35.443359,334.31641 c -0.01739,-0.0409 -0.03473,-0.0819 -0.05273,-0.1211 -0.943232,-2.05619 -0.528594,7.98719 0.05273,0.1211 z M 448.57812,68.259766 c -13.54748,7.303166 -22.67355,19.047521 -26.30859,32.671874 0.34628,-1.141218 0.73549,-2.315398 1.25977,-3.736328 4.50218,-12.202055 13.48511,-22.439178 25.04882,-28.777343 z m -27.05664,35.814454 c -1.1497,5.73479 -1.43138,11.73066 -0.52734,17.88672 0.0245,0.16679 0.0503,0.33385 0.0762,0.5 -0.15875,-1.92209 -0.2154,-4.21101 -0.23633,-7.26563 -0.0359,-5.24513 0.1272,-8.26234 0.6875,-11.12109 z m 1.66016,27.20508 c 3.96595,12.04579 12.0088,21.78768 23.13281,28.26172 -2.69353,-1.57434 -5.11842,-3.39537 -7.80468,-5.81055 -6.83672,-6.1468 -11.31923,-12.53458 -14.76563,-21.03516 -0.20075,-0.49514 -0.38843,-0.96534 -0.5625,-1.41601 z m 24.75781,29.15234 c 0.21281,0.1148 0.42439,0.23261 0.63867,0.3457 v -0.0117 c -0.21568,-0.10933 -0.42717,-0.22256 -0.63867,-0.33398 z" />
    <path
       id="path4"
       style="display:inline;fill:#4b54bd;fill-opacity:1;filter:url(#filter36)"
       d="m 226.68164,118.78711 c -10.03063,0.23413 -48.12304,0.4082 -93.23828,0.4082 -106.134339,0 -102.223627,-0.23084 -109.476563,6.47266 -2.086805,1.92872 -4.662947,5.42431 -5.726563,7.76758 -1.875881,4.1328 -1.935282,7.73667 -1.951172,120.25976 -0.01056,74.79984 0.341367,117.28705 0.990235,119.62305 0.553448,1.99246 2.8028,5.66427 4.998047,8.1582 7.064381,8.02557 3.709044,7.71698 84.412106,7.73438 36.44264,0.008 67.13706,0.30078 71.61524,0.66797 h 67.17773 v 0.0156 c 0.51502,-0.004 1.02221,-0.009 1.52149,-0.0156 h 0.98632 v -0.0137 c 7.37093,-0.11572 12.99357,-0.45332 17.38282,-0.68359 2.4371,-0.12788 4.48747,-0.28595 6.22851,-0.48242 3.48105,-0.39282 5.73151,-0.93814 7.39258,-1.69336 0.4153,-0.1889 0.79485,-0.39126 1.14648,-0.60742 0.35168,-0.21616 0.67627,-0.44615 0.98438,-0.69141 0.30811,-0.24526 0.60015,-0.507 0.88477,-0.7832 0.28461,-0.2762 0.56256,-0.56801 0.84375,-0.87695 0.56237,-0.61798 1.13755,-1.3024 1.80664,-2.0625 1.0976,-1.24697 2.2093,-2.78883 3.11523,-4.26758 0.67945,-1.10907 1.24334,-2.18245 1.59961,-3.07032 0.11876,-0.29595 0.21403,-0.57125 0.2832,-0.82031 0.6489,-2.336 1.00124,-44.82319 0.99024,-119.62305 -0.0159,-112.52307 -0.0753,-116.12696 -1.95117,-120.25976 -1.0636,-2.34327 -3.63977,-5.83886 -5.72657,-7.76758 -0.92615,-0.85599 -1.67,-1.59749 -2.48437,-2.24219 -0.2713,-0.21482 -0.54947,-0.4197 -0.84571,-0.61328 -0.50157,-0.32779 -1.07169,-0.61948 -1.71679,-0.89062 -0.11671,-0.0491 -0.21669,-0.10307 -0.33985,-0.15039 h -0.002 c -0.0997,-0.0383 -0.22392,-0.0703 -0.32812,-0.10742 -0.73619,-0.26239 -2.96632,-1.39207 -3.98633,-1.60157 -4.36166,-0.89581 -9.62141,-1.75753 -25.27735,-1.72461 v -0.0586 h -2.42382 -0.0195 z m -132.312499,58.39258 59.695309,0.25781 59.69727,0.25781 0.18555,10.83789 c 0.10205,5.95989 -0.059,11.47239 -0.35743,12.25 -0.4447,1.15886 -4.49061,1.41211 -22.43554,1.41211 h -21.89258 v 62.5 62.5 h -15 -15 v -62.48047 -62.48046 l -22.25,-0.26954 -22.250001,-0.26953 -0.197266,-12.25781 z" />
  </g>
</svg>
