<?xml version="1.0" encoding="UTF-8" standalone="no"?>
<svg
   viewBox="0 0 32.820513 32.820513"
   width="128"
   height="128"
   version="1.1"
   id="svg6"
   sodipodi:docname="tomcat-icon.svg"
   inkscape:version="1.4.2 (f4327f4, 2025-05-13)"
   xmlns:inkscape="http://www.inkscape.org/namespaces/inkscape"
   xmlns:sodipodi="http://sodipodi.sourceforge.net/DTD/sodipodi-0.dtd"
   xmlns="http://www.w3.org/2000/svg"
   xmlns:svg="http://www.w3.org/2000/svg">
  <defs
     id="defs6" />
  <sodipodi:namedview
     id="namedview6"
     pagecolor="#ffffff"
     bordercolor="#000000"
     borderopacity="0.25"
     inkscape:showpageshadow="2"
     inkscape:pageopacity="0.0"
     inkscape:pagecheckerboard="0"
     inkscape:deskcolor="#d1d1d1"
     inkscape:zoom="6.2734375"
     inkscape:cx="68.702366"
     inkscape:cy="63.521793"
     inkscape:window-width="1920"
     inkscape:window-height="1017"
     inkscape:window-x="-8"
     inkscape:window-y="-8"
     inkscape:window-maximized="1"
     inkscape:current-layer="svg6" />
  <path
     d="m 5.8918513,19.866106 a 20.88,20.88 0 0 0 1.215,1.366 c -1.296,0.392 -2.15,1.115 -2.682,1.758 -0.844,1.014 -1.286,2.35 -1.185,3.495 h -2.229 c 0.452,-0.974 2.24,-3.787 4.882,-6.62 z m 25.8639997,7.222 h -2.712 c -6.228,-3.254 -11.702,-5.545 -17.507,-6.047 0.01,-0.804 0.16,-1.728 0.432,-2.742 l -0.532,-0.14 c -0.28,1.045 -0.432,2 -0.452,2.843 a 27.53,27.53 0 0 0 -1.8279997,-0.06 7.75,7.75 0 0 0 -1.426,0.131 20.01,20.01 0 0 1 -1.456,-1.617 c 2.672,-2.782 7.0999997,-5.302999 10.9279997,-6.257999 1.085,3.595999 3.405,6.056999 6.217,7.713999 a 12.41,12.41 0 0 0 0.613,-0.372 l 4.912,5.293 0.2,-0.02 c 1.346,-0.12 2.1,0.613 2.3,0.844 0.16,0.16 0.24,0.3 0.3,0.432 z"
     fill="#d1a41b"
     id="path1"
     style="display:inline" />
  <path
     d="m 29.365851,9.3901065 c 0.1,4.8820005 -2.4,8.7699995 -5.876,10.7679995 -5.916,-2.953 -7.03,-10.4259995 -6.027,-14.4339994 0.28,1.5369999 0.794,2.4999999 1.898,2.9629999 2.4,-0.683 5.715,-0.743 8.146,-0.07 1.014,-0.743 1.406,-1.8679999 1.627,-2.8529999 0.26,1.145 0.22,3.6259999 0.23,3.6259999 z"
     fill="#ffdc76"
     id="path2"
     style="display:inline" />
  <g
     fill="#010202"
     id="g5"
     style="display:inline"
     transform="translate(0.36785133,0.28610659)">
    <path
       d="m 14.102,13.725 0.904,2.682 -2.742,-1.848 z m -2.642,1.175 0.964,1.667 -2.04,-1.035 z m -2.2,1.306 0.462,1.667 -1.406,-0.964 z m 14.956,4.48 -0.874,1.336 1.537,-0.703 z m 1.366,1.537 -1.396,1.075 1.94,-0.502 z m -3.414,-14.515 1.035,2.27 0.673,-2.3 z m -5.253,3.305 1.637,0.874 -1.477,0.1 z m 0.402,1.778 1.004,0.402 -0.844,0.23 z m 11.712,-1.135 -1.346,0.562 1.105,0.17 z m -0.542,1.637 -1.035,0.3 0.834,0.3 z m -12.115,2.5 h 3.234 v 0.402 h -3.234 z m 0,-0.954 h 3.234 v 0.402 h -3.234 z m 9.864,0.954 h 3.234 v 0.402 h -3.234 z m 0,-0.954 h 3.234 v 0.402 h -3.234 z m -1.145,-2.37 h -5.263 v -0.362 h 1.637 c 0.2,-0.864 0.24,-1.687 0,-2.1 -0.1,-0.18 -0.25,-0.26 -0.452,-0.26 -0.934,0 -1.326,0.994 -1.336,1.035 l -0.33,-0.13 c 0.02,-0.05 0.492,-1.266 1.677,-1.266 a 0.84,0.84 0 0 1 0.763,0.442 c 0.3,0.512 0.26,1.386 0.06,2.3 h 2.873 c 0.382,-1.125 1.175,-1.647 2.5,-1.647 v 0.362 c -1.446,0 -1.848,0.613 -2.14,1.296 h 1.567 v 0.362 z"
       id="path3"
       style="display:inline" />
    <path
       d="M 25.332,14.257 C 24.91,13.624 24.77,13.092 24.95,12.479 h -0.362 c -0.13,0.402 -0.08,1.014 0.24,1.547 h -3.656 a 8.5,8.5 0 0 0 0.583,-1.547 h -0.372 c -0.17,0.593 -0.402,1.175 -0.663,1.637 l -0.08,0.15 2.05,1.286 -1.155,0.763 0.2,0.3 1.286,-0.854 1.396,0.904 0.2,-0.3 -1.286,-0.794 a 122.79,122.79 0 0 1 2.009,-1.316 z m -2.32,1.085 -1.517,-0.954 h 2.963 z M 29.6,8.672 c 0,-0.623 -0.2,-3.264 -0.552,-3.988 -0.964,0.372 -2.732,1.557 -3.134,2.782 a 19.82,19.82 0 0 0 -5.956,0.07 C 19.658,6.22 18.06,5.216 16.864,4.653 16.362,5.507 16.141,7.475 16.191,8.873 h -0.01 c 0.22,5.866 3.104,9.522 6.87,11.742 3.877,-2.2 6.65,-6.53 6.55,-11.943 z M 26.376,7.537 c 0.01,0 0.03,0.01 0.04,0.01 -0.02,0 -0.03,-0.01 -0.04,-0.01 z m -0.24,-0.04 c 0.03,0.01 0.07,0.01 0.1,0.02 -0.04,-0.01 -0.07,-0.02 -0.1,-0.02 z M 29,9.094 c 0.1,4.882 -2.4,8.77 -5.876,10.768 -5.916,-2.953 -7.04,-10.426 -6.027,-14.434 0.28,1.537 0.794,2.5 1.898,2.963 2.4,-0.683 5.715,-0.743 8.146,-0.07 1.014,-0.743 1.406,-1.868 1.627,-2.853 0.26,1.145 0.22,3.626 0.23,3.626 z"
       id="path4"
       style="display:inline" />
    <path
       d="m 31.52,26 c -0.613,-0.683 -1.798,-1.004 -2.792,-0.974 -0.703,-0.844 -4.8,-5.153 -4.8,-5.153 l -0.28,0.362 4.952,5.315 0.2,-0.02 c 1.346,-0.1 2.1,0.613 2.3,0.844 a 1.34,1.34 0 0 1 0.281,0.432 H 28.67 c -6.228,-3.254 -11.702,-5.545 -17.507,-6.047 0.01,-0.814 0.16,-1.728 0.432,-2.742 l -0.532,-0.14 c -0.28,1.045 -0.432,2 -0.452,2.843 A 27.55,27.55 0 0 0 8.783,20.66 7.75,7.75 0 0 0 7.357,20.791 20.12,20.12 0 0 1 5.9,19.173 c 2.702,-2.812 7.152,-5.354 11.02,-6.288 L 16.8,12.343 C 12.642,13.347 8.092,16.08 5.55,18.711 4.375,17.124 3.903,15.818 3.772,14.834 c -0.17,-1.246 0.12,-2.4 0.864,-3.315 1.155,-1.436 2.802,-1.537 4.5,-1.256 -0.03,0.27 0,0.522 0.1,0.683 0.442,0.663 2.853,0.894 4.28,0.25 C 12.461,9.709 10.312,8.996 9.719,9.278 9.519,9.378 9.377,9.548 9.277,9.76 8.694,9.66 8.112,9.58 7.69,9.58 6.203,9.59 5.058,10.112 4.205,11.167 c -0.834,1.045 -1.175,2.33 -0.974,3.737 0.2,1.326 0.844,2.742 1.95,4.2 L 4.649,19.687 C 1.96,22.694 0,25.92 0,26.46 v 0.28 h 3.546 l -0.06,-0.33 c -0.2,-1.055 0.2,-2.38 1.014,-3.365 0.512,-0.623 1.366,-1.326 2.702,-1.657 1.185,1.165 2.702,2.4 4.4,3.586 h 2.632 v -0.28 c 0,-0.3 -0.15,-0.583 -0.432,-0.773 -0.412,-0.27 -1.055,-0.3 -1.647,-0.1 -0.562,-0.623 -0.874,-1.466 -0.944,-2.5 5.715,0.502 11.2,2.812 17.357,6.037 h 3.395 l 0.04,-0.22 c 0.05,-0.3 -0.12,-0.743 -0.472,-1.135 z M 4.06,22.685 C 3.226,23.699 2.774,25.035 2.875,26.18 H 0.643 c 0.452,-0.974 2.24,-3.777 4.882,-6.62 0.362,0.452 0.773,0.904 1.215,1.366 a 5.52,5.52 0 0 0 -2.682,1.758 z"
       id="path5"
       style="display:inline" />
  </g>
</svg>
