<?xml version="1.0" encoding="UTF-8" standalone="no"?>
<svg
   viewBox="0 0 32.323232 32.323232"
   width="128"
   height="128"
   fill="#00749a"
   version="1.1"
   id="svg1"
   sodipodi:docname="wordpress-icon.svg"
   inkscape:version="1.4.2 (f4327f4, 2025-05-13)"
   xmlns:inkscape="http://www.inkscape.org/namespaces/inkscape"
   xmlns:sodipodi="http://sodipodi.sourceforge.net/DTD/sodipodi-0.dtd"
   xmlns="http://www.w3.org/2000/svg"
   xmlns:svg="http://www.w3.org/2000/svg">
  <defs
     id="defs1" />
  <sodipodi:namedview
     id="namedview1"
     pagecolor="#ffffff"
     bordercolor="#000000"
     borderopacity="0.25"
     inkscape:showpageshadow="2"
     inkscape:pageopacity="0.0"
     inkscape:pagecheckerboard="0"
     inkscape:deskcolor="#d1d1d1"
     inkscape:zoom="4.4359902"
     inkscape:cx="43.507761"
     inkscape:cy="53.764772"
     inkscape:window-width="1920"
     inkscape:window-height="1017"
     inkscape:window-x="-8"
     inkscape:window-y="-8"
     inkscape:window-maximized="1"
     inkscape:current-layer="svg1" />
  <path
     d="m 2.4307794,16.17078 c 0,5.45 3.1300001,10.145 7.7000006,12.348 l -6.4820006,-17.913 c -0.753,1.739 -1.218,3.595 -1.218,5.565 z m 23.0150006,-0.696 c 0,-1.68 -0.638,-2.9 -1.16,-3.768 -0.696,-1.16 -1.333,-2.0870005 -1.333,-3.2460005 0,-1.275 0.986,-2.435 2.32,-2.435 h 0.174 c -2.436,-2.2610001 -5.682,-3.5950001 -9.276,-3.5950001 A 13.95,13.95 0 0 0 4.6927794,8.6337795 h 0.8700001 c 1.45,0 3.652,-0.174 3.652,-0.174 0.754,-0.058 0.8120005,1.043 0.116,1.16 0,0 -0.754,0.116 -1.565,0.116 L 12.75178,24.57578 l 3.014,-8.986 -2.145,-5.8550005 -1.45,-0.114 c -0.754,-0.058 -0.638,-1.16 0.058,-1.16 0,0 2.26,0.174 3.594,0.174 1.45,0 3.652,-0.174 3.652,-0.174 0.754,-0.058 0.812,1.043 0.116,1.16 0,0 -0.754,0.116 -1.565,0.116 l 4.985,14.7840005 1.4,-4.58 c 0.58,-1.913 1.043,-3.246 1.043,-4.464 z m -9.043,1.913 -4.116,11.943 c 1.217,0.348 2.55,0.58 3.884,0.58 1.623,0 3.13,-0.3 4.58,-0.754 -0.058,-0.058 -0.058,-0.116 -0.116,-0.174 z m 11.826,-7.7670005 0.116,1.4000005 c 0,1.4 -0.232,2.957 -1.043,4.928 l -4.174,12.116 c 4.058,-2.377 6.84,-6.783 6.84,-11.884 -0.058,-2.377 -0.696,-4.58 -1.74,-6.5500005 z m -12.058,-9.4500001 c -8.8120005,0 -16.0000006,7.1880001 -16.0000006,16.0000006 0,8.812 7.1880001,16 16.0000006,16 8.812,0 16,-7.188 16,-16 0,-8.8120005 -7.188,-16.0000006 -16,-16.0000006 z m 0,31.3040006 c -8.4060005,0 -15.24600059,-6.84 -15.24600059,-15.304 A 15.27,15.27 0 0 1 16.17078,0.92477941 15.27,15.27 0 0 1 31.41678,16.17078 c 0,8.464 -6.84,15.304 -15.246,15.304 z"
     id="path1" />
</svg>
