<?xml version="1.0" encoding="UTF-8" standalone="no"?>
<svg
   viewBox="0 0 128 128"
   version="1.1"
   id="svg3"
   sodipodi:docname="yaml-icon.svg"
   inkscape:version="1.4.2 (f4327f4, 2025-05-13)"
   xmlns:inkscape="http://www.inkscape.org/namespaces/inkscape"
   xmlns:sodipodi="http://sodipodi.sourceforge.net/DTD/sodipodi-0.dtd"
   xmlns="http://www.w3.org/2000/svg"
   xmlns:svg="http://www.w3.org/2000/svg">
  <defs
     id="defs3" />
  <sodipodi:namedview
     id="namedview3"
     pagecolor="#ffffff"
     bordercolor="#000000"
     borderopacity="0.25"
     inkscape:showpageshadow="2"
     inkscape:pageopacity="0.0"
     inkscape:pagecheckerboard="0"
     inkscape:deskcolor="#d1d1d1"
     inkscape:zoom="6.2734375"
     inkscape:cx="63.920299"
     inkscape:cy="64"
     inkscape:window-width="1920"
     inkscape:window-height="1017"
     inkscape:window-x="-8"
     inkscape:window-y="-8"
     inkscape:window-maximized="1"
     inkscape:current-layer="svg3" />
  <polygon
     transform="matrix(0.24805,0,0,0.24805,0.5,5.6287)"
     points="63.25,0 119.02,88.646 175.24,0 235.79,0 143.98,137.67 143.98,224.95 87.702,224.95 87.702,137.67 0,0 "
     id="polygon1"
     style="display:inline" />
  <path
     d="M 82.428,49.149 H 57.162 L 52.0232,61.557 H 40.8352 L 64.4942,5.759 h 11.444 l 22.699,55.798 H 86.6812 L 82.4287,49.149 Z M 78.231,38.009 70.4855,17.533 61.8443,38.009 Z"
     fill="#cb171e"
     id="path1"
     style="display:inline" />
  <polygon
     transform="matrix(0.24805,0,0,0.24805,0.5,5.6287)"
     points="135,470.65 135,318.57 184.51,420.79 221.74,420.79 272.94,314.98 272.94,470.6 318.32,470.6 318.32,250.18 256.36,250.18 201.38,349.88 149.02,250.18 87.701,250.18 87.701,470.65 "
     id="polygon2"
     style="display:inline" />
  <polygon
     transform="matrix(0.24805,0,0,0.24805,0.5,5.6287)"
     points="395.64,422.74 395.64,250.12 347.44,250.12 347.44,469.65 512,469.65 512,422.74 "
     id="polygon3"
     style="display:inline" />
</svg>
