<?xml version="1.0" encoding="UTF-8" standalone="no"?>
<!-- Created with Inkscape (http://www.inkscape.org/) -->

<svg
   version="1.1"
   id="svg1"
   width="128"
   height="128"
   viewBox="0 0 496.12403 496.12403"
   sodipodi:docname="zoom-icon.svg"
   inkscape:version="1.4.2 (f4327f4, 2025-05-13)"
   xmlns:inkscape="http://www.inkscape.org/namespaces/inkscape"
   xmlns:sodipodi="http://sodipodi.sourceforge.net/DTD/sodipodi-0.dtd"
   xmlns="http://www.w3.org/2000/svg"
   xmlns:svg="http://www.w3.org/2000/svg">
  <sodipodi:namedview
     id="namedview1"
     pagecolor="#ffffff"
     bordercolor="#000000"
     borderopacity="0.25"
     inkscape:showpageshadow="2"
     inkscape:pageopacity="0.0"
     inkscape:pagecheckerboard="0"
     inkscape:deskcolor="#d1d1d1"
     inkscape:zoom="5.6549296"
     inkscape:cx="46.508095"
     inkscape:cy="65.518057"
     inkscape:window-width="1920"
     inkscape:window-height="1017"
     inkscape:window-x="-8"
     inkscape:window-y="-8"
     inkscape:window-maximized="1"
     inkscape:current-layer="svg1" />
  <defs
     id="defs1" />
  <g
     id="g1"
     transform="translate(-7.6145233,-2.0776618)">
    <path
       id="path3"
       style="display:inline;fill:#0066ff;fill-opacity:1;stroke-width:1.08381"
       d="M 255.24219,12.09375 A 238.69341,238.69341 0 0 0 16.548828,250.78711 238.69341,238.69341 0 0 0 152.93945,465.90625 c 0.47876,0.30155 1.22692,0.63203 1.98243,0.97852 a 238.69341,238.69341 0 0 0 20.5625,8.35937 c 0.007,0.005 0.0229,0.0126 0.0293,0.0176 0.39557,0.30994 2.48284,0.97213 4.92188,1.66211 A 238.69341,238.69341 0 0 0 255.24219,489.48047 238.69341,238.69341 0 0 0 493.93555,250.78711 238.69341,238.69341 0 0 0 255.24219,12.09375 Z m 145.40234,155.33398 c 1.3453,0.0499 2.12169,1.04601 3.22656,2.59766 2.12126,2.97841 2.12305,3.07244 2.12305,81.17383 0,77.44652 -0.02,78.21899 -2.06836,81.0957 -1.13746,1.5974 -2.82496,2.89255 -3.75,2.87696 -1.98871,-0.0334 -8.29998,-4.22302 -24.81836,-16.47266 -13.19873,-9.78786 -34.50346,-25.39289 -43.55664,-31.9043 l -5.69336,-4.0957 -0.0351,-31.5 -0.0332,-31.5 5.01367,-3.5 c 2.75742,-1.925 6.00885,-4.33932 7.22657,-5.36524 1.21771,-1.02592 3.33984,-2.59742 4.71484,-3.49218 1.375,-0.89476 2.95,-1.96846 3.5,-2.38477 3.16847,-2.39832 24.52509,-18.00934 27.29102,-19.94922 1.81012,-1.26952 4.82306,-3.43359 6.69531,-4.80859 12.95436,-9.51383 17.59576,-12.86686 20.16406,-12.77149 z m -296.82226,0.27149 h 88.83593 88.83594 l 6.43555,2.8418 c 16.06326,7.09062 26.03816,19.24602 29.01758,35.36328 0.65223,3.52816 1.04687,27.63482 1.04687,63.96289 v 58.30078 l -2.91797,3.26562 -2.91797,3.26563 -84.83203,0.13672 c -46.65774,0.075 -87.30703,-0.23882 -90.33203,-0.69727 -16.6486,-2.52318 -33.02238,-18.05973 -36.93945,-35.05078 -0.62135,-2.69521 -1.020159,-27.80414 -1.035159,-65.08203 l -0.02539,-60.69531 2.414059,-2.80469 z" />
  </g>
</svg>
