<?xml version="1.0" encoding="UTF-8" standalone="no"?>
<!-- Created with Inkscape (http://www.inkscape.org/) -->

<svg
   version="1.1"
   id="svg1"
   width="1228"
   height="543"
   viewBox="0 0 2455.9586 1085.9818"
   xmlns="http://www.w3.org/2000/svg"
   xmlns:svg="http://www.w3.org/2000/svg">
  <defs
     id="defs1" />
  <g
     id="g1">
    <path
       style="display:inline;fill:#2887c7;fill-opacity:1"
       d="m 796.76712,1062.5472 c -56.49754,-6.218 -105.8386,-40.9165 -129.90786,-91.35612 -13.76576,-28.8475 -18.09214,-54.12167 -18.09214,-105.69204 v -32.27986 h 71.41217 71.41217 l 0.42598,30.25 c 0.38943,27.65399 0.61737,30.89364 2.65611,37.75 9.49407,31.9289 34.42247,55.1102 67.57705,62.841 5.96828,1.3917 14.03816,1.6368 54.01652,1.6405 45.599,0 47.2683,-0.063 56,-2.2708 32.24948,-8.1527 57.08548,-32.8083 65.68788,-65.2107 l 2.2566,-8.5 0.3041,-196.75 0.3041,-196.75 h -3.271 c -2.9639,0 -6.4768,3.20477 -37.4164,34.13464 l -34.14538,34.13465 -35.60995,-32.25378 c -19.58547,-17.73957 -35.60995,-32.50866 -35.60995,-32.82019 0,-0.31153 0.98476,-1.61465 2.18835,-2.89581 l 2.18836,-2.3294 -3.72096,-3.81061 -3.72096,-3.8106 81.28261,-79.90879 c 44.70538,-43.94983 92.43698,-90.92316 106.07008,-104.38517 l 24.7874,-24.47639 103.9626,103.95892 c 57.1794,57.17741 103.9625,104.21624 103.9625,104.53073 0,0.31449 -1.5572,2.39106 -3.4605,4.61461 l -3.4605,4.0428 2.4343,2.28691 2.4343,2.28691 -20.2238,21.02641 c -11.1231,11.56452 -25.1956,26.19404 -31.2722,32.51004 l -11.0485,11.48363 -39.9508,-34.15975 c -21.973,-18.78787 -40.7283,-34.15976 -41.6785,-34.15976 -1.6303,0 -1.744,11.56522 -2.0184,205.25 l -0.2908,205.25 -2.6902,15 c -7.0279,39.1863 -19.942,66.031 -43.6562,90.74932 -24.2756,25.3035 -51.8925,40.5622 -86.7483,47.9299 l -10.8699,2.2976 -109.49998,0.1182 c -60.225,0.065 -111.075,-0.055 -113,-0.267 z m 1029.98488,-18.309 c 1.7387,-2.1952 3.5783,-4.249 4.0881,-4.5641 2.2904,-1.4156 0.4674,-2.3825 -5.0096,-2.6572 l -5.9367,-0.2977 110.9367,-134.32318 c 61.0151,-73.87774 110.9366,-134.67786 110.9366,-135.11138 0,-0.43351 -44.1293,-56.76309 -98.0651,-125.17683 l -98.065,-124.38863 3.6069,-0.31286 3.607,-0.31286 -4.844,-6.18714 c -2.6642,-3.40293 -5.1846,-6.74964 -5.6009,-7.43714 -0.6033,-0.99633 17.4258,-1.25 88.8417,-1.25 h 89.5987 l 55.5077,83.6266 55.5078,83.6266 11.9231,-16.8766 c 6.5578,-9.28213 33.0175,-46.8016 58.7994,-83.3766 l 46.8762,-66.5 88.7007,-0.25541 88.7007,-0.25541 -5.5474,6.866 c -3.0511,3.7763 -5.5475,7.12657 -5.5475,7.44504 0,0.31848 1.4899,0.71871 3.3109,0.88941 3.3067,0.30998 3.1839,0.46659 -97,123.75311 -55.171,67.89351 -100.2897,123.69351 -100.2637,124 0.026,0.30649 49.0502,61.53226 108.9428,136.05726 l 108.8957,135.50002 -5.8939,0.5 -5.8939,0.5 1.9791,2.5 c 1.0886,1.375 2.8972,3.7375 4.0192,5.25 l 2.04,2.75 -87.3181,-0.037 -87.3181,-0.037 -62.5,-88.53392 c -34.375,-48.69368 -63.0124,-88.96569 -63.6387,-89.4934 -0.8048,-0.67814 -19.2844,25.21732 -63.0275,88.3206 l -61.8888,89.28012 -93.3106,0.2552 -93.3106,0.2551 z m -1800.957947,-2.269 c 2.632324,-5.7991 2.48378,-6.5811 -1.318248,-6.9396 l -3.291318,-0.3104 118.428083,-265.25002 118.42809,-265.25 h 83.6298 83.62979 l 118.48343,264.64459 c 65.16589,145.55453 118.63344,265.02953 118.81677,265.50003 0.18334,0.4705 -1.27916,0.8554 -3.25,0.8554 -4.13833,0 -4.31082,0.6537 -1.58333,6 1.1,2.1562 2,4.1633 2,4.4602 0,0.2969 -34.54086,0.5398 -76.75747,0.5398 h -76.75747 l -22.36754,-54.75002 c -12.30216,-30.1125 -22.81792,-55.3143 -23.36837,-56.0041 -0.79431,-0.9953 -25.37168,-1.2016 -119.10989,-1 l -118.10907,0.2541 -20.24165,49.5 c -11.13291,27.22502 -21.42784,52.31252 -22.87762,55.75002 l -2.63596,6.25 H 100.70349 23.864907 Z M 416.61453,828.6985 c 0.19108,-0.18745 -16.30465,-42.10948 -36.65717,-93.16007 -32.20715,-80.78577 -37.13345,-92.49514 -37.99856,-90.31925 -31.79268,79.96319 -71.59594,181.10923 -71.97402,182.89678 l -0.50693,2.39678 73.39463,-0.73672 c 40.36705,-0.40519 73.55098,-0.89008 73.74205,-1.07752 z m 753.18807,212.9378 c 2.5828,-6.0254 2.5358,-6.244 -1.4212,-6.6067 l -3.3858,-0.3104 118.3212,-265.00002 118.3212,-265 83.8146,-0.22909 83.8145,-0.2291 118.6478,265.2291 118.6479,265.22911 -3.4972,0.3163 c -3.8335,0.3467 -3.8609,0.5745 -0.8938,7.4337 l 1.6221,3.75 h -76.8608 -76.8609 l -21.7762,-53.25002 c -11.9769,-29.2875 -22.4071,-54.4875 -23.1782,-56 l -1.4021,-2.75 h -117.9486 -117.9486 l -1.401,2.75 c -0.7705,1.5125 -11.1974,26.7125 -23.1709,56 l -21.7701,53.25002 h -76.8192 -76.8191 z m 390.7387,-212.86329 c 0.4835,-0.47419 -73.1065,-184.55383 -73.7795,-184.55383 -0.45,0 -67.6419,168.5015 -73.8773,185.26675 -0.2615,0.70312 22.9955,0.79562 73.5,0.29232 40.6354,-0.40494 74.006,-0.8573 74.1568,-1.00524 z M 616.28601,701.23807 513.34693,598.29535 l 2.39845,-2.55303 2.39845,-2.55303 -3.81922,-3.91124 -3.81923,-3.91124 26.26983,-27.32381 c 14.4484,-15.0281 29.07659,-30.18896 32.5071,-33.6908 l 6.23728,-6.36697 40.37106,34.61697 c 22.20408,19.03934 40.93477,34.61698 41.62376,34.61698 0.99952,0 1.25271,-41.21025 1.25271,-203.89405 0,-136.01803 0.35176,-207.34152 1.05666,-214.25 4.777,-46.8176 27.83203,-88.098512 64.66363,-115.782742 23.23406,-17.46372 50.52279,-28.63083 78.27971,-32.03367 6.87201,-0.84247 40.06764,-1.067109 120,-0.81206 l 110.49998,0.35259 11.5,2.81845 c 69.1611,16.95018 117.4843,69.16917 127.4544,137.729822 1.8268,12.56203 2.2844,77.87166 0.5456,77.87166 -0.55,0 -1,2.25 -1,5 v 5 h -69.5 -69.5 v -4.94098 c 0,-2.71754 -0.45,-5.2191 -1,-5.55902 -0.6251,-0.38635 -1,-10.35423 -1,-26.59056 0,-29.48935 -0.3033,-31.14199 -8.5889,-46.79933 -11.8836,-22.45634 -33.04978,-39.02348 -57.91108,-45.32787 -8.7594,-2.22124 -10.2963,-2.28224 -57.5,-2.28224 -47.1408,0 -48.75222,0.0637 -57.5,2.27373 -17.92187,4.52773 -37.1861,16.68131 -48.23563,30.43129 -6.16588,7.67279 -13.26076,20.69756 -16.18377,29.71014 -2.07919,6.41082 -2.0806,6.55048 -2.0806,206.75 v 200.33484 h 2.24472 c 1.61622,0 11.94814,-9.70045 36.9014,-34.64608 l 34.65669,-34.64607 36.84859,33.31268 c 20.26673,18.32197 37.04436,33.47096 37.28362,33.66443 0.23927,0.19346 -1.30799,2.13677 -3.43835,4.31845 l -3.87338,3.9667 2.18836,2.3294 c 1.20359,1.28116 2.18835,2.59499 2.18835,2.91962 0,0.32462 -40.1625,40.09764 -89.25,88.3845 -49.0875,48.28685 -96.00946,94.44611 -104.27101,102.57613 l -15.02102,14.78185 z"
       id="path1" />
  </g>
</svg>
