<?xml version="1.0" encoding="UTF-8" standalone="no"?>
<!-- Created with Inkscape (http://www.inkscape.org/) -->

<svg
   version="1.1"
   id="svg1"
   width="1457"
   height="300"
   viewBox="0 0 1821.25 375"
   xmlns="http://www.w3.org/2000/svg"
   xmlns:svg="http://www.w3.org/2000/svg">
  <defs
     id="defs1" />
  <g
     id="g1"
     style="display:inline;fill:#4f3775;fill-opacity:1">
    <path
       id="path1"
       style="display:inline;fill:#d0a427;fill-opacity:1"
       d="m 70.886719,66.839844 -1.19336,2.25 -1.193359,2.25 0.273438,27.451176 0.27539,27.45117 5.5,3.16992 c 6.371963,3.67181 25.833772,14.48462 48.000002,26.66797 8.525,4.68565 16.41631,9.35988 17.53515,10.38867 l 2.03321,1.87109 1.75,13.5 c 3.27527,25.25752 4.81205,37.47623 7.22656,57.5 1.3264,11 3.55842,29 4.96094,40 1.40251,11 3.44478,27.2 4.53711,36 4.22057,34.00151 5.70325,44.57825 6.33984,45.21485 0.36315,0.36314 6.16291,1.42573 12.88867,2.35937 l 12.22852,1.69727 -68.47071,0.0879 h 72.47071 l 0.25781,-110.77149 0.25977,-110.91211 -0.89063,-2.34179 -0.89062,-2.3418 -50.36719,-30.23047 C 116.71539,91.47457 89.99883,75.400225 85.04883,72.380869 l -9.000002,-5.490234 -2.580078,-0.02539 z m 268.880861,0 -18.85938,11.378906 c -10.37258,6.25797 -26.05937,15.76568 -34.85937,21.12891 -8.8,5.36323 -20.95,12.67686 -27,16.2539 -6.05,3.57703 -12.35,7.36359 -14,8.41406 -1.65,1.05047 -7.95,4.94301 -14,8.6504 l -11,6.74218 -0.25391,112.71485 -0.2539,112.57617 h 181.08593 v -0.0781 l -178.57812,-0.0273 6.5,-0.85352 c 3.575,-0.46924 9.65573,-1.36 13.51367,-1.97851 l 7.01562,-1.125 1.83399,-14.64844 c 1.0086,-8.05686 2.64524,-21.17344 3.63672,-29.14844 4.24171,-34.11821 5.14378,-41.27653 7,-55.5 1.07665,-8.25 3.32354,-26.25 4.99219,-40 1.66866,-13.75 3.91613,-31.48933 4.99414,-39.42187 l 1.95898,-14.42383 0.77734,-0.76953 c 0.42747,-0.4233 7.75235,-4.58437 16.27735,-9.24609 8.525,-4.66173 24.27345,-13.37234 34.99609,-19.35743 l 19.49414,-10.88086 1.25586,-2.45117 1.25391,-2.44922 -0.0606,-25.81054 -0.0605,-25.81055 -1.93945,-1.939453 -1.93945,-1.939453 h -1.89063 z m -318.718752,64.757816 -2.75,1.03515 -2.679687,1.00586 v 55.01563 l 1.230468,1.01953 c 0.715006,0.59341 14.777506,8.55856 31.25,17.70117 16.472493,9.1426 30.785516,17.43499 31.806641,18.42773 l 1.855469,1.80665 21.144531,63.28906 21.14258,63.28906 6,1.28906 c 3.3,0.70849 7.9125,1.59037 10.25,1.96094 l 4.25,0.67383 v -2.10352 c 0,-1.15678 -1.12858,-9.20427 -2.50781,-17.88476 -3.52924,-22.21189 -6.95971,-44.44487 -10.53516,-68.28321 -1.6911,-11.275 -3.89927,-25.675 -4.9082,-32 -1.00893,-6.325 -3.06106,-19.825 -4.5586,-30 -1.49755,-10.175 -3.15216,-19.68268 -3.67773,-21.1289 l -0.95508,-2.63086 -10.17969,-5.54102 c -5.59823,-3.04793 -27.277732,-14.85733 -48.177732,-26.24218 z m 374.910152,0.24218 c -1.73018,0 -8.22199,3.18336 -21.41015,10.5 -10.62603,5.89519 -49.19234,26.90287 -61.5,33.5 -4.4,2.35848 -9.78542,5.4685 -11.9668,6.91016 l -3.96484,2.62109 -0.69727,3.48438 c -0.68622,3.43165 -1.85772,10.92209 -7.89258,50.48437 -1.67795,11 -3.94318,25.625 -5.03515,32.5 -1.09198,6.875 -2.61457,16.775 -3.38281,22 -1.53065,10.41004 -5.54515,36.78011 -7.99219,52.5 -0.85616,5.5 -1.5595,10.3375 -1.5625,10.75 l -0.006,0.75 h 2.10742 c 2.49207,0 15.81707,-2.88986 17.70508,-3.83984 l 1.31055,-0.66016 20.95507,-63 20.95313,-63 2.44336,-2 c 1.34435,-1.1 4.59983,-3.17062 7.23437,-4.60156 2.63455,-1.43094 15.81602,-8.74317 29.29102,-16.25 l 24.5,-13.64844 1.75,-2.11132 1.75,-2.10938 v -25.16797 -25.16601 l -1.55664,-2.22266 -1.55664,-2.22266 z M 13.548828,364.6582 v 0.041 h 2 v -0.041 z" />
    <path
       id="path4"
       style="display:inline;fill:#4f3775;fill-opacity:1"
       d="m 122.73828,14.839844 v 0.0039 H 291.75 v -0.0039 z m 84.86044,-0.362973 -7.0577,3.69891 c -2.47062,1.285025 -10.11719,5.279795 -16.99219,8.876953 -6.875,3.597158 -19.7,10.26881 -28.5,14.826172 -8.8,4.557363 -19.14775,9.972895 -22.99414,12.035156 l -6.99219,3.75 -4.07345,2.515969 -0.93566,0.659813 0.96116,0.711437 4.22959,2.788563 8.40234,5.085937 c 4.62142,2.796822 16.27735,9.727827 25.90235,15.402344 9.625,5.674515 18.625,11.069335 20,11.990235 1.375,0.9209 5.65,3.40731 9.5,5.52539 3.85,2.11809 8.8,5.05009 11,6.51563 2.2,1.46549 6.21656,3.72922 7.5221,4.05721 l 0.25368,0.24215 6.41172,-3.62944 c 18.68201,-10.95027 58.86107,-35.149676 61.3125,-36.605472 7.02445,-4.1715 12.28043,-6.761823 20.35316,-12.413565 l -2.08754,-1.297372 -3.20703,-1.873047 -15.7793,-8.128906 C 266.14927,44.73959 250.07651,36.468254 239.11133,30.832031 228.14615,25.195805 217.16712,19.517821 214.71289,18.212891 l -4.45508,-2.369141 z" />
    <path
       id="path5"
       style="display:inline;fill:#4f3775;fill-opacity:1"
       d="m 478.04883,269.67188 v 32.18945 32.47851 l 2.29297,4.29493 c 1.26132,2.36228 3.96132,6.14515 6,8.40625 l 3.70703,4.11132 6,2.84375 6,2.8418 8.10156,0.002 H 518.25 l 3.40039,-1.15234 c 1.86957,-0.63429 5.64844,-2.64085 8.39844,-4.45703 l 5,-3.30078 3.18359,-4.79492 3.18164,-4.79493 1.13477,-4.35546 1.13281,-4.35352 0.21484,-26.64648 c 0.11771,-14.65493 -0.0328,-28.21954 -0.33398,-30.14454 l -0.49414,-3.16796 h -9.16602 l -2.21875,0.39062 -0.38867,28.63867 -0.39062,28.63867 -1.23242,3.77735 -1.23243,3.77734 -3.09375,3.52344 c -1.70165,1.93807 -4.35544,4.17581 -5.89648,4.97265 l -2.80078,1.44922 h -6.09961 -6.09961 l -2.80078,-1.44922 c -1.54104,-0.79689 -4.19485,-3.03458 -5.89649,-4.97265 l -3.09375,-3.52344 -1.04882,-3.77734 -1.04883,-3.77735 -0.006,-28.73046 -0.006,-28.73047 -0.83008,-0.20703 z m 121.57422,0 -1.07422,0.38281 v 42.30859 42.31055 l 1.11133,0.36914 c 0.96216,0.32076 8.99944,0.26169 11.13867,-0.082 l 0.75,-0.1211 V 320.6875 286.5332 l 5.29687,7.9043 c 27.87415,41.58888 39.18653,58.1322 40.61914,59.40234 l 1.69141,1.5 h 6.94727 6.94531 v -43 -42.66796 h -12.00195 l -0.26172,33.54687 -0.26368,33.88086 -21.96093,-32.88086 -21.95899,-32.87891 -2.27734,-1.26953 -0.71484,-0.39843 z m 130.42383,0 -0.25977,41.66796 c -0.14365,23.09984 -0.0572,42.5298 0.19141,43.17774 l 0.45117,1.17773 5.31054,-0.34765 c 2.92,-0.19152 5.6461,-0.38404 6.0586,-0.42774 l 0.75,-0.0801 v -42.45507 -42.45508 l -1.375,-0.25781 z m 58.10546,0 -0.12304,0.19921 -0.53711,0.86914 4.61523,11.79883 c 2.53851,6.48994 6.17422,15.85078 8.07813,20.80078 1.90391,4.95 5.20647,13.5 7.33984,19 7.40973,19.10296 10.78894,28.01306 11.45117,30.1875 l 0.66602,2.18555 2.20312,0.37695 c 2.68632,0.45889 9.5808,0.22612 10.07227,-0.33984 0.19592,-0.22562 1.5674,-3.56016 3.04687,-7.41016 1.47947,-3.85 3.0952,-7.9 3.5918,-9 0.49661,-1.1 3.87179,-9.65 7.5,-19 3.62822,-9.35 7.00625,-17.9 7.50586,-19 0.4996,-1.1 2.52117,-6.275 4.49219,-11.5 1.97103,-5.225 4.42613,-11.5142 5.45703,-13.97656 l 1.875,-4.47656 -0.44141,-0.71484 h -12.6289 l -0.77735,0.77734 c -0.53045,0.53045 -2.0596,4.09819 -3.39844,7.92773 -3.1719,9.073 -5.24065,14.62879 -12.64062,33.96289 -3.36813,8.8 -6.58857,17.6875 -7.1582,19.75 -0.56963,2.0625 -1.31847,3.74237 -1.66407,3.73438 -0.3456,-0.008 -1.58692,-2.59558 -2.75781,-5.75 -4.41675,-11.89911 -12.54165,-34.21588 -17.19531,-47.23438 l -4.70508,-13.16796 z m 123,0 -0.10742,0.17187 -0.62304,1.00977 0.0937,41.63867 c 0.0517,22.90119 0.26284,41.90956 0.46876,42.24219 l 0.375,0.60546 27.84374,0.10938 27.84572,0.10742 0.7344,-1.10742 c 0.8934,-1.34816 0.9958,-7.84451 0.1582,-10.02734 l -0.6074,-1.58204 h -22.4219 -22.42386 l 0.28125,-12.75 0.2793,-12.75 19.95901,-0.5 19.961,-0.5 -0.127,-5 c -0.07,-2.75 -0.1654,-5.3375 -0.2109,-5.75 l -0.082,-0.75 h -20.0312 -20.03131 l 0.28125,-11.58007 0.28125,-11.58008 20.66801,0.11719 20.6699,0.11523 0.7246,-1.17188 c 0.8994,-1.45534 0.9538,-9.25539 0.074,-10.67773 l -0.2421,-0.39062 z m 109.09966,0 -0.2032,0.16796 -1.5,1.24414 v 41.17774 41.17773 l 0.9629,0.95117 0.9649,0.94922 5.5351,0.19336 5.5371,0.19141 v -18.99023 -18.99024 l 6.211,0.29883 6.2129,0.29687 3.1406,5.5 c 1.7272,3.025 6.5121,11.35 10.6328,18.5 l 7.4922,13 7.0742,0.28516 7.0742,0.28711 0.5567,-0.90039 0.5566,-0.90039 -7.6152,-12.38672 c -4.1882,-6.81215 -9.0546,-14.63477 -10.8125,-17.38477 -1.7579,-2.75 -3.5092,-5.54264 -3.8926,-6.20703 l -0.6973,-1.20898 5.0098,-2.1543 5.0098,-2.15625 3.9257,-4.25781 3.9258,-4.25977 1.1172,-5.38476 1.1191,-5.38477 -1,-5.26953 c -1.2894,-6.7988 -2.1404,-8.291 -7.2128,-12.63281 l -4.1973,-3.5918 -3.5664,-1.09961 -3.4375,-1.06054 z m 118.9296,0 -0.1328,0.0586 -5,2.2168 -2.8437,2.69531 -2.8418,2.69726 -2.4082,4.7168 -2.4063,4.7168 v 5.56445 5.56641 l 1.375,3.29101 c 0.7562,1.80983 2.8534,4.97343 4.6602,7.03125 l 3.2851,3.74219 4.5899,2.27344 c 2.5245,1.25117 7.8844,3.31555 11.9121,4.58593 l 7.3242,2.3086 3.1504,2.125 c 1.7332,1.16798 3.775,3.23893 4.5371,4.60156 l 1.3867,2.47656 -1.1425,4.22266 -1.1407,4.22266 -3.5117,2.67773 -3.5098,2.67773 -4.9023,0.47266 -4.9004,0.4707 -3.4433,-0.64648 -3.4434,-0.64648 -4.4316,-3.9004 -4.4297,-3.90039 -4.6836,4.00196 -4.6817,4.0039 v 1.33203 1.33399 l 3.1602,2.6582 c 2.7876,2.34557 8.3723,5.32522 12.8398,6.84961 0.825,0.28151 5.775,0.54403 11,0.58203 l 9.5,0.0684 5,-2.37109 5,-2.3711 3.6035,-3.86914 3.6036,-3.86914 1.7753,-4.5 1.7735,-4.5 -0.021,-5.58203 -0.022,-5.58008 -2.0097,-3.91992 c -3.6486,-7.11652 -9.3306,-10.6043 -24.8926,-15.27929 l -7.1914,-2.16016 -3.4903,-3.29297 -3.4922,-3.29297 -0.6679,-2.66015 -0.668,-2.66016 1.8496,-3.78711 1.8496,-3.78516 4.461,-2.25 4.4629,-2.25 h 3.7226 c 4.878,0 7.8867,1.21207 12.0235,4.84375 l 3.3906,2.97657 4.9316,-4.46289 4.9297,-4.46485 -1.0547,-1.69531 c -0.5803,-0.93322 -2.508,-2.688 -4.2851,-3.89844 l -3.2325,-2.20117 -0.9101,-0.26562 z m 91.8653,0 -0.2598,41.66796 c -0.1436,23.09984 -0.081,42.46493 0.1367,43.03321 l 0.3946,1.0332 4.2695,0.16992 4.2676,0.16992 1.7871,-0.95703 1.7871,-0.95703 0.051,-41.88086 0.051,-41.88281 -1.6347,-0.39648 z m 59.3965,0 -0.3047,0.79296 c -0.3246,0.84599 -0.5899,3.24632 -0.5899,5.33399 v 3.79687 l 1.3145,1.08985 1.3125,1.08984 12.4375,0.28125 12.4355,0.2832 0.2149,35.43946 c 0.1186,19.49155 0.4236,35.97569 0.6758,36.63281 l 0.457,1.19531 5.3262,-0.13281 5.3261,-0.13477 0.2617,-36.7207 0.2637,-36.7207 13.2363,-0.2793 13.2383,-0.2793 0.2989,-6.26562 0.2558,-5.40234 z m 102.1054,0 v 0.24609 c 0,0.66826 1.5166,3.51144 3.3692,6.31836 1.8527,2.80693 8.8277,13.3824 15.5,23.5 l 12.1308,18.39453 v 18.27148 18.27149 l 1.25,0.42773 c 0.6875,0.23511 3.6125,0.50772 6.5,0.60742 l 5.25,0.18164 v -18.5664 -18.56641 l 15.9942,-24.06445 15.9941,-24.0625 -0.541,-0.87695 -0.051,-0.082 h -14.1015 c -0.3085,0.0612 -0.4982,0.12149 -0.545,0.17968 -0.6804,0.84615 -12.0381,18.56925 -17.25,26.91797 l -5,8.00977 -0.8515,-0.25391 c -0.7547,-0.22489 -9.0831,-13.10093 -14.6739,-22.68555 -1.1228,-1.925 -3.2943,-5.52535 -4.8242,-8 l -2.5781,-4.16796 z m -359.75,11.10156 c 0.6875,-0.0363 5.3,-0.0139 10.25,0.0488 l 9,0.11328 3.5918,0.94726 3.5899,0.94922 1.8281,2.01953 1.8281,2.01953 0.3731,5.23438 0.373,5.23437 -1.3047,2.5 -1.3066,2.5 -3.4863,1.74805 -3.4864,1.74805 -11.25,0.002 -11.25,0.002 v -12.5 -12.5 z" />
    <path
       id="path2"
       style="display:inline;fill:#4f3775;fill-opacity:1"
       d="m 462.28906,18.5 -0.74023,0.457031 v 7.333985 7.332031 l 2.75,0.673828 c 1.5125,0.370215 5.7875,1.587098 9.5,2.705078 l 6.75,2.033203 v 68.843754 68.84375 l -1.08008,0.66601 c -0.59372,0.36694 -4.75622,1.63058 -9.25,2.8086 l -8.16992,2.14257 -0.29883,6.90039 c -0.16452,3.79543 -0.0513,7.54761 0.25195,8.33789 l 0.25782,0.67188 h 81.67187 l 8.11719,-0.0762 8,-2.2461 8,-2.24414 6.92773,-3.63867 6.92774,-3.64062 5.17382,-5.04883 5.17188,-5.05078 3.60352,-7.49024 3.60156,-7.49023 1.16015,-7.47852 1.16211,-7.48047 -0.66211,-6.51171 -0.66015,-6.51368 -3.00391,-6.18164 -3.0039,-6.18359 -6.23633,-5.81641 -6.23633,-5.81836 -5.71289,-2.86914 c -5.0658,-2.5444 -7.26566,-4.63086 -4.88281,-4.63086 0.45627,0 3.6655,-2.56734 7.13281,-5.70507 l 6.30469,-5.70508 2.98047,-6.544924 2.98242,-6.544922 0.51562,-9.140625 0.51563,-9.140625 -2.08789,-6.873047 -2.08789,-6.873047 -3.14063,-4.742188 c -1.72779,-2.608494 -5.0096,-6.356606 -7.29297,-8.328124 l -4.15234,-3.583985 -6.73633,-3.416015 -6.73828,-3.414063 -8.76172,-2.15625 L 546.04492,18.5 Z m 166.25977,0 v 7.359375 7.980469 h 1.10351 c 0.60699,0 4.88199,1.177365 9.5,2.617187 l 8.39649,2.619141 v 68.845708 68.84765 l -1.75,0.91992 c -0.9625,0.50632 -4.45,1.49668 -7.75,2.19922 -3.3,0.70254 -6.7875,1.66859 -7.75,2.14844 l -1.75,0.87305 v 7.96484 7.375 h 122.09375 l 0.37304,-1.66016 c 2.8928,-12.90156 5.45291,-24.98436 5.98633,-28.25 0.35936,-2.2 0.88537,-4.78597 1.16797,-5.74804 l 0.51367,-1.75 -2.81836,-1.02149 c -1.54943,-0.56178 -3.7164,-1.42466 -4.8164,-1.91797 -1.1,-0.49331 -3.48053,-1.36735 -5.28906,-1.9414 l -3.28711,-1.04297 -1.71289,2.83789 c -0.94147,1.56038 -3.28594,5.81443 -5.21094,9.45312 l -3.5,6.61524 -24.25,0.008 -24.25,0.008 V 145.81679 117.7953 l 18.20312,0.27149 18.20508,0.27343 1.93945,5.78907 1.93946,5.78711 8.10547,-0.28711 8.10742,-0.28907 v -24 -23.999996 l -8.16797,-0.289063 -8.16797,-0.289062 -1.57227,5.289061 c -0.86531,2.90901 -1.94804,5.8616 -2.40624,6.5625 l -0.83399,1.27539 -17.42578,-0.27539 -17.42578,-0.27344 v -25.499996 -25.5 l 22.03125,-0.267578 22.03125,-0.269532 2.58984,8.269532 2.58985,8.267578 9.14843,0.287109 9.15039,0.289063 L 751.31836,38.126953 751.06445,18.5 Z m 164.45898,0 -0.24609,6.886719 -0.28711,8.048828 7.78711,2.275391 c 4.28294,1.252352 8.57461,2.500387 9.53711,2.771484 l 1.75,0.492187 v 68.957031 68.95703 l -2.75,1.05274 c -1.5125,0.57903 -5.7875,1.74194 -9.5,2.58398 l -6.75,1.53125 v 8.39258 7.80078 h 118.76953 l 2.63672,-11.16016 c 1.52634,-6.4625 3.86409,-16.22315 5.19531,-21.68945 l 2.42188,-9.9375 -0.76172,-0.71484 c -1.23085,-1.15348 -10.2264,-3.94128 -14.6875,-4.55274 l -4.11719,-0.56445 -5.74414,12.10352 -5.74219,12.10546 -2.48437,0.0234 c -1.36699,0.0134 -10.58633,0.0254 -20.48633,0.0254 -9.9,0 -18.44116,-0.012 -18.98047,-0.0254 l -0.98047,-0.0234 0.23047,-67.68554 0.23047,-67.683597 5,-1.394531 c 2.75,-0.766796 6.92894,-1.888114 9.28711,-2.492188 l 4.28711,-1.097656 -0.28711,-8.074219 L 866.08984,18.5 Z m 160.04099,0 v 6.759766 7.921875 l 9.25,2.947265 9.25,2.949219 v 68.822265 68.82227 l -1.08,0.66601 c -0.5943,0.36694 -4.7565,1.63058 -9.25,2.8086 l -8.17,2.14257 -0.2988,6.90039 c -0.1645,3.79543 -0.066,7.50793 0.2188,8.25 l 0.291,0.75977 h 118.3261 l 0.8672,-2.66016 c 0.5832,-1.7875 1.9629,-7.525 3.0664,-12.75 1.1035,-5.225 2.9003,-13.325 3.9922,-18 1.0919,-4.675 1.9977,-9.01337 2.0117,-9.64062 l 0.025,-1.14063 -7.8183,-2.10937 c -4.3,-1.16026 -8.5714,-2.10938 -9.4922,-2.10938 h -1.6738 l -5.9805,11.93164 -5.9805,11.92969 -2.7773,0.32031 c -1.5273,0.17544 -10.9899,0.18635 -21.0274,0.0254 l -18.25,-0.29297 V 106.4375 39.121094 l 6.25,-2.027344 c 3.4375,-1.115621 7.7302,-2.345296 9.5391,-2.730469 l 3.2891,-0.699219 -0.2891,-8.162109 L 1027.0898,18.5 Z m 159.5,0 v 7.167969 7.789062 l 7.75,2.265625 c 4.2625,1.246213 8.5397,2.489431 9.5059,2.761719 l 1.7578,0.494141 -0.2578,69.175784 -0.2559,69.17382 -7,1.86915 c -3.85,1.02811 -8.0125,2.2585 -9.25,2.73437 l -2.25,0.86524 v 8.02929 7.42383 h 122.3067 l 1.8691,-8.91016 c 1.0387,-4.95 2.7359,-13.275 3.7715,-18.5 l 1.8828,-9.5 -0.6641,-0.59961 c -0.3658,-0.32942 -3.9395,-1.78532 -7.9394,-3.23632 l -7.2715,-2.63868 -1.7285,2.86329 c -0.9501,1.57459 -3.3016,5.84574 -5.2266,9.49218 l -3.5,6.63086 -24,-0.25586 -24,-0.25586 -0.2656,-27.77343 -0.2656,-27.77149 18.1328,0.27149 18.1348,0.27343 1.9589,4.98828 c 1.0772,2.74371 2.4858,5.32402 3.1309,5.73438 l 1.1738,0.74609 6.0508,0.0156 6.0488,0.0156 1.2012,-1.19922 1.1992,-1.20117 V 105.26172 83.083984 l -1.4101,-1.169922 -1.4102,-1.169921 -6.7949,0.298828 -6.7949,0.296875 -2.3907,6.273436 -2.3906,6.27149 -17.6543,-0.27149 -17.6543,-0.27344 v -25.499996 -25.5 l 22.0274,-0.267578 22.0293,-0.269532 2.6054,7.769532 2.6055,7.767578 9.1367,0.287109 9.1367,0.289063 -0.2695,-20.289063 L 1235.0645,18.5 Z m 156.459,0 -0.25,7.105469 -0.291,8.265625 1.291,0.398437 c 0.7099,0.219025 4.2153,1.471891 7.7891,2.783203 l 6.498,2.382813 3.2617,8.953125 c 1.794,4.923491 4.1301,11.426172 5.1914,14.451172 1.0612,3.025 3.0555,8.65 4.4317,12.5 8.5276,23.857116 13.2368,36.967396 15.8066,43.999996 1.6078,4.4 3.7734,10.475 4.8125,13.5 1.0391,3.025 3.2891,9.325 5,14 1.7109,4.675 3.9631,10.975 5.0059,14 1.0428,3.025 3.304,9.325 5.0234,14 1.7195,4.675 3.9164,10.979 4.8828,14.00782 0.9664,3.02882 2.2969,6.51632 2.9571,7.75 l 0.8847,1.65234 h 30.2071 l 0.8418,-1.66016 c 0.6272,-1.2375 4.0926,-10.575 7.7011,-20.75 3.6085,-10.175 7.1796,-19.85 7.9375,-21.5 0.7578,-1.65 1.9131,-5.025 2.5664,-7.5 0.6532,-2.475 1.522,-4.95 1.9297,-5.5 0.4077,-0.55 2.6854,-6.625 5.0625,-13.5 2.3771,-6.875 4.6533,-12.95 5.0586,-13.5 0.4054,-0.55 1.4383,-3.25 2.2949,-6 0.8567,-2.75 4.2975,-12.425 7.6465,-21.5 3.349,-9.074972 6.7898,-18.749996 7.6465,-21.499996 0.8566,-2.75 1.904,-5.45 2.3262,-6 0.4222,-0.55 1.3134,-2.8 1.9824,-5 1.8635,-6.127502 5.4325,-14.932735 6.3145,-15.578125 0.4339,-0.31754 3.926,-1.604497 7.7597,-2.861328 l 6.9707,-2.285157 V 25.833984 18.5 h -64.4179 c -0.3214,0.995922 -0.5809,4.605171 -0.5801,8.171875 v 6.667969 l 5.75,1.732422 c 3.1617,0.952576 6.3419,2.122632 7.0683,2.601562 l 1.3204,0.871094 -1.6934,5.898437 c -0.9324,3.243493 -3.3872,11.071485 -5.4551,17.396485 -2.0679,6.325 -5.4293,16.900024 -7.4687,23.499996 -2.0394,6.6 -4.5479,14.475 -5.5743,17.5 -1.0263,3.025 -4.3852,13.6 -7.4648,23.5 -3.0797,9.9 -6.1796,19.33918 -6.8887,20.97657 l -1.289,2.97851 -4.2227,-13.47851 c -4.3898,-14.01414 -6.638,-21.28709 -12.0527,-38.97657 -1.7677,-5.775 -4.0336,-12.97499 -5.0352,-15.999996 -1.0016,-3.025 -3.2462,-10.225 -4.9883,-16 -1.7421,-5.775 -3.982,-12.975 -4.9765,-16 -0.9944,-3.025 -2.1065,-6.902378 -2.4707,-8.617188 l -0.6621,-3.11914 6.8007,-2.507813 6.8008,-2.509765 0.3067,-5.832032 c 0.1684,-3.207195 0.045,-6.867142 -0.2735,-8.134765 L 1337.9258,18.5 Z m 210.0391,0 v 7.798828 7.958984 l 6.5,2.050782 c 3.575,1.127658 7.0477,2.401736 7.7168,2.830078 l 1.2168,0.777344 0.051,53.458984 0.049,53.45703 1.4531,7.58985 1.4512,7.58984 3.1386,6.64062 3.1387,6.64258 7.6426,7.63672 7.6445,7.63672 6.1719,3.10937 c 3.2336,1.62994 7.2732,3.21466 11.5215,4.57227 h 50.457 c 19.3964,-7.00383 32.2645,-19.89732 38.9942,-39.04688 l 2.7636,-7.86328 0.5469,-56.34961 0.5449,-56.349605 7,-2.267578 7,-2.265625 V 26.222656 18.5 h -62.5 v 7.150391 7.83789 l 7.5313,2.361328 7.5312,2.361329 -0.2812,55.564452 -0.2832,55.56445 -2.4356,5.87305 -2.4355,5.87305 -4.7012,5.14258 -4.6992,5.14257 -4.8652,2.4336 -4.8633,2.43164 h -8 -8 l -4.8633,-2.43164 -4.8633,-2.4336 -4.7891,-5.24023 -4.789,-5.23828 -2.5371,-6.77735 c -1.3959,-3.72675 -2.616,-7.90039 -2.709,-9.27539 -0.093,-1.375 -0.118,-25.95942 -0.059,-54.63281 l 0.1094,-52.134764 2.25,-0.523438 c 1.2375,-0.287934 4.5,-1.374521 7.25,-2.416016 l 5,-1.894531 V 25.789062 18.5 Z m 197.5019,0 v 6.65625 8.314453 l 8.75,2.521485 8.75,2.521484 0.2559,69.123048 0.2578,69.125 -1.8535,0.99219 c -1.0195,0.54562 -5.0735,1.72431 -9.0078,2.61914 L 1676.5488,182 v 8.41992 7.83008 h 122.0098 l 0.5293,-3.16016 c 0.3463,-2.0625 1.4769,-7.35 2.5137,-11.75 1.0367,-4.4 2.3006,-10.025 2.8086,-12.5 l 0.9238,-4.5 v 0.0176 l 0.8242,-3.70312 0.4238,-2.08008 -2.0019,-0.62305 c 0,0 -3.7825,-1.23633 -7.4356,-2.61133 -3.653,-1.375 -6.8258,-2.5 -7.0507,-2.5 -0.2256,0 -2.7199,4.275 -5.545,9.5 l -5.1367,9.5 h -23.9316 -23.9317 v -28 -28 l 17.75,0.004 17.75,0.004 1.6446,4.24609 c 0.905,2.33544 1.9034,5.03359 2.2187,5.99609 l 0.5742,1.75 h 8.0313 8.0312 V 105.29883 80.759766 l -8.0957,0.289062 -8.0957,0.291016 -1.2656,3.499996 c -0.6965,1.925 -1.7716,4.74792 -2.3887,6.27344 l -1.123,2.77344 -17.2656,-0.27344 -17.2657,-0.27344 -0.2676,-25.769528 -0.2656,-25.769531 22.1739,0.269531 22.1738,0.269532 2.625,8 2.6269,8 h 8.9668 8.9668 L 1799.3203,38.412109 1799.5918,18.5 Z m -1147.12497,21.248047 5.3125,1.548828 c 2.92186,0.851978 6.73038,2.413857 8.46289,3.470703 l 3.15039,1.921875 3.09375,4.496094 3.0918,4.496094 1.11914,5.210937 1.11718,5.212891 -0.67773,5.117187 -0.67578,5.117188 -1.80078,4.074218 -1.80078,4.074218 -3.38282,3.16602 -3.38476,3.16406 -4.42774,1.51172 -4.42773,1.50976 h -8.26367 -8.26367 l -0.38672,-0.75 c -0.21357,-0.4125 -0.32073,-12.449996 -0.23633,-26.749996 l 0.1543,-26 6.11328,-0.296875 z m -11.66016,78.091793 h 11.14258 l 11.14258,0.002 6,2.93945 c 7.03315,3.44697 10.22996,6.18245 14.14258,12.09766 l 2.85742,4.31836 -0.082,8.57226 -0.082,8.57031 -2.0293,4.50782 c -1.11546,2.47913 -3.27352,5.98841 -4.79688,7.79882 l -2.76953,3.29102 -5.12109,2.66602 -5.11914,2.66601 -12.75,0.38672 -12.75,0.38477 -0.0996,-0.85157 c -0.33436,-2.84389 -0.41611,-55.07693 -0.0879,-56.09961 z" />
  </g>
</svg>
