<?xml version="1.0" encoding="UTF-8" standalone="no"?>
<svg
   width="1497"
   height="265"
   viewBox="0 0 598.8 106"
   version="1.1"
   id="svg9"
   xmlns="http://www.w3.org/2000/svg"
   xmlns:svg="http://www.w3.org/2000/svg">
  <path
     fill="#7952b3"
     d="M 148.76104,78.554142 V 3.1507496 h 21.45456 q 9.77718,0 15.51171,4.7865722 5.73029,4.7823222 5.73029,12.4595412 0,6.418938 -3.46877,11.150248 -3.47303,4.731311 -9.57315,6.729258 v 0.212547 q 7.62622,0.8927 12.20024,5.781296 4.57402,4.837584 4.57402,12.621075 0,9.67517 -6.93756,15.669008 -6.94179,5.993847 -17.51391,5.993847 z m 8.83347,-67.411602 v 24.345204 h 9.04603 q 7.25638,0 11.40956,-3.468777 4.15318,-3.52829 4.15318,-9.887715 0,-10.988712 -14.46174,-10.988712 z m 0,32.285983 v 27.133832 h 11.9877 q 7.77924,0 12.04294,-3.681332 4.31046,-3.681322 4.31046,-10.096007 0,-13.356493 -18.19407,-13.356493 z m 74.24714,36.40091 q -11.93667,0 -19.08678,-7.519944 -7.09909,-7.566688 -7.09909,-20.034735 0,-13.560538 7.41367,-21.190997 7.41791,-7.621957 20.03473,-7.621957 12.03871,0 18.77221,7.41366 6.78027,7.413662 6.78027,20.557603 0,12.884639 -7.31164,20.66813 -7.25213,7.72824 -19.50337,7.72824 m 0.62915,-49.111257 q -8.30637,0 -13.14396,5.679271 -4.83757,5.624011 -4.83757,15.562741 0,9.573144 4.88859,15.090875 4.8886,5.526238 13.09294,5.526238 8.36161,0 12.83362,-5.419959 4.51875,-5.415714 4.51875,-15.405459 0,-10.096008 -4.51875,-15.566982 -4.47201,-5.466725 -12.83362,-5.466725 m 62.47198,49.111257 q -11.93667,0 -19.08677,-7.519944 -7.09909,-7.566688 -7.09909,-20.034735 0,-13.560538 7.41366,-21.190997 7.41792,-7.621957 20.03474,-7.621957 12.0387,0 18.7722,7.41366 6.78452,7.413662 6.78452,20.557603 0,12.884639 -7.31164,20.66813 -7.25637,7.72824 -19.51187,7.72824 z m 0.62915,-49.111257 q -8.30637,0 -13.14394,5.679271 -4.8376,5.624011 -4.8376,15.562741 0,9.573144 4.8886,15.090875 4.8886,5.526238 13.09294,5.526238 8.36162,0 12.83363,-5.419959 4.51876,-5.415714 4.51876,-15.405459 0,-10.096008 -4.51876,-15.566982 -4.47201,-5.466725 -12.83788,-5.466725 z m 64.93755,47.325848 q -3.04794,1.683381 -8.04706,1.683381 -14.14291,0 -14.14291,-15.775287 V 32.086982 h -9.25433 v -7.362649 h 9.25433 V 11.580389 l 8.62518,-2.7886256 V 24.724333 h 13.56053 v 7.362649 h -13.56053 v 30.33905 q 0,5.415713 1.84066,7.732483 1.8364,2.312515 6.09586,2.312515 3.26049,0 5.62827,-1.785399 z m 8.25534,-1.445321 v -9.254324 q 7.04382,5.203165 15.51173,5.203165 11.35855,0 11.35855,-7.566689 0,-2.15949 -0.99899,-3.630314 a 8.9269993,8.9269993 0 0 0 -2.63133,-2.682354 18.279095,18.279095 0 0 0 -3.88962,-2.048956 148.78333,148.78333 0 0 0 -4.78657,-1.946941 68.015236,68.015236 0 0 1 -6.30842,-2.839632 21.254761,21.254761 0 0 1 -4.523,-3.260483 13.177953,13.177953 0 0 1 -2.73338,-4.153181 q -0.89268,-2.312517 -0.89268,-5.415713 0,-3.783347 1.73438,-6.678245 a 14.878333,14.878333 0 0 1 4.62503,-4.888595 21.254761,21.254761 0 0 1 6.57622,-3.001173 29.756666,29.756666 0 0 1 7.67722,-0.998974 q 6.99282,0 12.51481,2.423043 v 8.727205 q -5.94283,-3.893872 -13.67531,-3.893872 -2.42305,0 -4.36148,0.578129 a 10.627381,10.627381 0 0 0 -3.36676,1.530343 7.2266189,7.2266189 0 0 0 -2.15522,2.41454 6.3764284,6.3764284 0 0 0 -0.73542,3.052185 q 0,2.095719 0.73542,3.519788 0.78216,1.42407 2.2615,2.525066 1.47082,1.105248 3.57505,1.997947 2.10421,0.8927 4.78657,1.946937 3.5708,1.364555 6.41469,2.839632 a 21.254761,21.254761 0 0 1 4.83758,3.260486 q 1.99795,1.7854 3.04793,4.153177 1.10525,2.363533 1.10525,5.62401 0,3.995898 -1.7854,6.941808 -1.74288,2.945912 -4.68455,4.88859 a 21.679856,21.679856 0 0 1 -6.78027,2.894902 34.007618,34.007618 0 0 1 -8.04704,0.947965 q -8.30637,0 -14.41073,-3.209472 z m 73.92407,1.445321 q -3.04369,1.683381 -8.04281,1.683381 -14.14291,0 -14.14291,-15.775287 V 32.086982 h -9.25433 v -7.362649 h 9.25433 V 11.580389 l 8.62518,-2.7886256 V 24.724333 h 13.56054 v 7.362649 h -13.56054 v 30.33905 q 0,5.415713 1.84065,7.732483 1.83642,2.312515 6.09587,2.312515 3.26047,0 5.62827,-1.785399 v 7.358393 z m 39.60187,-44.592486 q -2.26151,-1.734388 -6.52096,-1.734388 -5.52624,0 -9.25433,5.203164 -3.68133,5.207417 -3.68133,14.198182 v 27.448399 h -8.62093 V 24.724333 h 8.62093 v 11.094985 h 0.21255 q 1.84492,-5.679273 5.62402,-8.833479 3.78334,-3.209469 8.46789,-3.209469 3.35825,0 5.15216,0.739666 z m 47.91248,45.102604 h -8.62519 v -8.416886 h -0.21254 q -5.61976,9.679412 -16.55322,9.679412 -8.04704,0 -12.62532,-4.259445 -4.51876,-4.259456 -4.51876,-11.307535 0,-15.090881 17.76899,-17.556433 l 16.14511,-2.265759 q 0,-13.722074 -11.09499,-13.722074 -9.72618,0 -17.56069,6.622984 v -8.833479 q 7.93653,-5.04588 18.30036,-5.04588 18.9805,0 18.9805,20.08575 z m -8.62944,-27.235848 -12.9824,1.785399 q -5.99384,0.841683 -9.04603,2.99692 -3.04793,2.104219 -3.04793,7.519933 0,3.944882 2.78861,6.469945 2.83964,2.465559 7.51996,2.465559 6.41892,0 10.56785,-4.463498 4.20845,-4.51877 4.20845,-11.413814 l -0.004,-5.360444 z m 33.71005,19.456602 h -0.21254 v 32.549554 h -8.62093 V 24.71158 h 8.62518 v 9.46262 h 0.20829 q 6.36368,-10.725153 18.61493,-10.725153 10.41483,0 16.24713,7.256375 5.83656,7.201113 5.83656,19.350335 0,13.513781 -6.57197,21.662855 -6.57622,8.098056 -17.98152,8.098056 -10.46585,0 -16.14513,-9.046017 z m -0.21254,-21.718112 v 7.524181 q 0,6.673997 4.31472,11.3543 4.36572,4.629284 11.03971,4.629284 7.83451,0 12.2555,-5.993839 4.46351,-5.993847 4.46351,-16.67224 0,-8.990761 -4.14894,-14.091904 -4.15317,-5.101144 -11.25227,-5.101144 -7.52418,0 -12.09395,5.258429 -4.57828,5.207417 -4.57828,13.092933"
     id="path4"
     style="display:inline;stroke-width:4.25094" />
  <path
     id="path1"
     style="display:inline;fill:#7952b3;fill-opacity:1"
     d="m 28.677119,2.5016388 c -7.177,1e-7 -12.487,6.2846094 -12.25,13.0996102 0.227,6.546 -0.06813,15.025453 -2.203125,21.939453 -2.14,6.936 -5.7588746,11.319812 -11.6718746,11.882812 v 6.386719 c 5.913,0.564 9.5318746,4.947813 11.6718746,11.882813 2.135,6.914 2.431125,15.395406 2.203125,21.941406 -0.237,6.814 5.073,13.097658 12.25,13.097658 h 73.539061 c 7.177,0 12.487,-6.282658 12.25,-13.097658 -0.228,-6.546 0.0672,-15.027406 2.20117,-21.941406 2.141,-6.936 5.75106,-11.319813 11.66406,-11.882813 v -6.386719 c -5.913,-0.564 -9.52306,-4.946812 -11.66406,-11.882812 -2.134,-6.914 -2.42917,-15.393453 -2.20117,-21.939453 0.237,-6.8150008 -5.073,-13.0996102 -12.25,-13.0996102 z M 46.638056,26.316092 h 21.800782 c 9.689,0 16.046875,5.245828 16.046875,13.298828 0,5.653 -4.276563,10.715563 -9.726563,11.601563 v 0.294922 c 7.418,0.813 12.414063,5.948015 12.414063,13.041015 0,9.383001 -7.002094,15.072266 -18.621094,15.072266 H 46.638056 Z m 8.478516,6.761719 v 15.921875 h 9.5 c 7.342,0 11.392578,-2.956281 11.392578,-8.238281 0,-4.951 -3.483281,-7.683594 -9.613281,-7.683594 z m 0,22.238281 V 72.86492 h 11.695313 c 7.645,0 11.693359,-3.067078 11.693359,-8.830078 0,-5.763 -4.162547,-8.71875 -12.185547,-8.71875 z" />
  <defs
     id="defs9">
    <linearGradient
       id="SVGrtNhteup"
       x1="19.799999"
       x2="129.70799"
       y1="4.704"
       y2="91.949997"
       gradientUnits="userSpaceOnUse">
      <stop
         stop-color="#9013FE"
         id="stop4" />
      <stop
         offset="1"
         stop-color="#6610F2"
         id="stop5" />
    </linearGradient>
    <linearGradient
       id="SVG4suLEe2b"
       x1="49.032001"
       x2="73.598"
       y1="29.374001"
       y2="70.921997"
       gradientUnits="userSpaceOnUse">
      <stop
         stop-color="#fff"
         id="stop6" />
      <stop
         offset="1"
         stop-color="#F1E5FC"
         id="stop7" />
    </linearGradient>
    <filter
       id="SVGK1NZcOOU"
       width="48.640999"
       height="61.415001"
       x="41.143002"
       y="22.795"
       color-interpolation-filters="sRGB"
       filterUnits="userSpaceOnUse">
      <feFlood
         flood-opacity="0"
         result="BackgroundImageFix"
         id="feFlood7" />
      <feColorMatrix
         in="SourceAlpha"
         result="hardAlpha"
         values="0 0 0 0 0 0 0 0 0 0 0 0 0 0 0 0 0 0 127 0"
         id="feColorMatrix7" />
      <feOffset
         dy=".983"
         id="feOffset7" />
      <feGaussianBlur
         stdDeviation="1.965"
         id="feGaussianBlur7" />
      <feColorMatrix
         values="0 0 0 0 0 0 0 0 0 0 0 0 0 0 0 0 0 0 0.15 0"
         id="feColorMatrix8" />
      <feBlend
         in2="BackgroundImageFix"
         result="effect1_dropShadow_2_2"
         id="feBlend8"
         mode="normal" />
      <feBlend
         in="SourceGraphic"
         in2="effect1_dropShadow_2_2"
         result="shape"
         id="feBlend9"
         mode="normal" />
    </filter>
  </defs>
</svg>
