<?xml version="1.0" encoding="UTF-8" standalone="no"?>
<svg
   id="Layer_1"
   data-name="Layer 1"
   viewBox="144.9 152.34 1174.2 183.31"
   version="1.1"
   width="1174.2"
   height="183.31"
   xmlns="http://www.w3.org/2000/svg"
   xmlns:svg="http://www.w3.org/2000/svg">
  <defs
     id="defs1">
    <style
       id="style1">
      .cls-1 {
        fill: #2668b8;
      }

      .cls-2 {
        fill: #0056d2;
      }
    </style>
  </defs>
  <g
     id="g9">
    <path
       id="path9"
       style="display:inline"
       class="cls-2"
       d="m 154.11432,244.93719 c 0,-44.81 36.63,-80.8 82.43,-80.8 a 83,83 0 0 1 69.67,37 l -34.34,19.92 a 42.94,42.94 0 0 0 -35.33,-18.32 c -23.55,0 -42.85,19.63 -42.85,42.2 0,22.57 19.3,42.2 42.85,42.2 a 42.46,42.46 0 0 0 36.31,-20 l 34,20.28 a 82.94,82.94 0 0 1 -70.33,38.28 c -45.78,0.04 -82.41,-36.64 -82.41,-80.76 z m 587.34,43.98 35.76,-18.72 c 5.91,12.81 17.73,20.36 34.48,20.36 15.43,0 21.34,-4.92 21.34,-11.82 0,-25 -84.71,-9.85 -84.71,-67 0,-31.52 27.58,-48.26 61.72,-48.26 25.94,0 48.92,11.49 61.4,32.83 l -35.44,18.75 c -5.25,-10.51 -15.1,-16.42 -27.58,-16.42 -12.14,0 -18.06,4.27 -18.06,11.49 0,24.3 84.71,8.87 84.71,67 0,30.21 -24.62,48.59 -64.35,48.59 -33.82,-0.03 -57.46,-11.19 -69.27,-36.8 z m 143.28,-43.8 c 0.09,-43.51 31.23,-80.74 80.62,-80.65 45.79998,0.09 78.10998,36.78 77.99998,80 a 80.06,80.06 0 0 1 -1,12.76 l -118.40998,-0.22 c 4.54,18.65 19.89,32.09 43.12,32.14 14.06,0 29.12,-5.18 38.29998,-16.94 l 27.44,22 c -14.11,19.93 -38.99998,31.66 -65.47998,31.61 -46.75,-0.16 -82.67,-35.23 -82.59,-80.7 z m 118.11998,-16.14 c -2.26,-15.7 -18.58998,-27.84 -37.88998,-27.87 -18.65,0 -33.71,11.06 -39.63,27.73 z m -509.85998,33.62 v -95.19 h 40.22 v 90.29 c 0,19.95 11.12,31.73 30.42,31.73 21.59,0 34,-13.09 34,-38.28 v -83.74 h 40.24 v 155.38 h -40.21 v -18 c -9.48,14.72 -24.86,21.92 -46.12,21.92 -35.98,0.01 -58.55,-26.16 -58.55,-64.11 z m 202.63,-77.19 v -18 l -40.23,0.09 0.34,155.37 40.23,-0.09 -0.22,-83.72 c -0.06,-25.18 12.35,-38.29 33.93,-38.34 a 39.06,39.06 0 0 1 4.12,0.23 l 7.42,-37.55 c -21,0.17 -36.22,7.39 -45.59,22.01 z m 404.26998,-0.01 v -18 h -40.23 v 155.39 h 40.23 v -83.73 c 0,-25.19 12.44,-38.27 34,-38.27 1.43,0 2.79,0.1 4.12,0.23 l 7.46,-37.51 c -20.97,0.11 -36.17,7.3 -45.58,21.89 z m 45.21,60.85 c 0,-48.74 39.58,-81.78 75.57,-81.78 24.53,0 38.6,7.52 48.08,21.92 l 3.77,-19 h 36.79 v 155.4 h -36.79 l -4.75,-16 c -10.79,11.78 -24.21,19 -47.1,19 -35.33,-0.05 -75.57,-31.13 -75.57,-79.54 z m 125.61,-0.33 a 43.000317,43.000317 0 0 0 -86,0.33 c 0,21.59 19.3,40.89 42.86,40.89 23.85,0 43.14,-19.3 43.14,-41.22 z m -956.84998,-0.98 c 0,-44.49 36.63,-80.47 82.43,-80.47 46.12,0 82.76,36 82.76,80.47 0,44.16 -36.64,80.8 -82.76,80.8 -45.8,0 -82.43,-36.68 -82.43,-80.8 z m 125.61,0 c 0,-22.24 -19.3,-41.87 -43.18,-41.87 -23.55,0 -42.85,19.63 -42.85,41.87 0,22.57 19.3,42.2 42.85,42.2 23.92,0 43.18,-19.63 43.18,-42.2 z" />
  </g>
</svg>
