<?xml version="1.0" encoding="UTF-8" standalone="no"?>
<svg
   height="393"
   width="1509"
   viewBox="-70.479 -27.58225 462.23341 120.38286"
   version="1.1"
   id="svg9"
   xmlns="http://www.w3.org/2000/svg"
   xmlns:svg="http://www.w3.org/2000/svg">
  <defs
     id="defs9" />
  <path
     d="m -36.51602,47.167555 h -16.744 c 2.217,7.605 6.331,14.422 12.354,20.445 9.602,9.604 21.148,14.398 34.65,14.398 2.6989999,0 5.31399996,-0.201 7.854,-0.584 10.17,-1.535 19.074,-6.133 26.703,-13.814 6.062,-6.021 10.205,-12.84 12.439,-20.445 h -16.731 z m -9.233,-22.742 h -8.747 a 51.144,51.144 0 0 0 -0.637,5.896 h 97.757 a 50.703,50.703 0 0 0 -0.641,-5.896 m -97.116,11.371 c 0.099,2.013 0.316,3.975 0.637,5.896 h 96.481 c 0.322,-1.921 0.542,-3.883 0.642,-5.896 m -1.885,-16.847 c -2.232,-7.625996 -6.376,-14.4739957 -12.441,-20.5399957 -7.609,-7.608 -16.488,-12.1740003 -26.625,-13.7100003 a 52.781,52.781 0 0 0 -7.932,-0.593 c -13.502,0 -25.049,4.769 -34.65,14.3030003 -6.025,6.066 -10.141,12.9139997 -12.357,20.5399957"
     fill="#2c2255"
     id="path1" />
  <path
     d="m -58.04002,33.060555 c 0,-25.8239957 19.395,-47.280996 44.626,-51.054996 -0.626,-0.023 -1.255,-0.049 -1.887,-0.049 -28.314,0 -51.269,22.8810003 -51.269,51.103996 0,28.224 22.954,51.103 51.269,51.103 0.634,0 1.263,-0.023 1.891,-0.047 -25.235,-3.774 -44.63,-25.231 -44.63,-51.056 z m 271.064,-55.165996 h 10.197 v 12.9120003 h -10.197 z"
     fill="#f7941e"
     id="path2" />
  <path
     d="m 112.35015,31.030555 v 4.986 H 65.465149 c 0.442,7.022 2.558,12.369 6.345,16.044 3.788,3.678 9.062,5.514 15.821997,5.514 3.916,0 7.712,-0.479 11.390001,-1.438 3.676003,-0.959 7.322003,-2.402 10.945003,-4.324 v 9.645 a 61.229,61.229 0 0 1 -11.251003,3.549 56.404,56.404 0 0 1 -11.693001,1.219 c -9.900997,0 -17.742997,-2.881 -23.524997,-8.646 -5.782,-5.764 -8.673,-13.556 -8.673,-23.384 0,-10.16 2.743,-18.224996 8.229,-24.189996 5.486,-5.9669997 12.886,-8.9509997 22.194997,-8.9509997 8.351,0 14.954004,2.688 19.812004,8.063 4.86,5.3699997 7.289,12.6759957 7.289,21.9129957 m -10.197,-2.992 c -0.075,-5.578 -1.636,-10.029996 -4.683003,-13.353996 -3.049001,-3.326 -7.085001,-4.9879997 -12.109001,-4.9879997 -5.689997,0 -10.243997,1.6069997 -13.660997,4.8219997 -3.418,3.213 -5.385,7.739996 -5.902,13.575996 z m 63.09,-23.1089957 v 9.5299997 c -2.883,-1.588 -5.773,-2.778 -8.673,-3.573 a 33.095,33.095 0 0 0 -8.785,-1.1909997 c -6.614,0 -11.749,2.0959997 -15.405,6.2889997 -3.658,4.192996 -5.487,10.077996 -5.487,17.649996 0,7.573 1.829,13.459 5.487,17.651 3.656,4.195 8.791,6.289 15.405,6.289 2.956,0 5.884,-0.396 8.785,-1.188 2.897,-0.795 5.79,-1.986 8.673,-3.576 v 9.421 a 41.887,41.887 0 0 1 -8.84,2.992 c -3.05,0.666 -6.289,0.998 -9.727,0.998 -9.348,0 -16.773,-2.938 -22.277,-8.812 -5.506,-5.873 -8.258,-13.798 -8.258,-23.774 0,-10.121 2.779,-18.083996 8.34,-23.8859957 5.56,-5.799 13.182,-8.7 22.859,-8.7 3.142,0 6.208,0.325 9.202,0.971 a 41.84,41.84 0 0 1 8.701,2.909 m 9.221,-26.5470003 h 10.199 v 86.230996 h -10.199 z m 23.021,24.1610003 h 10.197 V 64.613555 h -10.197 z m 32.885,52.7599957 v 32.92 h -10.252 V 2.5435593 h 10.252 v 9.4229997 c 2.145,-3.6929997 4.852,-6.4379997 8.12,-8.2299997 3.271,-1.789 7.177,-2.688 11.722,-2.688 7.537,0 13.661,2.991 18.37,8.9789997 4.711,5.986 7.065,13.854996 7.065,23.606996 0,9.756 -2.354,17.625 -7.065,23.608 -4.709,5.984 -10.833,8.979 -18.37,8.979 -4.545,0 -8.451,-0.896 -11.722,-2.689 -3.271,-1.789 -5.978,-4.533 -8.12,-8.229 m 34.693,-21.669 c 0,-7.5 -1.543,-13.384 -4.628,-17.649996 -3.085,-4.266 -7.324,-6.3989997 -12.72,-6.3989997 -5.396,0 -9.636,2.1329997 -12.719,6.3989997 -3.085,4.268996 -4.629,10.149996 -4.629,17.649996 0,7.502 1.544,13.387 4.629,17.651 3.083,4.27 7.323,6.4 12.719,6.4 5.396,0 9.635,-2.133 12.72,-6.4 3.085,-4.264 4.628,-10.149 4.628,-17.651 m 58.546,-29.2599957 v 9.6439997 a 39.913,39.913 0 0 0 -8.979,-3.326 c -3.104,-0.7379997 -6.317,-1.1059997 -9.643,-1.1059997 -5.062,0 -8.857,0.7739997 -11.39,2.3269997 -2.531,1.552 -3.794,3.879 -3.794,6.981996 0,2.363 0.901,4.221 2.714,5.57 1.81,1.348 5.447,2.631 10.918,3.852 l 3.489,0.775 c 7.241,1.553 12.388,3.739 15.436,6.567 3.049,2.826 4.573,6.771 4.573,11.83 0,5.765 -2.282,10.326 -6.848,13.689 -4.562,3.359 -10.833,5.043 -18.812,5.043 -3.324,0 -6.789,-0.324 -10.394,-0.969 -3.603,-0.646 -7.396,-1.617 -11.389,-2.91 v -10.531 c 3.771,1.961 7.482,3.428 11.14,4.408 3.658,0.979 7.278,1.467 10.862,1.467 4.804,0 8.496,-0.82 11.084,-2.465 2.587,-1.646 3.878,-3.963 3.878,-6.955 0,-2.771 -0.932,-4.896 -2.796,-6.375 -1.867,-1.478 -5.959,-2.9 -12.278,-4.269 l -3.545,-0.829 c -6.316,-1.33 -10.881,-3.371 -13.688,-6.123 -2.809,-2.752 -4.212,-6.529 -4.212,-11.334 0,-5.838996 2.068,-10.3449957 6.207,-13.5209957 4.138,-3.178 10.013,-4.768 17.623,-4.768 3.769,0 7.314,0.276 10.641,0.83 3.328,0.558 6.394,1.388 9.203,2.497 m 64.142,26.6559957 v 4.986 h -46.885 c 0.443,7.022 2.558,12.369 6.347,16.044 3.785,3.678 9.062,5.514 15.82,5.514 3.918,0 7.713,-0.479 11.39,-1.438 3.678,-0.959 7.323,-2.402 10.946,-4.324 v 9.645 a 61.263,61.263 0 0 1 -11.252,3.549 56.375,56.375 0 0 1 -11.69,1.219 c -9.903,0 -17.744,-2.881 -23.524,-8.646 -5.784,-5.764 -8.675,-13.556 -8.675,-23.384 0,-10.16 2.744,-18.224996 8.229,-24.189996 5.486,-5.9679997 12.889,-8.9509997 22.196,-8.9509997 8.349,0 14.954,2.688 19.812,8.063 4.856,5.3699997 7.286,12.6759957 7.286,21.9129957 m -10.197,-2.992 c -0.076,-5.578 -1.636,-10.029996 -4.686,-13.353996 -3.049,-3.326 -7.086,-4.9879997 -12.106,-4.9879997 -5.689,0 -10.244,1.6069997 -13.66,4.8219997 -3.418,3.213 -5.389,7.739996 -5.903,13.575996 z"
     fill="#2c2255"
     id="path3" />
  <g
     transform="translate(-137.64002,-345.76844)"
     id="g8">
    <linearGradient
       gradientTransform="translate(-371,474.5)"
       y2="-113.711"
       x2="502.38501"
       y1="-40.076"
       x1="502.38501"
       gradientUnits="userSpaceOnUse"
       id="a">
      <stop
         offset=".303"
         stop-color="#473788"
         id="stop3" />
      <stop
         offset=".872"
         stop-color="#2c2255"
         id="stop4" />
    </linearGradient>
    <path
       d="m 164.653,376.089 a 33.31,33.31 0 0 0 -1.012,-5.896 h -64.51 a 33.263,33.263 0 0 0 -1.013,5.896 z"
       fill="url(#a)"
       id="path4"
       style="fill:url(#a)" />
    <linearGradient
       gradientTransform="translate(-371,474.5)"
       y2="-113.71"
       x2="502.38599"
       y1="-40.075001"
       x1="502.38599"
       gradientUnits="userSpaceOnUse"
       id="b">
      <stop
         offset=".303"
         stop-color="#473788"
         id="stop5" />
      <stop
         offset=".872"
         stop-color="#2c2255"
         id="stop6" />
    </linearGradient>
    <path
       d="M 164.653,381.565 H 98.119 a 33.234,33.234 0 0 0 1.012,5.896 h 64.511 a 33.308,33.308 0 0 0 1.011,-5.896 z"
       fill="url(#b)"
       id="path6"
       style="fill:url(#b)" />
    <linearGradient
       gradientTransform="translate(-371,474.5)"
       y2="-113.707"
       x2="502.38599"
       y1="-40.077999"
       x1="502.38599"
       gradientUnits="userSpaceOnUse"
       id="c">
      <stop
         offset=".303"
         stop-color="#473788"
         id="stop7" />
      <stop
         offset=".863"
         stop-color="#2c2255"
         id="stop8" />
    </linearGradient>
    <path
       d="m 131.386,412.217 c 13.397,0 24.945,-7.893 30.263,-19.281 h -60.526 c 5.318,11.388 16.866,19.281 30.263,19.281 z"
       fill="url(#c)"
       id="path8"
       style="fill:url(#c)" />
  </g>
  <path
     d="m -44.45202,35.796555 h 87.01 c 0.046,-0.871 0.072,-1.748 0.072,-2.632 0,-0.955 -0.035,-1.901 -0.089,-2.845 h -97.674 c -0.054,0.942 -0.089,1.89 -0.089,2.845 0,0.884 0.026,1.761 0.072,2.632 z m 7.74,-16.847 h -16.552 c -0.544,1.783 -0.895,3.612 -1.232,5.477 h 96.17 a 48.656,48.656 0 0 0 -1.316,-5.477 m -4.972,22.742 h -89.883 c 0.328,1.863 0.701,3.691 1.236,5.476 h 93.939 a 48.37,48.37 0 0 0 1.294,-5.476 z"
     fill="#ffffff"
     id="path9" />
</svg>
