<?xml version="1.0" encoding="UTF-8" standalone="no"?>
<!-- Created with Inkscape (http://www.inkscape.org/) -->

<svg
   version="1.1"
   id="svg1"
   width="1275"
   height="650"
   viewBox="0 0 910.71586 464.28651"
   sodipodi:docname="git-logo.svg"
   inkscape:version="1.4.2 (f4327f4, 2025-05-13)"
   xmlns:inkscape="http://www.inkscape.org/namespaces/inkscape"
   xmlns:sodipodi="http://sodipodi.sourceforge.net/DTD/sodipodi-0.dtd"
   xmlns="http://www.w3.org/2000/svg"
   xmlns:svg="http://www.w3.org/2000/svg">
  <defs
     id="defs1" />
  <sodipodi:namedview
     id="namedview1"
     pagecolor="#ffffff"
     bordercolor="#000000"
     borderopacity="0.25"
     inkscape:showpageshadow="2"
     inkscape:pageopacity="0.0"
     inkscape:pagecheckerboard="0"
     inkscape:deskcolor="#d1d1d1"
     inkscape:zoom="0.79792979"
     inkscape:cx="634.141"
     inkscape:cy="342.76199"
     inkscape:window-width="1920"
     inkscape:window-height="1017"
     inkscape:window-x="-8"
     inkscape:window-y="-8"
     inkscape:window-maximized="1"
     inkscape:current-layer="g1" />
  <g
     inkscape:groupmode="layer"
     inkscape:label="Image"
     id="g1">
    <path
       id="path2"
       style="display:inline;fill:#f05134;fill-opacity:1"
       d="m 232.76839,11.713772 c -1.25252,-0.04589 -2.532,0.06269 -4.10352,0.08984 -10.80509,0.186675 -13.60299,2.126189 -37.69726,26.136719 -17.89266,17.830465 -21.16581,21.53415 -20.33008,23 0.54787,0.960961 11.73848,12.463027 24.86914,25.5586 22.83041,22.769379 24.00085,23.774639 26.78711,23.025389 5.93608,-1.59625 15.87451,-0.72945 21.57617,1.88086 10.73975,4.91682 17.14637,12.72925 19.89258,24.25586 1.53924,6.46066 1.60815,8.19798 0.51367,12.90625 l -1.26367,5.4414 24.59765,24.46485 24.59766,24.46679 3.5,-0.98047 c 5.28884,-1.48265 15.80307,-0.37845 21.33984,2.24219 6.64398,3.1447 13.69569,10.31002 17.21094,17.48633 2.50705,5.11809 2.94131,7.17942 2.94531,14.02148 0.004,7.05518 -0.39257,8.8254 -3.28906,14.70899 -4.22565,8.58351 -10.94755,14.6011 -19.80078,17.72656 -16.27358,5.74506 -34.50799,-1.79842 -42.33398,-17.51367 -2.84375,-5.71049 -3.93912,-17.64727 -2.19727,-23.94922 l 1.10352,-3.99414 -21.69336,-21.71289 c -11.9315,-11.94192 -21.84908,-21.55718 -22.03907,-21.36719 -0.19,0.18999 -0.34093,26.83597 -0.33593,59.21289 0.009,55.51932 0.11265,58.92406 1.80078,59.86719 0.98446,0.55 4.11692,3.36625 6.96094,6.25781 12.91133,13.12717 12.51504,35.28237 -0.85547,47.86133 -18.34032,17.25456 -47.18037,10.84351 -56.34961,-12.52734 -3.47103,-8.84709 -3.18539,-17.59605 0.85547,-26.13086 2.90312,-6.13175 10.31376,-14.15375 14.78515,-16.00586 l 2.89258,-1.19727 V 236.079 175.21377 l -3.75,-2.36914 c -5.69191,-3.5964 -11.02783,-9.54726 -14.03906,-15.65625 -2.34635,-4.76012 -2.71094,-6.72408 -2.71094,-14.59766 0,-6.24492 0.43017,-9.61661 1.37305,-10.75195 1.22293,-1.47258 -1.30624,-4.34001 -23.0625,-26.15234 -13.43963,-13.474269 -24.92897,-24.498049 -25.53321,-24.498049 -0.60424,0 -31.39208,30.370839 -68.416012,67.490229 -47.749998,47.87311 -68.041803,68.87341 -69.814453,72.25 -3.4716772,6.61294 -3.5542982,17.7186 -0.179687,24.25977 1.626934,3.15356 32.589758,34.76121 103.478512,105.63867 87.082,87.06811 101.78036,101.36156 105.6543,102.73242 6.82474,2.41506 17.60319,1.64835 23.14453,-1.64648 2.41413,-1.43542 49.01048,-47.30795 104.5332,-102.9082 l 100.17579,-100.31641 1.69726,-5.93164 c 2.06543,-7.22136 1.43391,-15.66719 -1.63086,-21.83008 C 446.18053,218.01645 414.17644,185.31461 345.45979,116.53604 248.94934,19.938599 241.53601,12.034986 232.76839,11.713772 Z"
       inkscape:label="icon" />
    <path
       style="display:inline;fill:#3e2d01;fill-opacity:1;stroke-width:0.762293"
       d="m 552.27976,385.85036 c -31.75073,-2.8263 -49.68121,-10.72196 -56.69284,-24.96458 -2.43285,-4.94182 -2.49583,-5.32062 -2.49583,-15.01162 0,-9.76045 0.0472,-10.03768 2.58449,-15.19171 1.6892,-3.43125 4.59389,-7.35595 8.38523,-11.32974 5.30843,-5.56389 5.67817,-6.1521 4.35658,-6.93082 -4.84904,-2.85717 -7.89493,-5.89571 -9.96244,-9.9384 -1.92925,-3.77236 -2.27792,-5.33313 -2.29479,-10.27225 -0.0174,-5.09097 0.30581,-6.49389 2.56788,-11.14604 2.19009,-4.50413 4.3941,-7.10099 14.34141,-16.8977 l 11.75364,-11.57568 -2.14472,-1.35426 c -12.11297,-7.64862 -19.47945,-17.67323 -23.25588,-31.64752 -2.40675,-8.90593 -2.40054,-23.39491 0.014,-32.65404 6.06429,-23.25502 22.69964,-38.05082 48.92087,-43.51121 11.0466,-2.30037 29.28677,-2.75298 40.78269,-1.01198 7.31161,1.10731 15.7262,1.4687 41.92613,1.80063 l 32.77862,0.41529 0.20779,13.44264 0.20781,13.44263 -2.49469,0.42901 c -1.37207,0.23595 -7.81168,0.83805 -14.31022,1.338 -6.49855,0.49994 -11.94417,1.01827 -12.10137,1.15184 -0.15719,0.13356 1.03102,2.22671 2.64047,4.65146 8.26284,12.44849 10.43981,27.42173 6.33438,43.56802 -3.86737,15.21006 -15.99916,28.47634 -31.923,34.90827 -15.08583,6.09342 -36.19773,7.85932 -54.7363,4.57836 l -5.55242,-0.98267 -4.92912,7.85203 c -2.71101,4.31863 -4.92912,8.20098 -4.92912,8.62746 0,0.42648 0.94334,0.778 2.09631,0.78116 4.76364,0.013 52.71935,3.11199 59.52567,3.8466 25.3013,2.73083 39.50645,7.29991 48.01762,15.44482 1.39556,1.33552 3.85992,5.17245 5.47636,8.52654 3.61359,7.49821 4.98431,15.77952 4.31026,26.04089 -1.86017,28.31864 -23.61024,46.6564 -62.25422,52.48732 -9.64349,1.45508 -36.1521,2.06634 -47.15125,1.08725 z m 41.55393,-31.91859 c 10.8255,-2.21792 16.3885,-5.65101 18.90106,-11.66443 3.43533,-8.22189 -0.93212,-14.06451 -11.77916,-15.75772 -2.7252,-0.42539 -14.90283,-1.46934 -27.06141,-2.31987 -12.15858,-0.85052 -25.03675,-1.753 -28.61815,-2.00551 l -6.51165,-0.4591 -3.09062,4.45157 c -3.69769,5.32597 -4.85011,8.45085 -4.8463,13.14113 0.008,9.01249 8.3014,13.9843 26.87949,16.11269 8.26636,0.94701 28.23188,0.11872 36.12674,-1.49876 z M 588.96198,226.3564 c 6.45515,-3.19031 10.0097,-6.82954 12.84029,-13.14619 2.42146,-5.40363 2.43154,-17.15748 0.02,-23.33716 -2.13684,-5.47583 -6.86468,-10.85944 -11.67919,-13.29914 -5.4564,-2.76496 -14.34214,-3.89198 -21.94679,-2.78358 -14.38153,2.09613 -22.92571,10.47142 -24.29811,23.81779 -1.13486,11.03641 1.41565,20.03863 7.0885,25.01946 6.01383,5.28022 12.16144,7.04192 23.71069,6.7947 8.04444,-0.1722 8.69063,-0.31108 14.26457,-3.06588 z m 243.34963,83.00378 c -12.97862,-2.16686 -19.27073,-4.83342 -25.55966,-10.83204 -5.10616,-4.87045 -7.47849,-8.67038 -9.79928,-15.69622 -2.82541,-8.55348 -3.10627,-14.20925 -3.12178,-62.86438 -0.009,-26.06473 -0.22331,-47.93302 -0.4778,-48.5962 -0.39507,-1.02953 -2.23363,-1.20578 -12.57784,-1.20578 h -12.11514 v -14.39727 -14.39726 l 5.14549,-0.94995 c 21.86385,-4.0365 32.43787,-16.48103 36.70075,-43.192989 l 1.31607,-8.24677 h 15.1995 15.1995 l 0.20186,23.604219 c 0.11556,13.51589 0.50981,23.91226 0.92252,24.32495 0.41789,0.4179 10.42169,0.74946 23.81034,0.78915 l 23.08971,0.0685 0.20575,16.19873 0.20574,16.19873 h -24.05618 -24.05615 l 0.23143,44.78473 c 0.21314,41.23083 0.34212,45.07229 1.62597,48.40835 1.81022,4.7039 6.27818,8.54559 11.3552,9.76355 5.93461,1.42369 19.29254,0.48914 27.53812,-1.92662 3.72418,-1.09109 6.95775,-1.79722 7.18575,-1.56918 0.449,0.44899 8.52,26.30179 8.52671,27.31238 0.0114,1.79323 -20.46819,8.84581 -32.72163,11.26816 -10.17204,2.01086 -25.68441,2.53741 -33.97495,1.15326 z M 679.4718,297.10786 c 0,-12.41759 0.0207,-12.57371 1.71516,-12.93717 0.94334,-0.20234 5.23626,-0.8571 9.53983,-1.45503 4.30356,-0.59793 8.33418,-1.51 8.95694,-2.02684 1.65952,-1.37728 1.71277,-102.49464 0.0552,-104.86112 -0.67382,-0.96202 -4.68299,-2.79257 -10.7087,-4.88948 l -9.63163,-3.35178 0.52527,-4.23707 c 0.28893,-2.33039 1.08482,-8.18194 1.76866,-13.00344 l 1.24337,-8.76638 33.32159,-0.19857 33.32162,-0.19858 0.20241,69.33876 c 0.14842,50.8404 0.43538,69.57165 1.0756,70.21175 0.48024,0.48014 5.28269,1.50709 10.6721,2.2821 5.38942,0.775 9.8932,1.42833 10.00839,1.45182 0.1152,0.0234 0.1152,5.61699 0,12.42998 l -0.20945,12.38727 -45.92818,0.19652 -45.92816,0.19652 z m 32.39747,-182.90151 c -12.94582,-3.2078 -19.57707,-12.71299 -19.6485,-28.163989 -0.0577,-12.488946 4.48282,-20.727677 13.87673,-25.179014 4.83738,-2.292211 5.363,-2.373758 15.30043,-2.373758 9.51067,0 10.61386,0.151424 14.5495,1.997067 5.4022,2.533395 9.08709,6.218296 11.85476,11.854763 1.99928,4.071622 2.18174,5.144482 2.18174,12.828442 0,4.61187 -0.26512,9.63054 -0.58915,11.1526 -0.9083,4.266499 -6.13121,11.747109 -9.85386,14.113369 -6.88633,4.37722 -18.71726,5.98929 -27.67165,3.77052 z"
       id="path1"
       inkscape:label="text" />
  </g>
</svg>
