<?xml version="1.0" encoding="UTF-8" standalone="no"?>
<svg
   id="Layer_1"
   viewBox="0 0 526.55228 116.5436"
   width="1500"
   height="332"
   version="1.1"
   xmlns="http://www.w3.org/2000/svg"
   xmlns:svg="http://www.w3.org/2000/svg">
  <defs
     id="defs6" />
  <style
     id="style1">.st0{fill:#02303a}.st1{fill:#22da27}.st2{fill:#fff}</style>
  <path
     class="st0"
     d="m 178.9447,47.374865 c 4,-9.2 3.9,-18.3 1.5,-25.5 -3,-8.8 -15.3,-20.4 -19.2,-15.8 -0.5,0.6 -7.6,-0.2 -8.7,1.3 -1.7,2.2 -0.7,2.9 0.1,3.7 2.5,2.2 8.8,4.6 11.7,12.1 1.2,3.2 4,10.6 -0.9,15.1 -5.5,5 -11.7,6.2 -37.1,-17.4 -26.999997,-25.1 -63.199997,-14.9 -75.199997,-10.9 -12,4 -17.5,8 -12.8,17.2 6.4,12.6 4.3,8.7 10.6,19.1 9.9,16.5 31.7,-7.6 31.7,-7.6 -16.2,24.4 -30.1,18.5 -35.4,10 -4.8,-7.7 -8.5,-16.5 -8.5,-16.5 -41,14.8 -29.9,79.999995 -29.9,79.999995 h 20.4 c 5.2,-23.999995 23.8,-23.099995 26.9,0 h 15.5 c 13.7,-46.899995 43.099997,0 43.099997,0 h 17.4 c 0,-24.999995 -2.6,-34.399995 10.2,-36.199995 21.8,-2.9 32,-13.1 38.6,-28.6 z"
     id="path1" />
  <path
     class="st1"
     d="m 252.4447,41.074865 v 9.9 c 2.1,-3.6 6.9,-11.8 22.5,-11.3 l -0.1,17.1 c -3.6,0.1 -9.9,0.2 -15,4.1 -7.1,5.4 -7.4,12.5 -7.4,24 v 26.299995 h -16.1 V 40.974865 Z m 29.2,21 c 0.3,-3.5 0.6,-6.9 2.8,-10.9 6.7,-12.1 23.2,-12 27.7,-12 6.7,0 14.7,0.9 20.8,4.5 8.2,5 8.3,11.6 8.3,19.1 l -0.1,36.8 c 0,5.299995 0,7.399995 3,11.599995 h -19.7 c -0.1,-1.7 -0.4,-4.9 -0.4,-5.8 -3.6,3 -11,7 -20.6,7 -15.7,-0.1 -25.1,-9.8 -25.1,-21.799995 0,-3.5 0.9,-6.7 2.3,-9.4 5,-10 15.7,-12.2 22.4,-13.4 22.7,-3.8 21.4,-6 21,-9.4 -0.3,-3.2 -3.6,-6.2 -11.3,-6.2 -6.9,0 -10.7,2.2 -12.4,4.4 -1.8,2.2 -1.7,3.6 -1.7,5.6 z m 42.8,14.1 c -3.3,1.7 -7.1,2.9 -14.6,4.1 -6,0.8 -13.9,2.2 -13.9,9.5 0,5.4 4.6,8.2 11.2,8.2 8.5,0 14.5,-3.8 16.3,-8 1,-2.1 1,-4.2 1,-6.2 z m 91.4,-63.2 -0.3,98.199995 h -16.5 v -6.8 c -5.2,6.2 -12.1,8.7 -19.3,8.7 -16.5,-0.1 -30.8,-12.5 -30.7,-35.399995 0.1,-20.7 11.8,-38.3 31.7,-38.2 6.8,0 13.1,2 18.4,7.8 v -34.3 z m -20.6,48.3 c -2.5,-3.8 -6.6,-6.4 -12.2,-6.4 -11.3,0 -16.7,10.1 -16.7,21.1 0,1.3 0.1,22.1 16.3,22.1 8.6,0 16.4,-6.3 16.3,-21.3 -0.2,-4.5 -0.7,-10.9 -3.7,-15.5 z m 49.6,-48.3 -0.3,98.199995 h -16.8 V 12.974865 Z m 74.5,81.9 c -7.7,13.599995 -17.5,18.599995 -31.7,18.599995 -18.2,-0.1 -35.7,-11.6 -35.6,-37.199995 0.1,-23.3 15.1,-36.5 34.7,-36.4 18.3,0.1 25.9,11.1 27.3,13.1 5.7,8.1 6.9,20.2 7,27.1 l -51.4,-0.2 c 1.9,11 8.7,17.3 19.7,17.3 11.4,0 14.4,-6.7 16.5,-9.6 z m -16.5,-27.1 c -1.5,-10.8 -8.1,-14.6 -15.5,-14.6 -8.9,0 -15,5.1 -17,14.5 z"
     id="path2" />
  <g
     id="g3"
     transform="translate(5.444703,2.474865)">
    <path
       class="st1"
       d="m 179.6,57.4 v 14.4 h 24.6 v 16.9 c -6.3,4 -13.5,6.3 -23.8,6.3 -16.6,0 -30.3,-13.9 -30.3,-35.6 0,-21.3 12.6,-35.5 31.8,-35.5 15.4,0 21.2,12.7 22.1,17.5 h 16.8 c 0,-9.8 -11.6,-33.9 -40.4,-33.9 -30.5,0 -48.5,21.6 -48.5,52 0,31.6 21.6,51.4 47.4,51.4 38.2,0 41.5,-19.1 41.5,-19.1 V 57.4 Z"
       id="path3" />
  </g>
  <path
     class="st0"
     d="m 182.0447,30.474865 c -3.7,0.3 -7.4,0.9 -10.9,1.9 -0.1,0.1 -0.2,0.3 -0.3,0.4 -1.6,1.8 -3.6,3.5 -5.8,4.5 -0.3,0.2 -0.6,0.3 -0.9,0.4 l -0.6,0.6 c -5.5,5 -12.2,6.2 -37.1,-17.4 -26.699997,-25.3 -63.199997,-14.9 -75.199997,-10.9 -12,4 -17.5,8 -12.8,17.2 6.4,12.6 4.3,8.7 10.6,19.1 9.9,16.5 31.7,-7.6 31.7,-7.6 -16.2,24.4 -30.1,18.5 -35.4,10 -4.8,-7.7 -8.5,-16.5 -8.5,-16.5 -41,14.8 -29.9,79.999995 -29.9,79.999995 h 20.4 c 5.2,-23.999995 23.8,-23.099995 26.9,0 h 15.5 c 13.7,-46.899995 43.099997,0 43.099997,0 h 17.4 c 0,-24.999995 -2.6,-34.399995 10.2,-36.199995 21.9,-3 32,-13.2 38.6,-28.6 2.4,-5.8 3.3,-11.6 3,-16.9 z"
     id="path4" />
  <g
     id="g5"
     transform="translate(5.444703,2.474865)">
    <path
       class="st2"
       d="m 102.7,34.5 c 0,0 9.4,3.1 22,7.3 -0.7,3.4 -7,9.9 -15.1,7.1 -10.8,-3.5 -6.9,-14.4 -6.9,-14.4 z"
       id="path5" />
    <ellipse
       transform="rotate(-6.066,113.363,41.285)"
       class="st0"
       cx="113.4"
       cy="41.299999"
       rx="5.6999998"
       ry="5.5"
       id="ellipse5" />
  </g>
  <path
     class="st0"
     d="m 152.6447,11.174865 c 0.7,0.6 1.6,1.2 2.5,1.8 4.2,-3.5 9.7,-3.4 14.4,-5.3 -4.1,-3.8 -10.7,-6.7 -12.7,-4.3 -0.5,0.6 -3.1,2.6 -4.2,4.1 -1.8,2.2 -0.9,2.9 0,3.7 z"
     id="path6" />
</svg>
