<?xml version="1.0" encoding="UTF-8" standalone="no"?>
<svg
   width="1448"
   height="330"
   fill="none"
   viewBox="0 0 301.66687 68.750017"
   version="1.1"
   id="svg9"
   xmlns="http://www.w3.org/2000/svg"
   xmlns:svg="http://www.w3.org/2000/svg">
  <defs
     id="defs4">
    <linearGradient
       id="a"
       x1="-0.71999902"
       x2="24.1436"
       y1="7.62784"
       y2="61.252399"
       gradientUnits="userSpaceOnUse"
       gradientTransform="translate(2.4689791,2.6142132)">
      <stop
         offset=".1"
         stop-color="#FC801D"
         id="stop1" />
      <stop
         offset=".59"
         stop-color="#FE2857"
         id="stop2" />
    </linearGradient>
    <linearGradient
       id="b"
       x1="4.2203102"
       x2="62.921101"
       y1="60.0205"
       y2="1.31055"
       gradientUnits="userSpaceOnUse"
       gradientTransform="translate(2.4689791,2.6142132)">
      <stop
         offset=".21"
         stop-color="#FE2857"
         id="stop3" />
      <stop
         offset=".7"
         stop-color="#007EFF"
         id="stop4" />
    </linearGradient>
  </defs>
  <path
     fill="#000000"
     fill-rule="evenodd"
     d="m 80.600722,48.995477 h -5.46 v -29.96 h 5.46 z m 17.150001,-22.43 c 1.57,0 2.949997,0.34 4.129997,1.03 l 0.01,0.03 c 1.18,0.68 2.11,1.68 2.76,2.97 0.65,1.29 0.98,2.84 0.98,4.64 v 13.78 h -5.03 v -13.01 c 0,-1.06 -0.18,-1.96 -0.54,-2.7 -0.359997,-0.74 -0.869997,-1.31 -1.539997,-1.7 -0.67,-0.39 -1.47,-0.59 -2.4,-0.59 -1,0 -1.88,0.22 -2.65,0.67 -0.77,0.45 -1.37,1.07 -1.79,1.88 -0.42,0.81 -0.63,1.72 -0.63,2.75 v 12.69 h -5.050001 v -21.92 h 4.900001 v 3.21 c 0.63,-1.06 1.44,-1.92 2.45,-2.55 1.25,-0.79 2.72,-1.18 4.4,-1.18 z m 14.269997,-4.83 h 4.7 v 5.35 h 5.82 l -0.02,4.39 h -5.82 l 0.02,11.06 c 0,0.6 0.2,1.1 0.59,1.49 0.39,0.39 0.89,0.59 1.49,0.59 h 3.72 v 4.39 h -4.73 c -1.17,0 -2.23,-0.25 -3.16,-0.75 -0.93,-0.5 -1.66,-1.2 -2.18,-2.08 -0.52,-0.89 -0.78,-1.89 -0.78,-3 l -0.02,-11.71 h -3.85 l 0.02,-4.39 h 2.4 c 0.55,0 0.98,-0.16 1.31,-0.5 0.33,-0.33 0.49,-0.76 0.49,-1.29 z m 23.23,4.83 c 2.16,0 4.08,0.49 5.76,1.46 l -0.02,-0.01 c 1.69,0.98 3,2.33 3.93,4.06 0.93,1.73 1.4,3.71 1.4,5.94 v 1.22 h -17.29 c 0.1,1.01 0.35,1.94 0.78,2.77 0.54,1.05 1.28,1.86 2.23,2.45 0.95,0.59 2.02,0.88 3.22,0.88 1.06,0 2.01,-0.21 2.85,-0.62 0.84,-0.41 1.54,-0.99 2.1,-1.73 h 5.5 c -0.52,1.36 -1.27,2.52 -2.25,3.49 -0.98,0.97 -2.17,1.72 -3.57,2.25 -1.39,0.53 -2.94,0.79 -4.64,0.79 -2.15,0 -4.09,-0.5 -5.81,-1.48 -1.72,-0.99 -3.08,-2.35 -4.07,-4.11 -0.99,-1.76 -1.49,-3.78 -1.49,-5.93 0,-2.15 0.5,-4.1 1.5,-5.84 1,-1.74 2.37,-3.11 4.1,-4.1 1.74,-0.99 3.61,-1.49 5.77,-1.49 z m -6.118,9.28 h 12.018 c -0.12,-0.67 -0.31,-1.3 -0.59,-1.89 -0.5,-1.06 -1.21,-1.89 -2.13,-2.49 -0.92,-0.6 -1.98,-0.9 -3.18,-0.9 -1.2,0 -2.27,0.29 -3.22,0.87 -0.95,0.58 -1.69,1.38 -2.23,2.4 -0.328,0.6171 -0.538,1.2937 -0.668,2.01 z m 25.918,13.15 h -5.05 v -29.96 h 5.05 z m 9.93,0 h -5.05 v -29.96 h 5.05 z m 9.92,-22.53 v 13.95 h -5.14 v -13.95 z m 5.84,15.1 c 0.46,-0.81 0.69,-1.74 0.69,-2.8 l -0.01,-0.01 v -19.73 h 5.33 v 20.2 c 0,1.95 -0.45,3.65 -1.34,5.12 -0.9,1.47 -2.15,2.61 -3.75,3.42 -1.61,0.81 -3.47,1.22 -5.58,1.22 h -6.33 v -4.86 h 6.23 c 1.07,0 2.02,-0.22 2.84,-0.67 0.82,-0.45 1.46,-1.08 1.92,-1.89 z m -11.17,-21.67 h 5.76 v 5.01 h -5.76 z m 41.31,29.1 h -5.46 v -29.96 h 5.46 z m 17.16,-29.96 c 2.83,0 5.36,0.65 7.59,1.93 v -0.02 c 2.23,1.29 3.97,3.06 5.23,5.33 1.25,2.27 1.88,4.84 1.88,7.73 0,2.89 -0.62,5.46 -1.88,7.73 -1.25,2.27 -2.99,4.04 -5.23,5.33 -2.24,1.29 -4.76,1.93 -7.59,1.93 h -11.24 v -29.96 z m 4.85,24.06 c 1.4,-0.85 2.49,-2.04 3.25,-3.6 v 0.01 c 0.77,-1.56 1.15,-3.38 1.15,-5.48 0,-2.1 -0.39,-3.92 -1.15,-5.48 -0.76,-1.56 -1.84,-2.76 -3.25,-3.6 -1.41,-0.84 -3.04,-1.26 -4.89,-1.26 h -5.86 v 20.67 h 5.86 c 1.85,0 3.49,-0.41 4.89,-1.26 z m 34.08,-6.85 h -14.6 v 8.03 h 16.48 v 4.73 h -21.68 v -29.96 h 21.25 v 4.73 h -16.05 v 7.85 h 14.6 z m 15.27,-17.21 h 5.76 l 11.21,29.96 h -5.39 l -2.55,-7.19 h -12.03 l -2.35,7.19 h -5.52 z m 2.37,6.57 -4.04,12.01 h 9.26 l -4.3,-12.01 -0.47,-1.86 z"
     clip-rule="evenodd"
     id="path10"
     style="display:inline" />
  <path
     fill="#ff8100"
     d="M 18.418979,8.4423332 H 6.5389791 c -2.25,0 -4.07,1.8297198 -4.07,4.0693598 v 11.50822 c 0,1.1898 0.519998,2.3196 1.42,3.0895 l 38.1599999,32.7048 c 0.74,0.6299 1.68,0.9799 2.65,0.9799 h 11.88 c 2.25,0 4.07,-1.8197 4.07,-4.0694 v -11.5082 c 0,-1.1898 -0.52,-2.3196 -1.42,-3.0895 l -38.16,-32.7048298 c -0.74,-0.6299 -1.68,-0.97985 -2.65,-0.97985 z"
     id="path5"
     style="display:inline" />
  <path
     fill="url(#a)"
     d="M 16.988979,8.4423332 H 6.5389791 c -2.25,0 -4.07,1.8197198 -4.07,4.0693598 v 13.08792 c 0,0.19 0.01,0.39 0.04,0.5799 l 5.28,36.9342 c 0.29,2.0097 2,3.4995 4.0299999,3.4995 h 15.67 c 2.25,0 4.07,-1.8197 4.07,-4.0694 v -18.5371 c 0,-0.4399 -0.08,-0.8698 -0.21,-1.2898 l -10.5,-31.49501 c -0.55,-1.6597398 -2.11,-2.7795698 -3.86,-2.7795698 z"
     id="path6"
     style="display:inline;fill:url(#a)" />
  <path
     fill="url(#b)"
     d="m 62.399279,2.6242102 h -33.97 c -1.63,0 -3.1,0.969848 -3.74,2.469613 L 8.6192891,42.577913 c -0.22,0.5099 -0.33,1.0498 -0.33,1.5997 v 18.3572 c 0,2.2496 1.8199999,4.0693 4.0699999,4.0693 h 17.96999 c 0.8,0 1.59,-0.2399 2.26,-0.6899 l 32.07,-21.3966 c 1.13,-0.7599 1.81,-2.0297 1.81,-3.3895 V 6.6835732 c 0,-2.24965 -1.82,-4.06936 -4.07,-4.06936 z"
     id="path7"
     style="display:inline;fill:url(#b)" />
  <path
     fill="#000000"
     d="m 54.468979,14.614213 h -40 v 40 h 40 z"
     id="path8"
     style="display:inline" />
  <path
     fill="#ffffff"
     d="m 28.308979,32.012013 h -2.98 v -9.77 h 2.98 v -2.61 h -8.84 v 2.61 h 2.98 v 9.77 h -2.98 v 2.61 h 8.84 z m 5.88,-12.39 v 10.07 c 0,0.44 -0.09,0.82 -0.28,1.16 -0.19,0.34 -0.45,0.6 -0.79,0.79 -0.34,0.19 -0.73,0.28 -1.16,0.28 h -2.15 v 2.7 h 2.52 c 0.91,0 1.72,-0.2 2.45,-0.61 0.73,-0.41 1.3,-0.97 1.71,-1.69 0.41,-0.72 0.62,-1.53 0.62,-2.43 v -10.27 z m -14.72,30 h 16 v -3 h -16 z"
     id="path9"
     style="display:inline" />
</svg>
