<?xml version="1.0" encoding="UTF-8" standalone="no"?>
<svg
   height="367"
   width="1529"
   version="1.1"
   id="svg10"
   viewBox="0 0 125.32791 30.081969"
   xmlns="http://www.w3.org/2000/svg"
   xmlns:svg="http://www.w3.org/2000/svg">
  <defs
     id="defs10" />
  <g
     fill="#131b28"
     id="g9"
     transform="translate(5.0809465,-14.196762)">
    <path
       d="m 74.22,20.527 h -3.38 c -0.188,0 -0.374,0.15 -0.414,0.334 l -2.4,11.107 c -0.04,0.183 -0.226,0.333 -0.413,0.333 H 65.22 c -2.368,0 -2.094,-1.637 -1.6,-3.88 l 0.015,-0.068 0.287,-1.53 0.124,-0.63 1.092,-5.332 c 0.038,-0.184 -0.085,-0.335 -0.273,-0.335 h -3.47 A 0.44,0.44 0 0 0 60.983,20.86 L 59.4,28.274 c -0.86,3.924 -0.632,7.666 4.04,7.783 h 7.467 c 0.188,0 0.373,-0.15 0.413,-0.334 l 3.162,-14.866 c 0.04,-0.184 -0.083,-0.334 -0.27,-0.334 z M 87.7,32.34 c 0.188,0 0.3,0.15 0.273,0.334 l -0.328,1.605 m -0.32,1.605 0.328,-1.606 z m -0.4,0.338 -6.23,0.03 z"
       id="path2"
       style="display:inline" />
    <path
       d="m 82.58,36.247 -0.816,0.003 z m 4.337,-0.027 -4.325,0.026 z m 0.4,-0.335 0.275,-1.344 -0.275,1.345 z m -5.896,0.365 h -0.178 z m -0.505,0.002 h -0.24 z M 81.17,36.25 h -0.2 z m -49.458,-5.937 0.525,-2.328 -0.6,2.66 -0.07,0.334 0.146,-0.668 z M 38,20.488 h -3.713 a 0.45,0.45 0 0 0 -0.417,0.333 l -0.704,3.1 a 0.26,0.26 0 0 0 0.266,0.333 h 3.742 c 0.188,0 0.374,-0.15 0.414,-0.333 l 0.68,-3.107 c 0.04,-0.183 -0.08,-0.333 -0.27,-0.333 z m -0.8,5.17 -1.1,5.038 z m -10.786,16.692 3.062,0.024 c -0.904,0 -2.397,-0.017 -3.063,-0.025 z"
       id="path4"
       style="display:inline" />
    <path
       d="m 32.773,25.657 -0.526,2.328 z m 4.16,-0.334 H 33.2 a 0.45,0.45 0 0 0 -0.417,0.333 l -1.05,4.656 -0.146,0.668 -1,4.753 a 7.16,7.16 0 0 1 -0.18,0.657 c 0,0 -0.7,2.08 -1.874,2.057 l -1.165,-0.022 a 0.45,0.45 0 0 0 -0.42,0.326 l -0.776,3.262 a 0.26,0.26 0 0 0 0.261,0.336 l 3.063,0.025 c 2.936,0 4.483,-1.627 5.476,-6.307 l 2.25,-10.4 c 0.04,-0.183 -0.082,-0.333 -0.27,-0.333 z m 53.16,10.737 c -0.188,0 -0.3,-0.15 -0.27,-0.334 L 92.64,22.54 m 1.366,13.186 1.14,-5.628 z"
       id="path5"
       style="display:inline" />
    <path
       d="m 105.84,24.064 -0.155,-0.64 -0.23,-1 c -0.304,-1.18 -1.196,-1.863 -3.134,-1.863 l -8.92,-0.006 a 0.44,0.44 0 0 0 -0.412,0.334 l -0.138,0.653 -0.2,0.987 -2.744,12.853 c -0.04,0.184 -0.053,0.4 -0.03,0.5 0.023,0.1 0.383,0.167 0.57,0.167 h 2.82 c 0.188,0 0.425,-0.034 0.528,-0.075 0.103,-0.041 0.254,-0.4 0.3,-0.594 l 1.07,-5.294 1.145,-5.364 c 0.04,-0.183 0.225,-0.332 0.412,-0.333 l 8.873,-0.004 c 0.187,0 0.306,-0.15 0.263,-0.333 z m 11.422,-5.794 -0.683,0.003 h -2.84 a 0.73,0.73 0 0 0 -0.534,0.282 l -6.28,9.2 c -0.106,0.155 -0.227,0.132 -0.27,-0.05 l -0.462,-2.027 a 0.45,0.45 0 0 0 -0.417,-0.333 h -4.037 c -0.188,0 -0.3,0.147 -0.248,0.328 l 1.8,6.338 c 0.052,0.18 0.055,0.477 0.01,0.66 l -0.8,3.067 a 0.25,0.25 0 0 0 0.257,0.331 h 4 c 0.188,0 0.38,-0.15 0.426,-0.33 l 0.8,-3.067 a 2.04,2.04 0 0 1 0.29,-0.604 L 118.47,18.536 c 0.113,-0.15 0.052,-0.272 -0.136,-0.27 l -1.07,0.007 z m -32.076,7.938 c -0.024,0.2 -0.212,0.35 -0.4,0.35 h -5.12 c -0.177,0 -0.267,-0.12 -0.24,-0.27 l 0.004,-0.027 0.023,-0.087 c 0.5,-1.3 1.485,-2.153 3.356,-2.153 2.107,0 2.518,1.03 2.375,2.187 z m -1.5,-5.908 c -6.57,0 -8.127,3.988 -9,8.013 -0.874,4.103 -0.798,7.94 6,7.94 h 1.078 l 0.83,-0.003 4.326,-0.026 a 0.44,0.44 0 0 0 0.407,-0.335 l 0.657,-3.212 c 0.038,-0.184 -0.085,-0.334 -0.273,-0.334 H 81.6 c -2.43,0 -3.153,-0.646 -2.887,-2.545 h 9.77 c 0.16,-0.003 0.305,-0.1 0.362,-0.252 0.01,-0.027 0.02,-0.056 0.024,-0.085 1.45,-5.47 1.034,-9.157 -5.18,-9.157 z m -31.056,5.887 -0.092,0.327 c 0,0.001 -0.738,2.616 -0.738,2.616 l -0.738,2.614 a 0.48,0.48 0 0 1 -0.434,0.328 h -3.905 c -2.962,0 -3.683,-2.317 -2.962,-5.734 0.72,-3.495 2.135,-5.668 5.05,-5.888 3.984,-0.3 4.78,2.502 3.82,5.736 z m 2.678,5.685 c 0,0 1.84,-4.47 2.26,-7.053 0.57,-3.457 -1.16,-8.47 -7.845,-8.47 -6.647,0 -9.533,4.786 -10.634,10 -1.1,5.24 0.342,9.836 6.95,9.8 l 10.086,-0.037 a 0.47,0.47 0 0 0 0.427,-0.332 l 0.85,-3.238 A 0.25,0.25 0 0 0 57.147,32.21 H 55.52 c -0.16,-10e-4 -0.25,-0.104 -0.232,-0.24 0.003,-0.025 0.01,-0.05 0.02,-0.076 z"
       id="path8"
       style="display:inline" />
  </g>
  <path
     d="M 3.9113163,8.2567184 C 1.5181824,11.697093 1.8155309,16.172971 3.6439636,19.827227 l 0.1343285,0.260832 0.086074,0.164325 0.052166,0.0952 0.095204,0.169541 0.1747573,0.299957 0.099117,0.164324 0.2021449,0.316912 0.086074,0.133024 0.293436,0.423851 0.057383,0.07824 0.2673527,0.356037 0.1004205,0.127807 0.2608321,0.303869 0.093899,0.113463 0.3442983,0.393856 0.020866,0.02217 0.3495149,0.369077 0.1121578,0.113461 0.2790903,0.260832 0.1147661,0.108245 0.3821189,0.348211 0.073033,0.0613 0.3482107,0.293436 0.130416,0.114766 0.2895236,0.226923 0.1564994,0.130417 0.3260399,0.234748 0.1512826,0.10694 0.3156068,0.208665 0.1369369,0.09129 0.4955809,0.302566 0.1369367,0.07824 0.3716856,0.208665 0.206058,0.10433 0.266048,0.138241 0.0613,0.03 0.108245,0.05217 0.421244,0.195624 0.08868,0.03913 0.491668,0.20345 0.119983,0.04695 0.462976,0.172149 0.05869,0.02087 0.516447,0.169541 0.125199,0.03652 0.521664,0.151282 c 11.574421,2.112739 14.936547,-6.95639 14.936547,-6.95639 -2.823508,3.677732 -7.824962,4.649331 -12.585146,3.569486 -0.179974,-0.03913 -0.354732,-0.09651 -0.529489,-0.148675 l -0.130416,-0.03913 a 16.536751,16.536751 0 0 1 -0.508623,-0.165628 l -0.07043,-0.02609 c -0.151282,-0.05217 -0.299958,-0.109549 -0.449935,-0.166932 l -0.126504,-0.04956 a 14.450095,14.450095 0 0 1 -0.486458,-0.202139 l -0.09651,-0.04304 -0.409507,-0.190407 -0.130415,-0.05738 c -0.10694,-0.05217 -0.211274,-0.10694 -0.316912,-0.161717 L 12.514848,23.120219 A 12.246064,12.246064 0 0 1 12.135339,22.90764 L 12.007531,22.83591 A 19.340696,19.340696 0 0 1 11.51195,22.533349 c -0.04565,-0.0287 -0.08868,-0.05999 -0.133024,-0.08868 L 11.026803,22.20992 c -0.03913,-0.02609 -0.07565,-0.05217 -0.113462,-0.07825 L 10.580792,21.890409 10.433422,21.779555 10.133465,21.544807 9.9991361,21.437866 9.6248423,21.122258 c -0.013042,-0.01304 -0.026083,-0.02217 -0.039125,-0.0339 C 9.4526931,20.957935 9.3222771,20.850994 9.1918611,20.73101 L 9.0810075,20.624069 8.7980046,20.347587 8.687151,20.236734 A 14.867426,14.867426 0 0 1 8.3402445,19.870264 16.562835,16.562835 0 0 1 7.9711671,19.452933 L 7.8798759,19.343384 7.6268688,19.030385 7.5355775,18.89997 7.2434457,18.51133 C 4.6194753,14.922281 3.6713509,9.9612561 5.7932196,5.8870593 M 11.352855,5.3588745 C 9.6222339,7.8367789 9.7161334,11.184558 11.065939,13.817656 a 11.020154,11.020154 0 0 0 0.765542,1.278078 c 0.260833,0.371685 0.547747,0.813796 0.890741,1.112448 l 0.388641,0.39125 0.101723,0.100413 0.396464,0.369077 0.01956,0.01695 0.462977,0.383423 0.10433,0.08216 0.485149,0.352123 0.339081,0.225619 0.358644,0.221707 0.05217,0.03 0.318214,0.177365 0.113463,0.05869 0.221706,0.114766 0.03391,0.01565 0.462977,0.216491 0.101724,0.04174 0.391247,0.153891 0.163021,0.05999 0.348209,0.121288 0.1565,0.05217 c 0.166932,0.05217 0.331257,0.130415 0.50471,0.146065 8.93741,1.480221 11.000591,-5.399223 11.000591,-5.399223 -1.859732,2.678745 -5.461822,3.956822 -9.305183,2.960444 l -0.506014,-0.146067 -0.152587,-0.04956 -0.352123,-0.122591 -0.160412,-0.05999 -0.380814,-0.153891 -0.10433,-0.04304 -0.465585,-0.21649 -0.23475,-0.130417 -0.134328,-0.06913 -0.365165,-0.208666 -0.358643,-0.219099 -0.339082,-0.225619 -0.48254,-0.352123 -0.108245,-0.08608 C 14.102026,13.689852 12.780912,11.887503 12.145785,9.8164975 11.493706,7.6815868 11.624122,5.2858446 12.775696,3.3413417 m 4.812351,-0.1473701 c -1.019854,1.4997843 -1.121578,3.3647333 -0.412114,5.0249292 0.745978,1.7606172 2.277063,3.1299842 4.062459,3.7820632 l 0.221707,0.07824 0.09781,0.03131 0.318217,0.0913 c 4.934944,0.952035 6.25997,-2.5326804 6.629049,-3.0452154 -1.173746,1.6875824 -3.129985,2.0931764 -5.56094,1.5063054 A 7.7988781,7.7988781 0 0 1 22.357359,10.48292 7.146798,7.146798 0 0 1 21.662241,10.194701 7.1859227,7.1859227 0 0 1 20.444155,9.4513295 C 18.27925,7.8080873 16.922923,4.6781028 18.348371,2.1284696"
     fill="#0868ac"
     id="path10"
     style="display:inline;stroke-width:1.30417" />
</svg>
