<?xml version="1.0" encoding="UTF-8" standalone="no"?>
<!-- Created with Inkscape (http://www.inkscape.org/) -->

<svg
   version="1.1"
   id="svg1"
   width="1025"
   height="658"
   viewBox="0 0 330.64546 212.25843"
   xmlns="http://www.w3.org/2000/svg"
   xmlns:svg="http://www.w3.org/2000/svg">
  <defs
     id="defs1" />
  <g
     id="g1">
    <path
       id="path1"
       style="display:inline;fill:#148489;fill-opacity:1;stroke:none"
       d="m 96.537062,7.3406121 0.984755,9.0215629 C 96.415927,26.517719 96.281463,26.594889 90.617193,34.844438 84.79845,43.318963 70.802428,51.21838 61.849504,60.29748 c -11.83575,12.002555 -10.029337,19.054064 -6.84729,26.064812 1.658799,3.654698 4.700915,7.188663 7.275088,10.248253 4.324455,5.139925 9.530185,11.468525 15.763635,15.151865 C 72.583005,100.36768 60.327341,86.349229 66.419824,72.958162 68.242189,68.952668 71.096542,65.487793 74.139091,62.350785 81.952042,54.295245 94.798451,45.617273 99.722551,31.614216 102.48525,23.757717 102.38263,15.44779 96.537062,7.3406121 Z M 120.54542,46.340804 c -15.92996,3.187164 -45.569449,17.17081 -42.490622,35.970952 2.238419,13.668386 10.324137,14.913491 11.222927,23.601354 0.40538,3.91849 -0.220592,4.63967 -4.518027,12.0193 l 1.97077,-0.98413 C 93.60826,111.67752 103.65478,104.62748 99.156144,95.77637 95.624554,88.827944 87.855029,82.967534 89.027599,75.165197 90.854499,63.008932 111.5843,52.591498 120.54542,46.340804 Z m 70.26725,61.825956 -8.69898,0.0744 -3.48287,0.10963 0.2558,50.59736 c 0.0732,5.21581 1.17343,22.40569 -2.26941,30.08574 -2.34667,5.23476 -4.47833,6.00832 -9.61317,10.15815 4.57823,5.04191 4.8026,6.40871 5.95137,6.23678 7.09088,-1.06127 17.18986,-11.11511 17.92783,-19.48466 0.89639,-10.16622 0.22662,-20.67277 0.18712,-28.28886 z m -60.62888,2.47103 c -0.60813,-0.005 -1.20507,0.0175 -1.78743,0.0662 l -4.66545,1.24433 -2.17806,1.41382 c 9.69235,-2.60939 19.90797,4.43373 17.33811,14.63082 -1.93547,7.67987 -15.81993,15.89832 -22.53154,19.59806 9.68735,-0.76714 25.78047,-8.56544 29.45318,-18.07651 4.89712,-12.68187 -6.50676,-18.80252 -15.62881,-18.87667 z m -75.107231,1.31993 c -10.170398,0.16478 -23.578115,3.94636 -31.445365,8.42996 l -0.697456,1.53919 c 0.896416,5.8851 24.141749,7.07176 32.88312,7.30281 20.474613,0.54118 33.09368,-1.15099 52.011172,-5.67983 l 8.83444,-3.96863 c -19.067161,2.79785 -36.869191,4.35015 -53.896886,4.5174 -8.750572,0.0859 -33.487417,-1.63585 -24.632728,-5.93184 z m -8.021687,22.4572 c -3.274841,0.32276 -3.832719,0.64565 -6.734512,2.20325 -7.377098,7.40725 3.689729,9.71731 9.582299,10.82033 16.571573,3.102 42.647751,1.39649 59.464561,-3.93587 l -2.43763,-1.97013 c -0.93472,-0.48401 -1.18749,-0.61037 -1.21661,-0.6332 v -0.002 h 0.002 0.003 0.002 c 0.0217,0.004 0.0888,0.0233 0.11278,0.0139 l 0.003,-0.002 h 0.002 v -0.003 h 0.002 v -0.002 -0.002 -0.002 -0.002 -0.002 -0.003 c -0.0174,-0.0827 -0.51447,-0.48495 -3.18171,-2.15222 -0.19113,-0.11947 -10.393985,1.54064 -12.613425,1.77168 -16.958182,1.76532 -14.364854,1.29102 -24.261633,1.36341 -11.395273,0.0833 -25.506381,-0.62046 -18.72672,-7.46284 z m 4.10346,20.01389 c -16.154909,6.16737 -1.784715,12.71846 4.935744,13.78531 15.338156,4.28978 37.151627,1.27002 50.740384,-4.54134 l -5.59981,-3.21447 c -2.640435,-1.45668 -0.0633,-0.0545 -4.320193,-2.36581 -0.17537,-0.0952 -8.063302,2.55767 -19.18791,2.66067 -10.481758,0.097 -22.706069,0.46026 -26.316199,-2.40676 -1.095174,-0.86974 -0.89942,-2.4702 -0.252016,-3.9176 z m -20.289223,13.8943 c -4.673461,0.31704 -9.457792,1.60308 -15.785057,3.95918 -2.550024,0.94956 -9.2739751,4.97748 -7.1011961,7.9045 1.9951,2.68766 8.8458221,3.34133 11.4818741,3.91382 6.851326,1.48798 15.295207,2.25907 22.265662,2.83393 23.699249,1.9545 49.074159,2.01811 72.535408,-2.67768 6.81621,-1.36427 13.7681,-2.18953 18.99007,-5.42781 2.17982,-1.35176 5.67089,-4.34853 4.94331,-6.33758 l -1.09942,-1.21913 -1.27521,-0.95892 c 4.27401,6.56582 -14.27511,9.39757 -24.24021,10.88711 -19.283745,2.88244 -41.304638,2.48841 -60.75993,1.23803 -6.658043,-0.42792 -14.408178,-0.28453 -20.894693,-1.88886 -2.406456,-0.5952 -8.509836,-1.47359 -9.790843,-3.83758 -1.953948,-3.60584 13.092523,-7.70727 15.419633,-8.38711 -1.58614,-0.10573 -3.131578,-0.10754 -4.689398,-0.002 z m 116.134901,12.10562 c -4.3858,1.67106 -5.85361,4.03106 -10.4001,5.41584 -31.64477,9.63846 -69.731426,11.42417 -101.851856,5.79134 l 0.933721,1.83027 c 23.626648,5.52454 49.264682,5.93746 73.132685,2.36706 12.58198,-1.88213 33.61284,-4.68643 38.18555,-15.40451 z" />
    <path
       id="path2"
       style="display:inline;fill:#fe6600;fill-opacity:1;stroke:none"
       d="m 96.537062,7.3406121 0.984755,9.0215629 c -1.10589,10.155544 -1.240354,10.232714 -6.904624,18.482263 -5.818755,8.474525 -19.814765,16.373942 -28.767689,25.453042 -11.83575,12.002555 -10.029336,19.054064 -6.84729,26.064812 1.6588,3.654698 4.700915,7.188663 7.275088,10.248253 4.324455,5.139925 9.530185,11.468525 15.763635,15.151865 C 72.583005,100.36768 60.327341,86.349229 66.419824,72.958162 68.242189,68.952668 71.096542,65.487793 74.139091,62.350785 81.952042,54.295245 94.798451,45.617273 99.722551,31.614216 102.48525,23.757717 102.38263,15.44779 96.537062,7.3406121 Z M 120.54542,46.340804 c -15.92996,3.187164 -45.569449,17.17081 -42.490622,35.970952 2.238419,13.668386 10.324137,14.913491 11.222927,23.601354 0.40538,3.91849 -0.220592,4.63967 -4.518027,12.0193 l 1.97077,-0.98413 C 93.60826,111.67752 103.65478,104.62748 99.156144,95.77637 95.624554,88.827936 87.855029,82.967534 89.027599,75.165197 90.854499,63.008932 111.5843,52.591498 120.54542,46.340804 Z m 70.26725,61.825956 -8.69898,0.0744 -3.48287,0.10963 0.2558,50.59736 c 0.0732,5.21581 1.17343,22.40569 -2.26941,30.08574 -2.34667,5.23476 -4.47833,6.00832 -9.61317,10.15815 4.57823,5.04191 4.8026,6.40871 5.95137,6.23678 7.09088,-1.06127 17.18986,-11.11511 17.92783,-19.48466 0.89639,-10.16622 0.22662,-20.67277 0.18712,-28.28886 z" />
    <text
       xml:space="preserve"
       style="font-size:118.326px;text-align:start;writing-mode:lr-tb;direction:ltr;text-anchor:start;display:inline;fill:#fe6600;fill-opacity:1;stroke-width:1.23255"
       x="215.84293"
       y="185.89209"
       id="text2"
       transform="scale(0.93818743,1.0658851)"><tspan
         id="tspan2"
         style="fill:#fe6600;fill-opacity:1;stroke-width:1.23255"
         x="215.84293"
         y="185.89209">SP</tspan></text>
  </g>
</svg>
