<?xml version="1.0" encoding="UTF-8" standalone="no"?>
<!-- Created with Inkscape (http://www.inkscape.org/) -->

<svg
   version="1.1"
   id="svg1"
   width="1452"
   height="453"
   viewBox="0 0 403.33318 125.83312"
   xmlns="http://www.w3.org/2000/svg"
   xmlns:svg="http://www.w3.org/2000/svg">
  <defs
     id="defs1" />
  <g
     id="g1">
    <path
       id="path2"
       style="display:inline;fill:#000000"
       d="m 332.47253,19.435589 v 6.542969 l 0.17773,6.601562 7.57227,-0.05469 8.4043,-0.173828 v -6.666013 l -0.0586,-6.25 h -8.04882 z m -161.53711,4.158203 -7.87891,0.08398 -7.75195,0.08398 0.16797,28.205087 c 0,30.581732 -0.87894,32.786244 -6.45898,35.671875 -2.44408,1.263883 -4.93556,1.78059 -12.61914,1.359375 l -10.34766,-0.568359 -0.12305,7.18164 c 0.001,3.281007 0.0478,5.97821 0.1211,6.94922 v 0.002 l 0.002,0.002 c 0.0648,0.13397 1.85089,0.57776 2.42773,0.7285 0.9625,0.25152 4.85256,0.97136 10.11524,1.03516 12.41081,0.15046 21.62298,-1.29058 26.08505,-6.7012 0.79529,-0.964349 1.3806,-1.726837 1.87086,-2.695591 1.73239,-3.423197 4.2139,-7.339511 4.28432,-32.909842 z m 71.63281,0.246094 -7.94531,0.476562 0.26172,27.369141 c 0.92032,30.977421 -0.66906,34.105376 -7.09349,37.153967 -4.20995,1.99775 -16.52796,1.820982 -20.78346,-0.825842 -6.59522,-4.102073 -7.3972,-4.705437 -6.93555,-35.828125 0.20165,-13.597688 -0.0162,-28.339844 0.18555,-28.339844 h -8.44727 l -7.35351,0.08398 -0.0394,28.784308 c 0.024,7.660027 -0.0631,13.590561 0.10186,18.299676 0.45149,12.890909 0.90078,11.998344 1.91571,15.890423 0.30539,1.171089 2.27603,5.054955 4.76745,8.039264 1.05396,1.262468 0.84043,1.035768 1.42882,1.541468 0.31586,0.271477 0.97374,0.997672 2.26029,2.023779 2.5429,2.028127 3.83455,2.700617 6.8098,3.641567 l 5.49653,1.25846 c 2.76477,0.31435 8.80783,0.83074 13.46593,0.74174 4.0341,-0.0771 8.03887,-0.96411 10.41992,-1.6035 6.37351,-1.71151 12.68929,-3.692111 16.61074,-13.539354 1.90992,-4.796072 1.91505,-6.84557 1.89545,-35.041275 l 0.17158,-30.08649 z m 137.97852,1.402344 -7.06836,0.154297 -6.28906,0.121093 -0.86328,5.574219 c -1.6829,10.855474 -0.33669,9.160213 -5.2793,9.220703 l -4.86133,0.05859 0.0566,6.753906 0.0312,6.375 4.61524,0.222656 3.69531,-0.0078 -0.0624,18.220695 c -0.0167,4.863224 -0.14151,7.690141 0.0586,11.048828 0.65972,12.698046 4.40769,15.886719 7.97266,18.205073 l 3.3125,1.75001 c 0.75339,0.39804 4.60332,1.65185 11.09961,1.57225 7.88541,-0.0966 13.44726,-2.0996 13.44726,-2.0996 l 0.0234,-13.468749 -9.63672,0.822266 c -1.37765,0.117528 -3.5476,-0.04455 -5.31055,-0.455078 -3.40146,-0.79208 -4.62115,-3.032371 -5,-8.476562 -0.14889,-2.139265 -0.0792,-8.293782 -0.0742,-11.138672 l 0.0293,-16.041016 9.31641,0.0078 10.53711,0.03516 0.0879,-6.445313 -0.004,-6.890625 c -5.08507,-0.01607 -7.21467,-0.03276 -10.60351,-0.04883 l -9.33399,0.01367 -0.0254,-6.517578 z m -82.00586,14.001953 c -6.44244,-0.06291 -13.3489,1.556593 -17.84766,4.771484 l -3.74609,2.675781 -0.22461,-2.294921 c -0.0341,-0.810134 0.1761,-3.950516 -0.0488,-4.091797 l -0.002,-0.002 c -9.3e-4,-3.72e-4 -0.005,-0.0017 -0.006,-0.002 -9.6e-4,-1.75e-4 -0.005,7.7e-5 -0.006,0 h -0.002 c -1.93916,0.04558 -2.939,-0.01208 -6.95703,0.01172 l -6.56446,0.03906 -0.0215,31.599609 0.084,31.158201 6.98047,0.0195 8.51758,-0.041 -0.19336,-23.507805 -0.11133,-22.265625 3.58985,-1.912109 c 6.36507,-3.112011 12.08849,-3.100931 16.55468,-1.626953 6.1437,2.027599 5.89994,2.548848 6.07227,27.673828 l 0.14844,21.470704 7.75586,-0.0215 7.3789,-0.043 -0.14453,-25.6914 c 0.27903,-23.210941 -0.42446,-25.68071 -2.32617,-28.917969 -3.18748,-5.42603 -10.39496,-8.919093 -18.88086,-9.001953 z m 49.31836,1.269531 -7.56445,0.148437 h -7.56641 v 31.273438 l 0.23828,30.916021 7.50586,0.0898 h 7.47656 l -0.11914,-31.035158 z" />
    <path
       id="path5"
       style="display:inline;fill:#d84445;fill-opacity:1"
       d="m 24.415681,37.749469 c -21.4323114,21.55634 0.05179,-0.04248 -21.3850832,21.560864 -1.3829151,2.155562 -1.1879196,2.353563 -1.1873735,3.675599 4.22e-4,1.021638 0.5058042,2.639315 2.0489183,4.077762 L 60.043922,122.37075 c 0,0 0.758491,0.45563 1.169705,0.61252 0.495697,0.18912 1.018188,0.31418 1.543511,0.38846 0.109348,0.0155 0.216932,0.0291 0.325159,0.0391 0.128568,0.0119 0.337915,0.019 0.466977,0.0235 0.281473,0.01 0.566163,0.0166 0.844313,-0.006 0.47616,-0.0393 0.95581,-0.12084 1.404999,-0.28364 0.532461,-0.19298 1.49414,-0.80892 1.49414,-0.80892 L 96.172381,93.932706 88.241611,86.128889 87.512445,85.455604 C 79.615958,93.30877 71.612259,101.05536 63.734907,108.9273 16.86989,62.650783 63.740507,108.9303 16.873909,62.655058 l 16.395935,-16.19357 c -8.834284,-8.693603 0.01403,0.01067 -8.854163,-8.712019 z" />
    <path
       id="path4"
       style="display:inline;fill:#000000"
       d="m 105.95181,20.011837 -21.500555,21.07116 -20.433258,20.371982 -5.898655,-5.325955 -6.491752,-6.447266 -4.854818,4.607422 -4.496745,4.369141 9.229167,9.028429 2.708333,2.756727 c 5.664376,5.445628 6.059999,5.881928 7.549696,6.371745 1.958116,0.643835 4.06668,0.534894 5.16276,-0.459418 2.692677,-2.44267 8.933777,-8.299218 25.199653,-24.554905 L 114.88149,29.060665 c -4.76892,-4.596089 -4.77427,-4.605695 -8.92968,-9.048828 z" />
    <path
       id="path3"
       style="display:inline;fill:#299d5b;fill-opacity:1"
       d="m 63.464389,1.9183193 c -1.358529,0.014 -2.53355,0.3967908 -3.749029,1.3949086 -28.343897,27.5689681 0.0088,0.01176 -28.344417,27.5731791 l 8.861759,8.719615 c 23.682437,-23.190436 -0.10687,0.03353 23.571497,-23.209084 17.219423,16.937019 0.13775,0.0141 17.265618,16.993293 l 8.68869,-8.573673 C 67.705686,3.2603531 89.768512,24.9193 67.648118,3.2328909 65.836848,1.9705206 64.73941,1.90518 63.464389,1.9183193 Z m 38.280911,51.8440557 8.97352,8.79557 -16.143661,15.929356 c 8.722771,8.417214 0.03306,0.01521 8.718531,8.41905 l 18.8151,-18.565531 5.4e-4,-5.42e-4 5.4e-4,-5.43e-4 v -5.43e-4 c 2.85503,-3.133277 2.98881,-3.340128 3.02741,-5.412408 -0.15345,-2.022453 -0.14983,-1.926025 -2.14312,-4.794293 -12.54011,-12.913911 0.003,0.0024 -12.5469,-12.937852 -2.91295,2.834969 -5.80548,5.709509 -8.70196,8.567736 z" />
  </g>
</svg>
