<?xml version="1.0" encoding="UTF-8" standalone="no"?>
<!-- Created with Inkscape (http://www.inkscape.org/) -->

<svg
   version="1.1"
   id="svg1"
   width="1368"
   height="419"
   viewBox="0 0 1368 419"
   xmlns="http://www.w3.org/2000/svg"
   xmlns:svg="http://www.w3.org/2000/svg">
  <defs
     id="defs1" />
  <g
     id="g1">
    <path
       id="path1"
       style="display:inline;fill:#00d8ff;fill-opacity:1;stroke-width:1.23555"
       d="M 532.25107,81.796095 527,81.878149 V 198.63731 315.39648 h 14.20879 14.20879 v -46.333 -46.33301 l 23.78427,0.0193 23.78428,0.0194 11.73769,18.12536 c 6.45573,9.96895 11.96536,18.70778 12.24446,19.41884 0.27911,0.71108 1.1131,1.96534 1.85332,2.78723 0.74023,0.82187 8.5745,12.91795 17.40866,26.88038 l 16.0621,25.38662 16.9574,0.0144 16.95981,0.0145 -21.10565,-31.81534 c -11.60775,-17.49843 -25.52342,-38.3958 -30.92487,-46.43919 -5.40144,-8.04337 -9.61918,-15.22876 -9.37277,-15.96799 0.2464,-0.73924 3.95712,-2.0596 8.24582,-2.93442 37.74604,-7.69949 59.61765,-46.38158 48.98025,-86.62339 -6.62748,-25.07216 -27.41815,-43.48739 -54.67534,-48.430059 -5.90964,-1.071611 -70.8525,-1.930566 -105.10594,-1.38999 z m 763.25903,18.615255 v 22.85761 22.85762 h -14.2088 -14.2088 v 11.0789 11.07888 l 13.8999,0.34992 13.8999,0.34991 0.6178,62.39511 c 0.6127,61.88814 0.6397,62.44531 3.4629,68.57285 4.7187,10.24205 12.9265,16.92052 23.7191,19.303 8.1974,1.80958 23.5559,0.36792 30.8886,-2.90064 10.4549,-4.66031 10.9356,-5.69247 7.4423,-15.95352 -2.9915,-8.78655 -4.5995,-11.0806 -6.086,-8.67537 -1.2592,2.03738 -10.9408,5.13777 -16.0284,5.13283 -5.7133,-0.007 -11.7705,-3.69353 -14.6118,-8.89739 -2.0489,-3.75295 -2.2225,-8.54846 -2.2225,-61.52395 v -57.45292 l 16.6799,-0.0797 16.6799,-0.0796 0.3547,-11.31538 0.3547,-11.31298 -17.0346,-0.34266 -17.0346,-0.34508 -0.3378,-22.54873 -0.3355,-22.54873 h -12.9466 z m -708.58608,6.43835 c 18.46758,-0.21293 34.11815,0.18907 38.91971,0.99906 16.25489,2.74208 27.66491,10.47336 34.04752,23.06998 3.36893,6.64887 3.63666,8.17476 3.63666,20.76779 0,12.03402 -0.36681,14.3701 -3.19263,20.39377 -5.08233,10.83378 -14.40764,18.82396 -26.64389,22.82625 -4.8402,1.58314 -12.94763,2.01599 -41.6804,2.22977 -23.01244,0.17122 -35.8423,-0.17611 -36.14939,-0.97734 -0.26188,-0.68311 -0.3308,-20.97696 -0.15203,-45.09746 l 0.32578,-43.85466 z m 216.02761,35.44716 c -5.72467,0.0212 -10.91031,0.35017 -11.52291,0.72878 -0.6126,0.3786 -4.34254,1.27518 -8.28927,1.9933 -8.85305,1.6108 -22.35976,8.29212 -30.91521,15.2947 -20.88476,17.09404 -31.81521,41.53433 -31.78396,71.06566 0.025,23.55834 6.94515,43.91858 20.29483,59.71165 11.97855,14.17104 30.28066,24.20957 51.90744,28.47067 1.69888,0.33472 9.48282,0.40174 17.29765,0.14962 22.49486,-0.72571 41.10852,-7.19249 57.32261,-19.91837 4.79873,-3.76635 6.74244,-6.03817 6.01364,-7.02717 -11.66409,-15.82924 -12.14635,-16.22133 -15.30676,-12.36994 -3.61645,4.40714 -16.87432,11.74663 -26.96243,14.92549 -13.83465,4.35943 -31.33914,4.55431 -42.59019,0.4754 -13.97265,-5.06557 -24.87048,-14.0749 -32.24488,-26.65836 -3.73287,-6.36969 -8.00932,-20.07948 -8.00932,-25.6762 v -3.41224 l 68.26395,-0.32096 68.26396,-0.31854 0.39574,-6.7955 c 0.50738,-8.73089 -1.69389,-23.83209 -4.90595,-33.67106 -11.7242,-35.91249 -40.17712,-56.78443 -77.22894,-56.64693 z m 392.55877,0.12067 c -3.7829,-0.18715 -7.6187,-0.15127 -11.4457,0.111 -5.1026,0.34975 -10.1926,1.10456 -15.1234,2.27563 -46.4989,11.04344 -72.0627,57.49923 -60.6986,110.30391 4.5729,21.24874 20.6655,43.61209 38.6205,53.66664 6.9765,3.9068 21.0784,9.17507 28.7989,10.76037 1.6988,0.34884 9.7607,0.42736 17.9154,0.17374 12.8202,-0.39872 16.1419,-0.9617 24.5395,-4.16514 5.3415,-2.03761 12.0116,-5.22861 14.8242,-7.08991 6.7904,-4.49376 18.0892,-15.25248 18.0892,-17.22526 0,-1.49048 -14.4324,-15.36953 -15.9824,-15.36953 -0.4039,0 -3.1974,2.54159 -6.2092,5.64926 -13.251,13.67319 -30.5876,18.13436 -52.4673,13.4993 -26.8905,-5.69662 -43.8627,-30.78842 -43.9319,-64.94825 -0.05,-24.30001 10.1701,-44.92238 27.8722,-56.24633 10.0659,-6.43904 18.4582,-8.3045 34.3975,-7.64736 16.4055,0.67638 22.0429,2.90068 32.9616,13.00944 8.1532,7.54873 7.1392,7.65618 17.8068,-1.90159 5.6992,-5.10628 5.8523,-5.42009 4.1893,-8.54505 -2.4131,-4.534 -14.8039,-14.58541 -23.1473,-18.77694 -8.782,-4.41192 -19.6605,-6.97251 -31.0093,-7.53393 z m -198.06147,0.19787 c -15.45135,-0.34739 -31.42184,2.42532 -43.64232,8.41475 -8.33157,4.08339 -23.80039,15.32992 -24.85091,18.06746 -0.58303,1.51938 8.83757,17.80201 10.29941,17.80201 0.28972,0 3.85733,-2.77172 7.92971,-6.16084 15.46947,-12.8738 33.67516,-17.94294 53.92728,-15.01479 12.0285,1.73916 18.1056,4.43009 24.542,10.86653 8.0182,8.01814 9.0984,12.06762 9.1291,34.2092 l 0.027,19.57329 -5.8688,-4.82635 c -12.3663,-10.17129 -25.8499,-15.35063 -44.17086,-16.96464 -23.25554,-2.04874 -47.7356,9.17728 -57.80037,26.50392 -9.55836,16.45475 -9.28871,42.91059 0.59602,58.4182 7.94081,12.4579 21.12758,21.06462 39.90676,26.04542 4.81089,1.276 26.04163,-0.14378 32.74195,-2.18876 10.2977,-3.14288 22.2685,-9.39794 27.9374,-14.59972 2.7941,-2.56395 5.4351,-4.66225 5.8688,-4.66225 0.4337,0 0.7891,3.89196 0.7891,8.64882 v 8.64883 h 12.9733 12.9732 l -0.015,-63.32177 c -0.015,-66.07014 -0.2652,-69.69654 -5.5069,-80.00165 -3.6625,-7.20033 -10.5863,-14.88714 -17.2518,-19.15098 -10.1492,-6.49236 -25.0828,-9.95928 -40.53403,-10.30668 z m -193.7299,20.82572 c 15.55279,0.0267 31.48658,6.48588 40.24694,16.31791 8.58456,9.63461 15.39609,26.15666 15.39609,37.34633 v 3.15402 h -55.5272 c -33.10947,0 -55.81338,-0.46711 -56.23909,-1.15592 -0.93649,-1.5153 1.10725,-10.47054 4.44266,-19.45986 8.36516,-22.54516 27.92154,-36.24313 51.6806,-36.20248 z m 185.75188,63.55102 c 14.30759,0.20563 29.32909,5.2161 39.46999,14.21603 l 5.8688,5.20763 v 17.6524 17.6548 l -5.4489,5.02183 c -7.0428,6.49176 -16.2574,11.1082 -26.5136,13.28212 -18.90513,4.00714 -34.09091,0.82056 -45.28814,-9.50068 -7.78884,-7.17954 -10.74411,-13.37477 -11.41194,-23.93389 -0.94679,-14.97015 6.32072,-27.8336 19.54919,-34.60495 6.86189,-3.51245 15.19003,-5.11865 23.7746,-4.99529 z" />
    <circle
       style="display:inline;fill:#00d8ff;fill-opacity:1;stroke-width:1.04596"
       id="circle3"
       cx="229.47919"
       cy="204.03561"
       r="40.174072" />
    <path
       id="path3"
       style="display:inline;fill:#00d8ff;fill-opacity:1;stroke-width:1.05071"
       d="M 230.18555,111.5625 A 227.43105,92.969543 0 0 0 2.7539062,204.5332 227.43105,92.969543 0 0 0 230.18555,297.50195 227.43105,92.969543 0 0 0 457.61719,204.5332 227.43105,92.969543 0 0 0 230.18555,111.5625 Z m 0.17187,18.93945 A 208.32065,73.686966 0 0 1 438.67773,204.18945 208.32065,73.686966 0 0 1 230.35742,277.875 208.32065,73.686966 0 0 1 22.037109,204.18945 208.32065,73.686966 0 0 1 230.35742,130.50195 Z" />
    <path
       id="path4"
       style="display:inline;fill:#00d8ff;fill-opacity:1;stroke-width:1.05071"
       d="M 310.38743,157.51065 C 246.85838,49.152723 159.44979,-17.63584 115.15592,8.3350356 70.862459,34.305101 86.45535,143.19762 149.98367,251.5538 c 63.5281,108.35632 150.93527,175.14482 195.22982,149.1766 44.29567,-25.9678 28.7032,-134.86195 -34.82606,-243.21975 z m -16.25151,9.72733 C 352.32645,266.4902 371.03877,363.6357 335.93096,384.2181 300.82323,404.79911 225.19167,341.02558 167.00211,241.77529 108.81268,142.52493 90.09978,45.380789 125.20539,24.796151 160.31235,4.2123167 235.94527,67.985823 294.13592,167.23798 Z" />
    <path
       id="path5"
       style="display:inline;fill:#00d8ff;fill-opacity:1;stroke-width:1.05071"
       d="M 149.68028,158.03215 C 86.855557,266.79995 71.970318,375.79264 116.43336,401.47281 160.8955,427.15301 247.8674,359.79867 310.69096,251.03237 373.51475,142.26618 388.40064,33.274772 343.93957,7.5927006 299.47831,-18.090552 212.50478,49.264229 149.68028,158.03215 Z m 16.48622,9.32401 C 223.7118,67.728459 298.92926,3.4654621 334.16908,23.821034 369.40763,44.177223 351.32546,141.44094 293.78135,241.06684 236.23712,340.69267 161.02112,404.9555 125.78046,384.60294 90.539822,364.24882 108.62131,266.98394 166.1665,167.35616 Z" />
  </g>
</svg>
