<?xml version="1.0" encoding="UTF-8" standalone="no"?>
<svg
   width="1498"
   height="407"
   version="1.1"
   id="svg5"
   viewBox="0 0 483.22581 131.29027"
   xmlns="http://www.w3.org/2000/svg"
   xmlns:svg="http://www.w3.org/2000/svg">
  <defs
     id="defs5" />
  <g
     fill="none"
     id="g5">
    <path
       d="m 143.20897,107.08376 6.2,-14.400004 c 6.7,5 15.6,7.600004 24.4,7.600004 6.5,0 10.6,-2.500004 10.6,-6.300004 -0.1,-10.6 -38.9,-2.3 -39.2,-28.9 -0.1,-13.5 11.9,-23.9 28.9,-23.9 10.1,0 20.2,2.5 27.4,8.2 l -5.8,14.7 c -6.6,-4.2 -14.8,-7.2 -22.6,-7.2 -5.3,0 -8.8,2.5 -8.8,5.7 0.1,10.4 39.2,4.7 39.6,30.1 0,13.800004 -11.7,23.500004 -28.5,23.500004 -12.3,0 -23.6,-2.9 -32.2,-9.1 m 237.9,-19.600004 c -3.1,5.4 -8.9,9.1 -15.6,9.1 -9.9,0 -17.9,-8 -17.9,-17.9 0,-9.9 8,-17.9 17.9,-17.9 6.7,0 12.5,3.7 15.6,9.1 l 17.1,-9.5 c -6.4,-11.4 -18.7,-19.2 -32.7,-19.2 -20.7,0 -37.5,16.8 -37.5,37.5 0,20.7 16.8,37.500004 37.5,37.500004 14.1,0 26.3,-7.7 32.7,-19.200004 z m -168.6,-77.4 h 21.4 V 114.78376 h -21.4 z m 194.1,0 V 114.78376 h 21.4 V 83.383756 l 25.4,31.400004 h 27.4 l -32.3,-37.300004 29.9,-34.8 h -26.2 l -24.2,28.9 v -61.5 z m -109.1,77.6 c -3.1,5.1 -9.5,8.9 -16.7,8.9 -9.9,0 -17.9,-8 -17.9,-17.9 0,-9.9 8,-17.9 17.9,-17.9 7.2,0 13.6,4 16.7,9.2 z m 0,-45 v 8.5 c -3.5,-5.9 -12.2,-10 -21.3,-10 -18.8,0 -33.6,16.6 -33.6,37.4 0,20.8 14.8,37.600004 33.6,37.600004 9.1,0 17.8,-4.1 21.3,-10 v 8.5 h 21.4 V 42.683756 Z"
       fill="#000000"
       id="path1"
       style="display:inline" />
    <path
       d="m 29.447039,81.966159 c 0,7.3 -5.9,13.2 -13.2,13.2 -7.3000001,0 -13.2000001,-5.9 -13.2000001,-13.2 0,-7.3 5.9,-13.2 13.2000001,-13.2 h 13.2 z m 6.6,0 c 0,-7.3 5.9,-13.2 13.2,-13.2 7.3,0 13.2,5.9 13.2,13.2 v 33.000001 c 0,7.3 -5.9,13.2 -13.2,13.2 -7.3,0 -13.2,-5.9 -13.2,-13.2 z"
       fill="#e01e5a"
       id="path2"
       style="display:inline" />
    <path
       d="m 49.247039,28.966159 c -7.3,0 -13.2,-5.9 -13.2,-13.2 0,-7.2999999 5.9,-13.1999999 13.2,-13.1999999 7.3,0 13.2,5.9 13.2,13.1999999 v 13.2 z m 0,6.7 c 7.3,0 13.2,5.9 13.2,13.2 0,7.3 -5.9,13.2 -13.2,13.2 h -33.1 c -7.3000001,0 -13.2000001,-5.9 -13.2000001,-13.2 0,-7.3 5.9,-13.2 13.2000001,-13.2 z"
       fill="#36c5f0"
       id="path3"
       style="display:inline" />
    <path
       d="m 102.14704,48.866159 c 0,-7.3 5.9,-13.2 13.2,-13.2 7.3,0 13.2,5.9 13.2,13.2 0,7.3 -5.9,13.2 -13.2,13.2 h -13.2 z m -6.600001,0 c 0,7.3 -5.9,13.2 -13.2,13.2 -7.3,0 -13.2,-5.9 -13.2,-13.2 v -33.1 c 0,-7.2999999 5.9,-13.1999999 13.2,-13.1999999 7.3,0 13.2,5.9 13.2,13.1999999 z"
       fill="#2eb67d"
       id="path4"
       style="display:inline" />
    <path
       d="m 82.347039,101.76616 c 7.3,0 13.2,5.9 13.2,13.2 0,7.3 -5.9,13.2 -13.2,13.2 -7.3,0 -13.2,-5.9 -13.2,-13.2 v -13.2 z m 0,-6.600001 c -7.3,0 -13.2,-5.9 -13.2,-13.2 0,-7.3 5.9,-13.2 13.2,-13.2 h 33.100001 c 7.3,0 13.2,5.9 13.2,13.2 0,7.3 -5.9,13.2 -13.2,13.2 z"
       fill="#ecb22e"
       id="path5"
       style="display:inline" />
  </g>
</svg>
