<?xml version="1.0" encoding="UTF-8" standalone="no"?>
<!-- Created with Inkscape (http://www.inkscape.org/) -->

<svg
   version="1.1"
   id="svg1"
   width="738"
   height="215"
   viewBox="0 0 738 215"
   xmlns="http://www.w3.org/2000/svg"
   xmlns:svg="http://www.w3.org/2000/svg">
  <defs
     id="defs1" />
  <g
     id="g1"
     style="display:inline">
    <path
       id="path117"
       style="display:inline;fill:#71c837;stroke-width:0.312032"
       d="m 267.24504,67.85327 c -3.646,0.12616 -4.8681,0.29711 -6.9238,0.96718 -8.3766,2.73025 -13.1051,9.12915 -12.5563,16.99172 0.3166,4.53545 2.3224,7.96508 6.1456,10.50669 2.924,1.94387 6.1966,3.22494 13.5075,5.28748 9.1124,2.57077 11.8637,3.75151 14.0323,6.02064 2.011,2.10416 2.6504,5.58571 1.5962,8.69423 -0.7416,2.18653 -3.7019,5.07714 -6.1438,5.99991 -5.4451,2.05766 -12.2525,1.61807 -18.1417,-1.17134 -3.0878,-1.46255 -4.6778,-2.54206 -6.8409,-4.64452 l -1.6821,-1.63451 -2.2129,2.85947 c -1.2172,1.57282 -2.2134,2.97604 -2.2134,3.11789 0,0.47346 4.2884,3.95556 6.4484,5.23628 3.7155,2.20296 8.1033,3.59976 12.8092,4.07714 7.3131,0.74187 14.5962,-0.61519 18.9663,-3.53352 4.9092,-3.27834 7.342,-7.94769 7.3254,-14.06155 -0.014,-5.01367 -1.1443,-7.93923 -4.2539,-11.00522 -2.9576,-2.91622 -7.1424,-4.8447 -16.0208,-7.38333 -8.2686,-2.36426 -10.0216,-2.99201 -11.981,-4.28983 -3.4666,-2.29622 -4.4235,-5.61358 -2.726,-9.45115 2.2357,-5.0542 9.6142,-7.24241 17.8273,-5.28626 2.9686,0.70705 7.3638,2.93568 9.4109,4.7719 0.9714,0.87132 1.8423,1.58453 1.935,1.58453 0.093,0 1.1861,-1.21814 2.4298,-2.70712 l 2.261,-2.70773 -1.8265,-1.63329 c -3.6062,-3.22534 -8.905,-5.61281 -14.1657,-6.38203 -1.5599,-0.22807 -4.3284,-0.31632 -7.0061,-0.22366 z m 262.8277,0.84163 v 30.27624 30.27684 l 17.8639,-0.005 c 14.4801,-0.004 18.2722,-0.0922 20.0206,-0.46256 6.1575,-1.30448 10.6858,-5.48273 12.1869,-11.24595 0.5945,-2.28256 0.6117,-6.63303 0.035,-8.80027 -1.3075,-4.91157 -4.7737,-8.84475 -9.0452,-10.26354 l -1.5431,-0.51192 1.537,-0.57836 c 3.4584,-1.3008 6.4769,-4.59445 7.6289,-8.3243 0.8378,-2.71283 0.8399,-7.07406 0,-9.77782 -1.4013,-4.53416 -4.7838,-7.90545 -9.7199,-9.68822 -1.9851,-0.71695 -2.0646,-0.72036 -20.4808,-0.80751 z m -142.1622,1.28591 c -0.8866,0.007 -1.7575,0.17361 -2.3085,0.49913 -2.8644,1.69203 -2.8219,6.14207 0.076,7.90867 1.9741,1.2036 5.0978,0.42596 6.2718,-1.56138 1.1976,-2.02749 0.3428,-5.35792 -1.6376,-6.38202 -0.6129,-0.31694 -1.5146,-0.47094 -2.4012,-0.4644 z m 309.0993,3.41346 v 5.92861 5.9286 h -3.7444 -3.7444 v 5.14853 5.14853 h 3.7322 3.7316 l 0.091,13.49538 0.09,13.49537 0.8179,1.743 c 1.5491,3.30327 4.4833,5.34929 8.4541,5.89447 3.9484,0.54212 8.7027,-0.18324 11.3824,-1.73628 l 1.3085,-0.75815 -0.4297,-1.47971 c -0.2363,-0.81364 -0.7873,-2.72886 -1.2249,-4.25631 -0.4376,-1.52744 -0.8555,-2.83678 -0.9282,-2.90945 -0.073,-0.0727 -0.5915,0.10576 -1.1531,0.39613 -1.3525,0.69943 -3.7331,0.71982 -4.7694,0.0408 -1.9115,-1.25247 -1.9033,-1.19893 -2.0051,-13.06816 l -0.093,-10.85712 h 4.5397 4.5391 v -5.14853 -5.14853 h -4.5245 -4.5244 v -5.9286 -5.92861 h -5.7726 z m -153.9877,6.39666 h 9.2049 c 8.8947,0 9.2486,0.0229 10.4921,0.68805 2.5726,1.3762 3.7541,3.63584 3.4488,6.59472 -0.2195,2.12609 -1.3993,3.93063 -3.1758,4.85844 -1.1728,0.61253 -1.8176,0.6574 -10.6932,0.7429 l -9.4451,0.0908 0.084,-6.48745 z m -167.0931,4.46595 -1.6382,0.21696 c -4.1219,0.54641 -7.0979,2.06622 -10.6091,5.41729 l -2.4182,2.30794 v -3.47379 -3.4738 h -3.4324 -3.4323 v 21.99825 21.99825 h 3.4323 3.4324 V 113.6799 98.11244 l 1.4084,-1.56625 c 2.978,-3.31225 7.6222,-5.50176 11.2703,-5.31308 l 1.988,0.103 v -3.53962 z m 96.0936,0.0622 c -5.5531,-0.007 -9.4115,1.5458 -13.0986,5.27103 -4.1345,4.17717 -5.8724,8.78115 -6.1371,16.25552 -0.1342,3.79037 -0.056,5.03073 0.4833,7.64478 1.7812,8.63558 7.22,14.4606 14.8685,15.92399 6.4204,1.22842 11.7697,-0.36264 16.5809,-4.93218 l 2.3744,-2.25492 -0.1512,4.68048 c -0.1242,3.84874 -0.2748,5.00077 -0.8471,6.48441 -1.9771,5.12632 -5.9177,7.62669 -12.5007,7.93122 -5.6809,0.2628 -10.1172,-1.14764 -13.4485,-4.2752 -0.9091,-0.85353 -1.7301,-1.43517 -1.8247,-1.29262 -0.095,0.14255 -0.8625,1.26241 -1.7064,2.48833 -1.5265,2.21755 -1.5312,2.23232 -0.9361,2.89422 2.0446,2.27373 6.6674,4.68201 10.4263,5.43192 2.4992,0.49861 9.4321,0.57384 12.1698,0.13164 6.1948,-1.00061 11.0692,-4.21195 13.3729,-8.81003 2.1111,-4.21358 2.0386,-3.23257 2.1537,-29.15975 l 0.1043,-23.4804 h -3.447 -3.447 v 3.1508 3.1514 l -2.3,-2.14766 c -3.863,-3.60764 -7.5367,-5.08058 -12.6897,-5.08698 z m -147.7471,6.3e-4 c -5.0617,-0.008 -9.3412,1.70822 -12.8878,5.16864 -1.1295,1.10206 -2.094,2.00383 -2.1434,2.00383 -0.049,0 -0.09,-1.40415 -0.09,-3.12032 v -3.12032 h -3.2763 -3.2763 v 30.42311 30.42311 h 3.2763 3.2763 v -11.54518 c 0,-6.34985 0.06,-11.54518 0.1341,-11.54518 0.074,0 0.9088,0.8124 1.8557,1.80515 2.0232,2.12109 4.8515,3.88302 7.6832,4.78713 3.094,0.98781 8.0667,0.91921 11.4136,-0.15784 6.2998,-2.02736 10.8267,-7.28569 12.658,-14.70329 0.9751,-3.9496 0.9889,-10.97507 0.029,-14.85198 -2.4792,-10.01581 -9.1116,-15.55126 -18.6524,-15.56686 z m 336.1912,0.0737 c -3.2594,0.15947 -5.666,0.83749 -8.7015,2.31221 -2.4994,1.21424 -3.3812,1.86119 -5.6227,4.12711 -2.8972,2.92877 -4.8309,6.22327 -5.7903,9.86435 -0.7577,2.87576 -0.9228,8.25235 -0.3467,11.28921 1.9023,10.02853 9.2732,16.94167 19.3886,18.185 4.7265,0.58096 10.4031,-0.27852 14.3821,-2.17752 5.415,-2.58434 9.8966,-8.10719 11.5159,-14.19135 0.7042,-2.64575 0.9483,-7.64665 0.5101,-10.44576 -0.8213,-5.24664 -2.6724,-8.89276 -6.4222,-12.64948 -4.2723,-4.28013 -8.5632,-6.04813 -15.3146,-6.31072 -1.3308,-0.0518 -2.5122,-0.0562 -3.5987,-0.003 z m -232.7404,0.0811 c -3.601,0.002 -4.5069,0.10717 -6.2407,0.72279 -2.713,0.96332 -5.8004,2.81814 -7.9281,4.76275 l -1.7449,1.5949 v -3.15201 -3.1514 h -3.4323 -3.4324 v 21.99825 21.99825 h 3.4324 3.4323 V 113.14608 97.04353 l 1.8485,-1.8082 c 2.3403,-2.29001 5.9616,-4.15488 9.0958,-4.68353 4.1368,-0.69776 8.2493,0.49816 9.993,2.90519 1.8036,2.4899 1.8411,2.89792 1.8411,20.0901 v 15.70093 h 3.447 3.4463 l -0.092,-17.86383 c -0.089,-17.30788 -0.1127,-17.91318 -0.746,-19.45323 -1.4657,-3.56454 -3.6626,-5.69913 -7.1005,-6.89883 -1.2419,-0.43336 -2.5639,-0.55982 -5.8195,-0.55764 z m 182.5386,0.004 c -4.9597,0.007 -5.2483,0.0425 -7.8818,0.97814 -3.6181,1.28539 -5.8395,2.64192 -8.3518,5.09977 -2.4093,2.35708 -4.2767,5.37012 -5.5111,8.89291 -0.8276,2.36189 -0.8738,2.7818 -0.8672,7.8008 0.01,4.92636 0.067,5.48251 0.8483,7.8008 1.201,3.56219 2.8453,6.20603 5.5349,8.899 3.5578,3.56215 8.006,5.65932 13.2346,6.24064 5.096,0.56658 10.27,-0.28378 14.5326,-2.38838 2.4085,-1.1892 3.4249,-1.92854 5.4752,-3.98512 2.0601,-2.06636 2.7799,-3.06425 3.9613,-5.48981 1.8789,-3.8575 2.5042,-6.67936 2.489,-11.23314 -0.031,-9.25759 -4.3889,-16.62917 -12.0748,-20.4259 -3.7264,-1.84079 -5.5803,-2.19751 -11.3892,-2.18971 z m -225.599,0.77337 v 21.99825 21.99825 h 3.4323 3.4324 V 107.25013 85.25188 h -3.4324 z m 88.9955,5.10039 c 4.448,-0.004 9.5082,2.34114 12.3368,5.88594 l 1.0141,1.27068 v 9.59498 9.59559 l -1.3901,1.54675 c -1.886,2.09764 -4.2961,3.69858 -6.8958,4.58114 -5.3816,1.827 -10.2439,0.91981 -13.9738,-2.60778 -1.7896,-1.69254 -2.9712,-3.60917 -3.996,-6.48137 -0.9139,-2.56098 -1.1491,-8.78064 -0.4456,-11.7725 1.5038,-6.39481 5.6082,-10.49002 11.4904,-11.46473 0.6022,-0.0998 1.2245,-0.14815 1.86,-0.1487 z m -151.0899,0.0969 c 7.5994,0.0852 12.6191,5.22832 13.7562,14.09507 1.0897,8.49669 -2.6958,16.40044 -8.9971,18.78529 -2.3291,0.88148 -6.1931,1.09254 -8.4389,0.46074 -2.9618,-0.83326 -5.1363,-2.10676 -7.4753,-4.37881 l -2.2623,-2.19763 v -9.92346 -9.92347 l 1.8881,-1.96605 c 3.1544,-3.28501 7.1493,-5.00077 11.5293,-4.95168 z m 287.9841,4.16063 c 1.3697,-0.005 2.7337,0.20911 3.8949,0.64357 6.623,2.47797 9.3676,11.66819 5.666,18.973 -1.0229,2.01861 -3.8283,4.54525 -5.7135,5.14548 -5.8087,1.84948 -11.0987,-0.34232 -13.5691,-5.62145 -3.3507,-7.16028 -0.5478,-16.09553 5.7927,-18.46778 1.1843,-0.44313 2.5593,-0.66775 3.929,-0.67282 z m 52.5603,0.0104 c 1.1033,0.0111 2.1709,0.15889 3.0704,0.45281 4.8416,1.58219 7.7331,6.13746 7.7331,12.18205 0,5.75936 -2.6938,10.36843 -6.9957,11.96874 -3.1865,1.18539 -6.5291,1.00803 -9.3859,-0.49791 -8.0034,-4.21891 -7.7618,-19.08454 0.3748,-23.06538 1.426,-0.69771 3.3645,-1.05875 5.2033,-1.04031 z m -120.2499,9.35365 h 8.9923 c 10.5729,0 11.5861,0.17294 13.6684,2.33597 2.1091,2.1907 2.5176,5.40378 1.0525,8.27555 -0.6981,1.36857 -1.8874,2.30739 -3.7614,2.96857 -1.0424,0.3678 -3.2004,0.46134 -10.6298,0.46134 h -9.322 v -7.02072 z" />
  </g>
  <g
     id="layer2"
     style="display:inline">
    <path
       style="display:inline;fill:#71c837;stroke-width:0.415339"
       d="m 70.397737,196.96747 c -2.6348,-0.51481 -8.3955,-3.66498 -10.6709,-5.83522 -1.5396,-1.46853 -3.5072,-4.32815 -6.7389,-9.79422 -2.5103,-4.24606 -4.5643,-7.78213 -4.5643,-7.85793 0,-0.14112 -4.6816,-8.22824 -5.4141,-9.35255 -0.2233,-0.34266 -0.5355,-0.90337 -0.6938,-1.24602 -0.1584,-0.34266 -1.3348,-2.39858 -2.6142,-4.56872 -1.2794,-2.17015 -2.459,-4.22607 -2.6214,-4.56873 -0.1623,-0.34265 -0.6648,-1.18371 -1.1167,-1.86902 -0.4518,-0.68531 -0.9544,-1.52637 -1.1168,-1.86902 -0.346,-0.72979 -3.6991,-6.56644 -4.295,-7.4761 -0.2245,-0.34265 -0.5377,-0.90336 -0.6961,-1.24601 -0.1584,-0.34266 -1.372,-2.46054 -2.6971,-4.70641 -1.325,-2.24586 -2.4091,-4.15141 -2.4091,-4.23454 0,-0.0831 -1.6629,-2.95295 -3.6953,-6.37736 -2.0325,-3.42442 -4.2085,-7.31086 -4.8356,-8.63654 -2.14,-4.52362 -2.2522,-12.8472 -0.2329,-17.2799 0.4906,-1.07679 1.0772,-2.37892 1.3037,-2.89364 0.2264,-0.51471 0.7807,-1.49655 1.2316,-2.18186 0.451,-0.68531 0.9493,-1.52637 1.1074,-1.86903 0.1581,-0.34265 1.3751,-2.46269 2.7043,-4.7112 1.3292,-2.2485 2.4168,-4.14687 2.4168,-4.21858 0,-0.13583 4.7039,-8.2551 5.4141,-9.34511 0.2233,-0.34266 0.5329,-0.90336 0.688,-1.24602 0.1551,-0.34265 1.0884,-1.99349 2.074,-3.66853 0.9856,-1.67504 1.792,-3.21698 1.792,-3.42654 0,-0.20956 0.1687,-0.38102 0.3747,-0.38102 0.2061,0 0.5805,-0.51399 0.8319,-1.14218 0.2515,-0.6282 0.8284,-1.70289 1.2821,-2.3882 0.4537,-0.68531 0.9577,-1.52637 1.12,-1.86902 0.1624,-0.34266 1.3793,-2.46054 2.7043,-4.70641 1.325,-2.24586 2.4091,-4.14638 2.4091,-4.22337 0,-0.15266 4.7319,-8.33347 5.4053,-9.34512 0.2281,-0.34266 0.5419,-0.90336 0.6972,-1.24602 0.1553,-0.34265 2.0145,-3.53857 4.1315,-7.10205 4.4615,-7.50994 6.9467,-10.13888 11.819,-12.5026 5.619,-2.72604 3.5847,-2.61596 48.346903,-2.61596 43.2547,0 42.6522,-0.0253 47.141,1.97745 2.2994,1.02593 5.6706,3.17743 7.0607,4.50616 1.2117,1.15818 3.7381,4.32223 3.7381,4.68161 0,0.13578 1.0837,2.07204 2.4083,4.30279 1.3246,2.23076 2.5415,4.3356 2.7043,4.67742 0.1627,0.34182 0.6656,1.1822 1.1174,1.86751 0.4519,0.68531 0.9544,1.52637 1.1167,1.86903 0.1623,0.34265 1.3793,2.46053 2.7043,4.7064 1.325,2.24586 2.4091,4.14617 2.4091,4.2229 0,0.0767 0.8099,1.50999 1.7997,3.18503 0.9898,1.67504 2.421,4.16694 3.1805,5.53756 0.7594,1.37061 1.8568,3.23964 2.4386,4.15338 0.5818,0.91375 1.3572,2.22206 1.7231,2.90737 0.3658,0.68531 2.5046,4.42336 4.7527,8.30677 2.2481,3.88342 4.5586,7.90182 5.1345,8.92978 0.5758,1.02796 1.8566,3.23951 2.8461,4.91455 0.9895,1.67504 1.7991,3.12724 1.7991,3.22713 0,0.0999 0.5055,0.97222 1.1233,1.93853 3.2381,5.06482 4.0118,7.65647 3.9987,13.39465 -0.01,2.54968 -0.2458,5.30917 -0.5419,6.23008 -0.5242,1.63012 -2.1609,5.21546 -2.9352,6.42952 -0.8787,1.37789 -6.629,11.28099 -6.629,11.41643 0,0.08 -1.1214,2.04484 -2.492,4.36643 -1.3706,2.32159 -2.492,4.30301 -2.492,4.40315 0,0.10015 -0.5078,0.9727 -1.1283,1.93902 -1.3708,2.13444 -2.8668,4.7168 -3.5444,6.11799 -0.2762,0.57109 -0.615,1.1318 -0.753,1.24602 -0.138,0.11421 -0.9156,1.42253 -1.728,2.90736 -0.8124,1.48484 -2.6191,4.63068 -4.0148,6.99077 -1.3957,2.36008 -2.5377,4.35405 -2.5377,4.43104 0,0.077 -1.0841,1.97751 -2.4091,4.22338 -1.325,2.24587 -2.542,4.36375 -2.7043,4.7064 -0.1623,0.34266 -0.6567,1.18372 -1.0986,1.86903 -0.4419,0.68531 -1.2341,2.08707 -1.7603,3.11504 -0.5262,1.02796 -1.056,1.96247 -1.1775,2.07669 -0.3307,0.31111 -3.3103,5.42446 -3.3103,5.6809 0,0.37031 -2.5724,3.59846 -3.7098,4.65548 -1.47,1.36613 -6.1577,4.31304 -7.9197,4.97874 -0.7995,0.30207 -2.2013,0.70964 -3.1151,0.90573 -1.973,0.4234 -84.471303,0.42867 -86.636903,0.006 z m 50.087103,-37.58323 c 10.0636,-1.28288 18.0887,-4.58657 26.5817,-10.94289 3.6877,-2.75992 9.2618,-8.67459 11.8918,-12.61831 3.2822,-4.92185 6.5356,-11.84071 7.3925,-15.72138 0.1766,-0.79953 0.5229,-2.20129 0.7695,-3.11504 0.7648,-2.83313 1.3418,-8.12844 1.3389,-12.28868 -0.01,-12.14386 -4.0554,-24.02708 -11.4452,-33.60623 -3.5908,-4.65467 -8.9594,-9.72791 -11.9038,-11.24883 -5.9475,-3.07219 -12.6124,2.66151 -10.374,8.92465 0.5971,1.67069 1.3589,2.57052 4.2375,5.00525 7.9513,6.72518 12.6927,15.31975 14.3068,25.93369 0.7463,4.90738 0.6874,6.69069 -0.4127,12.50376 -1.4603,7.7157 -4.7998,14.26447 -10.3548,20.30598 -2.3459,2.55142 -7.9898,6.75327 -11.0217,8.20569 -9.5859,4.59212 -20.0271,5.52473 -29.2814,2.61542 -4.069803,-1.27946 -5.271303,-1.77378 -7.891403,-3.24647 -10.2754,-5.77571 -16.6188,-13.96113 -19.9968,-25.80393 -1.106,-3.87718 -1.1046,-15.23665 0,-19.10557 2.553,-8.9234 6.9943,-15.95277 13.4569,-21.29844 1.6922,-1.39977 3.4349,-3.24713 3.8727,-4.10525 2.4528,-4.80783 -1.2344,-10.73077 -6.6801,-10.73077 -3.2713,0 -6.8937,2.6976 -13.6443,10.16085 -4.1307,4.56669 -8.4174,12.41919 -10.4381,19.12052 -2.0039,6.64562 -2.2615,8.51324 -2.2629,16.40587 0,9.10229 0.4851,11.80927 3.7332,20.76693 0.686,1.89196 2.4929,5.48629 4.0714,8.0991 6.5433,10.83085 17.9791,19.83497 29.9625,23.59143 8.392403,2.63079 15.545403,3.28185 24.089603,2.19265 z m -2.1196,-47.90122 c 3.3312,-2.35027 3.1597,-0.6574 3.1442,-31.03971 l -0.014,-27.00349 -1.1344,-1.66135 c -1.7167,-2.5141 -4.2085,-3.63318 -7.5995,-3.41301 -3.2069,0.2082 -4.8804,1.21272 -6.439,3.86484 l -0.9977,1.69784 v 26.79437 26.79436 l 1.3186,1.8275 c 0.7252,1.00513 1.613,2.05895 1.9728,2.34182 2.1693,1.70517 7.1923,1.60049 9.7488,-0.20317 z"
       id="path25" />
  </g>
</svg>
