<?xml version="1.0" encoding="UTF-8" standalone="no"?>
<!-- Created with Inkscape (http://www.inkscape.org/) -->

<svg
   version="1.1"
   id="svg1"
   width="1469"
   height="406"
   viewBox="0 0 1836.25 507.5"
   xmlns="http://www.w3.org/2000/svg"
   xmlns:svg="http://www.w3.org/2000/svg">
  <defs
     id="defs1">
    <filter
       style="color-interpolation-filters:sRGB"
       id="filter36"
       x="-0.034990541"
       y="-0.035410317"
       width="1.095495"
       height="1.0966407">
      <feFlood
         result="flood"
         in="SourceGraphic"
         flood-opacity="0.498039"
         flood-color="rgb(0,0,0)"
         id="feFlood35" />
      <feGaussianBlur
         result="blur"
         in="SourceGraphic"
         stdDeviation="4.000000"
         id="feGaussianBlur35" />
      <feOffset
         result="offset"
         in="blur"
         dx="7.000000"
         dy="7.000000"
         id="feOffset35" />
      <feComposite
         result="comp1"
         operator="in"
         in="flood"
         in2="offset"
         id="feComposite35" />
      <feComposite
         result="comp2"
         operator="over"
         in="SourceGraphic"
         in2="comp1"
         id="feComposite36" />
    </filter>
    <filter
       style="color-interpolation-filters:sRGB"
       id="filter39"
       x="-0.023202654"
       y="-0.020332925"
       width="1.0633239"
       height="1.0554919">
      <feFlood
         result="flood"
         in="SourceGraphic"
         flood-opacity="0.498039"
         flood-color="rgb(0,0,0)"
         id="feFlood38" />
      <feGaussianBlur
         result="blur"
         in="SourceGraphic"
         stdDeviation="4.000000"
         id="feGaussianBlur38" />
      <feOffset
         result="offset"
         in="blur"
         dx="7.000000"
         dy="7.000000"
         id="feOffset38" />
      <feComposite
         result="comp1"
         operator="in"
         in="flood"
         in2="offset"
         id="feComposite38" />
      <feComposite
         result="comp2"
         operator="over"
         in="SourceGraphic"
         in2="comp1"
         id="feComposite39" />
    </filter>
    <filter
       style="color-interpolation-filters:sRGB"
       id="filter41"
       x="-0.008208588"
       y="-0.074154033"
       width="1.0224026"
       height="1.2023787">
      <feFlood
         result="flood"
         in="SourceGraphic"
         flood-opacity="0.498039"
         flood-color="rgb(0,0,0)"
         id="feFlood39" />
      <feGaussianBlur
         result="blur"
         in="SourceGraphic"
         stdDeviation="4.000000"
         id="feGaussianBlur39" />
      <feOffset
         result="offset"
         in="blur"
         dx="7.000000"
         dy="7.000000"
         id="feOffset39" />
      <feComposite
         result="comp1"
         operator="in"
         in="flood"
         in2="offset"
         id="feComposite40" />
      <feComposite
         result="comp2"
         operator="over"
         in="SourceGraphic"
         in2="comp1"
         id="feComposite41" />
    </filter>
    <filter
       style="color-interpolation-filters:sRGB"
       id="filter43"
       x="-0.070383545"
       y="-0.027004919"
       width="1.1920884"
       height="1.0737009">
      <feFlood
         result="flood"
         in="SourceGraphic"
         flood-opacity="0.498039"
         flood-color="rgb(0,0,0)"
         id="feFlood41" />
      <feGaussianBlur
         result="blur"
         in="SourceGraphic"
         stdDeviation="4.000000"
         id="feGaussianBlur41" />
      <feOffset
         result="offset"
         in="blur"
         dx="7.000000"
         dy="7.000000"
         id="feOffset41" />
      <feComposite
         result="comp1"
         operator="in"
         in="flood"
         in2="offset"
         id="feComposite42" />
      <feComposite
         result="comp2"
         operator="over"
         in="SourceGraphic"
         in2="comp1"
         id="feComposite43" />
    </filter>
  </defs>
  <g
     id="g1">
    <path
       id="path8"
       style="display:inline;fill:#4b54bd;fill-opacity:1;filter:url(#filter43)"
       d="m 474.26172,62.695312 c -11.42127,0 -13.11467,0.247416 -19.61914,2.857422 -14.46893,5.805845 -25.85154,17.381941 -31.11328,31.642578 -2.39967,6.503688 -2.75772,8.894828 -2.69532,17.999998 0.0625,9.12316 0.44429,11.41789 2.91016,17.5 3.4464,8.50058 7.92891,14.88836 14.76563,21.03516 6.0323,5.42355 10.65741,7.95559 20.25195,11.08984 19.09289,6.23707 41.88047,-0.15974 55.90234,-15.69336 17.60728,-19.5056 17.43483,-49.759307 -0.39258,-69.236325 -6.57615,-7.184659 -11.70782,-10.767776 -20.60742,-14.386719 -6.29027,-2.557882 -8.01079,-2.808592 -19.40234,-2.808594 z m 11.78125,134.541018 -54.28125,0.0391 3.94336,1.96875 c 5.16622,2.57744 8.30819,5.58709 10.70117,10.25391 1.88367,3.67434 1.94756,6.34548 1.88086,79.33593 -0.043,47.09596 -0.46689,78.41865 -1.125,83.19727 -1.32007,9.58528 -8.18517,31.71472 -11.0918,35.75195 -1.36145,1.89103 10.86752,6.92929 21.69141,8.93555 24.86268,4.60841 50.4167,-1.75591 70.01953,-17.4375 13.71347,-10.9703 24.24502,-28.27179 28.05469,-46.08594 1.10794,-5.18079 1.39072,-19.99659 1.38672,-73 -0.005,-74.29196 0.27218,-71.25233 -7.06836,-77.4414 -6.73925,-5.68211 -5.32614,-5.56068 -64.11133,-5.51758 z" />
    <path
       id="path9"
       style="display:inline;fill:#7b82ea;fill-opacity:1;filter:url(#filter39)"
       d="m 146.25391,13.087891 c -1.16891,0.01576 -1.18337,0.03132 0,0.04687 z m 130.35547,0.953125 c 10.94227,0.157865 16.8625,0.316265 16.15234,0.458984 -14.44589,2.903155 -18.28869,4.04153 -25.4043,7.529297 -9.4356,4.624919 -12.34311,6.701411 -20.54101,14.666015 -7.39088,7.180555 -14.9099,18.117278 -17.18555,25 -0.90925,2.750001 -2.01415,5.466296 -2.45508,6.035157 -1.40396,1.811273 -2.89825,13.658326 -2.90625,23.03125 -0.008,9.876511 1.27032,18.814931 3.53125,24.683591 l 1.44531,3.75 -95.20507,22.25 c -91.584357,21.40382 -79.586785,2.3009 -84.806645,4.25391 -6.231725,2.33159 -7.299291,-6.53514 -10.142578,-0.25391 -2.012069,4.44495 -2.537109,-4.31876 -2.537109,111.25 0,51.22771 -0.616178,70.9211 -1.111329,77.6211 2.294781,5.3958 -0.719988,24.93898 4.81836,27.52734 4.424431,2.06776 -5.049284,19.10704 65.250001,19.36133 39.325,0.14225 72.47726,3.93347 73.06055,4.14648 0.58329,0.213 1.89814,7.59483 2.61523,9.98828 1.50927,5.03748 9.77699,21.8376 11.48633,23.33985 0.63679,0.55965 3.39206,4.38395 6.12305,8.5 2.63417,3.97016 6.49437,8.62386 10.91406,13.30859 3.25165,3.69128 6.35171,6.88025 8.79687,8.94336 3.25156,2.74352 6.36211,5.5003 6.91211,6.125 1.60132,1.81878 6.15244,4.79993 11.78125,8.02148 9.58963,5.83936 24.80616,13.61719 26.93945,13.61719 0.51142,0 4.18573,1.10259 8.16602,2.44922 0.29197,0.0988 0.60326,0.19969 0.93164,0.30078 0.0699,0.023 0.13062,0.0415 0.18164,0.0566 0.0452,0.0134 0.0962,0.0272 0.15235,0.043 4.17545,1.25025 10.81193,2.61445 15.58007,3.17188 5.2849,0.61785 11.18438,1.42775 13.10938,1.80078 0.34061,0.066 -1.3725,0.13723 -4.86524,0.21094 h 30.51758 c -4.28045,-0.0368 -6.38065,-0.0741 -6.15234,-0.11133 2.75,-0.44874 9.95,-1.55328 16,-2.45508 6.05,-0.90179 11.45,-1.98537 12,-2.4082 0.55,-0.42283 3.19323,-1.30474 5.87305,-1.95899 9.44279,-2.30536 37.58393,-17.32635 42.12695,-22.48633 0.55,-0.6247 3.66055,-3.38148 6.91211,-6.125 5.76177,-4.8615 15.159,-15.97482 21.60937,-25.17773 1.93344,-2.48667 3.10006,-4.09583 4.22461,-6.07813 2.62851,-4.63336 2.97739,-5.05605 4.80274,-8.99218 l 7.20898,2.96875 c 1.92667,0.79355 3.95668,1.48382 6.05859,2.09179 v -0.13867 c -7.12066,-2.18419 -12.91655,-4.94493 -12.5996,-6.37304 0.0302,-0.0662 0.0608,-0.13334 0.0918,-0.20118 1.94458,-2.70097 5.17212,-12.81828 7.81446,-22.54101 1.49805,-5.02311 2.81822,-9.87719 3.27734,-13.21094 0.57045,-4.14225 0.96492,-28.22755 1.08789,-65.24219 0.0189,-5.68805 0.0314,-11.68186 0.0371,-17.95508 0.001,-1.43932 -0.0383,-0.17926 -0.0371,-1.56445 v -50.25391 c -0.13605,-23.04151 -0.581,-25.05466 -1.84375,-27.51757 -2.39296,-4.66669 -5.53504,-7.67651 -10.70117,-10.25391 l -3.87696,-1.93555 -0.0351,-0.0176 c -0.23493,-0.0142 -0.47311,-0.0262 -0.71485,-0.0371 h -0.002 c -2.38846,-0.10782 -5.08044,-0.0643 -7.52539,-0.0645 -1.3254,-8e-5 -2.64713,3.2e-4 -3.96484,0 -35.18208,-0.22677 -69.28619,-0.6902 -104.14063,-0.68945 -3.7,0.0495 -8.46313,0.0953 -14.12109,0.13867 -1.18964,-0.031 -1.9716,-0.0615 -2.3125,-0.0937 L 298.53711,196.5 H 221.125 v 0.42383 l -37.5,156.45117 -8.26758,1 H 165.25 l -15.75,1.07031 -1.73828,-12.25 -35.5,-14.5 2.25,-65.25 13.5,-47 -12.5,-2.5 -27.250001,-2 -7.25,-24 4,-17.25 69.250001,-5.75 44.23828,-1.5 20,-4.32031 76.29297,8.25 6.96289,-0.043 c 5.22135,-0.0319 10.28385,-0.4606 11.25,-0.95312 0.96615,-0.49251 4.54609,-1.42884 7.95703,-2.08008 11.96529,-2.28449 27.12651,-10.76341 36.82031,-20.5918 5.91325,-5.99534 13.60038,-17.35611 15.57227,-23.01172 0.76706,-2.2 1.69354,-4.22562 2.05859,-4.50195 0.36505,-0.27632 1.38048,-3.96904 2.25586,-8.20703 1.82287,-8.825083 2.05874,-23.323678 0.53125,-32.738283 -2.91549,-17.969439 -16.46307,-37.73488 -33.20312,-48.443359 -5.83843,-3.734799 -16.73633,-8.899893 -16.73633,-7.931641 0,0.312079 -0.59184,0.07823 -1.31445,-0.521485 -0.72262,-0.599716 -5.56012,-1.821652 -10.75,-2.714843 -3.43283,-0.590796 -6.53375,-1.191805 -8.30665,-1.595703 z M 431.79297,197.29102 c 0.003,1.8e-4 0.007,-1.9e-4 0.01,0 l 0.0176,-0.0156 h -0.0586 z m 0.0273,-0.0156 h 0.008 v -0.006 z M 35.443359,334.31641 c -0.01739,-0.0409 -0.03473,-0.0819 -0.05273,-0.1211 -0.943232,-2.05619 -0.528594,7.98719 0.05273,0.1211 z M 448.57812,68.259766 c -13.54748,7.303166 -22.67355,19.047521 -26.30859,32.671874 0.34628,-1.141218 0.73549,-2.315398 1.25977,-3.736328 4.50218,-12.202055 13.48511,-22.439178 25.04882,-28.777343 z m -27.05664,35.814454 c -1.1497,5.73479 -1.43138,11.73066 -0.52734,17.88672 0.0245,0.16679 0.0503,0.33385 0.0762,0.5 -0.15875,-1.92209 -0.2154,-4.21101 -0.23633,-7.26563 -0.0359,-5.24513 0.1272,-8.26234 0.6875,-11.12109 z m 1.66016,27.20508 c 3.96595,12.04579 12.0088,21.78768 23.13281,28.26172 -2.69353,-1.57434 -5.11842,-3.39537 -7.80468,-5.81055 -6.83672,-6.1468 -11.31923,-12.53458 -14.76563,-21.03516 -0.20075,-0.49514 -0.38843,-0.96534 -0.5625,-1.41601 z m 24.75781,29.15234 c 0.21281,0.1148 0.42439,0.23261 0.63867,0.3457 v -0.0117 c -0.21568,-0.10933 -0.42717,-0.22256 -0.63867,-0.33398 z" />
    <path
       id="path4"
       style="display:inline;fill:#4b54bd;fill-opacity:1;filter:url(#filter36)"
       d="m 226.68164,118.78711 c -10.03063,0.23413 -48.12304,0.4082 -93.23828,0.4082 -106.134339,0 -102.223627,-0.23084 -109.476563,6.47266 -2.086805,1.92872 -4.662947,5.42431 -5.726563,7.76758 -1.875881,4.1328 -1.935282,7.73667 -1.951172,120.25976 -0.01056,74.79984 0.341367,117.28705 0.990235,119.62305 0.553448,1.99246 2.8028,5.66427 4.998047,8.1582 7.064381,8.02557 3.709044,7.71698 84.412106,7.73438 36.44264,0.008 67.13706,0.30078 71.61524,0.66797 h 67.17773 v 0.0156 c 0.51502,-0.004 1.02221,-0.009 1.52149,-0.0156 h 0.98632 v -0.0137 c 7.37093,-0.11572 12.99357,-0.45332 17.38282,-0.68359 2.4371,-0.12788 4.48747,-0.28595 6.22851,-0.48242 3.48105,-0.39282 5.73151,-0.93814 7.39258,-1.69336 0.4153,-0.1889 0.79485,-0.39126 1.14648,-0.60742 0.35168,-0.21616 0.67627,-0.44615 0.98438,-0.69141 0.30811,-0.24526 0.60015,-0.507 0.88477,-0.7832 0.28461,-0.2762 0.56256,-0.56801 0.84375,-0.87695 0.56237,-0.61798 1.13755,-1.3024 1.80664,-2.0625 1.0976,-1.24697 2.2093,-2.78883 3.11523,-4.26758 0.67945,-1.10907 1.24334,-2.18245 1.59961,-3.07032 0.11876,-0.29595 0.21403,-0.57125 0.2832,-0.82031 0.6489,-2.336 1.00124,-44.82319 0.99024,-119.62305 -0.0159,-112.52307 -0.0753,-116.12696 -1.95117,-120.25976 -1.0636,-2.34327 -3.63977,-5.83886 -5.72657,-7.76758 -0.92615,-0.85599 -1.67,-1.59749 -2.48437,-2.24219 -0.2713,-0.21482 -0.54947,-0.4197 -0.84571,-0.61328 -0.50157,-0.32779 -1.07169,-0.61948 -1.71679,-0.89062 -0.11671,-0.0491 -0.21669,-0.10307 -0.33985,-0.15039 h -0.002 c -0.0997,-0.0383 -0.22392,-0.0703 -0.32812,-0.10742 -0.73619,-0.26239 -2.96632,-1.39207 -3.98633,-1.60157 -4.36166,-0.89581 -9.62141,-1.75753 -25.27735,-1.72461 v -0.0586 h -2.42382 -0.0195 z m -132.312499,58.39258 59.695309,0.25781 59.69727,0.25781 0.18555,10.83789 c 0.10205,5.95989 -0.059,11.47239 -0.35743,12.25 -0.4447,1.15886 -4.49061,1.41211 -22.43554,1.41211 h -21.89258 v 62.5 62.5 h -15 -15 v -62.48047 -62.48046 l -22.25,-0.26954 -22.250001,-0.26953 -0.197266,-12.25781 z" />
    <path
       id="path7"
       style="display:inline;fill:#575ab0;fill-opacity:1;filter:url(#filter41)"
       d="m 1256.7402,207.39258 c -10.3626,0.0499 -19.0244,5.41357 -24.2148,15.17383 -1.1652,2.19104 -1.8305,6.72906 -2.2149,15.1289 l -0.5488,12 -7.3008,0.29492 -7.3007,0.29493 0.3007,5.20507 0.3008,5.20508 7.25,0.29492 7.25,0.29297 v 36.20703 36.20508 l 6.25,-0.16601 6.25,-0.16797 0.2617,-36.08203 0.2637,-36.08399 h 9.4863 9.4883 v -5.46093 -5.4629 l -9.25,-0.2871 -9.25,-0.28907 -0.2851,-9.68945 c -0.3221,-10.93246 1.1443,-15.55107 6.1015,-19.2168 2.9743,-2.19936 10.1467,-2.83277 14.4336,-1.27539 2.173,0.78957 2.25,0.61407 2.25,-5.15625 v -5.97265 l -4.9805,-0.68555 c -1.5439,-0.21243 -3.0606,-0.31377 -4.541,-0.30664 z m -452.4277,4.7832 c -3.64212,-0.0317 -7.36715,2.22482 -8.48633,7.01953 -0.7398,3.16942 1.25127,7.08433 4.45508,8.75781 5.61372,2.93229 12.17969,-0.95623 12.17969,-7.21289 0,-5.55166 -4.0207,-8.52853 -8.14844,-8.56445 z m 603.4492,4.01953 c -31.6902,0 -40.5171,0.2719 -40.5801,1.25 -0.044,0.6875 -0.2226,3.3875 -0.3945,6 l -0.3125,4.75 h 17.3945 17.3926 v 52.33399 c 0,28.78333 0.2356,52.56956 0.5235,52.85742 0.2878,0.28785 3.1003,0.46598 6.25,0.39648 l 5.7265,-0.12695 0.5,-52.48047 0.5,-52.48047 16.75,-0.27343 16.75,-0.27344 v -5.97656 -5.97657 z m -741.99998,0.9375 -9,0.28125 -9,0.28125 -0.25977,57.5 c -0.14277,31.625 -0.0368,58.0849 0.23633,58.79883 0.35181,0.9195 2.32315,1.21114 6.75977,1 l 6.26367,-0.29687 -0.0391,-50.36915 c -0.0239,-30.45793 0.30748,-49.23463 0.83984,-47.5 1.6975,5.53116 6.66239,17.10996 19.23828,44.86915 6.97674,15.4 14.69736,32.725 17.15625,38.5 5.82802,13.68778 6.71546,15 10.14453,15 3.18334,0 2.40962,1.43386 16.69336,-31 10.07971,-22.88786 9.04549,-20.54892 19.39649,-43.82032 4.48173,-10.07596 8.41369,-19.6485 8.73828,-21.27148 0.3246,-1.62298 0.86955,-3.12293 1.21093,-3.33399 0.34146,-0.21105 0.6211,21.95954 0.6211,49.26954 v 49.65625 h 6.5 6.5 l 0.25781,-58.75 0.25781,-58.75 -8.75781,0.0273 -8.75781,0.0273 -17,37.60352 c -9.35,20.68129 -18.84551,42.155 -21.10156,47.7207 -2.25605,5.5657 -4.4283,10.11914 -4.82618,10.11914 -0.39787,0 -2.43238,-4.275 -4.52148,-9.5 -2.0891,-5.225 -6.4752,-15.575 -9.74805,-23 -3.27285,-7.425 -10.86782,-24.6514 -16.87695,-38.28125 z m 631.17578,8.41016 c -0.1669,0.006 -0.3546,0.0519 -0.5664,0.11914 -1.0058,0.31923 -3.8043,1.15034 -6.2188,1.84766 l -4.3906,1.26757 -0.5,10.45899 -0.5,10.45898 -7.3008,0.29492 -7.3007,0.29493 0.3007,5.20507 0.3008,5.20508 7.1953,0.29297 7.1973,0.29297 0.3027,30.20703 0.3047,30.20703 2.7813,4.73242 c 2.9205,4.96825 4.6633,6.27805 11.2187,8.43165 4.1838,1.37445 12.4638,1.06105 16.9395,-0.64063 2.2863,-0.86925 2.5605,-1.52134 2.5605,-6.07813 v -5.10351 l -3.25,0.78906 c -7.5987,1.84619 -13.8048,-0.11823 -16.1797,-5.12305 -1.3067,-2.75364 -1.5703,-7.85033 -1.5703,-30.37304 v -27.06446 l 10.25,-0.28515 10.25,-0.28516 0.3008,-5.21289 0.3008,-5.21484 -10.3008,-0.28516 -10.3008,-0.28711 -0.2812,-12.30664 c -0.2281,-9.97667 -0.3747,-11.88488 -1.543,-11.8457 z m 496.1543,21.22656 c -16.385,0.38305 -28.8104,10.31871 -28.834,24.23438 -0.02,11.6358 4.6095,17.19093 21.3301,25.5957 14.5168,7.29708 17.0772,9.94901 16.4004,16.99219 -0.59,6.14078 -3.4355,8.9457 -10.6465,10.49218 -7.0048,1.50225 -18.321,-0.87786 -24.3848,-5.1289 l -2.7968,-1.96094 0.2968,7.25977 0.295,7.25781 5.5,1.98437 c 7.4116,2.67432 20.5866,2.86047 27.6777,0.39063 7.6814,-2.67542 13.373,-6.30133 16.3862,-12.35026 0,0 1.4033,-3.82572 1.9282,-5.7181 0.4302,-1.55089 0.6404,-1.80635 0.6987,-4.62271 0.031,-1.48856 -0.2316,-2.57232 -0.6987,-4.64096 -0.4163,-1.84554 -0.9886,-3.45029 -1.8325,-5.1436 -2.8776,-5.77456 -7.5904,-9.14344 -16.5093,-13.45015 -12.8407,-6.20047 -14.8654,-7.32788 -17.1152,-9.54492 -5.0487,-4.97512 -3.6794,-14.32581 2.6641,-18.19336 4.9629,-3.02575 15.6091,-2.80002 22.6601,0.48242 2.9421,1.36962 5.5296,2.49023 5.75,2.49023 v -0.002 c 0.2145,-0.10843 0.3907,-2.91732 0.3907,-6.33594 0,-5.844 -0.2019,-6.43204 -2.5801,-7.51562 -1.4189,-0.64649 -5.622,-1.60747 -9.3399,-2.13477 -2.4777,-0.3514 -4.8995,-0.49222 -7.2402,-0.4375 z m -226.832,0.008 c -5.7281,0.0821 -11.9435,1.03785 -17.3692,2.84961 -12.0119,4.01107 -11.6289,3.64672 -11.6289,11.10547 0,3.55565 0.2348,6.46289 0.5215,6.46289 0.2868,0 2.2296,-1.12877 4.3164,-2.50976 6.2264,-4.12042 14.355,-6.49024 22.2695,-6.49024 11.5064,0 16.5932,4.61103 17.6231,15.96875 l 0.5273,5.8125 -3.8789,0.59766 c -2.1334,0.32832 -7.9289,1.08979 -12.8789,1.6914 -23.58,2.86622 -34.355,9.92343 -36.0664,23.6211 -1.9773,15.8254 4.2399,25.41798 19.0664,29.41797 5.1445,1.38791 14.992,0.18299 20.2403,-2.47657 2.6622,-1.34904 6.7031,-4.47469 8.9804,-6.94531 2.2774,-2.47063 4.3219,-4.31097 4.543,-4.08984 0.2213,0.22113 0.2545,2.87706 0.072,5.90234 -0.1817,3.02527 0,5.52338 0.416,5.55078 0.4111,0.0274 3.448,0.13994 6.748,0.25 l 6,0.19922 v -33 -33 l -2.6426,-5.5 c -3.2989,-6.86392 -6.3958,-10.11391 -12.4101,-13.02539 -3.4789,-1.6841 -8.7212,-2.47469 -14.4492,-2.39258 z m -83.9102,0.002 c -11.0191,-0.48731 -21.0948,3.50931 -28.4961,11.42187 -19.0352,20.35014 -15.8766,59.78104 5.8067,72.48828 2.3105,1.35405 6.8797,3.13944 10.1523,3.9668 10.5448,2.66589 29.1004,0.0912 37.0937,-5.14648 2.034,-1.33226 2.3555,-2.34958 2.3555,-7.42774 0,-5.95209 -0.7599,-7.08525 -2.9687,-4.42383 -1.6397,1.97573 -10.3511,5.14526 -17.9082,6.51563 -7.6446,1.38621 -16.5179,-0.52882 -22.6231,-4.88281 -5.0298,-3.58703 -9.2713,-11.68674 -10.1308,-19.34571 l -0.6446,-5.75 h 30.252 30.25 l -0.4512,-10.25 c -0.5563,-12.62346 -3.0179,-19.57729 -9.4668,-26.75 -5.5562,-6.17988 -10.0582,-8.60492 -18.4453,-9.93164 -1.6076,-0.2543 -3.2012,-0.41476 -4.7754,-0.48437 z m 233.4121,0.13476 c -11.8709,0.0177 -19.2942,3.76256 -25.5879,12.91016 l -3.1445,4.57031 -1.7266,-3.85742 c -2.0056,-4.47962 -7.8481,-9.93431 -12.9687,-12.10742 -2.088,-0.88614 -6.504,-1.50514 -10.627,-1.49024 -8.8032,0.0318 -15.6037,3.17189 -21.0957,9.74219 -2.0756,2.48299 -4.0208,4.51367 -4.3222,4.51367 -0.3015,0 -0.5471,-2.8125 -0.5371,-6.25 l 0.01,-6.25 h -6.5 -6.5 l -0.2617,41.5 c -0.1437,22.82465 -0.087,41.94965 0.125,42.5 0.3152,0.81879 5.9589,1.09067 12.3672,0.59571 0.944,-0.0729 1.1604,-5.38493 0.9316,-22.84571 -0.4683,-35.74308 0.9493,-42.31472 10.6543,-49.3789 3.8763,-2.82155 4.6969,-3.01807 11.1875,-2.69922 8.5366,0.41935 12.2712,2.70442 15.6602,9.58593 2.2534,4.57577 2.3535,5.8178 2.8359,35.24219 0.4628,28.23193 0.6301,30.49507 2.25,30.41797 0.9625,-0.0458 3.7383,-0.1583 6.168,-0.25 l 4.418,-0.16797 0.3964,-27.75 c 0.4197,-29.36859 0.6597,-31.02051 5.6094,-38.55664 3.7476,-5.70585 9.5348,-8.69336 16.8477,-8.69336 7.6647,0 11.8606,2.60424 15.3105,9.50196 2.479,4.9565 2.5029,5.25629 2.8145,35.60742 l 0.3144,30.60937 5.1856,-0.27929 c 2.8522,-0.15378 5.7803,-0.31588 6.5078,-0.35938 1.0763,-0.0643 1.2543,-6.17905 0.9531,-32.83008 -0.3165,-28.0084 -0.619,-33.38991 -2.0918,-37.17969 -4.3619,-11.22332 -12.2894,-16.37076 -25.1836,-16.35156 z m -711.584,0.74219 c -15.8049,-0.41402 -31.97146,7.48832 -38.87301,21.94922 -7.88978,16.53155 -5.79803,40.339 4.61133,52.5 5.98483,6.99193 14.69123,11.78427 24.3457,13.40039 8.72678,1.46084 22.72148,-1.19381 29.67378,-5.62891 14.366,-9.16462 21.0826,-26.41732 18.295,-46.99414 -1.5468,-11.4176 -4.9734,-18.55061 -12.0703,-25.12109 -7.1456,-6.61555 -16.4994,-9.85706 -25.9825,-10.10547 z m 83.1407,0.19727 c -4.8532,0.15932 -9.5968,1.09615 -13.1426,2.77539 -6.4904,3.07371 -12.1671,8.62183 -13.7813,13.46679 -1.8106,5.43446 -1.3935,13.93 0.918,18.70508 2.5832,5.33601 5.6929,7.67701 19.6895,14.82031 12.5557,6.40799 15.2597,9.00476 15.2597,14.66211 0,7.53474 -3.9935,11.26617 -13.4512,12.5625 -4.7336,0.6488 -14.0028,-1.61504 -19.3554,-4.72656 -1.8189,-1.05739 -3.7534,-1.92383 -4.2989,-1.92383 -0.5824,0 -0.861,2.57529 -0.6757,6.25 0.3066,6.0792 0.4138,6.30055 3.9492,8.03711 1.9991,0.98194 5.5928,2.19814 7.9844,2.70313 5.7001,1.20359 17.3092,0.46533 22.7246,-1.44532 13.0797,-4.61481 19.8508,-17.5153 15.5175,-29.56445 -2.4984,-6.94972 -7.0277,-10.79833 -20.6386,-17.53516 -6.1909,-3.06418 -12.1057,-6.40447 -13.1446,-7.42382 -1.173,-1.15101 -2.0756,-3.79249 -2.3808,-6.96875 -0.4772,-4.96661 -0.3673,-5.23145 3.7832,-9.17969 l 4.2734,-4.06641 8.1074,0.38672 c 5.7582,0.27455 9.3909,1.02781 12.543,2.59766 2.4408,1.21559 4.5783,2.20898 4.75,2.20898 v -0.002 c 0.1662,-0.12864 0.3028,-2.91372 0.3028,-6.29883 v -6.30273 l -5.1211,-1.8418 c -3.9868,-1.4336 -8.9492,-2.05373 -13.8028,-1.89648 z m 78.9336,0.17773 c -17.8103,0.0258 -30.4732,7.29899 -37.7618,21.68945 -3.2482,6.41324 -4.5706,15.42108 -3.9746,27.09766 0.4727,9.26164 0.9286,11.30569 3.8242,17.1875 5.4234,11.01662 13.8105,17.75552 25.6817,20.63281 12.2438,2.96759 24.5917,0.89738 34.5,-5.7832 7.5001,-5.05687 11.9664,-11.1052 15.375,-20.82031 2.3415,-6.67387 2.5341,-8.38153 2.1191,-18.83985 -0.346,-8.72099 -0.9825,-12.79564 -2.6347,-16.86328 -6.7962,-16.73159 -18.4033,-24.32798 -37.1289,-24.30078 z m -214.00005,1.63281 c -5.99176,-0.095 -11.59004,2.37358 -15.93554,7.08789 -2.30853,2.50446 -4.66772,5.90286 -5.24219,7.55078 -1.54418,4.42963 -2.3125,2.61957 -2.3125,-5.4414 v -7.16602 l -6.22852,-0.29687 -6.22851,-0.29688 -0.27149,41.63086 c -0.14941,22.89713 -0.0649,41.83778 0.1875,42.08985 0.25243,0.25211 3.17743,0.32677 6.5,0.16601 l 6.04102,-0.29297 0.12109,-25 c 0.12381,-25.51985 0.68318,-30.28613 4.39258,-37.49414 4.15399,-8.07194 12.73688,-12.27885 20.59961,-10.0957 2.13721,0.59341 4.22422,1.08294 4.63672,1.08594 0.4125,0.003 0.75,-2.85914 0.75,-6.35938 v -6.36328 l -4.41992,-0.60547 c -0.86952,-0.11918 -1.73388,-0.18564 -2.58985,-0.19922 z m -76.99023,0.11524 c -9.43865,0.0183 -12.48586,0.4136 -17,2.20508 -16.20895,6.4325 -26,22.33554 -26,42.22851 0,21.40508 10.40897,36.1974 29.19726,41.49219 7.1413,2.01252 19.67796,1.29869 26.84766,-1.52735 2.98985,-1.17849 5.77042,-2.66913 6.17969,-3.3125 0.97547,-1.53353 0.99864,-11.94986 0.0254,-11.45507 -11.19223,5.68989 -12.90503,6.21487 -20.25,6.20117 -12.49408,-0.0233 -20.75089,-5.25975 -25.84766,-16.39258 -3.37025,-7.36159 -3.67859,-21.67759 -0.64844,-30.02344 5.55827,-15.30874 22.53025,-22.7685 38.4961,-16.91992 10.00824,3.6662 9.13971,3.98219 8.80078,-3.19922 l -0.30078,-6.3789 -4,-1.46875 c -2.67342,-0.98227 -7.8139,-1.46412 -15.5,-1.44922 z m -78,1.32617 v 41.37891 c 0,22.75846 0.31906,41.69797 0.70898,42.08789 0.38993,0.38997 3.42743,0.57677 6.75,0.41601 l 6.04102,-0.29297 v -41.5 -41.5 l -6.75,-0.29492 z m 680.81638,7.16211 c 1.0783,-0.0148 2.3117,0.0202 3.7696,0.0937 6.3428,0.3203 7.7531,0.76007 11.0898,3.45703 5.2757,4.26414 7.4217,8.35829 8.0586,15.38281 l 0.543,5.99414 h -23.1133 -23.1133 l 0.6406,-3.25 c 1.6441,-8.33783 7.4685,-16.25893 14.6485,-19.92187 2.3931,-1.2209 4.2417,-1.7114 7.4765,-1.75586 z m -476.2207,0.92773 c 13.151,0 21.5122,5.80741 25.4649,17.68555 1.8133,5.45048 2.0915,8.1603 1.748,17.14453 -0.3479,9.09802 -0.8166,11.51594 -3.1719,16.40039 -3.4217,7.09591 -8.1344,11.08593 -15.5546,13.16797 -6.9135,1.93978 -9.9633,1.91871 -16.88091,-0.11914 -12.31545,-3.62799 -19.6182,-15.28548 -19.5957,-31.2793 0.0288,-20.51201 10.62059,-33 27.99021,-33 z m 163.7364,0.01 c 8.8366,0.012 15.8299,2.94584 20.5234,8.61133 5.5094,6.65038 8.0793,19.92777 6.1699,31.8789 -1.9273,12.06309 -6.5013,19.03042 -14.8613,22.63477 -12.8354,5.53385 -28.1511,1.26208 -35.1719,-9.8086 -5.8608,-9.24157 -6.7035,-26.88301 -1.7812,-37.32617 5.2703,-11.18181 12.8507,-16.00693 25.1211,-15.99023 z m 415.789,31.69726 c 1.2713,0.041 1.3312,1.22507 1.1192,7.66993 -0.3912,11.8924 -5.2955,20.54495 -13.5997,23.99218 -5.0649,2.10255 -9.8126,2.47492 -14.8906,1.16602 -5.542,-1.42849 -8.4925,-3.77189 -10.3887,-8.25195 -1.888,-4.46073 -1.7048,-7.94174 0.6758,-12.85938 3.226,-6.66399 7.8759,-8.15242 36.4629,-11.67578 0.2338,-0.0288 0.4395,-0.0469 0.6211,-0.041 z" />
  </g>
</svg>
