<?xml version="1.0" encoding="UTF-8" standalone="no"?>
<!-- Created with Inkscape (http://www.inkscape.org/) -->

<svg
   width="1523.7"
   height="282.97"
   version="1.1"
   viewBox="0 0 2539.5007 471.61637"
   id="svg46"
   xmlns="http://www.w3.org/2000/svg"
   xmlns:svg="http://www.w3.org/2000/svg">
  <defs
     id="defs46" />
  <g
     transform="translate(0,-2.8917)"
     id="g46">
    <g
       id="g47"
       style="display:inline"
       transform="matrix(1.6471727,0,0,1.6471727,-1642.1328,9.9738478)">
      <path
         d="m 1353.5,130.36 -99.635,51.302 -99.688,-51.302 V 63.225 l 99.688,-51.303 99.635,51.303 z"
         fill="#3d87cf"
         stroke="#000000"
         stroke-miterlimit="3.864"
         stroke-width="16.067"
         id="path24"
         style="display:inline" />
      <path
         d="M 1355.2,61.511 1253.74,112.448 1153.53,61.927"
         fill="none"
         stroke="#000000"
         stroke-miterlimit="3.864"
         stroke-width="16.067"
         id="path25"
         style="display:inline" />
      <path
         d="m 1213,212.45 -99.687,51.302 -99.688,-51.302 v -67.083 l 99.688,-51.354 99.687,51.302 z"
         fill="#f3632e"
         stroke="#000000"
         stroke-miterlimit="3.864"
         stroke-width="16.067"
         id="path26"
         style="display:inline" />
      <path
         d="m 1113,186.2 v 80.834 m 101.72,-123.44 -101.51,50.99 L 1013,144.011"
         fill="none"
         stroke="#000000"
         stroke-miterlimit="3.864"
         stroke-width="16.067"
         id="path27"
         style="display:inline" />
      <path
         d="m 1491.6,212.86 -99.74,51.25 -99.635,-51.25 v -67.188 l 99.635,-51.25 99.687,51.25 z"
         fill="#912697"
         stroke="#000000"
         stroke-miterlimit="3.864"
         stroke-width="16.067"
         id="path28"
         style="display:inline" />
      <path
         d="m 1391.6,186.56 v 76.146 m 101.67,-118.75 -101.51,50.989 -100.16,-50.573"
         fill="none"
         stroke="#000000"
         stroke-miterlimit="3.864"
         stroke-width="16.067"
         id="path29"
         style="display:inline" />
      <path
         d="m 1353.5,214.38 -99.635,51.302 -99.688,-51.302 v -67.135 l 99.688,-51.302 99.635,51.302 z"
         fill="#fac705"
         stroke="#000000"
         stroke-miterlimit="3.864"
         stroke-width="16.067"
         id="path30"
         style="display:inline" />
      <path
         d="m 1355.2,145.52 -101.46,50.99 -100.21,-50.573 m 100,42.187 v 78.49"
         fill="none"
         stroke="#000000"
         stroke-miterlimit="3.864"
         stroke-width="16.067"
         id="path31"
         style="display:inline" />
    </g>
    <g
       id="g52"
       transform="matrix(1.6132584,0,0,1.6132584,840.65638,-125.4992)">
      <g
         id="g55">
        <path
           d="m 503.65,360.68 h 42.5 V 230.47 h -42.5 z"
           id="path4"
           style="display:inline" />
        <path
           d="m 463.75,360.52 h 38.385 c -2.1875,-4.167 -3.1771,-9.948 -3.1771,-17.656 v -44.011 c 0,-26.614 -13.385,-37.291 -48.594,-37.291 -30.885,0 -49.01,9.739 -54.531,30.156 l 36.25,3.385 c 0.5729,-6.718 6.6667,-11.406 15.729,-11.406 8.6458,0 12.969,3.177 12.969,10.469 v 3.021 c -44.844,1.302 -67.5,13.854 -67.5,36.875 0,17.812 13.385,29.271 36.198,29.271 15,0 25.99,-5.834 32.292,-16.511 0.4167,5.261 0.9896,9.74 1.9792,13.698 z m -2.9688,-46.094 v 10.677 c 0,9.74 -5.8854,15.157 -15.365,15.157 -7.6563,0 -11.406,-3.021 -11.406,-9.375 0,-8.438 9.2708,-14.584 26.771,-16.459"
           fill-rule="evenodd"
           id="path5"
           style="display:inline" />
        <path
           d="m 393.12,264.12 h -38.021 v 59.271 c 0,9.01 -4.2708,13.698 -10.937,13.698 -6.5104,0 -9.6354,-4.48 -9.6354,-13.49 V 264.12 h -37.969 v 63.385 c 0,24.323 9.0104,35.573 32.604,35.573 13.385,0 23.229,-5.625 28.698,-16.302 v 13.698 h 35.26 V 264.12"
           id="path3"
           style="display:inline" />
        <path
           d="m 190.05,332.92 c 5.6771,19.167 24.323,29.792 53.958,29.792 32.708,0 52.604,-14.688 52.604,-34.219 0,-8.021 -3.2292,-14.896 -9.5312,-20.104 -7.7084,-6.302 -16.875,-7.604 -28.021,-9.479 -19.271,-3.125 -28.906,-2.396 -28.854,-8.334 0.052,-3.229 3.8542,-6.666 11.615,-6.666 9.5312,0 15.625,3.125 19.271,9.062 l 31.25,-5 c -6.875,-16.562 -23.75,-25.677 -48.49,-25.677 -30.885,0 -48.75,14.115 -48.75,33.125 0,8.125 4.2708,15.937 11.562,21.146 9.1667,6.51 19.323,8.021 30.885,9.896 14.375,2.395 22.083,1.718 22.708,7.031 0.4688,3.698 -5.0521,6.51 -14.583,6.51 -13.438,0 -20.938,-3.698 -22.76,-10.781 l -32.865,3.698"
           id="path2"
           style="display:inline" />
        <g
           id="g56"
           style="display:inline">
          <path
             d="m 150.26,257.4 h 40.677 l -0.1563,-25.989 h -40.417 l -0.104,25.989"
             id="path6"
             style="display:inline" />
          <path
             d="m 150.26,360.47 h 40.677 V 264.116 H 150.26 Z"
             id="path7"
             style="display:inline" />
        </g>
        <path
           d="m 66.771,360.31 h 41.667 L 152.032,231.35 H 117.084 L 91.511,317.965 67.344,231.35 H 23.75 l 43.021,128.96"
           id="path8"
           style="display:inline" />
      </g>
      <g
         id="g53">
        <path
           d="m 1009.2,321.56 c -0.937,7.291 -4.4792,14.583 -13.698,14.583 -13.906,0 -18.49,-15.208 -18.49,-24.427 0,-8.646 4.3228,-24.375 17.865,-24.375 9.427,0 12.083,7.136 13.177,14.271 l 37.188,-1.771 c -3.2291,-24.583 -24.635,-38.802 -51.667,-38.802 -33.646,0 -56.406,21.719 -56.406,51.302 0,14.01 5.1562,27.24 16.302,37.24 11.614,10.156 24.479,13.437 40.312,13.437 27.865,0 48.021,-13.437 51.875,-38.802 L 1009.2,321.56"
           id="path13"
           style="display:inline" />
        <g
           id="g54">
          <path
             d="m 896.41,257.4 h 40.729 V 231.306 H 896.41 Z"
             id="path11"
             style="display:inline" />
          <path
             d="m 896.41,360.47 h 40.729 V 264.116 H 896.41 Z"
             id="path12"
             style="display:inline" />
        </g>
        <path
           d="m 789.69,332.92 c 5.7292,19.167 24.375,29.792 54.01,29.792 32.708,0 52.604,-14.688 52.604,-34.219 0,-8.021 -3.2812,-14.896 -9.5312,-20.104 -7.7604,-6.302 -16.875,-7.604 -28.021,-9.479 -19.271,-3.125 -28.906,-2.396 -28.854,-8.334 0.05,-3.229 3.8542,-6.666 11.562,-6.666 9.5833,0 15.677,3.125 19.323,9.062 l 31.25,-5 c -6.927,-16.562 -23.75,-25.677 -48.542,-25.677 -30.833,0 -48.698,14.115 -48.698,33.125 0,8.125 4.2708,15.937 11.562,21.146 9.1666,6.51 19.271,8.021 30.885,9.896 14.375,2.395 22.083,1.718 22.708,7.031 0.469,3.698 -5.052,6.51 -14.635,6.51 -13.386,0 -20.886,-3.698 -22.708,-10.781 l -32.917,3.698"
           id="path10"
           style="display:inline" />
        <path
           d="m 755.62,360.57 h 38.385 c -2.1875,-4.114 -3.177,-9.948 -3.177,-17.656 v -44.01 c 0,-26.615 -13.386,-37.292 -48.594,-37.292 -30.885,0 -48.958,9.739 -54.479,30.156 l 36.198,3.386 c 0.573,-6.719 6.6667,-11.407 15.729,-11.407 8.6459,0 12.969,3.177 12.969,10.469 v 3.021 c -44.844,1.303 -67.5,13.854 -67.5,36.875 0,17.812 13.385,29.271 36.25,29.271 14.948,0 25.938,-5.834 32.24,-16.511 0.417,5.261 0.99,9.74 1.9792,13.698 z m -2.9687,-46.093 v 10.677 c 0,9.739 -5.8855,15.156 -15.312,15.156 -7.7084,0 -11.458,-2.969 -11.458,-9.375 0,-8.438 9.2709,-14.584 26.771,-16.458"
           fill-rule="evenodd"
           id="path9"
           style="display:inline" />
        <path
           d="m 610.57,280.26 v -21.719 h 19.896 c 8.2291,0 13.177,3.906 13.177,10.885 0,6.927 -4.948,10.834 -13.177,10.834 z m 0,51.562 V 308.02 h 20.469 c 9.2708,0 14.74,4.479 14.74,11.979 0,7.5 -5.4688,11.823 -14.74,11.823 z m -38.75,28.646 h 66.51 c 31.458,0 47.812,-12.552 47.812,-36.146 0,-16.875 -9.0624,-27.552 -26.562,-31.093 15.156,-3.75 23.229,-14.063 23.229,-29.063 0,-10.469 -4.375,-19.687 -11.823,-25.469 -9.4271,-7.5 -19.688,-8.281 -32.865,-8.281 h -66.302 v 130.05"
           fill-rule="evenodd"
           id="path14"
           style="display:inline" />
      </g>
    </g>
    <path
       d="M 877.30649,216.81811 H 2524.5979"
       fill="none"
       stroke="#000000"
       stroke-miterlimit="3.864"
       stroke-width="18.4856"
       id="path1"
       style="display:inline" />
    <g
       id="g51"
       style="display:inline"
       transform="matrix(1.6132584,0,0,1.6132584,878.36799,-115.53325)">
      <path
         d="m 550.99,176.88 c -4.1667,0.78 -6.3021,0.94 -9.0625,0.94 -8.0729,0 -12.188,-4.011 -12.188,-11.771 v -47.188 h 16.927 v -9.166 h -16.927 V 89.903 l -10.99,0.89 -0.469,18.907 h -13.281 v 9.166 h 13.281 v 45.365 c 0,15.104 7.3438,22.864 21.51,22.864 3.5417,0 5.9896,-0.16 11.198,-0.88 v -9.323"
         id="path23"
         style="display:inline" />
      <path
         d="m 502.97,109.69 h -18.333 c 0,-8.229 0,-8.646 1.4062,-12.031 1.6667,-4.74 6.7188,-7.188 14.167,-7.188 2.4479,0 4.0104,0.16 7.1875,1.093 v -9.479 c -5.3125,-0.78 -7.9167,-1.041 -11.302,-1.041 -9.5833,0 -17.24,4.583 -19.844,11.875 -1.6667,4.427 -2.1354,7.5 -2.4479,16.771 h -13.281 v 9.166 h 13.281 v 66.094 h 10.833 v -66.094 h 18.333 v -9.166"
         id="path22"
         style="display:inline" />
      <path
         d="m 426.09,107.76 c -10.99,0 -19.531,3.958 -26.406,12.5 -5.5208,6.719 -8.2292,15.729 -8.2292,26.875 0,10.521 2.4479,19.375 7.4479,26.666 6.1458,8.855 14.375,13.125 25.365,13.125 20.469,0 34.792,-16.145 34.792,-39.218 0,-23.802 -13.438,-39.948 -32.969,-39.948 z m -1.1979,9.583 c 6.25,0 12.188,3.073 15.99,8.073 3.6979,5.208 5.3646,12.083 5.3646,21.823 0,18.958 -7.8125,30.104 -21.094,30.104 -13.281,0 -20.885,-10.99 -20.885,-30.417 0,-9.114 1.8229,-16.458 5.2083,-21.354 3.3333,-4.843 9.5833,-8.229 15.417,-8.229"
         fill-rule="evenodd"
         id="path21"
         style="display:inline" />
      <path
         d="m 321.15,165.42 c 1.8229,6.563 3.8021,9.792 7.7604,13.125 6.4062,5.677 15,8.385 25.677,8.385 18.646,0 30.99,-9.27 30.99,-23.02 0,-12.24 -7.5,-19.532 -22.917,-22.292 l -14.792,-2.604 c -8.125,-1.511 -11.771,-4.896 -11.771,-10.677 0,-6.563 6.5625,-10.99 16.198,-10.99 9.5833,0 15.729,3.646 19.219,11.771 l 10.677,-2.292 c -3.6458,-12.5 -13.854,-19.062 -29.583,-19.062 -17.083,0 -28.385,8.802 -28.385,22.083 0,10.729 7.4479,18.333 20.26,20.781 l 15.885,2.917 c 8.5417,1.667 12.969,5.469 12.969,11.562 0,7.344 -7.1354,12.24 -17.552,12.24 -7.2917,0 -14.167,-2.135 -18.594,-5.677 -2.4479,-1.979 -3.6979,-4.271 -4.8958,-8.542 l -11.146,2.292"
         id="path20"
         style="display:inline" />
      <path
         d="m 285.62,107.76 c -10.99,0 -19.531,3.958 -26.406,12.5 -5.4688,6.719 -8.2292,15.729 -8.2292,26.875 0,10.521 2.4479,19.375 7.4479,26.666 6.1458,8.855 14.375,13.125 25.365,13.125 20.469,0 34.792,-16.145 34.792,-39.218 0,-23.802 -13.438,-39.948 -32.969,-39.948 z m -1.1979,9.583 c 6.25,0 12.188,3.073 15.99,8.073 3.6979,5.208 5.3646,12.083 5.3646,21.823 0,18.958 -7.8125,30.104 -21.094,30.104 -13.281,0 -20.885,-10.99 -20.885,-30.417 0,-9.114 1.8229,-16.458 5.2083,-21.354 3.3333,-4.843 9.5833,-8.229 15.417,-8.229"
         fill-rule="evenodd"
         id="path19"
         style="display:inline" />
      <path
         d="m 226.25,184.95 v -39.844 c 0.3125,-15.989 11.146,-27.291 25.312,-26.093 v -11.146 c -1.6667,-0.11 -3.3333,-0.26 -4.4271,-0.26 -5.625,0 -11.302,2.552 -14.635,6.511 -2.7604,3.385 -4.1146,5.677 -7.8125,13.177 V 109.69 h -10.208 v 75.261 h 11.771"
         id="path18"
         style="display:inline" />
      <path
         d="m 192.55,158.54 c -2.3958,12.396 -8.8021,18.802 -18.281,18.802 -12.552,0 -19.844,-11.302 -19.844,-30.208 0,-18.334 7.6042,-29.792 20,-29.792 10.052,0 16.146,6.094 18.125,18.646 l 10.573,-2.031 c -3.0729,-17.084 -13.125,-26.198 -28.542,-26.198 -19.583,0 -32.396,15.833 -32.396,39.635 0,23.958 12.552,39.531 31.771,39.531 8.3854,0 14.948,-2.552 20.312,-8.073 4.8438,-4.895 6.9792,-9.322 8.8542,-18.437 l -10.573,-1.875"
         id="path17"
         style="display:inline" />
      <path
         d="m 118.18,184.95 h 11.771 V 109.742 H 118.18 Z m -0.4688,-88.802 h 12.656 V 83.179 h -12.656 z"
         fill-rule="evenodd"
         id="path16"
         style="display:inline" />
      <path
         d="M 98.177,184.95 V 83.18 H 79.531 L 49.479,164.535 18.958,83.18 H 0 V 184.95 H 10.833 V 96.148 l 33.281,88.802 h 8.6979 l 32.969,-88.802 v 88.802 h 12.396"
         id="path15"
         style="display:inline" />
    </g>
  </g>
</svg>
