<?xml version="1.0" encoding="UTF-8" standalone="no"?>
<svg
   width="1518"
   height="375"
   fill="#007acc"
   version="1.1"
   id="svg1"
   viewBox="0 0 141.86731 35.046334"
   xmlns="http://www.w3.org/2000/svg"
   xmlns:svg="http://www.w3.org/2000/svg">
  <defs
     id="defs1" />
  <path
     id="path1"
     d="m 67.71577,12.310547 v 9.539062 h 0.798828 v -9.539062 z m 64.8789,0 v 4.070312 a 2.09,2.09 0 0 0 -2,-1.111328 2.79,2.79 0 0 0 -1.20898,0.25 2.54,2.54 0 0 0 -0.92969,0.720703 3.29,3.29 0 0 0 -0.60156,1.109375 4.51,4.51 0 0 0 -0.20899,1.419922 4.36,4.36 0 0 0 0.18946,1.351563 3.09,3.09 0 0 0 0.54101,1 2.3,2.3 0 0 0 0.84961,0.638672 2.8,2.8 0 0 0 2.44922,-0.109375 2.29,2.29 0 0 0 0.91016,-0.939453 v 1.15039 l 0.81054,-0.01172 v -9.539062 z m -36.529291,0.0098 v 4 a 2.11,2.11 0 0 0 -2,-1.109374 2.85,2.85 0 0 0 -1.210937,0.25 2.71,2.71 0 0 0 -0.929688,0.71875 3.29,3.29 0 0 0 -0.619141,1.169921 4.51,4.51 0 0 0 -0.210937,1.419922 4.35,4.35 0 0 0 0.201172,1.351563 2.92,2.92 0 0 0 0.539062,1 2.23,2.23 0 0 0 0.84961,0.638672 2.56,2.56 0 0 0 1.089843,0.230468 2.6,2.6 0 0 0 1.351563,-0.339843 2.31,2.31 0 0 0 0.919922,-0.939453 v 1.138671 l 0.820312,0.01172 v -9.541016 z m -49.464844,0.292969 a 0.85,0.85 0 0 0 -0.115234,0.0078 0.58,0.58 0 0 0 -0.400391,0.169922 0.53,0.53 0 0 0 -0.169922,0.398437 0.57,0.57 0 0 0 0.140625,0.431641 0.61,0.61 0 0 0 0.400391,0.160156 0.52,0.52 0 0 0 0.298828,-0.101562 0.39,0.39 0 0 0 0.191406,-0.119141 0.59,0.59 0 0 0 0.128907,-0.179688 0.85,0.85 0 0 0 0,-0.230468 0.59,0.59 0 0 0 -0.05078,-0.230469 0.57,0.57 0 0 0 -0.11914,-0.179688 0.76,0.76 0 0 0 -0.189453,-0.11914 0.85,0.85 0 0 0 -0.115235,-0.0078 z m 52.78711,0.0098 a 0.78,0.78 0 0 0 -0.07227,0.0078 0.54,0.54 0 0 0 -0.400391,0.169922 0.5,0.5 0 0 0 -0.169922,0.400391 0.54,0.54 0 0 0 0.169922,0.419922 0.58,0.58 0 0 0 0.400391,0.160156 0.59,0.59 0 0 0 0.230469,-0.0918 0.36,0.36 0 0 0 0.179687,-0.119141 0.46,0.46 0 0 0 0.128907,-0.179687 0.68,0.68 0 0 0 0,-0.460937 0.59,0.59 0 0 0 -0.128907,-0.179688 0.52,0.52 0 0 0 -0.189453,-0.119141 0.78,0.78 0 0 0 -0.148437,-0.0078 z m -22.861329,0.03906 a 3.88,3.88 0 0 0 -0.791015,0.107422 3,3 0 0 0 -0.919922,0.470703 2.13,2.13 0 0 0 -0.630859,0.740235 2,2 0 0 0 -0.238282,1 2.26,2.26 0 0 0 0.128907,0.769531 2,2 0 0 0 0.380859,0.640625 4,4 0 0 0 0.669922,0.570313 l 1,0.599609 0.898437,0.519531 a 3.43,3.43 0 0 1 0.63086,0.460938 1.7,1.7 0 0 1 0.380859,0.5 1.54,1.54 0 0 1 0.109375,0.628906 1.37,1.37 0 0 1 -0.5,1.140625 2.53,2.53 0 0 1 -1.541015,0.390625 3.56,3.56 0 0 1 -0.548829,0 c -0.18,-0.04 -0.380078,-0.08063 -0.580078,-0.140625 a 4.41,4.41 0 0 1 -0.560547,-0.230469 3.48,3.48 0 0 1 -0.5,-0.298828 l 0.05078,0.949219 a 2.82,2.82 0 0 0 0.449218,0.199219 4.74,4.74 0 0 0 0.570313,0.15039 4.17,4.17 0 0 0 0.599609,0.09961 3.44,3.44 0 0 0 0.509766,0 4.59,4.59 0 0 0 1.201172,-0.148438 2.74,2.74 0 0 0 0.939453,-0.451172 2,2 0 0 0 0.619141,-0.740234 2.32,2.32 0 0 0 0.220703,-1 2.11,2.11 0 0 0 -0.140625,-0.769532 2,2 0 0 0 -0.419922,-0.660156 3.54,3.54 0 0 0 -0.699219,-0.599609 10.36,10.36 0 0 0 -1,-0.589844 l -0.900391,-0.5 a 3.12,3.12 0 0 1 -0.599609,-0.451172 1.37,1.37 0 0 1 -0.339844,-0.478515 1.59,1.59 0 0 1 -0.09961,-0.611328 1.36,1.36 0 0 1 0.148437,-0.648438 1.58,1.58 0 0 1 0.421875,-0.470703 2,2 0 0 1 0.628907,-0.279297 2.61,2.61 0 0 1 0.75,-0.101562 3.66,3.66 0 0 1 1.880859,0.460937 v -0.929687 a 4.84,4.84 0 0 0 -1.78125,-0.291016 3.88,3.88 0 0 0 -0.398438,-0.0078 z m 40.328124,0.03906 a 4.54,4.54 0 0 0 -1.87891,0.36914 4.24,4.24 0 0 0 -1.42969,1 4.49,4.49 0 0 0 -0.91015,1.541016 5.57,5.57 0 0 0 -0.32031,1.898438 5.23,5.23 0 0 0 0.30078,1.800781 4,4 0 0 0 0.84961,1.419922 3.87,3.87 0 0 0 1.33007,0.939453 4.41,4.41 0 0 0 1.72852,0.330078 5.52,5.52 0 0 0 2.39062,-0.490234 v -0.798828 a 4.7,4.7 0 0 1 -2.28906,0.558593 3.45,3.45 0 0 1 -1.49023,-0.298828 3,3 0 0 1 -1.08008,-0.820312 3.65,3.65 0 0 1 -0.65039,-1.199219 5,5 0 0 1 -0.2207,-1.470703 5.11,5.11 0 0 1 0.25,-1.59961 3.67,3.67 0 0 1 0.71093,-1.269531 3.19,3.19 0 0 1 1.14063,-0.841797 3.84,3.84 0 0 1 1.55859,-0.298828 4.63,4.63 0 0 1 2.07031,0.480469 v -0.900391 a 5.78,5.78 0 0 0 -2.06054,-0.349609 z m -72.939452,0.128906 -2.660156,7.201172 c -0.06,0.16 -0.138672,0.318984 -0.138672,0.458984 a 3.56,3.56 0 0 0 -0.0918,0.390625 c -0.04,-0.15 -0.09961,-0.289687 -0.09961,-0.429687 l -0.119141,-0.400391 -2.560547,-7.201172 h -0.929687 l 3.279297,9 h 0.820312 l 3.400391,-9.019531 z m 37.53125,0.689453 -0.800781,0.271485 v 1.61914 h -1.130859 v 0.701172 h 1.130859 v 4.06836 c 0,1.199999 0.520547,1.800781 1.560547,1.800781 a 2,2 0 0 0 0.910156,-0.210938 l -0.01172,-0.648437 a 1.31,1.31 0 0 1 -0.728516,0.228515 0.84,0.84 0 0 1 -0.720703,-0.289062 1.67,1.67 0 0 1 -0.208985,-1 v -3.939453 h 1.658204 v -0.701172 h -1.658204 z m -30.550781,1.720703 a 3.15,3.15 0 0 0 -0.871094,0.121094 2.41,2.41 0 0 0 -0.71875,0.34961 1.81,1.81 0 0 0 -0.5,0.570312 1.48,1.48 0 0 0 -0.189453,0.759766 1.9,1.9 0 0 0 0.09961,0.609375 1.5,1.5 0 0 0 0.308593,0.490234 2.56,2.56 0 0 0 0.53125,0.410156 5.05,5.05 0 0 0 0.769532,0.369141 6.73,6.73 0 0 1 0.589843,0.269531 2.23,2.23 0 0 1 0.439454,0.240235 1.28,1.28 0 0 1 0.291015,0.330078 0.93,0.93 0 0 1 0.09961,0.419922 c 1e-6,0.719999 -0.479453,1.080078 -1.439453,1.080078 a 2.18,2.18 0 0 1 -0.429687,0 1.83,1.83 0 0 1 -0.460938,-0.119141 2.84,2.84 0 0 1 -0.839843,-0.451172 l 0.01953,0.880859 a 3.14,3.14 0 0 0 1.640625,0.410157 3.51,3.51 0 0 0 0.939453,-0.119141 2.41,2.41 0 0 0 0.740234,-0.351562 1.74,1.74 0 0 0 0.5,-0.580078 1.59,1.59 0 0 0 0.179688,-0.769532 1.71,1.71 0 0 0 -0.109375,-0.61914 1.29,1.29 0 0 0 -0.330078,-0.480469 2.32,2.32 0 0 0 -0.560547,-0.410156 L 50.795848,18.28125 C 50.555848,18.18125 50.344754,18.1 50.174754,18 a 2,2 0 0 1 -0.419922,-0.279297 1,1 0 0 1 -0.230469,-0.320312 1.08,1.08 0 0 1 -0.07813,-0.419922 1,1 0 0 1 0.09961,-0.429688 1.4,1.4 0 0 1 0.269531,-0.330078 1.33,1.33 0 0 1 0.429687,-0.210937 1.87,1.87 0 0 1 0.550782,-0.08008 2.83,2.83 0 0 1 1.558594,0.470703 v -0.84961 a 3.2,3.2 0 0 0 -1.458985,-0.310547 z m 87.039063,0.04102 a 2.64,2.64 0 0 0 -1.16993,0.25 2.81,2.81 0 0 0 -0.92968,0.708984 3.35,3.35 0 0 0 -0.60938,1.060547 4.14,4.14 0 0 0 -0.2207,1.339844 4.75,4.75 0 0 0 0.20117,1.429687 3,3 0 0 0 0.58008,1.060547 2.29,2.29 0 0 0 0.89844,0.660157 2.94,2.94 0 0 0 1.16992,0.228515 3.76,3.76 0 0 0 2.24023,-0.658203 v -0.800781 a 3.32,3.32 0 0 1 -2.05859,0.759765 2.21,2.21 0 0 1 -0.91016,-0.179687 1.8,1.8 0 0 1 -0.6914,-0.5 2.11,2.11 0 0 1 -0.42969,-0.800781 3.42,3.42 0 0 1 -0.16016,-1.058594 l 4.65039,0.0293 v -0.400391 a 4.4,4.4 0 0 0 -0.16992,-1.298828 2.74,2.74 0 0 0 -0.49023,-1 2.22,2.22 0 0 0 -0.79883,-0.621094 2.73,2.73 0 0 0 -1.10156,-0.208984 z m -33.39844,0.0098 a 3.45,3.45 0 0 0 -1.32031,0.228515 2.69,2.69 0 0 0 -1,0.681641 2.94,2.94 0 0 0 -0.66993,1.089844 4.11,4.11 0 0 0 -0.23046,1.439453 4.17,4.17 0 0 0 0.20898,1.359375 3.09,3.09 0 0 0 0.62109,1 2.79,2.79 0 0 0 1,0.679687 3.3,3.3 0 0 0 1.28907,0.240235 3.17,3.17 0 0 0 1.29101,-0.269532 2.68,2.68 0 0 0 1,-0.689453 3.37,3.37 0 0 0 0.61914,-1.060547 4.74,4.74 0 0 0 0,-2.789062 2.8,2.8 0 0 0 -0.54883,-1.021484 2.54,2.54 0 0 0 -1,-0.660157 3.18,3.18 0 0 0 -1.25976,-0.228515 z m 18.88867,0 a 3.45,3.45 0 0 0 -1.32031,0.228515 2.62,2.62 0 0 0 -1,0.681641 3,3 0 0 0 -0.67969,1.089844 4.35,4.35 0 0 0 -0.21875,1.439453 4.17,4.17 0 0 0 0.20898,1.359375 2.94,2.94 0 0 0 0.6211,1 2.7,2.7 0 0 0 1,0.679687 3.28,3.28 0 0 0 1.2793,0.240235 3.19,3.19 0 0 0 1.33007,-0.228516 2.64,2.64 0 0 0 1,-0.691406 3,3 0 0 0 0.61914,-1.058594 4.08,4.08 0 0 0 0.22071,-1.380859 4.36,4.36 0 0 0 -0.21094,-1.410157 3,3 0 0 0 -0.59961,-1.060546 2.47,2.47 0 0 0 -1,-0.660157 3.13,3.13 0 0 0 -1.25,-0.228515 z m -60.039058,0.04883 a 3.86,3.86 0 0 0 -0.291016,0.0098 5.45,5.45 0 0 0 -0.580078,0.140625 3.16,3.16 0 0 0 -0.539063,0.199219 2.42,2.42 0 0 0 -0.451172,0.261719 v 0.878906 A 3.13,3.13 0 0 1 63.604442,16 c 0.96,0 1.441406,0.621328 1.441406,1.861328 l -2,0.279297 a 2.93,2.93 0 0 0 -1.640625,0.679687 1.83,1.83 0 0 0 -0.539063,1.390626 2,2 0 0 0 0.138672,0.75 1.61,1.61 0 0 0 0.410156,0.580078 1.8,1.8 0 0 0 0.63086,0.378906 2.74,2.74 0 0 0 0.839844,0.130859 2.32,2.32 0 0 0 1.230468,-0.339843 2.43,2.43 0 0 0 0.859375,-1 v 1.138671 l 0.878907,0.101563 V 17.75 a 2.57,2.57 0 0 0 -0.548829,-1.798828 2.11,2.11 0 0 0 -1.630859,-0.601563 3.86,3.86 0 0 0 -0.289062,-0.0098 z m -9.310547,0.06055 v 3.800781 c 0,1.86 0.770781,2.798828 2.300781,2.798828 a 2.16,2.16 0 0 0 2,-1.25 v 1.099609 h 0.839844 v -6.439453 h -0.800782 v 3.669922 a 2.84,2.84 0 0 1 -0.128906,0.900391 2.36,2.36 0 0 1 -0.390625,0.699219 1.75,1.75 0 0 1 -0.589844,0.460937 1.88,1.88 0 0 1 -0.759765,0.160156 1.46,1.46 0 0 1 -1.259766,-0.560547 2.84,2.84 0 0 1 -0.410156,-1.708984 v -3.630859 z m 30.269531,0 v 3.800781 c 0,1.86 0.770781,2.798828 2.300781,2.798828 a 2.15,2.15 0 0 0 2,-1.25 v 1.099609 h 0.849609 v -6.439453 h -0.798828 v 3.669922 a 2.83,2.83 0 0 1 -0.140625,0.900391 2,2 0 0 1 -0.390625,0.699219 1.66,1.66 0 0 1 -0.589843,0.460937 1.88,1.88 0 0 1 -0.759766,0.160156 1.48,1.48 0 0 1 -1.259766,-0.560547 2.91,2.91 0 0 1 -0.410156,-1.708984 v -3.630859 z m -38.289063,0.0098 v 6.439453 h 0.859375 v -6.439453 z m 52.859375,0 v 6.439453 h 0.800782 v -6.439453 z m 31.701172,0.541016 a 2.08,2.08 0 0 1 0.79882,0.160156 2,2 0 0 1 0.6211,0.429688 1.88,1.88 0 0 1 0.39844,0.628906 2.09,2.09 0 0 1 0.15039,0.791016 v 1.080078 a 2.54,2.54 0 0 1 -0.15039,0.878906 2.29,2.29 0 0 1 -0.41993,0.730469 2.16,2.16 0 0 1 -0.66992,0.480468 2.1,2.1 0 0 1 -0.8789,0.179688 1.9,1.9 0 0 1 -0.83008,-0.179688 1.82,1.82 0 0 1 -0.63086,-0.509765 2.35,2.35 0 0 1 -0.41992,-0.820313 4,4 0 0 1 -0.13868,-1.089843 3.78,3.78 0 0 1 0.15821,-1.160157 2.42,2.42 0 0 1 0.45117,-0.861328 2,2 0 0 1 0.67969,-0.548828 2.17,2.17 0 0 1 0.88086,-0.189453 z m -25.84961,0.002 a 2,2 0 0 1 1.42968,0.6875 3,3 0 0 1 0.57813,2 4,4 0 0 1 -0.14844,1.140625 2.11,2.11 0 0 1 -0.42969,0.830078 2,2 0 0 1 -0.71093,0.529297 2.33,2.33 0 0 1 -1,0.179687 2.45,2.45 0 0 1 -1,-0.189453 1.9,1.9 0 0 1 -0.72071,-0.53125 2.49,2.49 0 0 1 -0.46875,-0.830078 3.38,3.38 0 0 1 -0.16015,-1.089843 3.72,3.72 0 0 1 0.16015,-1.148438 2.49,2.49 0 0 1 0.46875,-0.851562 2,2 0 0 1 0.73047,-0.529297 2.49,2.49 0 0 1 1,-0.189453 2,2 0 0 1 0.27149,-0.0078 z m -10.662108,0.0078 a 2,2 0 0 1 0.791015,0.160156 1.86,1.86 0 0 1 0.619141,0.429687 1.91,1.91 0 0 1 0.410156,0.628907 2.3,2.3 0 0 1 0.121094,0.771484 l 0.0098,1.089844 a 2.54,2.54 0 0 1 -0.15039,0.878906 2,2 0 0 1 -1.080078,1.210937 2.14,2.14 0 0 1 -0.890625,0.179688 1.83,1.83 0 0 1 -1.458985,-0.689453 2.34,2.34 0 0 1 -0.410156,-0.820313 3.64,3.64 0 0 1 -0.150391,-1.089843 4.12,4.12 0 0 1 0.169922,-1.150391 2.59,2.59 0 0 1 0.451172,-0.859375 1.94,1.94 0 0 1 0.689453,-0.550781 2.14,2.14 0 0 1 0.878907,-0.189453 z m 29.281248,0 a 2,2 0 0 1 1.60937,0.669921 3,3 0 0 1 0.58008,2 4,4 0 0 1 -0.15039,1.138672 2.13,2.13 0 0 1 -0.43945,0.830078 1.84,1.84 0 0 1 -0.69922,0.53125 2.56,2.56 0 0 1 -1.91016,0 1.94,1.94 0 0 1 -0.73047,-0.53125 2.47,2.47 0 0 1 -0.46093,-0.830078 3.38,3.38 0 0 1 -0.16016,-1.089843 3.72,3.72 0 0 1 0.16016,-1.148438 2.34,2.34 0 0 1 0.4707,-0.851562 2,2 0 0 1 0.73047,-0.529297 2.45,2.45 0 0 1 1,-0.189453 z m 14.52929,0 a 1.55,1.55 0 0 1 1.26954,0.558593 2.42,2.42 0 0 1 0.48046,1.560547 h -3.79882 a 3.06,3.06 0 0 1 0.23828,-0.890625 2.24,2.24 0 0 1 0.4414,-0.658203 1.85,1.85 0 0 1 0.60938,-0.419922 1.91,1.91 0 0 1 0.75976,-0.15039 z m -72.939445,2.519531 v 0.630859 a 2.75,2.75 0 0 1 -0.140625,0.878906 2.14,2.14 0 0 1 -0.410156,0.689454 2,2 0 0 1 -0.619141,0.451171 1.86,1.86 0 0 1 -0.791015,0.169922 1.6,1.6 0 0 1 -0.558594,-0.08984 1.09,1.09 0 0 1 -0.419922,-0.25 1,1 0 0 1 -0.271484,-0.38086 1.28,1.28 0 0 1 -0.08984,-0.480469 1.44,1.44 0 0 1 0.09961,-0.580078 1,1 0 0 1 0.291016,-0.398437 1.73,1.73 0 0 1 0.509766,-0.25 5.22,5.22 0 0 1 0.740234,-0.160156 z" />
  <path
     id="path2"
     style="display:inline"
     d="M 25.893504,1.1855469 V 29.316406 L 1.3231911,25.666016 25.893504,33.935547 34.094676,30.537109 V 4.5957031 Z m -8.599609,4.8007812 -7.5292976,7.4199219 -4.53125,-3.400391 -1.859375,0.621094 4.5996093,4.558594 -4.5996093,4.560547 1.859375,0.621094 4.53125,-3.400391 7.5292976,7.458984 4.5,-1.919922 V 7.9160156 Z m 0,5.3007809 v 7.798829 l -5.179688,-3.900391 z" />
</svg>
