<?xml version="1.0" encoding="UTF-8" standalone="no"?>
<!-- Created with Inkscape (http://www.inkscape.org/) -->

<svg
   version="1.1"
   id="svg1"
   width="1489"
   height="500"
   viewBox="0 0 1489 500"
   xmlns="http://www.w3.org/2000/svg"
   xmlns:svg="http://www.w3.org/2000/svg">
  <defs
     id="defs1" />
  <g
     id="g1">
    <path
       id="path3"
       style="display:inline;fill:#0066ff;fill-opacity:1;stroke-width:1.08381"
       d="M 255.24219,12.09375 A 238.69341,238.69341 0 0 0 16.548828,250.78711 238.69341,238.69341 0 0 0 152.93945,465.90625 c 0.47876,0.30155 1.22692,0.63203 1.98243,0.97852 a 238.69341,238.69341 0 0 0 20.5625,8.35937 c 0.007,0.005 0.0229,0.0126 0.0293,0.0176 0.39557,0.30994 2.48284,0.97213 4.92188,1.66211 A 238.69341,238.69341 0 0 0 255.24219,489.48047 238.69341,238.69341 0 0 0 493.93555,250.78711 238.69341,238.69341 0 0 0 255.24219,12.09375 Z m 145.40234,155.33398 c 1.3453,0.0499 2.12169,1.04601 3.22656,2.59766 2.12126,2.97841 2.12305,3.07244 2.12305,81.17383 0,77.44652 -0.02,78.21899 -2.06836,81.0957 -1.13746,1.5974 -2.82496,2.89255 -3.75,2.87696 -1.98871,-0.0334 -8.29998,-4.22302 -24.81836,-16.47266 -13.19873,-9.78786 -34.50346,-25.39289 -43.55664,-31.9043 l -5.69336,-4.0957 -0.0351,-31.5 -0.0332,-31.5 5.01367,-3.5 c 2.75742,-1.925 6.00885,-4.33932 7.22657,-5.36524 1.21771,-1.02592 3.33984,-2.59742 4.71484,-3.49218 1.375,-0.89476 2.95,-1.96846 3.5,-2.38477 3.16847,-2.39832 24.52509,-18.00934 27.29102,-19.94922 1.81012,-1.26952 4.82306,-3.43359 6.69531,-4.80859 12.95436,-9.51383 17.59576,-12.86686 20.16406,-12.77149 z m -296.82226,0.27149 h 88.83593 88.83594 l 6.43555,2.8418 c 16.06326,7.09062 26.03816,19.24602 29.01758,35.36328 0.65223,3.52816 1.04687,27.63482 1.04687,63.96289 v 58.30078 l -2.91797,3.26562 -2.91797,3.26563 -84.83203,0.13672 c -46.65774,0.075 -87.30703,-0.23882 -90.33203,-0.69727 -16.6486,-2.52318 -33.02238,-18.05973 -36.93945,-35.05078 -0.62135,-2.69521 -1.020159,-27.80414 -1.035159,-65.08203 l -0.02539,-60.69531 2.414059,-2.80469 z" />
    <path
       id="path2"
       style="display:inline;fill:#0066ff"
       d="m 1181.2562,148.10982 v 103.05273 103.05469 l 5.75,-0.54883 c 10.8443,-1.03555 13.4657,-1.52783 16.6055,-3.12109 6.1854,-3.13876 11.5042,-8.36375 14.2675,-14.01172 3.0944,-6.32463 2.8601,-1.52076 3.7696,-77.33594 0.335,-27.92333 0.6619,-33.56307 2.3144,-40.05078 3.304,-12.97159 11.9736,-22.65713 24.793,-27.69727 5.8038,-2.28185 8.4525,-2.73776 15.5,-2.66406 7.2563,0.0758 9.451,0.53369 15,3.12109 3.575,1.66697 8.4073,4.43774 10.7383,6.15821 5.1634,3.81087 10.7267,12.05613 12.2363,18.13281 0.6148,2.475 1.5675,5.65269 2.1152,7.06055 0.597,1.53468 1.13,22.75888 1.3321,53 0.36,53.88863 0.5668,56.2984 5.4355,63.42773 5.9916,8.77375 13.8166,12.68946 27.8321,13.92383 l 6.1914,0.54492 0.332,-64.72851 0.3301,-64.72852 2.4218,-7.23828 c 1.332,-3.98146 4.0328,-9.37117 6.002,-11.97656 13.819,-18.28398 39.6687,-22.30311 57.5332,-8.94532 5.3329,3.98755 10.1984,9.13821 10.9902,11.63282 0.3539,1.11507 1.015,2.02734 1.4668,2.02734 1.2752,0 3.8145,11.49598 4.8594,22 0.5198,5.225 0.9833,28.625 1.0313,52 0.096,46.57892 0.3351,48.8096 6.0546,56.70508 3.2647,4.50679 10.103,9.50605 15.2207,11.125 1.8573,0.58751 6.6435,1.20349 10.6368,1.36914 l 7.2617,0.30078 -0.043,-67.5 c -0.023,-37.125 -0.4319,-69.3 -0.9082,-71.5 -6.3071,-29.13041 -25.5895,-51.36113 -53.4746,-61.64844 -14.2656,-5.26282 -39.181,-5.45436 -53.6074,-0.41406 -10.6462,3.71954 -21.3694,10.09727 -29.0039,17.25391 l -6.6055,6.19336 -6.4394,-5.94141 c -3.5417,-3.26794 -6.744,-5.94301 -7.1172,-5.94336 -0.3732,-3.6e-4 -1.2732,-0.57954 -2,-1.28711 -2.1115,-2.05569 -11.9606,-7.30196 -16.3223,-8.69531 -2.2,-0.7028 -4.45,-1.60206 -5,-1.99805 -2.4645,-1.77442 -14.9292,-3.37749 -25.957,-3.33789 -15.7128,0.0564 -26.3961,2.75533 -39.9414,10.0918 l -5.5254,2.99218 -3.9024,-2.86914 c -4.652,-3.42113 -16.2721,-8.50399 -21.1738,-9.26171 -1.925,-0.29757 -5.1875,-0.80711 -7.25,-1.13282 z m -630.53514,0.0898 0.62305,8.79297 c 0.35845,5.06897 1.36152,10.35121 2.36914,12.47461 2.84534,5.99611 9.08158,12.26808 15.26172,15.34961 l 5.78125,2.88281 54.75,0.29102 c 30.1125,0.1596 54.75,0.66046 54.75,1.11328 0,0.45283 -27.45712,28.88034 -61.64258,62.54101 l -62.51758,61.55664 -0.0527,9.08594 c -0.0782,13.38958 6.79337,21.06458 17.83789,27.53711 3.50189,2.05224 6.39975,2.79851 12.70508,3.26758 4.49317,0.33426 43.57343,0.60742 86.84375,0.60742 h 78.67187 l -0.0586,-4.91992 c -0.14653,-12.13043 -1.45584,-14.31264 -3.8457,-18.39063 -3.36049,-5.73424 -8.69343,-10.93911 -14.71094,-13.63086 l -6.56057,-2.93359 -54.46484,-0.10156 -54.70508,-0.0234 12.20508,-12.5 c 6.71322,-6.875 34.54033,-34.775 61.83594,-62 l 49.62695,-49.5 -0.46289,-9.5 c -0.54876,-11.238 -2.2612,-15.79573 -8.29883,-22.09766 -5.84403,-6.09985 -10.79807,-8.09408 -22.30859,-8.98242 -5.82896,-0.44985 -45.03076,-0.84114 -87.11524,-0.86914 z m 306.51954,0.94922 c -14.12251,-0.42642 -32.41228,0.84174 -35.48438,2.99805 -0.55,0.38604 -3.025,1.27765 -5.5,1.98046 -12.72471,3.61338 -26.03646,12.08847 -38.56836,24.55274 -10.96645,10.90727 -12.80339,13.36783 -19.3457,25.94922 -8.5364,16.41621 -11.43669,29.84525 -10.81446,50.07031 0.50665,16.46833 3.06632,27.24615 9.6875,40.79883 6.86785,14.05756 17.85522,28.0053 28.0254,35.57422 1.9332,1.43875 3.74062,2.88159 4.01562,3.20703 0.68397,0.80943 11.92228,7.91992 12.51758,7.91992 0.26285,0 3.33394,1.35 6.82617,3 3.49224,1.65 6.91295,3 7.60156,3 0.68862,0 2.67118,0.66692 4.4043,1.48242 1.73312,0.8155 5.62539,1.91385 8.65039,2.44141 3.025,0.52755 13.6,0.81579 23.5,0.64062 16.94706,-0.29984 18.52647,-0.49515 27,-3.3457 4.95,-1.66521 11.25,-4.03675 14,-5.26953 6.59621,-2.95695 19.84756,-11.86607 25.57227,-17.19336 8.85363,-8.23898 20.27883,-23.325 21.57423,-28.48633 0.3134,-1.24865 0.9546,-2.26953 1.4238,-2.26953 0.4691,0 1.3633,-1.9125 1.9883,-4.25 0.6251,-2.3375 1.942,-6.05 2.9258,-8.25 2.6416,-5.90718 6.3494,-29.85697 5.6504,-36.5 -1.0865,-10.32568 -4.4049,-26.49281 -6.3633,-31 -1.0753,-2.475 -2.2606,-5.7375 -2.6328,-7.25 -0.3722,-1.5125 -1.1186,-2.75 -1.6582,-2.75 -0.5395,0 -0.9805,-0.64463 -0.9805,-1.43359 0,-1.66331 -10.6073,-17.61763 -14.7129,-22.12891 -2.6581,-2.9207 -11.82983,-11.25021 -15.89648,-14.4375 -9.89395,-7.75453 -27.95885,-15.62372 -41.39062,-18.0293 -3.06339,-0.54864 -7.30812,-0.87934 -12.01562,-1.02148 z m 204.873,0.30078 c -14.8474,0.4441 -17.1879,0.76853 -25.3574,3.52344 -10.0699,3.39574 -17.76,6.699 -21.5,9.23437 -1.375,0.93213 -5.0413,3.37864 -8.1465,5.4375 -3.1052,2.05885 -8.67287,6.73788 -12.37297,10.39844 -20.6698,20.44882 -30.87121,46.17743 -30,75.65625 0.4205,14.22933 1.6194,21.21978 5.4883,32 3.8845,10.82376 7.4438,17.54985 14.5136,27.41992 1.9066,2.66169 18.04157,18.57225 21.37697,21.08008 9.411,7.07615 31.0288,16.47015 42.1406,18.3125 5.5147,0.91435 34.2381,0.6183 39.2012,-0.4043 29.8244,-6.14504 57.7898,-27.26553 70.4375,-53.19726 1.9344,-3.96626 4.006,-8.10986 4.6035,-9.20899 1.1188,-2.0581 4.1397,-12.55957 5.8984,-20.50195 1.2308,-5.55985 1.203,-29.99313 -0.041,-36.04492 -2.7924,-13.58521 -9.8597,-31.3586 -15.0937,-37.95508 -1.0909,-1.375 -4.0715,-5.33922 -6.6231,-8.80859 -4.539,-6.17147 -16.9199,-17.26858 -24.8828,-22.30274 -5.7728,-3.64958 -16.284,-8.53053 -21.5,-9.98437 -2.475,-0.68986 -4.95,-1.57921 -5.5,-1.97657 -2.6862,-1.94075 -17.2756,-3.13736 -32.6426,-2.67773 z m -212.28511,39.19922 c 6.50869,-0.006 12.9928,0.82103 17.92773,2.47851 10.90777,3.66357 19.83151,9.18603 26.76758,16.56446 5.38512,5.72856 11.26486,14.54789 12.73242,19.09961 0.69287,2.14898 1.62049,4.36747 2.06055,4.92773 1.75242,2.23105 3.18895,15.20534 2.64843,23.91992 -0.59752,9.63367 -3.42951,18.79867 -8.49023,27.47071 -2.45936,4.21435 -3.60022,5.70324 -8.89844,11.625 -6.04457,6.75594 -15.97318,12.63646 -27.59765,16.3457 -7.25427,2.31475 -19.68944,3.32114 -26.22266,2.12109 -16.8637,-3.09759 -31.79431,-12.27048 -41.41406,-25.44336 -8.42283,-11.53388 -11.35374,-20.96262 -11.36524,-36.55859 -0.009,-12.02744 1.12766,-17.6874 5.40821,-26.93555 7.1707,-15.49233 20.86174,-27.30511 38.37109,-33.10547 5.03029,-1.6664 11.56357,-2.50394 18.07227,-2.50976 z m 217.78321,0.004 c 6.2241,0.10302 12.497,0.94635 17.1445,2.50391 17.2595,5.78432 29.1127,15.62535 37.7891,31.375 5.1599,9.36648 8.3713,26.05517 6.6562,34.58594 -2.6676,13.26847 -3.3928,15.78272 -6.2168,21.52344 -7.5992,15.44814 -21.7783,27.28396 -38.9551,32.51953 -9.2981,2.83412 -24.8335,3.4136 -30.2734,1.1289 -1.1,-0.46199 -4.7,-1.61935 -8,-2.57226 -3.3,-0.95291 -6.675,-2.26605 -7.5,-2.91797 -0.825,-0.65193 -2.7547,-1.81552 -4.2891,-2.58399 -4.0491,-2.0278 -14.2981,-11.55563 -17.6152,-16.37695 -3.9437,-5.73191 -7.0916,-11.46408 -7.1016,-12.91992 0,-0.67077 -0.7138,-2.56875 -1.5781,-4.21875 -2.6322,-5.02456 -3.906,-19.24033 -2.5703,-28.68555 0.6397,-4.52336 1.6106,-8.67121 2.1582,-9.21875 0.5475,-0.54754 0.9961,-1.60836 0.9961,-2.35742 0,-2.35452 4.9823,-12.01408 8.8184,-17.09766 7.6571,-10.14699 19.8433,-18.37681 33.6816,-22.74609 4.4559,-1.4069 10.6313,-2.04442 16.8555,-1.94141 z" />
  </g>
</svg>
